<?xml version="1.0" encoding="UTF-8"?>
<svg id="Layer_2" data-name="Layer 2" xmlns="http://www.w3.org/2000/svg" viewBox="0 0 597.92 337.42">
  <defs>
    <style>
      .cls-1 {
        fill: #231f20;
      }

      .cls-2 {
        fill: #e87624;
      }
    </style>
  </defs>
  <g id="Layer_1-2" data-name="Layer 1">
    <g>
      <path class="cls-1" d="M432.59,39.65c.62,6.94,1.59,13.9,1.61,20.86.83.19,1.01-.27,1.49-.75.75-.77,5.51-7.9,5.43-8.39-.11-.69-1.43-1.31-1.2-2.38.12-.54,1.62-2.34,2.1-2.42.37-.06,5.67,3.62,6.19,4.19,1.1,1.18,1.29,1.56.6,3.14-1.44,3.31-2.63-.27-4.4,1.1l-10.19,14.79c-5.16,2.41-3.72-4.56-4.02-7.51-.46-4.41-1.47-8.74-1-13.24-1.15-.29-.82.22-1.14.63-1.08,1.39-5.57,7.31-5.38,8.56.06.4,1.23-.1,1.03,1.48-.22,1.73-1.23,2.89-2.99,2.06-.31-.15-5.28-3.74-5.5-4-1.07-1.27-.38-3.48,1.01-4.01.82-.32,1.5.33,2.23.27,1.08-.1,5.23-5.98,6.16-7.33.57-.83,2.89-3.97,3.02-4.53.29-1.25-2.45-2.81.3-4.66,1.56-1.05,3.13,1.72,4.65,2.15Z"/>
      <path class="cls-1" d="M159.22,72.93c0,7.32-5.94,13.26-13.26,13.26s-13.26-5.94-13.26-13.26,5.94-13.26,13.26-13.26,13.26,5.94,13.26,13.26ZM143.78,64.64c-9.52,1.31-8.33,15.69,1.35,16.38,13.46.95,11.71-18.17-1.35-16.38Z"/>
      <path class="cls-1" d="M366.13,10.21c6.13-.88,14.4,1.97,16.27,8.44.39,1.34.03,7.63-.43,8.88-3.47,9.46-15.23,11.05-22.23,4.28s-3.82-20.14,6.39-21.61ZM374.07,15.25c-3.41-2.87-9.56-1.28-11.75,2.63-6.34,11.27,8.96,18.82,14.03,9.03,2.06-3.98,1.12-8.8-2.27-11.66Z"/>
      <path class="cls-1" d="M299.73,20.13c.73.44,1.22,3.94-1.08,4.27-.2.03-2.85.08-2.99.06-2-.33-4.5-5.38-6.09-6.45s-5.5-.45-4.27,2.55c2.67-1.05,3.99,2.21,2.93,3.92-.26.42-6.77.93-7.83.97-1.22.04-1.88-.43-2.09-1.67-.65-3.75,2.54-2.16,2.96-3.53.16-.51-.47-2.01-.49-2.92-.04-1.66.02-12.24-.49-12.74-.18-.17-1.7.27-2.26-.49-.39-.53-.36-2.67-.72-3.52,5.32.12,13.8-2.15,18.24,1.49s3.18,12.11-1.75,14.74c.99.54,1.7,2.63,2.48,3,1.14.55,2.85-.05,3.44.31ZM285.3,13.57c3.85.09,8.68.42,8.52-4.73s-5.21-5.03-9.02-4.76l.5,9.49Z"/>
      <path class="cls-1" d="M219.87,35.07c.23-.24,1.81.36,2.01-1.28.42-3.32-4.29-10.95-4.54-14.71-2.88.85-4.11-.58-3.94-3.46,4.64-.84,9.51-3.72,14.17-4.06,9.89-.71,16.48,7.57,12.9,16.88-1.32,3.42-2.38,4.17-5.64,5.85-1.68.87-11.99,4.77-13.27,4.75-1.42-.03-1.86-3.8-1.7-3.97ZM233.67,16.74c-3.51-2.68-8.63-.9-12.32.34l4.45,14.26c.33,2.25,5.48.01,6.89-.69,3.41-1.7,4.62-5.52,4.04-9.21-.18-1.14-2.2-4.04-3.07-4.7Z"/>
      <path class="cls-1" d="M126.92,91.97c2.49-.15,3.63-1.76,6.18-.43,2.75,1.44,3.81,5.05,3.07,7.94-.43,1.7-8.13,12.75-9.04,12.96-.45.1-3.11-1.82-3.18-2.3-.11-.73,1.48-1.38.75-2.69-.17-.31-4.73-3.88-5.53-4.49s-5.73-4.34-6.1-4.44c-1.36-.36-1.8,1.28-2.39,1.33-.62.06-2.76-1.7-2.68-2.54.05-.57,6.08-8.24,6.9-9.1,5.22-5.47,12.52-4.7,12.02,3.77ZM120.78,89.04c-.87.13-5.22,4.16-5.33,4.75-.15.87,4,4.19,4.71,4.2,1.03.01,3.63-3.72,3.75-4.81.18-1.71-1.35-4.39-3.13-4.14ZM128.27,95.06c-1.76.28-4.23,3.72-5.26,5.16,0,.4,4.29,4.08,4.65,4.11,3.05.25,7.36-10.33.61-9.27Z"/>
      <path class="cls-1" d="M402.63,26.47c-.86.5-2.66-.65-2.9-.41-.07.07-.08,1.24-.4,1.85-2.06,3.97-5.3,7.09-4.62,11.92.47,3.34,4.98,5.65,7.97,3.93,2-1.15,7.91-11.1,6.8-12.7-.24-.35-1.22-.33-1.31-.81-.16-.9,1-2.61,1.07-3.65.62-.45,7.84,3.05,8.47,3.72.78.83-.12,3.41-.55,3.72-.59.43-2.02-1.08-3.2.02-1.73,1.62-3.79,8.81-6.48,11.52-6.42,6.45-18.44,1.19-17.71-7.69.31-3.79,5.8-11.32,5.46-13.51-.13-.86-1.05-1.37-1.01-2.49.07-1.88,1.26-2.57,3.02-2.08.36.1,5.75,2.78,6,3.01.95.9.05,3.29-.6,3.67Z"/>
      <path class="cls-1" d="M164.31,43.61c.22.12,1.16,2.19,1.13,2.67-.11,1.33-1.64,1.09-1.54,1.5.12.51,5.08,8,5.73,8.76.68.8,2.7,2.63,3.64,2.87,3.52.9,7.96-2.21,7.52-6-.19-1.63-6.61-11.79-7.64-11.75-.28,0-.71.68-1.13.8-1.18.34-3.35-1.93-3.16-3.12.07-.45,7-4.87,7.76-4.81.95.08,2.39,1.78,2.2,2.7-.17.81-1.62.91-1.24,2.33.44,1.64,5.19,6.85,6.33,9.21,4.65,9.61-7.49,19.35-15.26,13.26-2.93-2.3-5.99-9.06-7.97-10.53-1.3-.96-2.31.43-3.27-.17-.29-.18-1.38-2.25-1.35-2.54.06-.83,7.33-5.7,8.27-5.16Z"/>
      <path class="cls-1" d="M263.32,9.58c-.1-.47.15-1.85,0-2.01-.44-.47-7.53.14-7.91,1.8-.09.41,1.04,5.24,1.38,5.49,1.42,1.03,5.29-2.06,5.95.03,1.28,4.07-1.77,3.66-4.92,3.67l.51,5.99c1.7-1.51,6.68-.27,7.41-2.35.43-1.22-.54-2.93,2.32-2.65,1.98.19,2.69,5.66,2.05,6.53-.48.66-14.1,2.21-16.09,3.43-2,1.23-3.04-3.44-2.67-3.94.23-.32,2.46-.28,2.51-.81.13-1.58-1.77-10.96-2.25-13.22-.83-3.92-1.73-1.69-3.18-2.56-.46-.27-1.87-2.99.18-3.39,5.6-1.1,11.32-1.78,16.91-2.98.57.17,1.83,5.2,1.73,5.66-.26,1.15-2.89,1.45-3.92,1.3Z"/>
      <path class="cls-1" d="M345.26,5.58c-1.15-2.41,3.59-1.49,3.93-.93.23.37-.67,7.62-.96,7.89-.26.24-2.42.05-2.98-.22-.9-.43-2.03-3.73-3.73-4.76-8.34-5.02-16.89,7.16-8.71,14.2,2.56,2.2,5.55,1.89,8.72,1.82,1.48-.03,2.87-1.27,3.23.73.7,3.86-3.01,3.89-6.17,3.69-10.45-.63-17.06-9.03-12.25-19.12,3.6-7.55,13.03-8.91,18.92-3.31Z"/>
      <path class="cls-1" d="M480.18,89.48c-.27.25-1.83,6.03-2,6.99.25.23,6.29-.43,6.68-.56.98-.33.93-4.65,4-3.97.45.1.61,1.44,1.07,2.01,1.06,1.3,4.25,3.98,3.68,5.68-.19.56-2.11,1.77-2.72,1.85-1.05.14-.71-.93-1.21-1.26-1.55-1.01-4.65.48-6.39.61-.83.06-1.61-.4-2.31-.32-2.64.31-7.22.71-8.59,3.45-.5,1,1.02,1.52.74,2.63-.13.51-2.03,2.42-2.63,2.31-1.01-.18-6.02-6.64-5.76-7.6.1-.4,1.94-2.26,2.26-2.32.86-.15,1.31,1.25,2,1.39,1.04.21,3.56-2.32,4.1-3.25.66-1.12,3.74-9.93,3.88-11.16.19-1.71-1.08-3.73,1.21-4.77,1.66-.75,6.14,5.06,6.42,6.11s-.98,2.19-1.93,2.45c-1,.27-2.38-.42-2.5-.31Z"/>
      <path class="cls-1" d="M356.76,323.71c-.08.12.06.47,0,.73,8.31,7.01-.99,14.89-9.6,11.6-3.37-1.29-4.43-4.68-3.87-8.06.37-2.21,2.96-3.05,2.96-3.53,0-.2-1.9-1.91-2.25-3.23-2.78-10.46,16.18-10.88,15.27-.76-.27,3.05-2.17,2.74-2.52,3.25ZM350.63,316.79c-3.05.63-3.17,5.08-.01,5.8,6.27,1.43,5.22-6.88.01-5.8ZM349.62,326.8c-2.48.72-2.78,5.26.12,6.16,7.45,2.31,7.59-8.4-.12-6.16Z"/>
      <path class="cls-2" d="M192.75,326.07c-.57.56-1.82.57-2.6.64-15.66,1.33-33.15-1.05-49.01,0-3.04-.19-3.81-4.15-.5-4.55l51.75.27c.96.81,1.32,2.7.37,3.63Z"/>
      <rect class="cls-2" x="398.68" y="322.2" width="54.51" height="4.52"/>
      <path class="cls-1" d="M230.09,313.71c1.35.42.54,5.2.75,6.49-4.49,1.28-3.21-3-3.5-3h-7c-.56,1.11-.32,5.23.22,6.02.98,1.44,5.64-1.46,5.3,2.19-.27,2.86-4.6.89-5.49,1.8-.19.2.02,4.5-.52,5.47,2-1.13,5.19.49,6.68-.05,1.27-.46.08-3.44,2.83-2.73,2.49.65,1.21,4.33,1.49,6.28-3.58.08-7.18-.11-10.77-.02s-7.3,2.44-6.73-3.48h2.5c-.03-2.3,1.37-14-.09-14.91-.51-.32-1.49.29-1.98-.36-.25-.33-.56-3.7.31-3.7h15.99Z"/>
      <path class="cls-1" d="M333.6,315.38c4.46,4.21,2.53,13.04-1.38,17-.83.84-6.1,4.53-7.1,4.92-1.84.72-3.45-2.33-2.61-3.63,3-1.67,5.72-3.15,7.76-5.98-7.52,3.27-13.24-2.88-10.11-10.36,1.93-4.62,9.89-5.3,13.44-1.95ZM331.14,318.33c-1.52-1.62-5.69-1.89-6.63.85-2.54,7.38,6.87,7.84,7.29,2.26.07-.87-.06-2.47-.66-3.11Z"/>
      <path class="cls-1" d="M446.76,78.06c1.04-.61,2.07,1.55,3.92.69,2.36-1.1,6.78-7.92,9.25-9.75,1.01-1.42-.56-2.65-1.76-3.26-.76-.39-3.93,2.48-4.4-1.09-.14-1.04,3.55-6.18,5.2-4.15,1.63,2.71,13.04,11.21,13.24,13.28s-5.5,6.34-6.47,2.37c-.27-1.11,1.24-1.63.74-2.63-.47-.94-2.09-2.32-3.27-1.78-2.44,1.12-6.86,8.58-9.79,10.26-.5.98,1.14,1.55.72,3.12-.17.63-1.48,1.88-2.18,1.88-.63,0-6.18-4.79-6.51-5.52-.39-.87.93-3.18,1.33-3.42Z"/>
      <path class="cls-1" d="M249.72,317.82c-1.5-1.54-7.49-1.08-5.37,3.5.32.68,5.48,2.66,6.65,3.46,7.18,4.92,3.41,13.71-4.8,12.28-.99-.17-2.59-1.22-3.11-1.18-.78.05-1.96,1.62-3.79.57l-.45-5.08c-.83-2.01,3.63-1.99,3.95-1.65.15.15-.21,1.39.51,2.23,1.32,1.53,5.08,1.56,6.65.27,4.22-3.48-7.14-6.44-8.87-8.54-3.29-4.01-.02-9.71,4.7-10.24,1.48-.17,2.83.55,4.27.68.7.06,1.58-.52,2.47-.42,2.44.29,2.12,6.66.03,7.03-2.83.51-1.97-1.99-2.86-2.91Z"/>
      <path class="cls-1" d="M197.81,27.5c-.41.56-2.93.03-2.37,2.69,1.78,1.59,5.45,11.97,6.4,12.63,1.08.76,5.42-1.45,6.31-2.28,1.05-.98-.87-4.03,2.46-4.05,1.8,0,4.29,5.29,2.44,6.49l-14.97,7.04c-1.02.09-1.74-2.01-1.71-2.78.05-1.17,1.4-.97,1.53-1.54.18-.78-5.92-14.15-6.57-14.62-.51-.37-2.02.85-2.96.26-.28-.18-1.4-2.29-1.38-2.54.04-.54,7.1-4.62,8.17-4.73,2.14-.22,3.44,2.34,2.64,3.44Z"/>
      <path class="cls-1" d="M268.82,317.7c-.73.12-3.84-.17-4,0-.65.68,1.83,3.43-3.5,2.5.23-1.23-.65-6.12.79-6.43,2.15.06,4.9.49,6.96.49,2.76,0,4.51-.17,7.47-.03,2.22.11,3.86-2.03,4.3,2.19.23,2.18.16,5.71-3.04,4.04-1.36-.71-.21-3.34-4.49-2.26.21,1.94-.54,14.47,0,14.99.19.18,2.32-.19,2.5,0,.13.12.12,3.38,0,3.5-.32.32-8.25.31-9.03-.22-.66-.45-.69-2.7-.25-3.32.54-.75,2.28-.35,2.28-.46v-14.98Z"/>
      <path class="cls-1" d="M376.74,317.71c-1,.17-6.27-.24-6.5,0-.35.36,1.37,3.89-3.18,2.43-1.21-.39-1.01-4.08-.72-5.07.78-2.66,7.93-.89,10.14-.8,1.9.07,4.75-1.76,5.77,1.21l-8.29,20.2c-.75,1.5-5.12,1.76-4.63-.61l7.39-17.35Z"/>
      <path class="cls-1" d="M310.29,332.69c.24.25,5.33-1.54,4,3.5-2.04-.47-11.35,1.37-12.39-.11-.25-.36-.76-2.76-.13-3.15,1.01-.63,3.68.06,4-.26.62-.6.66-12.32,0-12.94-1.68-.65-4.27,1.95-5.15-.13-.49-1.15-.63-2.05.47-2.84.33-.24,7.16-2.9,7.56-2.96.63-.1,1.63.16,1.63.67,0,2.46-.63,17.57,0,18.23Z"/>
      <g>
        <path class="cls-1" d="M125.66,190.36l14.25,42.95,14.73-41.45h8.49c.05,0,.75.7.75.75v81.4c0,.05-.7.75-.75.75h-9.74v-51.44l-13.24,35.45-12.74-34.96v51.94c-3.46.65-6.98.52-10.49.5v-85.9h8.74Z"/>
        <path class="cls-1" d="M352.76,272.76l-10.49-.5v-46.69c0-.3.81-1.02.49-1.75l-.75.49-10.36,27.6-2.37,4.87-12.99-32.95c.08,3.07-.13,6.18-.03,9.26.36,11.04,1.8,26.76.55,37.46-.06.5-.23,1.72-.77,1.72h-9.74v-77.91h9.49l13.99,38.95,13.45-38.63c1.27-.97,9.54-1.36,9.54-.07v78.16Z"/>
        <path class="cls-1" d="M73.95,189.11c.35-2.18,1.88-.78,3.25-.75,10.42.24,27.75-.92,30.88,12.08,1.01,4.2.95,27.78.3,32.58-.56,4.12-4.47,6.19-4.5,9.54l5.04,34.2c-1.88.13-9.94,1.26-10.78.03l-4.21-31.99h-8.99v33.46c-1.38-.66-10.99,1.35-10.99-.25v-88.89ZM84.94,233.31h7.25c3.35,0,5.49-3.24,5.77-6.22.36-3.79.59-18.69-.12-21.89-.37-1.67-3.67-4.85-5.14-4.85h-7.74v32.96Z"/>
        <path class="cls-1" d="M407.22,192.85c4.25-.05,8.51.06,12.76.02,2.09-.02,4.05-.68,6.49-.54,6.24.36,12.96,3.85,14.75,10.23,1.04,3.72,1.03,25.54.43,29.95-.56,4.12-3.52,5.27-4.7,7.79-.98,2.11,4.19,27.45,4.67,32.27.09.9.11,1.79.07,2.68l-10.44-.56c-1.13-2.67-3.73-30.91-5.3-30.91h-7.49c-.05,0-.75.7-.75.75v29.71l-10.49-.5v-80.9ZM417.72,233.31h8.24c1.92,0,4.74-2.93,5.13-4.86.53-2.58.52-18.16,0-20.75-.37-1.81-2.06-3.59-3.78-4.21-1.4-.51-9.59-1.37-9.59.1v29.71Z"/>
        <path class="cls-1" d="M66.96,279.25l-10.5.5-2.46-18.26c-3.72.28-9.89-.35-13.28.28-.57.11-1.02.17-1.18.82l-2.3,18.18c-.52.74-8.58.62-10.27.98l13.52-95.86,11.72.47,1.15.85,13.59,92.04ZM40.97,250.29h11.99l-5.75-43.95c-.97-.36-1.1,2.21-1.18,2.81-1.96,13.66-2.98,27.5-5.06,41.14Z"/>
        <path class="cls-1" d="M207.86,193.35c11.52,1.17,28.53-3.14,33.86,10.35.45.91.54,1.86.63,2.86.49,5.41.74,20.92-.05,25.96-.53,3.37-4.95,6.89-4.99,8.49l4.97,31.19c-3.39.95-6.96.43-10.44.54l-4.5-29.46h-8.99v29.46c-.64-.27-1.48.5-1.75.5h-8.74v-79.9ZM218.35,233.31h8.24c1.98,0,4.76-2.85,5.13-4.86.49-2.71.51-17.69-.12-20.12-.51-1.96-3.56-4.48-5.51-4.48h-7.74v29.46Z"/>
        <path class="cls-1" d="M460.69,226.81l13.23-35.96c.93-1.12,9.11-.04,11.25-.99-4.34,14.5-10.63,28.37-15.52,42.7,4.68,14.85,11.03,29.17,16.03,43.93.01.87-10.41-.64-11.43-.31l-13.56-35.39v34.21c0,1.8-9.63-.33-10.99.25v-83.15c0-1.17,6.01-.71,7.24-.75.7-.02,3.75-1.12,3.75.25v35.21Z"/>
        <path class="cls-1" d="M592.09,199.35c-.46.35-3.33-2.89-4.36-3.38-5.12-2.43-11.31,1.22-12.08,6.67-.34,2.38-.38,15.35.23,17.16,1.22,3.63,10.2,5.75,13.68,7.8,1.94,1.15,4.61,3.33,5.64,5.35,3.11,6.06,3.06,26.3,2.26,33.43-1.81,16.02-16.64,23.37-29.58,12.86-1.1-.89-5.26-4.78-5.03-6.02.14-.72,4.53-9.23,5.02-9.45.82-.37,2.87,4.11,4,4.48,5.24,4.99,13.85,3.62,14.73-4.23.44-3.94.55-16.19-.03-19.95-.81-5.23-11.27-7.41-15.42-10.55-1.57-1.19-3.76-3.61-4.62-5.37-3.06-6.24-2.7-26.17,0-32.64,5.19-12.42,19.61-18.12,29.85-7.64.53,1.09-4.09,9.47-4.28,11.47Z"/>
        <path class="cls-1" d="M400.23,273.76h-9.74c-.19,0-1.04-.97-1.14-1.36-.32-1.92-1.64-14.94-2.41-15.15l-14.11.1c-1.07.67-1.38,13.75-2.81,15.42-1.32,1.54-8.1-.64-10.25,0l13.56-78.83c.55-.68,12.2-.9,12.95-.36l13.96,80.19ZM385.74,247.79l-5.75-40.46-5.75,40.46h11.49Z"/>
        <path class="cls-1" d="M502.66,266.27l15.99.5c.32,3.77.22,7.87,1,11.48l-27.48-.99.03-87.37,27.46-1.52-.97,11.17c-.06.23-1.64.81-1.78.81h-13.49c-.05,0-.75.7-.75.75v24.47c0,.05.7.75.75.75h11.74v10.74c0,.05-.7.75-.75.75h-11.74v28.47Z"/>
        <path class="cls-1" d="M0,183.37l27.48,1.5-.5,12.49-16.49-.5v29.96h10.99v12.48h-10.24c-.05,0-.75.7-.75.75v42.7l-10.49,1v-100.38Z"/>
        <polygon class="cls-1" points="199.36 263.27 199.87 273.76 172.89 274.25 172.89 192.36 200.36 193.36 199.36 203.84 183.38 203.34 183.38 226.81 195.87 226.81 195.87 237.3 183.38 237.3 183.38 263.27 199.36 263.27"/>
        <path class="cls-1" d="M281.77,197.9c.42.6-3.93,7.82-4.71,8.93-4.69-5.62-15.46-5.06-16.26,3.23-.24,2.5-.27,8.07.01,10.52.58,5,8.7,5.87,12.49,7.49,6.16,2.62,9,5.49,9.52,12.46.39,5.22.59,18.41-1.14,22.87-5.09,13.08-25.3,13.67-33.31,3.05l4.45-8.17c2.07.75,3.22,2.71,5.34,3.9,5.24,2.93,12.9,1.89,14.02-4.77.48-2.83.46-10.93.12-13.86-.76-6.61-10.02-6.81-15.01-9.47-3.63-1.94-6.49-5.25-6.98-9.51-.36-3.18-.46-16.52.24-19.24.65-2.54,3.95-6.81,6.02-8.46,7.62-6.08,17.86-4.74,25.18,1.04Z"/>
        <path class="cls-1" d="M537.13,199.35l-11.51.29c-.71-.52-.92-10.07-.99-11.78l35.48-2c-.67,2.24-.03,10.69-1.13,11.85-.06.06-1.53.63-1.62.63h-8.99c-.05,0-.75.7-.75.75v81.15c-.7.29-1.5-.5-1.75-.5h-7.99c-.05,0-.75-.7-.75-.75v-79.65Z"/>
      </g>
      <path class="cls-2" d="M259.32,85.48c1.15-4.27,7.39-6.76,11.49-6.49-1.37-3.03,1.09-5.72,1.03-8.22-.06-2.35-1.65-4.48-2.56-6.49-1.52-3.39,5.54-.91,7.02-.27.18-1.76.94-3.87,1.91-5.34,3.79-5.75,3.55,1.31,4.6,4.34.48.36,7.84-3.65,10.97-1.24,1.58,1.22-2.41,4.04-3.01,4.96-.4.61-.62,1-.47,1.77,1.69-.76,9.52-.35,9.51,1.75,0,1.49-5.2,2.6-6.46,5.06-2.26,4.43,1.35,21.07,3.08,26.26,2.18,6.56,6.42,15.29,13.84,16.88v-16.23c0-1.64,1.83-8.65,2.48-10.51,4.38-12.48,14.64-17.86,27.61-15.07,13.53,2.9,12.58,15.32,7.13,25.33-.89-3.72-2.42-7.6-6.08-9.4-8.49-4.17-15.14,2.08-17.4,9.89,13.78-11.98,28.75,2.34,15.25,15.49-.78-12.31-12.87-12.34-16.99-2,3.27-.08,5.73-1.5,9.13-.87,7.98,1.47,6.97,17.79-1.13,18.86.51-5.07-.06-11.42-6.77-10.51-3.77.51-3.7,8.78-4.76,12.23-1.41,4.59-4.39,9.96-8.85,12.13-.99.48-3.77.94-4.16,1.46-.36.49-3.85,10.02-3.97,10.9s-.17,3.71,0,4.43c.25,1.09,11.77,1.13,13.76,1.33,7.43.76,16.11,2.08,23.24,4.24,1.56.47,4.04.94,5,2.24h-97.93c-.27-1.43.39-.8,1.09-1.13,4.44-2.07,12.3-3.43,17.28-4.22,7.94-1.26,16.06-1.92,24.1-2.13-.13-1.99.24-4.17-.12-6.13-.16-.85-4.19-10.64-4.66-11.32-.79-1.15-3.09-2.2-4.22-3.27-10.56-9.98-16.07-22.04-11.98-36.71-7.52.6-4.69-5.4-2.11-9.35,1.68-2.58,7.07-7.04,7.13-9.37.04-1.78-1.68-3.25-3.27-3.25h-9.74ZM294.13,155.44c-1.32.39-5.41,7.54-3.61,9.48.46.67,8.61.73,9.31.25.78-.54.63-4.33.21-5.27s-4.63-4.84-5.91-4.46Z"/>
    </g>
  </g>
</svg>