<?xml version="1.0" encoding="UTF-8"?>
<svg id="Layer_2" data-name="Layer 2" xmlns="http://www.w3.org/2000/svg" viewBox="0 0 511.31 460.25">
  <g id="Layer_1-2" data-name="Layer 1">
    <g>
      <path d="M0,343.32c5.08,8.19,10.13,7.67,18.97,6.5-.73,1.37-5.5,8.32-6.36,8.67-4.74,1.9-9.1-1.29-12.61-4.19v-10.98Z"/>
      <path d="M200.61,251c1.82-11.67,15.48-19.53,15.85-31.33-5.51-3.16-12.08-.06-17.82-2.63-.53-.24-5.33-5-5.55-5.5-1.26-2.8,2.28-7.23-4.45-6.95.29,3.63,2.14,5.46,2.07,9.47-.14,7.92-5.72,15.22-.54,23.48l-8.47,7.54-14.04-.02c-6.24-3.2-12.25-4.48-17.46-9.51-5.72-5.52-2.95-4.4-4.66-10.31-.09-.33-3.71-5.3-4-5.47-4.38-2.58-14.18,6.18-18.76,1.27l6.99-2.51c-1.55-5.83-2.42-12.37,2.97-16.44-5.45-6.52-10.03-3.57-16.96-2.49.92,5.43-1.16,17.53,6,17.97.32,2.47-2.48,3.59-4.39,3.91-1.53-.36-4.6-9.24-4.9-11.12-.36-2.27.66-4.19.3-6.19-.32-1.79-2.18-2.85-2.02-4.99.2-2.86,4.16-6.25,7.01-6.59-5.45-4.04-1.14-11.85,2.96-15.49,1.5-1.33,4.28-2.11,4.78-2.71.91-1.11.29-3.61,2.3-5.19,3.3-2.61,8.96,1.22,12.43-3.51,1.63,4.05,4.66,6.75,6.91,10.04.93,1.35.94,3.83,1.79,4.69,1.54,1.56,7.52,1.38,9.7,2.77,1.84,1.18,4.38,6.71,6.67,8.3,5.59,3.9,10.55,1.41,16.13.35,1.16-.22,2.84.78,3.09.64.2-.11,1.06-2.64,2.59-3.88,1.89-1.53,5.99-2.53,6.97-4.01,1.36-2.05,1.35-7.48,3.06-9.91,1.38-1.97,3.41-1.72,4.91-3.08,1.35-1.22,2.27-4.67,3.56-5.48,3.46-2.17,8.04,5.28,11.96,4.53,1.53-8.47-6.63-15.91-8.51-22.92-2.63-9.8,10.01-18.86,16.03-24.95,5.78-5.85,9.36-13.14,18.4-14.56,8.57-1.34,16.21,3.81,23.99,6.54.35-3.99-.51-8.53.06-12.42.19-1.32,1.4-2.28,1.65-3.34,2.38-10.12,5.44-22.53,16.91-10.28,2-1.43,5.55-2.31,7.26-3.48,8.12-5.58,7.67-18.83,19.04-20.39.24-1.8-2.18-.91-3.23-.74-3.52.57-6.15,2.27-10.15,1.72-2.29-.32-3.72-1.98-5.54-2.49-.84-.24-12.37-1.71-10.52-4.47,2.45-2.11,5.73-1.95,8.56-3.42,4.44-2.31,7.48-6.39,13.44-6.6,4.04-.14,13.93,3.16,16.79,5.97,1.4,1.38-.49,3.76,2.64,3.05-1.26-6.51-6.42-11.05-12.96-11.98-.27-1.66,2.38-1.04,3.51-1.02,2.61.05,4.98.78,7.46.53-6.27-6.43-15.59-9.63-22.95-2.99-.38,1.56,1.33,2.1,2.4,2.57,1.77.77,5.19.14,5.57,1.89-6.94,2.55-13.94-.12-20.96,0-1.1-6.03,3.87-4.65,7.5-6.97,2.97-1.9,5.88-7.07,9.1-8.86,8.74-4.86,20.49.9,26.31,7.85.92-2.66-10.08-12.39-3.63-11.86,5,1.73,6.11,6.38,8.63,10.38l2.01-1.03c-.64-11.17-10.74-18.06-20.96-19.43l7.98,8.48c-4.3,4.57-12.97-10.42-13.47-13.38-.34-2.04,1.42-4.04,1.51-6.08l5.65,5.81,20.72,9.14c2.43-6.35,11.19-8.6,14.48-12.52,2.13-2.53,1.89-8.19,6.04-8.42l-2.98,21.95c7.05-4.84,14.3-8.41,19.94-14.97-1.35,7.09-2.12,17.27-7.96,21.96l1.98-11.98c-4.99,3.51-8.75,8.28-10.97,13.96,1.4,1.14,14.27-8.15,1,5.99,6.45,2.2,8.14-4.77,12.68-5.77,6.4-1.41,11.49-.38,18.77-3.18,3.8-1.47,5.96-3.52,9.46-5,1.39,1.53-7.84,16.43-10.97,13.96l.48-3-11.44,3.05c2.24,3.76-1.22,3.59-2.68,5.29-2.94,3.43-3.55,5.61-8.84,6.63l.5-4.45c-1.23-2-2.21-.86-3.98-.51v-4s-4.98,2-4.98,2c.31-3.45-2.33-5.07-5.48-5.02-2.53.04-5.84,2.87-5.53-.96-3,2.58-3.76,3.61-7.48,1.02l-1.01.97c.4,6.23-8.95,9.12-10.26,15.77-.9,4.6,3.92,4.72-4.2,6.7,3.28.75,1.51,3.51,2.54,6.45,1.26,3.61,6.98,6.83,5.45,12.01l3.96.03c1.29,11.55,5.88,1.48,8.48.38,1.47-.63,5.23.8,7.5-.07,1.66-.63,5.24-3.59,7.11-4.72,2.31-1.39,4.81-.62,6.38-4.58l2.48,2.97c-.84-4.86,5.97-6.99,6.05-7.5.42-2.46-1.32-3.53-1.57-4.96-.69-3.99-.72-2.97-1.39-5.14-.07-.22-.02-4.47.06-4.69.17-.48,7.24-5.01,8.45-5.54,10.3-4.58,19.23,1.15,29.33-4.09,1.8,1.78-11.62,14.85-12.98,15.45-2.96,1.31-8.44.07-11.96,2.52-1.51,1.58.17,1.77,1.5,1.96,5.31.77,13.8,2.98,18.5,1.56,2.37-.72,4.06-3.75,6.93-3.53,2.41,2.62-11.56,16.68-14.48,17.95-3.74,1.64,1.53-5.86,1.48-6.49-.49-5.88-21.03,2.77-22.92,7,10.33.65,19.54,5.68,29.93,4.49-1.82,8.85-14.23,11.34-21.95,10.96l13.97-6.97-16.96-3.99c-.57.44,4.87,4.48,1.48,5.97l-6.47-2.98c8.59,5.37,4,17.04,13.95,20.45-9.96,6.17-23.92,10.6-32.44,18.44-2.62,2.41-4.21,5.44-6.42,7.56-8.47,8.12-17.21,13.07-18.99,26.38l3.81.91c.71-2.61,2.57-3.62,5.16-3.91l-1-3.96h3.98c1.38,5.41-3.18,6.26-4.84,10.3l4.87,8.65c1.67,1.15,7.32-5.68,4.97-7.97,5.49,1.74,9.02-3.15,14.56-3.91,15.94-2.21,30.46,8.08,31.28,24.53.09,1.91-1.17,7.05-.9,7.3.37.35,3.51-.47,3.46,2.02,4.6-6.24,10.81-10.81,16.15-16.3.57-.58.34-2.29,1.32-3.12,1.55-1.31,5.88-1.11,6.84-4.16-2.84-5.8-3.26-10.15-2.57-16.56.4-3.71,3.79-12.24,3.67-14.29-.1-1.65-1.98-2.38-1.99-3.95,0-.69,2-.32,2.06-1.08.13-1.79-2.96-5.63,2.91-3.47l1.05-5.94-7.45,1.05-1.52-3.05-.5,3.98c-2.55-3.2-3.07-8.06-1.49-11.96l2.98,1.5-2.99-4.97c1.84-2.83,2.21.07,3.5.07.82,0,2.38-2.01,4.48-.59.25,4-4.41,5.23-2.98,9.97,1.97.03,1.09-4.2,2.12-4.85,3.13-1.97,6.98,1.77,7.35,4.85l5.25-5.47c.22-2.68-9.11-8.5-11.23-8.5h-24.95c-.76,0-5.91,2.85-6.48.01l19.49-4.97c1.49-12.94,5.67-23.74,17.11-30.8,2.13-1.31,9.76-3.94,10.12-4.35.84-.98.41-6.79,3.65-9.82,1.57-1.47,6.99-3.85,9.25-4.73,2.94-1.14,21.73-7,23.55-6.93,5.36.21,7.17,6.32,3.15,9.67l-2.62-4.85c-2.94-.55-5.82-.11-8.7.51s-17.22,4.91-19.03,5.92c-1.43.8-6.31,6.35-5.07,7.4,5.84-.81,11.27,4.1,10.98,9.99,3,.76,1.43-1.88,2.98-3.48,4.99-5.18,5.51,5.1,8.48,4.46,3.43-.73,3.33-13.88,8.56-10.49,1.01.66.39,3.63,2.92,2.51l5.5-13.95c3.26,3.8,1.15,13.8-1.47,17.47s-6.38,2.93-9.22,4.5c-7.98,4.39-3.23,3.4-14.02,6.2-1.88.49-3.86,2.97-6.45,3.52-7.49,1.6-6.89-2.67-7.89-2.85-5.75-1.03-17.37,15.7-16.27,21.95,5.37,1.6,9.43,4.11,12.38,8.93,4.18-3.4,10.27-1.95,14.56-3.29,3.05-.96,6.97-6.11,11.51-6.54,7.19-.68,19.37,5.05,26.96,5.87,6.46.7,12.03-1.16,18.36-.88v3.98c-6.46-.99-13.25,1.34-19.44,1-7.05-.39-25.5-7.7-30.89-3.91-3.11,2.18-2.17,13.46,2.13,14.74,6.28,1.86,14.15-10.64,17.38,2.03,5.15,1.23,7.19-3.97,11.37-5.62,6.17,8.73,10.73,7.86,19.44,2.75,2.04,7.81-6.02,10.25-12.33,9.92-2.7-.14-6.67-2.57-8.13-2.56-1.98.02-4.49,2.02-8.97,1.62s-6.08-2.99-8.36-3.48c-3.11-.67-8.57,1.48-13.15.03-3.06-.97-3.7-4.32-4.65-4.56-2-.51-7.66.1-8.81,2.01-.79,1.32,1.74,20.98,1.56,25.5s-3.78,20.06-2.89,22.74c1.86,5.63,22.05,1.39,19.78,14.08-1.11,6.21-8.66,7.37-12.46,10.52-2.48,2.06-3.54,5.32-6.54,7.44-2.27,1.61-6.02,2.21-7.48,3.5-1.64,1.46-2.02,5.01-4.39,7.59-2.56,2.78-5.63,3.38-8.54,5.43l-1.5,9.48c16.25-.21,26.06,12.84,33.13,25.79,8.53,15.6,14.92,32.66,23.6,48.25,7.33,13.16,16.36,25.36,24.12,38.24l-10.47-1c-6.85-11.62-14.77-22.56-21.88-34.01-8.97-14.45-16.85-30.75-26.11-44.75-5.69-8.6-14.24-20.59-25.89-20.13-5.12.2-9.41,8.59-10.03,13.02-1.19,8.56,10.11,17.13,16.05,21.99,23.91,19.55,51.85,33.48,63.36,64.88l-9.82-.15c-13.49-31.52-46.65-42.52-71.52-62.7-1.14.02-6.37,16.83-5.03,18.95.67,1.07,6.6,3.39,8.45,4.56,15.91,10.1,30.8,22.6,40,39.33l-12.97-.49c-9.45-15.35-23.96-27.11-40.45-34.28l-2.4,4.74c13.91,6.57,26.2,16.49,33.87,30.03-3.72-.51-9.64,1-12.96-.51-3.97-1.8-18.05-20.6-23.37-19.38l-8.75,19.73-6.83.16,5.94-25.89c-28.2-10.83-62.73-6.82-87.11,11.09-3.72,2.73-13.74,13.41-15.66,14.28-2.82,1.28-6.9.2-9.96.51,25.29-34.96,75.35-48.93,115.76-33.92l1.01-5.99c-46.17-13.71-101.12-.84-128.75,39.92h-29.94c13.68-24.14,40.53-45.25,67.11-53.16,5.96-1.77,13.05-3.85,19.22-3.74,1.19.02,3.73-.71,3.49,1-31.85,5.38-63.18,24.79-80.84,51.91h16.47c15.58-18.74,33.83-34.65,57.37-42.44,14.95-4.94,36.72-7.51,52.41-6.46,3.81.26,25.28,4.83,26.37,3.88l6.07-24.85c-3.72,3.04-7.78-.57-10.05-.53-3.94.07-7.93,1.96-13.43,1.56-8.41-.61-7.47-.95-16.04-.07-7.83.81-16.51-4.21-15.35-12.93,5.15,1.56,5.44,6.35,11.46,7.01,9.08,1,11.56-5.28,16.98-6.03,3.01-.42.66,3.27,1.64,4.87,8.81,3.23,18.33-.23,25.32-5.84l.5,3.99c4.86.4,8.93-5.11,10.22-9.28.89-2.88-.08-4.24.27-5.82.14-.63,7.33-11.88,3.96-11.86-4.54,2.39-11.48,4.13-11.46-2.98,4.87.15,10.77.64,13.97-3.99-2.39-.17-4.71-.83-6.99-1.51-3.3-.99-10.07-3.27-13.55-3.44-2.79-.14-5.53,2.05-8.91,2.04-3.74-.02-6.36-2.74-7.98-2.72-2.82.03-6.64,2.34-12.01,1.65-3.48-.44-5.01-2.8-6.99-3-2.64-.26-5.93,2.05-8.88,1.91-2.75-.12-6.49-2.92-8.91-2.67-2.93.3-4.5,3.12-10.15,2.81-4-.22-5.98-2.61-8.11-2.82-2.68-.26-7.31,2.52-12.77,1.68-2.99-.46-5.66-2.97-9.05-2.95-2.92.02-6.1,2.26-9.27,2.2l-.31,3.34c3.27,4.31,17.49,4.21,22.5,3.41,1.1-.17,9.97-5.2,8.53-1.45-3.44,9.01-20.71,10.62-28.81,8.63-1.15,7.31-8.28,10.6-15.09,10.85,3.37,12.31,13.92,21.02,26.99,18.5,4.48-.86,7.5-4.24,11.93-4.53-.33,5.46-5.63,6.68-9.97,7.99-.28,2-.17,1.63,1.23,2.23,6.83,2.96,9.42-2.74,14.33-3.24,3.38-.34,5.93,2.14,8.82,1.96s5.46-3.12,7.9-4.14c4.08-1.71,1.94,2.75-.38,4.63-5.93,4.81-10.9,2.81-17.35,3.61-3.53.43-5.54,2.03-10.08,1.99-5.5-.06-19.02-2.36-22.97-6.02l-17.41-22.99c-2.76,7.84-3.98,17.25-7.81,24.63-2.23,4.3-5.83,6.82-7.66,11.29-2.92-2.26.47-5.2.5-8.46.13-14.26-10.81-27.41-11.86-41.06-.54-6.97,1.81-13.91,1.88-20.83l-1.98-.5c-5.19,7.15-5.15,16.72-8.26,24.19-2.28,5.49-12.64,18.65-17.24,22.68-2.13,1.86-11.4,8.74-13.51,9.53-1.44.54-4.92-.27-4.92-.52,0-4.26-.6-10.59,0-14.47ZM350.3,34.93c1.97-7.49,3.93-14.03,3-21.96-4.32,2.69-9.25,5.3-9.85,10.58-.7,6.15-.33,10.75,6.85,11.39ZM399.22,48.91c-6.07.65-17.66-.15-17.95,7.98,5-4.46,16.18.31,17.95-7.98ZM318.38,59.87c-6.93-6.9-18.77-6.15-26.94-1.97-.51,2.33.31,1.6,1.28,2.22,9.6,6.2,15.52,2.25,25.66-.25ZM447.14,75.85c6.11-4.61.52-10.5-7.03-8.51-14.26,3.75-24.83,18.72-23.92,33.46l6.95-.05c-.72-11.12,11.96-26.14,22.62-27.79,2.39-.37,1.13,1.47,1.38,2.89ZM323.36,72.87c-12.47-4.16-21.02,1.84-23.94,13.95,7.68.07,15.77-2.01,19.96-8.97-4.23-1.42-6.43,3.07-8.5,3.97-3.63,1.59.42-4.35,3.23-5.76l9.25-3.2ZM325.36,83.84c-5.99-.5-11.82,4.28-12.97,9.97,6.26,1.01,11.2-4.45,12.97-9.97ZM311.39,86.83c-7.52,3.11-14.53,5.99-22.95,4.99-.68.66,3.93,9.95,4.78,11.68.95,1.91,3.15,3.3,3.76,5.22s1.38,11.08,2.44,12.04l13.7-4.76c5.97-3.03,3.18-15.78,5.25-21.19-5.5-.21-9.46,6.43-14.96,3.98l7.97-11.96ZM379.25,103.79c-1.07-8.24-4.68-18.27-14.96-16.96.69.94,6.53,6.8,2.5,6.95-.92.03-8.57-5.5-11.48-3.96-.89,4.64,3.04,3.32,5.54,4.93,1.85,1.19,2.5,4.19,4.49,5.49,3.77,2.47,9.91.73,13.91,3.54ZM293.19,108.01c-.35-.57-2.22-.74-3.19-2.28-3.03-4.84-7.51-23.88-15.55-13.44-5.1,6.62,3.91,9.74,2,12.48l-4.99,1.02,3.99,3.97-3.99,2,4.97.51-4.95,3.99,3.97,3.48-3.97,1.51,3.97,1.51c.55,2.8-.94,1.79-2.86,2.08l-.15,3.89,3.99.99-3.84,1.16-.14,3.84c2.37-.58,5.41-.5,6.81-2.66,3.46-5.35-3.34-4.08-1.82-9.31l12.97,2-.99,3.98c4.25-2.1,7.73-2.68,6.95-8.39-.14-1.04-2.87-11.79-3.2-12.33ZM327.36,130.74c.77,2.38,5.49,16.16,1.48,16.96-2.56.51-4.93-10.41-11.94-11.07-14.28-1.34-12.62,13.49-9.49,23.05l18.26-4.18c3.79-4.74,5.86-10.48,9.69-15.26,4.92-6.14,12.5-12.32,18.52-17.49-.11-3.18-1.66-4.83-1.66-8.49-.01-5.94,4.57-16.63-.91-20.95-.84-.66-7.54-3.39-8.3-3.29-3.2.45-10.22,9.5-13.16,11.76-1.87-2.01,5.4-8.28,4.5-8.97-8.24-2.64-11.96,5.57-12.86,12.58-1.05,8.18,1.8,2.78,4.88,1.79,2.17-.69,3.13.77,5.9-.92,6.22-3.79,2.8-12.6,10.06-11.47-1.53,11.79-1.66,19.34,8.97,26.45-2.45,2.97-8.45-1.63-10.45-3.51-3.44-3.23-3.86-6.04-5.99-9.94-3.61,1.5-6.27,4.59-9.61,6.4-2.26,1.22-4.25.3-5.87,2.08,4.79,5.42,5.85,7.86,7.98,14.45-.19-.86-6.23-8.15-7.61-8.85-9.01-4.6-17.92,2.85-23.98,8.69l-8.32,4.14c3.63-.73,8.05.79,11.31.64,3.55-.16,7.47-2.44,10.21-2.57,1.78-.08,13.16,1.26,13.98,1.86,1.83,1.33,1.9,5.21,4.4,6.07-.41-2.96.61-7.28,0-9.98ZM382.25,107.77c-3.39-6.1-12.7-.88-18.28-4.17-2.82-1.66-2.62-6.93-6.67-6.79,3.1,7.87-4.41,15.03-.99,22.95l25.93-11.99ZM455.11,109.79c-7.25-.37-16.89,3.24-21.95,8.48-5.67,5.88-12.95,32.95-12,40.94.75,6.29,6.64,11.06,11.5,14.44,1.5-4.41-3.94-8.77-5.02-12.93-2.2-8.46,6.81-34.39,14-39.95,4.96-3.83,6.12-2.57,11.41-2.39,3.63.13-.63-5.75,2.06-8.58ZM269.47,133.73c-1.39-10.59,1.74-14.84-9.99-19.44-7.72-3.03-21.49-4.92-26.36,3.55-.96,1.67-1.25,5.15-1.8,5.69-1.01,1.01-9.5,3.09-10.75,6.71,4.6.53,8.73-1.86,13.44-1.53,11.91.84,28.12,17.88,34.97,26.97,2.27.42,1.36-.99,1.48-2.47.42-5.33-1.97-13.52-4.97-18s-11.79-8.61-16.99-8.97c9.76-5.36,13.49,4.58,20.96,7.48ZM443.13,128.75c-3.18-.49-6.1,5.93-4.88,7.87l4.88,1.1v-8.97ZM229.55,134.74c-4.9-.96-15.03,3.13-16.54,7.94-2.03,6.47,5.27,13.83,6.57,19.99,2.36-1.72,2.27-5.9,4.11-8.34,1.3-1.72,3.27-2.23,4.72-4.27,1.12-1.57,3.65-7.98,4.08-9.91s-.8-1.98-1.96-.95c-1,.88-5.66,12.91-7.96,10.5,0-6.3,7.49-9.14,6.98-14.96ZM274.46,178.64c.4-.41-1.75-9.71-2.27-11.2-1.54-4.44-16.08-21.87-20.18-24.74-3.76-2.64-8.23-3.66-12.75-2.75-6.88,1.37-5.2,5.28-7.31,9.65-2.25,4.66-7.11,6.91-8.91,12.05-1.27,3.61.17,6.83-4.46,9.51,4.67.85,9.33,1.91,13.97,2.98,9.82,2.25,9.9-.15,18.45.52,5.18.41,10.1,3.16,15.29,3.77,2.73.32,5.26-1.3,8.17.21ZM293.42,154.69l-8.33,1.92c-2.69-.89-3.18-15.48-9.1-7.87-5.52,7.08.33,21.62,2.42,29.49l10.87-.74c1.58-5.3,5.65-9.2,9.14-13.32-3.79-1.53-4.57-5.75-5-9.48ZM444.13,147.72l-8.98-1.01c-.11,7.59-1.24,14.85,5.49,19.95l3.49-13.94-5.97-1.51,5.97-3.48ZM331.37,202.59c9.89-4.43,10.92-18.99,8-28.47-4.78-15.52-16.04-16.2-30.25-11.22-17.54,6.15-18.61,18.46-12.61,34.62l15.21-.96,2.2,4.06c6.78-2.61,14.26-7.87,17.45,1.96ZM386.23,199.6c12.67-20.73-7.27-46.31-29.96-35.47-13.03,6.22-8.03,12.58-7.9,24.04.03,2.49-1.22,5.25-1.06,6.92.31,3.18,5.53,3.25,5.02,7.5.83.68,8.32-8.08,14.69-5.25,1.46.65,2.92,2.97,3.9,3.14.88.15,4.82-2.85,7.89-2.93s4.61,1.57,7.43,2.05ZM133.49,171.92c-.54-.67-2.85-1.59-3.79-.85-2,8.01-1.57,5.05-6.69,7.23-1.67.71-4.29,6.15-4.19,7.87.35,6.46,10.8,4.52,14.9,6.44l5.09-14.35c-5.4-1.09-3.72-4.37-5.32-6.34ZM198.61,182.64c8.64,2.37,15.11-6.1,7.48-11.97-1.61,7.15-9.73,2.97-7.48,11.97ZM421.39,181.92c.62-.7,3.64-.61,5.33-2.22,4.1-3.9,1.25-7.13-3.06-8.81-1.1,2.28-6.38,3.84-6.99,4.77-.68,1.01-.15,2.75-.74,3.73-.4.66-2.34.72-2.59,1.8s1.44,2.78.43,4.44c-1.2,1.98-7.66,2.66-8.55,4.5l2.97,2.98-1.97,3.49h4.99s-.59-3.05-.59-3.05c5.85-.66,5.43-5.96,7.5-8.3.81-.92,2.34-.35,2.83-.87s.04-2.01.45-2.47ZM235.27,178.9c-1.55-1.66-13.97-4.13-16.45-4.05-3.25.11-1.81,6.74-1.01,9.05.67,1.94,3.08,2.95,3.99,4.99,1.01,2.26,1.03,8.98,3.33,9.69,4.04,1.24,15.08-14.4,10.14-19.68ZM155.45,185.89c-2.17-1.98-8.85-.48-11.21-5.27-.76-1.53.26-4.09-1.5-3.97.98,3.26-2.48,6.29-2.72,8.6-.13,1.24.81,2.67.69,3.86-.31,3.14-1.55,6.16-.98,9.5l11.97-.51c-5.92,6.67-23.66,2.14-19,15.06,3.21,2.02,7.3-2.45,7.73-2.55,5.19-1.15,11.2,1.07,15.29-5.49,2.53-4.06,3.48-15.8-.27-19.23ZM255.5,179.63c-1.53-3.16-11.09-2.45-13.73-1.25-3.5,1.6-3.43,6.01-3.22,9.24l16.95-8ZM445.14,200.6c3.45-4.89,17.58-11.33,16.98-17.43-.49-5.04-10.22-4.76-14-4.52,2.89,7.52-1.97,14.58-2.99,21.95ZM211.45,187.5c.45-2.08.51-5.17-1.85-5.86-.91,5.03-6.86,5.6-10.98,3.99l-1.01,4.99,13.83-3.11ZM281.44,181.64c-20.63,2.7-34.18,29.28-32.82,48.27.96,13.37,11.54,25.63,10.88,39.55,1.51-.23,2.21-3.4,2.74-4.74,7.44-18.81,6.51-37.26,10.69-56.18,2.08-9.42,7.44-17.47,8.51-26.91ZM261.49,183.65c-4.75-.07-9.74,1.4-14.01,3.45-25.38,12.18-24.28,28.4-32.88,51.95-2.66,7.28-6.07,14.27-9,21.43,7.93-2.66,15.09-10.93,19.78-17.64,11.32-16.21,7.27-34.86,24.62-50.24,3.75-3.33,8.8-4.7,11.5-8.95ZM213.45,213.44c-.94-8.81,6.56-16.29-2.89-22.37l-18.06,4.99c-2.36,6.02,3.4,5.81,3.99,6.66,1.2,1.73-2,6.5,4.16,10.31,3.91,2.41,8.66,2.03,12.79.41ZM163.69,200.6c7.25-3.99,15.98-1.5,22.46,2.8,2.79-.98,3.56-6.92,1.55-8.36-2.68-1.92-11.18,2.37-14.67,2.52-3.86.17-9.8-3.69-9.33,3.04ZM310.13,200.86c-4.27-3.56-17.08,3.98-18.69,9.21,4,3.77,8.72,2.42,13.02.07,2.56-1.4,9.25-6.29,5.67-9.28ZM291.43,201.61c-7.73-2.16-11.79-.3-14.97,6.97l2.98-1,.03,2.98c1.9,1.82,13.51-4.69,11.96-8.95ZM321.1,201.78c-2.62.56-12.86,8.74-11.25,10.83,3.79,3.33,13.96,1.16,17.05-1.97,4.65-4.72-.53-9.98-5.8-8.85ZM349.32,213.57c7.02-.04,12.64-3.11,16.94-8.48-1.02-1.06-2.43-2.68-3.86-3.01-4.48-1.03-14.17,10.52-13.08,11.49ZM185.63,236.53c.24-4.79-.31-9.68,0-14.47.18-2.82,2.04-5.12,1.8-7.74-.29-3.14-4.58-9.25-7.23-10.77-4.88-2.81-17.32,1.13-21.84,4.21-7.36,5-2.34,4.43,2.64,7,4.1,1.32,6.47,2.6,10.59.23,1.58-.91,5.08-5.42,6.57-5.38s1.15,1.45.67,2.62c-1.45,3.5-6.63,7.29-5.07,11.7.66,1.85,5.24,1.42,7.46,4.55s.72,8.28,4.42,8.05ZM376.01,202.73c-1.93.35-11.47,8.29-10.27,9.87,5.2,3.71,12.04,1.09,16.03-2.99,1.06-1.09,3.2-2.33,2.02-4.05-.72-1.42-6.38-3.09-7.79-2.83ZM386.25,212.57c5.61,2.12,14.38-.4,15.5-6.99-3.12-7.21-15.16.94-15.5,6.99ZM412.85,211.23c3.72-3.33,5.72-10.25-1.43-7.97-1.75,4.46-7.07,6.64-7.2,11.3,2.86.01,6.52-1.45,8.63-3.34ZM349.32,205.61c-2.24-.09-4.44-2.19-6.74-1.33-1.02.38-1.11,1.73-2.03,2.24-2.89,1.59-7.7,2.35-8.18,7.06,6.53-1.56,13.24-1.2,16.95-7.97ZM430.16,205.6c-3.58,1.83-5.03-.54-6.69-.84-2.67-.48-8.93,10.24-8.28,10.81,6.91.83,13.15-3.29,14.97-9.97ZM165.49,224.74c-.25-.38-7.33-4.64-7.77-4.77-3.98-1.17-3.97,2.21-5.33,4.28-1.06,1.62-4.04,1.34-2.73,6.63.21.84,14.39,9.27,15,8.65.88-3.71,3.02-11.42.82-14.79ZM286.34,228.66l-11.9-.68-.83,7.43c4.45,1.43,9.19,3.32,13.72,1.01l-.98-7.75ZM178.65,241.52c-1.44-5.09-3.99-12.35-10.07-7.57l-.91,7.58h10.98ZM203.59,259.48l7.99-22.95c-4.36,4.35-8.19,11.37-8.98,17.46-.13,1.02-.76,5.54.99,5.49ZM396.23,295.41c2.18.39,2.35-.97,2.97-2.51,1.21-3,4.19-12.5,4.6-15.43.36-2.54-1.28-3.72-1.6-6-1.7.22-1.95,3.75-2.31,5.16-1.54,6-3.09,12.62-3.66,18.79Z"/>
      <path d="M225.98,281.04c.74.97,1.88.59,2.35,3.08,2.48,13.36-6.86,23.18-17.69,28.8-56.73,29.43-136.08-21.54-196.65,8.12-4.25,2.08-8.04,7.72-12.97,7.3-3.62-3.58,10.82-11.96,13.28-13.15,9.82-4.76,27.29-9.03,38.29-10.7,22.04-3.36,42.08-1.48,63.35,1.17,26.38,3.28,91.42,19.51,106.46-10.92,5.45-11.03,0-13.81-7.8-20.27,5.44.5,8.27,2.47,11.39,6.57Z"/>
      <path d="M91.82,459.1c5.33-12.46,8.89-26.58,10.99-39.92,4.04.66,13.58-1.38,16.45,1,3.59,2.98,6.92,14.64,11.47,17.95l10.98-18.48,15.99-.49c1.29,13.17,5.09,28.14,10.97,39.93h-19.96c1.96-7.24-1.69-15.55-2.5-22.97-1.66-.25-1.95,1.31-2.66,2.33-1.97,2.84-12.1,21.25-13.31,21.64-1.85.59-1.34-.73-1.72-1.3-4.23-6.4-8.42-15.19-12.92-20.99-.86-1.11-1-2.07-2.82-1.66l-2,22.95h-18.96Z"/>
      <path d="M130.74,327.37c-.92,1.97-4.04,2.01-5.91,3.56-7.16,5.94-9.26,20.72-13.01,28.88.15,2.25,19.59,3.78,22.42,3.48,5.87-.63,8.39-4.03,13.46-5.98-2.32,20.54-24.08,11.46-37.91,9.97-3.87,15.9-8.99,32.57-18.15,46.23-11.55,17.24-32.93,34.54-55.32,34.5-10.29-.02-23.47-8.4-14.85-18.85,1.91-.37,7.22,8.39,8.97,9.97,11.11,10.07,29.42-.33,38.01-9.36,15.69-16.5,23.15-40.27,28.35-62.49-1.12.86-6.51,1.05-6.79,1.26-.94.7-1.38,4.49-4.18,3.72l5.13-10.82,10.84-1.17c-.88-1.75-.22-3.3.47-4.94,4.48-10.62,15.74-27.81,28.46-27.96Z"/>
      <path d="M269.47,418.18c11.92,2.1,27.96-3.59,38.86,4.55,4.19,3.13,6,10.36,2.53,14.39-1.46,1.69-4.11,1.17-4.46,3.01,6.53.39,11.65,5.21,14.99,10.46,1.33,2.08,1.71,4.79,2.96,6.82.56.92,2.37.16,2.01,1.69h-20.96c1.64-11.43-10.66-14.27-19.45-15.98-.98.05-1.16,14.17,1.48,15.98h-18.96c-.27-.73,1-1.19,1-1.5v-39.42ZM285.44,435.15c12.81,1.82,13.78-9.19.95-8.57l-.95,8.57Z"/>
      <path d="M362.29,419.18l-.99,13.97c2.74-3.32,9.17-7.05,11.56-9.91,1.5-1.79,1.19-4.06,1.41-4.06h22.96l-24.95,17.46c.75,1.73,6.29,1.67,8.53,2.45,10.13,3.51,12.64,12.11,18.41,20.02h-18.96c1.58-10.69-10.77-14.01-18.96-15.97v14.47c0,.3,1.26.77,1,1.5h-18.96c-.26-.73,1-1.19,1-1.5v-36.93c0-.3-1.26-.77-1-1.5h18.96Z"/>
      <path d="M250.51,459.1h-20.96l.57-3.98c-.57-.81-1.3-1.52-2.28-1.81-1.8-.53-22.01-.58-23.58-.04-2.3.79-2.82,3.97-1.66,5.83h-20.96c7.04-11.94,18.94-24.1,25.41-36,.7-1.29.12-3.8,1.11-3.98l15.97.99,26.38,38.99ZM217.56,432.15c-2.02-1.51-6.58,8.72-7.15,10.32-.37,1.03-1.41.98.15,2.18l13,.47-6-12.97Z"/>
      <path d="M460.1,419.18v9.98c-1.79.52-4.48-1.99-5.49-1.99h-18.46v7.99c5.42.1,10.94.38,15.96-2v11.47c-1.39.37-2.73-1.22-4.54-1.44-3.68-.44-7.7.18-11.43-.06v6.99h21.46c.31,0,1.41-1.38,2.49-.99v9.98s-41.91,0-41.91,0c2.79-9.29,2.89-23.68,2.04-33.48-.23-2.66-.56-4.2-2.04-6.44h41.92Z"/>
      <path d="M298.42,358.33l-4.98,13.94,15.68-10.87c6.07-2,12.15-6.42,18.82-3.16l-1.07,9.06c7.19-4.22,16.27-10.18,24.94-10.07,2.77.03,5.9-.02,6.33,3.37-3.11,7.08-7.5,14.59-10.3,21.68-1.72,4.36-6.63,15.91-3.27,19.71,1.21,1.36,4.64.23,4.75,2.22-14.61,8.02-18.37-1.53-14-14.5,1.24-3.69,12.34-26.08,11.01-27.4-15.44.58-26.2,10.85-28.97,25.95l-1.96-1.01-1.14,17.83-11.38,1.19c-4.31-7.08,12.88-35.37,13.48-43.93-1.11.13-2.58-.71-3.48-.57-2.85.46-20.85,13.36-22.47,15.97-3.96,6.36-5.44,20.9-7,28.43l-11.93,1.04c1.25-14.08,7.3-26.34,13.8-38.59.99-1.87,3.68-4.65,4.15-5.84,1.25-3.16-5.81.05-5.97-2.47,5.41-.74,9.31-4.76,14.96-1.98Z"/>
      <path d="M73.85,105.81c4.23-.71,5.6-6.45,8.47-9.02,9.6-8.61,26.42-6.01,32.21,5.75,6.92,14.06-2.57,23.38-12.23,32.17l-28.44-28.91ZM94.57,100.99c-1.73.33-7.03,3.17-6.67,5.17l15.28,14.55c9.61-6.74,1.46-21.65-8.61-19.72Z"/>
      <path d="M33.93,194.63c-3.72,4.76-9.05,15.05,1.05,14.54l1.95-8.56,9.97,2.01-2.94,9.93,6.91,1.02,2.03-12.95,8.94,2.03c1.55,1.76-10.1,30.65-7.96,35.89-5.94-3-15.8.77-16.98,7.48-.43,2.42,1.14,1.22,2.52,1.47,4.14.77,8.25,1.35,12.47,1.04l-1,9.98-38.26-5.15-1.55-1.42c.7-12.66,1.62-24.88,18.14-21.16,3.36.75,5.14,5.33,5.69,4.77,1.86-1.89.93-3.67,5.61-5.87,5.05-2.37,9.87-1.05,14.34-3.6-.09-1.96-32.36-10.56-36.91-11.48l6.09-21.86,9.88,1.92ZM27.7,240.78c-5.07-5.03-14.69,6.94,1.24,4.73.05-1.44-.22-3.72-1.24-4.73Z"/>
      <path d="M147.94,67.62c1.92,2.17,6.3.75,9.23,8.23,5.01,12.76-7.72,18.43-16.44,23.94.06-1.58-.41-2.96-1.16-4.34-5.54-10.18-14.39-20.11-19.81-30.58,7.06-1.87,8.34-8.69,17.46-8.06s7.91,7.62,10.73,10.8ZM139.71,73.85c.81-2.65.52-4.97-1.41-7.09-1-1.38-6.05-.81-5.43,1.46l11.47,17.51c8.78-2.06,2.99-13.1-4.62-11.87Z"/>
      <path d="M176.65,34.92c1.85,12.99,23.05,33.62,4.23,42.65-20.37,9.77-21.55-19.97-31.15-30.17l9.95-4.49c-.03,1.28.27,2.52.8,3.68,2.1,4.59,7.79,18.64,10.14,21.56s6.97,2.01,8.3-1.58c1.25-3.36-9.64-23.42-12.24-27.64l9.97-4.01Z"/>
      <path d="M511,419.18l.07,7.44-3.06.54v29.44c0,.31,1.37,1.42,1,2.5h-18.96c-.11-1.04,2-2.07,2-2.5v-27.95c-1.8-3.63-12.51-.02-12.97-.5v-8.98s31.93,0,31.93,0Z"/>
      <path d="M414.64,370.71c-6.29,6.23-15.81,9.75-24.4,11.53-.57-2.55.69-1.74,1.87-2.58,7.3-5.15,18.12-8.84,15.95-20.24-12.62-2.1-22.5,11.08-27.92,21.02-1.03,1.88-3.87,1.08.11,5.78-3.09-.48-3.54.73-3.9,3.58-1.59,12.24,6.13,17.93,17.39,12.39l1.48,1.99c-9.39,3.41-21,4.89-28.96-2.55-.81-.76-.13-1.8-.37-2.17s-1.58-.45-1.93-1.46c-2.12-6.09.39-10.2,3.5-15.08,6.39-10.03,23.07-22.47,34.7-25.18,11.12-2.59,24.42,1.11,12.47,12.96Z"/>
      <path d="M264.16,357.71c.31.06.19,1.25.81,1.37.28.05,5.51.07,5.79.02,1.93-.31,2.99-2.13,4.69-2.8-4.61,13.5-16.81,3.72-23.95,5.42-4.09.97-19.6,13.38-21.97,17.03-4.14,6.37-6,19.92-5.97,27.46-2.64-1.1-11.24,1.93-12.53.02-2.58-3.84,7.79-27.8,10.34-32.65,1.77-3.37,5.11-9.74,8.16-11.3-1.02-3.34-7.66,1.66-8.97-.97,4.17-.87,11.97-6.18,16.01-3.55,3.95,2.57-5.41,11.2-3.55,14.51,7.02-5.61,14.17-16.11,23.95-16.04,2.51.02,4.8,1.03,7.17,1.49Z"/>
      <path d="M486.04,357.3c1.47,1.53-5.73,7.11-7.69,6.89l-1.84-1.92c-3.76,1.89-7.51-1.51-11.81-.94-2.06.27-4.98,2.09-6.92,3.12-4.21,2.25-14.98,11.32-17.13,15.82-3.37,7.05-5.07,17.03-5.63,24.81-.45.75-11.58,2.42-12.36,1.14,1.16-16.32,9.16-30.75,17.48-44.43l-4.98-.5c.83-3.1,13.36-5.16,13.94-2.41l-5.95,12.91c-.22.67.95.73,1.48.48,7.75-3.55,12.03-16.6,24.92-15.99,5.62.26,11.83,5.39,16.5,1.03Z"/>
      <path d="M207.59,356.3c-1.43,3.06-6.04,4.4-7.88,6.59-1.97,2.34-9.63,20.97-10.41,24.35s-1.22,12.35.84,14.98h6.98c-6.68,5.72-18.03,8.07-19.15-3.64-.09-.94,1.99-6.52-.81-5.35s-8.41,7.54-12.18,9.78c-5.63,3.34-12.39,6.6-18.2,1.61-10.99-9.43,2.05-27.61,10.03-34.67,7.19-6.37,23.22-13.66,33.31-13.66h17.47ZM185.73,362.17l-1.07-1.87c.48,3.45-4.53,1.62-7.4,2.09-4.21.7-13.26,4.74-15.95,7.86-.35.41-4.07,8.95-4.31,9.8-1.51,5.19-4.6,27.18,5.17,22.16,14.5-7.46,17.95-19.02,24.19-32.68.57-1.24,1.76-1.12,2.02-1.76.22-.53,1.48-6.24,1.25-6.47l-3.9.88Z"/>
      <path d="M262.49,14.96l.99,9.98c-2.02-1.69-13.8-1.37-13.97.58l1.01,6.4,9.97-1.99,1,10.97-9.97-.99,1.05,6.92c4.81.49,9.71-.58,13.91-2.93l1.02,9.97-23.96,3c-.3-13.04-1.58-27.37-4.99-39.91l23.96-2.01Z"/>
      <path d="M75.85,119.78l-8.79,10.48,5.79,4.48,4.5-7.98,8.49,6.96c-6.85,2.25-8.55,8.44-.11,9.92l6.12-10.9,7.92,5.48-12.94,18.47-32.92-22.97,12.97-18.51c2.72-1.72,6.09,4.54,8.98,4.57Z"/>
      <path d="M50.9,262.48v16.47c0,1.12-3.51,7.24-4.55,8.42-8.19,9.31-25.69,8.25-32.81-2-5.21-7.51-2.78-13.63-3.56-21.88h11.97c-7.11,9.31-1.18,23.27,11.25,20.73,9.02-1.85,11.63-14.36,5.72-20.72l11.98-1.01Z"/>
      <path d="M366.1,232.77c.44.26.9,2.7,1.68,2.75.24.02,2.62-2.92,4.49-1.97l.18,7.81c1.7,2.78,19.35,2.82,22.56,1.5,2.76-1.14,1.54-7.07,5.7-7.32,2.41,1.62.75,1.89.46,3.42-1.42,7.49-3.66,8.29-10.89,10.08s-13.63,1.94-20.81-.22c-2.23-.67-4.61-3.27-6.51-3.1-3.67.32-10.51,4.8-17.03,4.67-4.84-.09-8.66-3.37-12.16-3.85-5.73-.79-13.89,2.87-20.38-.04l1.66-3.87c5.41.11,10.91,2.29,16.18-.25.34-3.45-.97-7.9,3.62-8.86,2.5-.35,1.04,3.22,2.44,5.57,3.41,5.72,17.57,4.6,23.3,3.43l2.72-9.99c.91.09,1.96-.27,2.81.24Z"/>
      <path d="M42.92,171.67c1.54,1.59-4.59,3.45-4.87,6.63l1.42,2.32c5.21-.78,8.42-5.37,13.9-6,16.63-1.92,19.28,14.32,10.55,25.55l-11.02-3.58c3.23-2.79,8.7-4.63,6.85-10.29-2.39-7.3-14.25,3.24-19.32,3.41-12.55.41-13.41-12.61-7.42-20.98l9.9,2.94Z"/>
      <polygon points="205.54 24.99 208.59 33.92 201.64 34.97 211.59 64.86 201.62 67.87 192.61 37.92 186.13 40.88 182.64 31.94 205.54 24.99"/>
      <polygon points="233.54 18.96 234.53 27.94 227.53 28.47 234.54 58.87 224.57 60.88 218.51 31.01 210.59 31.94 209.58 22.95 233.54 18.96"/>
      <polygon points="57.88 142.73 53.89 150.69 80.84 164.69 75.36 173.55 49.39 157.72 45.9 164.67 37.93 160.67 49.89 139.19 57.88 142.73"/>
      <path d="M504.01,359.28l-4.36,1.13-7.6,6.84c2.88-.45,1.6,2.69,2.92,4.56.77,1.1,4.92,5.17,6.05,6.03,1.71,1.29,8.76,3.88,9.76,5.61.69,1.19.44,10.13-.3,11.75-4.82,10.61-44.68,20.99-43.46-1.31.28-1.17,7.85-3.57,9.54-3.68,2.21-.14,1.32-.2,1.04,1.04-.98,4.32-3.08,10.94,2.47,13.44s12.42-.44,17.3-2.69c.88-.4,2.2.14,2.46-.06.36-.28,4.59-7.13,4.76-7.69,3.35-11.01-21.93-14.16-20.57-23.42.63-4.33,13.11-11.97,17.25-12.85,1.61-.34,2.07-.84,2.75,1.31Z"/>
      <path d="M408.2,118.77l.5-3.01,2.49,3,2-3v6.99s-1.98-1.99-1.98-1.99l-1.52,3.98-2.46-1.98-1.51,2.97-1.5-5.97c-3.1-.79-1.99,3.12-3.98,4.51l-2-1.03,1.13-5.34c1.98.76,5.57-2.31,5.83-2.13.33.22.39,3.86,3.01,3Z"/>
      <path d="M409.2,154.68l-6.03.45-1.01,4.5-3.92.05c1.12-4.67,3.21-7.59,6.48-10.96l4.49,5.96Z"/>
      <path d="M350.31,59.89c-1.36,3.7-1.4,6.2,2.99,7l-2.51,3.04-2.99-1.05c-2.48-2.89-.44-5.72-.48-9h2.98Z"/>
      <path d="M414.55,147.41c.25.34,1.14.34,1.63.31l-1.48,1.95c-4.72-1.89-8.02-5.02-4-9.94,2.5,1.92,2.17,5.36,3.85,7.67Z"/>
      <path d="M418.86,138.45c-.13.27-3,.96-1.68,4.27l-3.83-2.59.86-4.4,2.97,2,2-6.99c-.3,2.36.68,5.57-.31,7.71Z"/>
      <path d="M363.29,57.89c.61,4.69-4.03,7.08-7.97,7.97l7.97-7.97Z"/>
      <path d="M328.35,166.67c2.8,11.64-21.51,11.38-20.93,4.48.36-4.24,6.19,1.19,6.68,1.34,6.24,1.9,8.39-6.38,14.25-5.82Z"/>
      <path d="M368.53,176.39c-3.29-3.09-3.08-11.53,2.23-12.71,2.44,2.07.94,5.54,3.03,7.96s5.5,1.25,7.44,3.52c-2.16,3.1-10.33,3.46-12.7,1.24Z"/>
    </g>
  </g>
</svg>