<?xml version="1.0" encoding="UTF-8"?>
<svg id="Layer_2" data-name="Layer 2" xmlns="http://www.w3.org/2000/svg" viewBox="0 0 722.37 952.94">
  <defs>
    <style>
      .cls-1 {
        fill: #efb31e;
      }

      .cls-2 {
        fill: #435a66;
      }

      .cls-3 {
        fill: #e3af24;
      }

      .cls-4 {
        fill: #415d51;
      }

      .cls-5 {
        fill: #9e2d51;
      }

      .cls-6 {
        fill: #ec7670;
      }

      .cls-7 {
        fill: #eeb26b;
      }

      .cls-8 {
        fill: #dec5b0;
      }

      .cls-9 {
        fill: #3a775c;
      }

      .cls-10 {
        fill: #3e5663;
      }

      .cls-11 {
        fill: #f37671;
      }

      .cls-12 {
        fill: #49806a;
      }

      .cls-13 {
        fill: #f4a849;
      }

      .cls-14 {
        fill: #1f533e;
      }

      .cls-15 {
        fill: #255640;
      }

      .cls-16 {
        fill: #564f46;
      }

      .cls-17 {
        fill: #c1a792;
      }
    </style>
  </defs>
  <g id="Layer_1-2" data-name="Layer 1">
    <g>
      <g>
        <path class="cls-10" d="M425.71,852.03c-.88,7.19-5.08,12.09-12.63,12.42-2.44.11-4.46-.98-6.81-.99-13.31-.05-34.8,1.9-46.95-.01-9.16-1.44-7.77-13.44-7.59-20.44,1.12-45.4,1.29-86.2,0-131.66-.61-21.64,2.74-22,23.52-21.49,13.9.34,27.94,1.43,42.02,1.03,20.15-.57,39.12-4.74,59.2.68,48.85,13.18,55.45,70.69,9.57,91.96l-16.36,6.64c6.41,11.22,19.72,13.43,31.49,14.27,1.83.13,3.73-.92,6.71-.57,13.54,1.56,7.88,15.2,7.74,24.18s2.1,19.84,1.69,27.84c-.61,11.71-13.83,12.98-23.14,13.61-40.93,2.79-57.48-20.67-65.99-56.82-.57-2.42.66-6.87-2.45-6.04-1.27,14.31,1.71,31.46,0,45.41ZM425.71,769.69c23.39.19,22.72-32.15,0-32.94v32.94Z"/>
        <path class="cls-10" d="M606.58,749.73c12.66-2.03,14.65-14.84,15.98-25.46,1.57-12.53-3.37-33,13.46-34.46,9.55-.83,22.62,1.2,33.06,1.08s28.29-5.68,29.19,10.68c1.42,25.84-13.41,61.4-32.72,78.61l-13,9.95c8.25,10.47,20.63,13.73,33.51,14.53,5.26.32,10.96-3.21,15.45,3.45,3.49,5.18.5,18.14.56,24.95s1.66,15.4,1.51,21.97c-.27,12.29-10.68,13.17-20.57,14.45-37.98,4.91-59.1-12-67.76-48.07-.97-4.03-2.84-22.91-3.68-23.77-.33-.33-3.86.19-4.99,0v57.39c0,4.74-8.18,9.28-12.59,9.39-1.94.05-3.81-.97-5.86-.96-13.05.07-35.07,1.87-46.95,0-5.82-.92-8.73-6.98-8.63-12.42.58-31.62,3.8-62.96,3.12-94.86-.36-17.11-3.46-37.15-3.12-53.85.32-15.59,12.76-11.55,22.52-11.44,13.68.15,27.29-.25,40.93-.96,4.46.02,10.58,5.02,10.58,9.39v50.4Z"/>
      </g>
      <path class="cls-10" d="M264.82,839.55l-22.88.11c-2.23,6.99.84,17.48-6.37,22.08-5.85,3.73-8.79,1.69-14.18,1.72-13.76.08-32.99,1.59-46.03.07-8.16-.95-7.97-7.67-7.35-14.38,2.21-23.88,9.54-51.36,12.72-76.11,3.19-24.74,5.01-49.63,7.39-74.46,1.59-6.19,5.05-8.19,11.2-8.77,9.95-.93,22.01.18,31.97,1.08,24.28,2.65,53.48-3.87,77.02-1.07,6.43.76,9.56,5.49,10.38,11.59,1.35,9.99,1.03,21.61,2.09,31.85,4.14,39.9,9.74,79.68,17.9,118.93.61,5.02-2.17,10.43-7.47,11.27-11.9,1.87-32.91-.04-45.95.01-2.67.01-4.56,1.12-7.66.83-13.02-1.21-13.04-14.52-12.78-24.75ZM245.83,792.65h14.99l-3.99-55.9-6.44-.03-4.56,55.93Z"/>
    </g>
    <path class="cls-10" d="M71.95,829.57c-.82,11.34,8.92,32.32-8.44,33.99-11.95,1.15-41.34,1.36-53.04-.03-8.38-1-9.69-7.16-9.53-14.53.85-39.29,3.49-77.29,2.1-116.78-.32-9.01-2.64-21.27-2.08-29.94,1.16-17.89,17.59-11.6,29.48-11.4,21.21.36,41.15-1.59,61.96-2.08,35.79-.84,67.06,10.47,73.21,49.72,8.68,55.4-42.21,93.05-93.66,91.04ZM88.6,764.36c1.62-1.61,3.07-4.77,3.36-7.12,1.83-14.62-6.88-19.25-20.01-20.49l-1.01,32.94c5.07.45,13.98-1.7,17.65-5.33Z"/>
    <path class="cls-10" d="M168.38,899.44c.68.12,2.13,1,2.48,1.77,1.12,2.51,2.3,24.18,3.52,24.19,2.4-3.53,1.9-25.96,6-25.96h24.98c1.28,0,2.36,3.12,2.54,4.44.95,6.8-1.26,19.83-1.09,28.05.05,2.64,2.9,18.42-.45,18.42h-17.99c-3.62,0,.07-22.86-.51-25.95-1.88.39-1.81,1.97-2.01,3.47-.74,5.4-.49,15.04-2.21,19.75-1.46,4.02-15.47,3.55-17.28,1.76-2.31-2.28-3.14-20.61-3.48-24.97-4.42-.72-.99,5.3-.99,6.48v17.97c0,.11-1.39,1.5-1.5,1.5h-16.99c-4.23,0-1.51-10.87-1.45-13.43.17-8.28.18-16.76,0-25.04-.05-2.26-2.8-12.43,1.46-12.43,6.96,0,18.77-1.05,24.98,0Z"/>
    <path class="cls-10" d="M429.21,899.44c.68.12,2.13,1,2.48,1.77,1.12,2.51,2.3,24.18,3.52,24.19,2.4-3.53,1.9-25.96,6-25.96h24.98c1.28,0,2.36,3.12,2.54,4.44.95,6.8-1.26,19.83-1.09,28.05.05,2.64,2.9,18.42-.45,18.42h-17.99c-3.62,0,.07-22.86-.51-25.95-1.88.39-1.81,1.97-2.01,3.47-.74,5.4-.49,15.04-2.21,19.75-1.46,4.02-15.47,3.55-17.28,1.76-2.31-2.28-3.14-20.61-3.48-24.97-4.42-.72-.99,5.3-.99,6.48v17.97c0,.11-1.39,1.5-1.5,1.5h-16.99c-4.23,0-1.51-10.87-1.45-13.43.17-8.28.18-16.76,0-25.04-.05-2.26-2.8-12.43,1.46-12.43,6.96,0,18.77-1.05,24.98,0Z"/>
    <path class="cls-10" d="M289.3,899.44c16.77,2.79,16.58,26.4-.51,29.45.08,5.01,11.62,2.64,12.86,4.62.87,1.4.67,16.31-1.52,17.66-8.76,5.39-22.61-3.15-23.82-12.82-.82,0,.16,11.99-3,11.99h-17.99c-2.08,0-1.5-3.58-1.5-4.49v-44.91c0-.11,1.39-1.5,1.5-1.5,9.37,0,25.6-1.4,33.98,0ZM275.82,922.39c5.23-.65,5.7-7.09.49-8.97l-.49,8.97Z"/>
    <path class="cls-10" d="M560.12,899.44c16.33,2.71,16.59,27.74-1.5,28.96,2.01,6.03,11.64,2.17,13.49,5.97,1.36,2.79,1.32,15.87-1.89,17.15-11.4,4.55-23.37-4.58-24.1-16.16-1.48,0,.94,14.98-2,14.98h-17.99c-4.26,0-1.51-10.17-1.46-12.43.18-7.95.18-16.09,0-24.04-.06-2.66-2.89-14.42,1.45-14.42,9.39,0,25.57-1.39,33.98,0ZM545.63,922.39c7.01-.26,6.3-6.65.49-8.97l-.49,8.97Z"/>
    <path class="cls-10" d="M125.41,899.44c3.16.52,9.34,5.26,10.91,8.07,5.15,9.17-2.37,20.44-12.41,20.89,2.01,6.03,11.64,2.17,13.49,5.97,1.25,2.56,1.17,15.37-1.17,16.81-9.89,6.09-24.65-4.71-24.82-15.82-1.48,0,.94,14.98-2,14.98h-17.99c-4.1,0-1.5-9.97-1.45-12.43.18-8.96.14-18.07,0-27.04-.03-1.76-2.31-11.44,1.45-11.44,9.39,0,25.57-1.39,33.98,0ZM114.65,914.67c-.64-.53-2.69-.54-3.71-1.26v8.98c4.67,1.03,6.54-5.36,3.71-7.72Z"/>
    <path class="cls-10" d="M597.59,916.41c6.96-.88,1.99-13.89,5.96-16.51,1.86-1.23,19.19-1.22,20.55,1.54,3.08,6.24-5.97,23.86-12.5,27.45,1.76,4.76,12.69,2.81,13.83,4.63.48.76.37,15.81-.32,16.86-2.72,4.11-19.75,2.03-21.96-4.1l-5.56-14.9v17.47c0,.11-1.39,1.5-1.5,1.5h-19.49c-2.35-5.36-.07-10.19.05-15.42.14-6.63.15-13.42,0-20.05-.06-2.62-3.09-15.43,1.46-15.43h16.99c.18,0,2.5,2.32,2.5,2.5v14.47Z"/>
    <path class="cls-10" d="M520.64,950.34h-19.49c-2.2,0-1.23-6.73-1.49-6.99-.28-.28-5.71-.31-6.56.95-.72,1.07-.18,6.04-1.94,6.04h-17.99c-.93,0-2-2.79-2-4.1.01-4.82,2.68-13.1,3.35-18.5.55-4.47,1.9-25.64,3.62-27.33,1-.98,1.74-.88,2.97-1.03,3.63-.43,30.76-.31,32.54.55.82.4,1.55,1.32,1.8,2.2l5.19,48.21ZM497.65,929.39c-.13-3.13.24-6.34,0-9.47-.11-1.35-.48-6.04-1.98-6.5l-1.01,15.97h2.99Z"/>
    <path class="cls-10" d="M85.94,950.34h-18.49c-2.84,0-2.23-6.7-2.5-6.98-.2-.21-5.37-.19-5.86.12-.77.49-1.03,6.86-2.63,6.86h-17.99c-.36,0-1.16-1.1-1.34-1.65-1.17-3.63,2.96-22.49,3.71-27.92.56-4.09.63-18.41,2.6-20.36.99-.98,1.74-.88,2.97-1.03,3.63-.43,30.77-.31,32.54.55.83.4,1.54,1.31,1.8,2.2l5.19,48.21ZM63.96,929.37c-1.86-3.86-.66-8.22-1.09-12.38-.1-.96-.44-3.76-1.9-3.58l-1,15.97h3.99Z"/>
    <path class="cls-10" d="M322.78,933.38c.44-2.7-.48-1.73-2.18-2.27-6.18-1.96-12.18-1.32-15.31-8.71-4.69-11.06.82-21.11,12.25-23.7,4.98-1.13,19.2-1.08,23.72.74,5.1,2.05,2.32,13,1.57,17.55-2.19,1.59-12.77-3.49-15.05,1.41,15.02-1.61,22.82,12.35,16.77,25.24-4.53,9.64-28.74,10.84-36.99,7.45-4.9-2.01-2.89-17.71-1.26-17.71h16.49Z"/>
    <path class="cls-10" d="M247.33,899.44c3.29.99,3.38,13.66,1.02,15.99s-11.04.38-14.52.98c1.8,4.32,10.61-.17,11.85,3.62.62,1.9.48,9.36-.76,10.94-2.25,2.85-8.06.4-11.08,1.89,2.97,3.77,9.7.02,12.3.65,5.29,1.27,4.63,16.82,1.19,16.82h-33.98c-3.32,0-.53-13.16-.46-15.43.19-6.28.15-12.77,0-19.05-.07-2.88-3.07-16.42,1.45-16.42h32.98Z"/>
    <path class="cls-10" d="M664.04,899.44c3.23.97,3.34,13.66,1.26,15.73-2.35,2.34-11.31.78-14.75,1.24,1.8,4.32,10.61-.17,11.85,3.62.62,1.9.48,9.36-.76,10.94-2.25,2.85-8.06.4-11.08,1.89,2.96,3.47,8.36.46,11.37.79,7.26.8,4.8,16.68,2.12,16.68h-33.98c-3.31,0-.52-14.86-.45-17.42.21-8.53-2.07-21.99-1.09-29.05.18-1.31,1.27-4.44,2.54-4.44h32.98Z"/>
    <path class="cls-10" d="M35.48,899.44c2.56.79,1.53,12.42,1.06,15.03-1.87,2.68-12.74-1.07-15.55,2.44,6.62,1.59,12.77-2.3,13.05,6.96.32,10.85-4.25,8.42-13.05,8.5v16.47c0,.11-1.39,1.5-1.5,1.5H1.5c-.11,0-1.5-1.39-1.5-1.5v-47.91c0-.11,1.39-1.5,1.5-1.5h33.98Z"/>
    <path class="cls-10" d="M678.03,950.34c-.75-.23-2.1-2.64-2.21-3.61-.04-6.86,2.46-23.98.57-29.68-.97-2.94-6.01-.59-7.42-2.57-.52-.73-1.12-12.43-.39-13.42,1.15-1.56,1.63-1.47,3.4-1.67,3.48-.4,31.26-.44,32.6.49,1.52,1.06,1.48,14.11,0,15.1-1.28.86-7.06-.11-7.06,1.93v31.94c0,.11-1.39,1.5-1.5,1.5-3.78,0-15.5.78-17.99,0Z"/>
    <path class="cls-11" d="M374.74,917.4l1.02,6,3.98-1-.99,4.98c.98.91,8.09-1.95,6.99,2-3.79-.06-8.07-.97-5.98,3.99-5.81-1.25-4.28,3.05-5.5,6.99l-1.51-6.98c-1.18-1.3-5.51,4.27-3.43-3.02-1.74-2.46-7.46,1.04-6.56-2.96,4.73-.16,6.84,1.63,6-4l3.98,1c.94-1.25-1.96-8,2-6.99Z"/>
    <path class="cls-1" d="M705.52,785.65c-7.76-1.07-9.8,2.87-13.98,7.99.13-3.03,0-6.23-1.59-8.9l-6.41-5.06c7.15.86,9.89-3.39,13.98-7.99-.24,6.7,3.31,10.11,8,13.96Z"/>
    <path class="cls-9" d="M132.91,518.18c.13.11-.81,1.76-.57,2.99,1.15,6.06,3.27,7.14,7.57,10.96-4.22-.38-7.24.18-10.01,3.48-1.62,1.93-1.23,5.11-3.97,4.51.32-4.53.2-7.97-3.48-11-1.57-1.29-4.11-1.31-4.52-2.96,3.2.27,5.98-.06,8.72-1.78,2.22-1.4,4.69-7.57,6.27-6.2Z"/>
    <g>
      <g>
        <path class="cls-10" d="M310.79,656.41c-1.72,7.96-14.5,4.5-19.44,4.44-7.45-.08-17.67,1.52-24.01,1.11-7.19-.46-8.69-5.21-8.59-11.57.38-23.37,2.63-46.11,2.11-69.89-.21-9.64-2.25-21.4-2.11-30.91.1-6.73,1.65-9.9,8.52-10.52,15.01-1.36,33.55.24,49.06.09,5.73-.06,11.59-1.47,17.99-1.09,50.8,3.04,56.22,60.07,7.45,70.92,2.51,5.33,9.85,9.15,15.57,9.88,6.41.82,18.09-2.59,18.47,7.59.24,6.49-1.17,15.48-1.06,22.93.06,4.14,2.8,9.38-2.01,12.98-5.11,3.83-22.69,3.55-29.03,2.05-21.43-5.09-25.41-20.72-30.89-39.02-.4-1.35-.08-3.11-2.04-3.45-1.45,9.77,1.95,25.43,0,34.43ZM310.79,595.03c16.74.51,16.4-22.32,0-22.96v22.96Z"/>
        <g>
          <path class="cls-10" d="M51.96,578.06h16.99l-2.08-29.44c.44-6.33,2.09-8.96,8.53-9.54,7.87-.71,29.61-1.05,36.96.11,3.94.62,6.48,4.6,6.63,8.44.3,7.63-1.94,18.88-2.11,26.89-.38,17.02-.35,34.97,0,51.99.17,7.95,2.05,18.05,2.05,25.92,0,5.51-4.14,9.39-9.54,9.52-7.45.18-16.74-1.24-24.99-1.09s-15.13,3.93-17.49-7.44l2.05-30.44h-16.99l2.07,30.42c-2.17,11.15-9.92,7.51-17.51,7.46-6.01-.04-12.07-.11-18.08,0-3.04.06-5.57,1.47-8.87,1.01-4.6-.64-7.54-5.02-7.67-9.45-.22-7.87,1.93-18.79,2.13-26.91.4-15.98.36-33,0-48.99-.2-8.65-2.1-19.36-2.12-27.9-.01-5.35,2.12-8.87,7.55-9.51,7.93-.92,29.08-.92,37.02,0,3.05.35,5.47,1.39,6.55,4.43,1.29,11.05-.65,23.23-1.07,34.51Z"/>
          <path class="cls-10" d="M196.87,644.93h-16c-.09,6.37-.58,14.5-7.7,16.76-9.62-.35-19.15-.92-28.81-.82-8.94.09-16.21,4.18-15.44-9.42.9-15.85,6.69-36.39,8.84-53.06,1.15-8.89,2.15-17.9,3.14-26.81.75-6.78-.18-29.13,6.02-31.92l80.45-.54c5.06.59,6.48,2.86,7.38,7.6,3.07,16.13,2.99,36.67,5.23,53.66,2.18,16.52,7.35,35.24,8.73,51.17,1.14,13.07-7.22,9.47-15.33,9.32-9.66-.19-19.18.55-28.8.8-7.85-1.6-7.85-10.16-7.72-16.74ZM190.87,572.06c-1.09.19-3.24-.38-3.87.13-1.51,1.23-2.78,33.99-3.12,38.8h10s-3.01-38.94-3.01-38.94Z"/>
        </g>
      </g>
      <g>
        <path class="cls-10" d="M440.7,628.97h2.99s6.09-81.27,6.09-81.27c.76-4.88,3.34-8,8.39-8.59,7.65-.9,28.36-.89,36.02,0,4.37.51,7.22,2.97,7.49,7.47-5.8,28.35-9.98,57.08-13.01,85.87-.66,6.33.09,22.11-3.43,26.52-4.58,5.73-20.24,1.99-27.01,1.87-10.97-.19-22.1-.18-33.07,0-8.98.15-25.88,5.78-28.38-6.51-3.16-15.56-3-36.98-5.2-53.69-2.11-16.04-8.06-37.08-8.86-52.08-.17-3.22-.11-7.18,3.24-8.71,2.99-1.36,34.07-1.26,39.28-.79,8.36.76,8.22,5.36,9.43,12.54l6.01,77.34Z"/>
        <g>
          <path class="cls-10" d="M562.61,579.06c-.14.14-.2,3.99,0,3.99h21.49c1.11,0,5.09,1.87,6.08,2.91,4.15,4.4,3.9,31.02-3.08,31.02h-24.48v4.99h31.48c3,0,6.17,6.6,6.52,9.46.57,4.72.56,24.09-1.58,27.41-3.82,5.93-19.72,2.13-25.88,2.01-10.97-.2-22.09-.16-33.07,0-8.81.12-28.65,5.91-29.5-7.46-.46-7.28,1.94-19.14,2.11-26.89.37-16.34.38-33.65,0-49.99-.2-8.7-2.11-19.33-2.13-27.9-.01-5.41,2.59-9.75,8.53-9.53l77.48.56c1.03.82,2.29,1.96,2.88,3.11,1.66,3.25,1.74,23.35,1.07,27.75-.59,3.81-4.59,8.55-8.43,8.55s-28.46-1.06-29.48,0Z"/>
          <path class="cls-10" d="M664.56,578.06c.11.09,2.66.12,2.92-.04,1.42-.88,2.83-28.29,4.3-33.15,1.15-3.77,3.44-5.32,7.22-5.76,8.1-.94,27.79-.83,35.99.02,3.22.33,6.68,1.09,7.33,4.73.69,3.89-11.86,28.3-14.29,34.22-4.55,11.03-13.06,29.74-15.07,40.84-1.56,8.59,1.79,36.17-2.73,40.69-4.07,4.07-21.62,1.16-28.25,1.23-6.21.07-16.7,3.86-20.86-3.02-3.87-6.39-.29-30.3-2.03-39.89-1.44-7.95-7.84-22.78-11.06-30.88-5.73-14.42-13.92-28.23-18.06-42.96,1.14-2.65,3.21-4.44,6.14-4.9,7.21-1.12,28.27-.8,35.96-.11,3.62.33,5.89.85,7.66,4.32,2.73,5.34,3.38,33.5,4.8,34.65Z"/>
          <path class="cls-10" d="M624.57,614c.34.4-1.79,5.11-.98,5.97.31.32,2.69-.27,2.98.02.66.64-1.38,4.4-.99,4.94.52.7,5.75.97,5.98,3.03-5.38,1.09-9.4-4.33-7,3-1.78.73-3-1.99-3.49-1.97-1.3.04-2.36,5.7-4.49,5.97l.99-6.98-4-.02,2-3.97c-.22-.3-8.39-1.97-5.99-4,.85-.72,7.78,4.05,7.5-2.01l3.48,2.01c.3-.23,1.97-8.38,4.01-5.98Z"/>
        </g>
      </g>
    </g>
    <path class="cls-5" d="M103.92,853.52c-5.54-1.27-7.62,2.26-11.98,3.99,1.58-5.65-3.25-7.3-4-11.97,4.83.57,7.58-.03,10.49-3.98,2.37,1.67.97,4.56,2.01,6.95.76,1.74,3.94,2.39,3.48,5Z"/>
    <g>
      <path class="cls-1" d="M105.83,413.43c3.03-.47,12.93.54,15.62,1.89,14.9,7.52,14.7,40.35,3.63,51.28-8.36,8.25-25.96-1.07-31.43-9.53-8.2-12.68-6.08-40.79,12.19-43.64Z"/>
      <path class="cls-13" d="M94.09,416.19c-.68.73-7.26,13.51-7.55,14.91-1.81,8.76,1.09,23.49,6.1,30.95,2.55,3.8,7.77,5.81,11.18,8.74.71.61,1.89-.04,1.27,2.28-11.91.13-16.96,3.42-27.3-4.16-16.2-11.87-18.94-32.36-4.15-46.72,6.39-6.21,12.54-4.23,20.47-6Z"/>
      <path class="cls-9" d="M94.09,416.19c-.42-2.08-4.28-.35-4.95-1.06-.58-.61.91-3.26-1.03-2.93-.62,4.22-7.58,3.04-11.97,4.51-1.33.45-17.57,8.94-18.39,9.58-4.4,3.42-6.93,14.97-11.61,18.83-6.97-31.09,14.56-38.22,40.96-33.94-.33-2.46-6.84-4.62-7.06-5.64-1.01-4.72,5.75-7.77,8.81-5.09.91.8,1.3,4.41,2.4,6.09.93,1.42,5.71,6.73,5.81,7.18.52,2.27-2.62,2.07-2.97,2.45Z"/>
      <g>
        <path class="cls-17" d="M386.89,229.55c-.32.62-.35,1.45-.97,2.48-1.2,2-3.7,3.61-5.02,5.49,4.46.6,9.51-3.62,11.99-6.98l49.97,6.99c-5.14,4.03-12.57,4.28-18.67,6.81-3.17,1.31-10.74,7.01-11.81,7.2-3.23.56-3.23-8.3-.5-10-6.81.31-6.48,5.63-5,10.96-3.4.79-6.26-3.1-8.73-3.74-7.03-1.82-20.12,4-22.23,11.25-1.22,4.21,5.43-2.23,6.27-2.72,1.77-1.03,3.6-1.82,5.7-1.79-2.25,1.04-6.57,5.39-7.99,7.49-19.08,28.19,30.37,58.42,47.61,26.59,6.91-12.77,3.49-27.37-9.64-34.08,4.71-5.89,18.06-9.11,25.6-10.88,1.82-.43,1.29-.01,1.41,1.41.81,9.17-13.78,49.03-19.16,57.73-2.3,3.71-7.54,7.09-10.35,10.62-1.8-4.38-4.33-8.19-9.49-5.97-.48,3.02,3.31,2.42,4.48,4.99.65,1.44,1.26,4.05-.49,4.98.83-6.16-1.54-6.47-7-5.99-4.3-4.88-11.02-6.24-16.01-1.52l-4.97,9.5c8.12-1.22,5.67-11.68,14.98-6.98-1.81.55-7.06,2.59-7.98,3.76-2.33,2.95-6.46,13.94-6.9,17.81-3.1,27.31,35.88,42.34,51.27,17.28,4.47-7.28,4.17-11.56,2.58-19.88,2.89.54,6.83.21,7.99-2.98-9.69,2.86-8.19-7.29-14.99-7.99l-6-4.99c10.04-13.4,15.59-23.38,20.7-39.71.92-2.95,2.74-15.57,3.29-16.19,1.39-1.58,1.77.52,2.25,1.28,1.24,1.98,3.55,5.4,3.74,7.71-1.95-1.76-4.39-7.9-5-3.51-.92,6.63,3.1,12.14,9.99,11.49l-1.99-5.98c6.27,5.9,11.89,12.48,8.99,21.96-.43-3.68.02-11.08-5.52-11.08-1.32,0-2.34,1.1-2.47,1.09-1.98-.05-3.86-1.57-5.63-1.68-5.51-.34-11,5.03-10.36,10.67-7.76,11.6-.33,30.85,11.62,36.81,27.13,13.52,54.34-17.59,32.35-39.8,4.13.26,4.64,5.35,7.98,6.99-.62-12.7-5.49-10.33-14.98-10.98-2.36-.16-4.59-1.16-7-1-1.07-5.14-3.92-8.16-5-12.98,1.7,1.53,7.1,7.63,7.69,7.81,10.13,3.12,20.26-12.97,20.29-21.79,3.09.66,6.79-1.58,6.99-4.99-8.64,1.66-7.8-4.22-10.97-8.53-.91-1.24-2.35-1.7-3.01-2.45-.74-.84-1.28-2.32-2-2.99,14.31-.24,30.3-1.9,43.93-6.53,4.56-1.55,9.91-5.34,13.55-6.43,1.53-.46,1.61.06,1.44,1.42-.65,5.02-2.16,10.6-3.46,15.53-8.75,33.24-21.26,61.01-33.22,92.58-12.6,33.24-23.55,67.02-38.37,99.41-11.39,24.9-25.9,39.97-54.49,42.18-27.05,2.09-54.68-.72-81.82.34-42.35,1.65-100.63,10.24-135.84-17.95-18.9-15.12-30.95-49.41-39.96-71.87-18.32-45.67-31.51-94.34-45-141.69-1.19-4.17-8.07-22.43-7.02-24.93,33.83-36.78,83.52-41.05,130.26-31.28,50.76,10.61,100.2,32.64,152.08,40.24ZM196.02,198.62c-1.97,1.67,11.38,7.99,12.51,8.96,2.12,1.82,3.37,4.68,5.4,6.65.41,2.23-22.09,16.13-5.51,14.25,4.39-.5,19.86-6.3,19.6-11.31-.41-7.8-23.87-20.34-31.99-18.55ZM201.65,209.95c-1.75-1.83-12.36-9.27-14.59-9.87-3.67-.98-16.09-.75-11.03,4.03,2.15,2.02,15.09,5.4,15.91,10.12.51,2.93-16.06,10.41-12.46,15.37,3.83,5.29,24.04-10.66,24.33-15.68.07-1.14-1.34-3.11-2.16-3.97ZM180.72,219.28c5.88-7.12-14.31-16.29-20.18-15.76-2.26.2-9.49,3.65-7.49,6.06.58.7,15.29,3.32,16.99,6.52.8,3.56-21.69,15.56-8.5,15.54,6.49-.01,12.89-9.77,19.17-12.36ZM150.05,218.59c-3.53,2.71-17.6,16.7-5.94,14.54,1.87-.35,3.89-1.47,5.45-2.56,2.08-1.46,12.03-11.34,11.43-13.36-.89-3-25.63-13.26-27.84-6.02-.38,1.25-.22,2.15.91,2.91,1.77,1.2,12.98,2.89,15.99,4.5ZM128.06,225.57c-2.28,5.64-9.93,9.46-2.38,14.92,2.62.46,14.43-15.37,14.38-18.46-.11-6.28-24.22-3.85-22.98,2.03.53,2.52,8.88,1.23,10.98,1.52ZM191.03,252.52c3.12.06,15.75-7.52,11-10.53-3.13-1.98-25.15,5.2-22.91,12.85.27.92,14.09,8.71,15.87,9.17,3.64.93,7.35.33,11.02.46,2.26-4.94-16.4-10.06-14.98-11.96ZM220.99,244.54c-2.87-4.23-18.37,4.42-18.91,7.61-.37,2.21,21.03,21.24,23.9,10.86l-11.96-11c.01-1,9.3-4.02,6.97-7.47ZM178.03,245.53c-6.84-3.13-17.79,3.57-22.63,8.32-3.45,3.39-2.52,5.39,1.65,7.14s19.82,6.74,23.47,6.51c3.05-.2,5.8-.86,4.36-4.35-1.62-3.92-18.89-6.43-18.82-8.15,1.17-2.02,13.72-7.06,11.97-9.47ZM140.06,263.48c3.89-5.72,9.77-9.19,14.99-13.48-2.44-6-13.9.57-17.46,3.53-4.38,3.65-9.11,12.33-2.83,16,4.56,2.66,21.2,3.99,26.28.93-2.31-7.85-14.33-6.9-20.98-6.98ZM237.99,252.49c1.54-7.41-15.06-3.43-15.04.5.01,2.06,13.2,14.27,17.04,11.48,2.09-6.96-14.55-10.14-2-11.99ZM200.01,293.41c-.43.61-10.73,5.82-12.89,7.59-3.73,3.06-4.09,6.17,1.39,6.29,4.23.09,21.58-10.58,22.35-14.51,1.09-5.6-17.41-15.02-22.83-12.33-3.28,6.16,14.58,9.3,11.99,12.95ZM166.04,307.4c8.04,2.78,8.28-2.54,12.49-5.98,6.65-5.44,18.68-7.18,5.83-15.8-4.72-3.17-10.04-4.61-15.71-4.05-2.14.21-10.66,1.77-6.33,4.12,2.7,1.47,15.32,5.26,16.71,6.77.34.37.25,1.38-.62,2.05-2.07,1.6-5.31,2.52-7.76,5.03-.97.99-5.49,6.94-4.61,7.87ZM167.9,296.3c.7-1.21.06-2.42-.86-3.37-1.19-1.24-11.76-6.38-13.97-7-3.71-1.05-13.48-2.6-14.87,2.21-1.69,5.86,10.81,6.51,14.85,8.3.8.86-11.55,13.77-5.35,15.84,5.25,1.76,12.95-10.17,16.81-13.91,1.03-1,3.29-1.9,3.39-2.07ZM422.87,458.1c2.48,2.87,15.41-7.44,15.83-8.64,1.27-3.63-5.92-14.36-8.54-15.15-1.35-.41-9.91,1.49-10.29,1.86-1.61,1.55.63,1.75,1.3,2.22,4.25,2.92,8.82,5.73,11.5,10.26-.43,1.8-10.37,8.8-9.8,9.46ZM396.89,440.14c5.5,1.16,8.75,4.17,11.97,8.5,0,1-20.33,9.7-10.25,12.33,3.43.9,26.14-6.97,27.19-10.46,1.14-3.77-14.65-14.93-19.27-13.26l-9.64,2.9ZM380.9,457.1c3.87,2.91,17.63-3.74,18.01-7.5.59-5.83-10.25-12.82-16.01-8.93-3.09,2.09,3.94,7.06,3.94,7.97,0,1.14-7.43,5.32-5.95,8.47Z"/>
        <path class="cls-2" d="M201.65,209.95c.82.86,2.23,2.82,2.16,3.97-.29,5.02-20.5,20.98-24.33,15.68-3.6-4.97,12.97-12.44,12.46-15.37-.82-4.72-13.77-8.09-15.91-10.12-5.06-4.77,7.36-5.01,11.03-4.03,2.23.6,12.84,8.04,14.59,9.87Z"/>
        <path class="cls-2" d="M196.02,198.62c8.12-1.79,31.58,10.75,31.99,18.55.26,5.01-15.2,10.81-19.6,11.31-16.58,1.88,5.92-12.03,5.51-14.25-2.03-1.97-3.28-4.83-5.4-6.65-1.13-.97-14.48-7.28-12.51-8.96Z"/>
        <path class="cls-2" d="M167.9,296.3c-.1.17-2.36,1.07-3.39,2.07-3.86,3.73-11.56,15.67-16.81,13.91-6.2-2.08,6.15-14.98,5.35-15.84-4.04-1.78-16.54-2.44-14.85-8.3,1.39-4.81,11.16-3.26,14.87-2.21,2.21.62,12.78,5.76,13.97,7,.92.95,1.56,2.15.86,3.37Z"/>
        <path class="cls-2" d="M396.89,440.14l9.64-2.9c4.62-1.66,20.41,9.5,19.27,13.26-1.06,3.49-23.76,11.36-27.19,10.46-10.08-2.63,10.24-11.33,10.25-12.33-3.22-4.32-6.47-7.34-11.97-8.5Z"/>
        <path class="cls-2" d="M180.72,219.28c-6.29,2.59-12.69,12.35-19.17,12.36-13.19.02,9.3-11.98,8.5-15.54-1.7-3.2-16.41-5.82-16.99-6.52-2-2.41,5.22-5.86,7.49-6.06,5.87-.53,26.06,8.64,20.18,15.76Z"/>
        <path class="cls-2" d="M140.06,263.48c6.65.08,18.67-.86,20.98,6.98-5.08,3.06-21.73,1.73-26.28-.93-6.28-3.67-1.55-12.35,2.83-16,3.56-2.96,15.02-9.53,17.46-3.53-5.22,4.29-11.1,7.76-14.99,13.48Z"/>
        <path class="cls-2" d="M178.03,245.53c1.76,2.41-10.79,7.46-11.97,9.47-.07,1.72,17.2,4.23,18.82,8.15,1.44,3.49-1.31,4.15-4.36,4.35-3.66.23-19.4-4.8-23.47-6.51s-5.1-3.76-1.65-7.14c4.85-4.75,15.8-11.45,22.63-8.32Z"/>
        <path class="cls-2" d="M166.04,307.4c-.89-.93,3.64-6.88,4.61-7.87,2.46-2.52,5.69-3.43,7.76-5.03.87-.67.96-1.68.62-2.05-1.39-1.5-14.01-5.3-16.71-6.77-4.33-2.35,4.19-3.91,6.33-4.12,5.68-.56,10.99.88,15.71,4.05,12.85,8.62.82,10.37-5.83,15.8-4.21,3.44-4.45,8.76-12.49,5.98Z"/>
        <path class="cls-2" d="M200.01,293.41c2.59-3.65-15.27-6.79-11.99-12.95,5.42-2.69,23.93,6.73,22.83,12.33-.77,3.93-18.13,14.6-22.35,14.51-5.48-.12-5.12-3.23-1.39-6.29,2.17-1.78,12.46-6.98,12.89-7.59Z"/>
        <path class="cls-2" d="M191.03,252.52c-1.42,1.9,17.25,7.02,14.98,11.96-3.67-.13-7.38.47-11.02-.46-1.79-.46-15.6-8.24-15.87-9.17-2.25-7.65,19.78-14.83,22.91-12.85,4.75,3-7.87,10.58-11,10.53Z"/>
        <path class="cls-2" d="M150.05,218.59c-3.01-1.61-14.22-3.3-15.99-4.5-1.13-.76-1.3-1.66-.91-2.91,2.21-7.24,26.95,3.02,27.84,6.02.6,2.02-9.35,11.9-11.43,13.36-1.56,1.09-3.59,2.21-5.45,2.56-11.66,2.17,2.41-11.82,5.94-14.54Z"/>
        <path class="cls-2" d="M128.06,225.57c-2.1-.29-10.45,1.01-10.98-1.52-1.24-5.88,22.87-8.31,22.98-2.03.06,3.09-11.75,18.92-14.38,18.46-7.55-5.46.1-9.28,2.38-14.92Z"/>
        <path class="cls-2" d="M220.99,244.54c2.34,3.45-6.96,6.47-6.97,7.47l11.96,11c-2.87,10.38-24.27-8.65-23.9-10.86.54-3.19,16.04-11.84,18.91-7.61Z"/>
        <path class="cls-2" d="M380.9,457.1c-1.49-3.15,5.95-7.33,5.95-8.47,0-.91-7.03-5.88-3.94-7.97,5.76-3.89,16.6,3.11,16.01,8.93-.38,3.76-14.14,10.41-18.01,7.5Z"/>
        <path class="cls-2" d="M422.87,458.1c-.57-.66,9.37-7.66,9.8-9.46-2.68-4.53-7.25-7.34-11.5-10.26-.68-.47-2.92-.66-1.3-2.22.38-.36,8.94-2.26,10.29-1.86,2.62.79,9.81,11.52,8.54,15.15-.42,1.2-13.35,11.51-15.83,8.64Z"/>
        <path class="cls-2" d="M237.99,252.49c-12.54,1.84,4.09,5.03,2,11.99-3.85,2.78-17.03-9.42-17.04-11.48-.02-3.94,16.58-7.91,15.04-.5Z"/>
        <g>
          <path class="cls-15" d="M395.88,224.56c-1.18,1.55-1.81,4.38-3,5.99-2.47,3.35-7.52,7.57-11.99,6.98,1.32-1.88,3.82-3.49,5.02-5.49.62-1.03.65-1.86.97-2.48,1-1.95,1.23-4.48,2-5.99,3.62-7.12,11.78-11.33,16.97-3.49-3.84,3-6.55,0-9.97,4.49Z"/>
          <g>
            <path class="cls-15" d="M441.85,196.62c.42,3.5,4.63,8.46,7.99,8.98,7,1.08,13.84-.46,20.04,5.44.84.8,4.33,5.49,4.95,6.54.25.43.06,2.36.77,3.67,1.61,2.94,5.61,8.31,6.22,11.3.14.67.16,3.45,0,3.99-.12.39-4.59,6.3-4.99,6.49-1.88.92-6.23.95-5.58-1.54.66-2.51,3.69-3.7,3.57-7.95-.16-5.31-7.56-18.34-12.62-20.83-1.72-.85-7.91-3.99-8.39-.64-.74,5.2,2.48,14.48,1.03,20.48,3.73,1.16,2.99-2.52,4.96-3.51,3.75-1.87,10.12.59,11.02,4.5,2,8.73-5.17,6.98-8.53,9.95-2.3,2.03-2.6,5.94-4.97,8.01-.63-2.57.04-8.75,1.03-10.95,1.52-3.36,6.7-2.67,6.47-6.01-2.22,1.56-9.56-.31-9.98-.01-.19.14-.6,3.2-1.01,4-.11.21-1.32.52-1.74,1.72-3.72,10.62,1.52,19.85,8.73,27.23,2.15,2.2,3.46,2.62,5,3.99,1.08,4.81,3.92,7.84,5,12.98.39,1.85,1.06,6.69,1.08,8.49.09,6.11-6.34,6.89-7.08.49,2.89-9.47-2.72-16.06-8.99-21.96-1.1-1.04-2.38-1.44-3-2-.2-2.31-2.5-5.72-3.74-7.71-.48-.76-.86-2.86-2.25-1.28-.54.62-2.36,13.24-3.29,16.19-5.11,16.32-10.66,26.3-20.7,39.71-.51.68-2.29.86-2.8,2.67-.89,3.13,1.24,9.07-2.2,10.86-2.45,1.27-3.5-1.14-5.56-1.53-3.54-.67-8.56,1.39-11.41,3.49-1.67,1.22-1.37,3.28-3,3.47-.18-4.7,2.84-10.99,7.99-10.98.57-2.42-2.2-2.57-3.41-4.08-1.84-2.31-2.74-5.46-5.59-6.89-9.32-4.7-6.86,5.77-14.98,6.98l4.97-9.5c4.99-4.72,11.71-3.36,16.01,1.52,1.86,2.11,2.49,6.78,7,5.99,1.76-.92,1.15-3.54.49-4.98-1.17-2.57-4.96-1.97-4.48-4.99,5.15-2.22,7.69,1.59,9.49,5.97,2.82-3.53,8.06-6.91,10.35-10.62,5.38-8.7,19.98-48.57,19.16-57.73-.13-1.42.41-1.83-1.41-1.41-7.54,1.76-20.89,4.99-25.6,10.88-3.88,4.85-2.96,4.56-2,10.97-3.11,1.26-5.36-1.58-6.99-1.99l.99-8.98c-3.36,1.62-3.13,5.84-2.99,8.98-2.1.53-8.1,2.07-9.74,2.75s-6.07,6.46-7.24,5.23c.72-3.19.97-7.2,3.35-9.62.96-2.88,9.63-1.41,8.63-3.83-2.42-5.88-9.07-5.79-13.98-3.51-2.1-.03-3.93.76-5.7,1.79-.84.49-7.5,6.93-6.27,2.72,2.11-7.25,15.2-13.08,22.23-11.25,2.47.64,5.33,4.53,8.73,3.74-1.48-5.34-1.81-10.66,5-10.96-2.73,1.7-2.73,10.56.5,10,1.06-.18,8.64-5.88,11.81-7.2,6.1-2.52,13.53-2.78,18.67-6.81,2.81-2.2,3.07-2.43,4-5.99,1.03-3.99.36-8.75,0-12.98-.45-5.23.69-10.55-6-12.98-.05-1.92-1.88-7.8-.98-8.98.19-.26,1.55.17,1.98,0Z"/>
            <path class="cls-5" d="M474.83,233.55c.13,4.25-2.91,5.43-3.57,7.95-.65,2.49,3.7,2.47,5.58,1.54.39-.19,4.87-6.1,4.99-6.49.54,1.22,2.41,1.44,3,2,.71.68,1.26,2.16,2,2.99-2.6-1.37-12.69,5.3-12.97,6.56-.14.63,2.05,3.17,2.09,5.9.05,3.26-1.72,4.65-2.1,7.51,7.86-3.83,10.57-6.29,6.99-14.97,6.91-1.37,8.95,10.11,12.99,10.97-.03,8.81-10.16,24.91-20.29,21.79-.6-.18-5.99-6.29-7.69-7.81-1.53-1.38-2.85-1.8-5-3.99-.81-5.94-6.8-9-7.75-14.72-.79-4.76-.18-9.58.76-14.23.41-.81.82-3.86,1.01-4,.41-.29,7.76,1.57,9.98.01.24,3.34-4.95,2.65-6.47,6.01-.99,2.2-1.65,8.38-1.03,10.95,2.37-2.07,2.67-5.98,4.97-8.01,3.36-2.97,10.53-1.22,8.53-9.95h4Z"/>
            <path class="cls-5" d="M387.89,255.5c4.92-2.28,11.56-2.37,13.98,3.51,1,2.42-7.67.95-8.63,3.83-2.38,2.42-2.63,6.43-3.35,9.62,1.17,1.23,5.65-4.58,7.24-5.23s7.64-2.21,9.74-2.75c.38-.1,1.61-.1,2,0,1.63.41,3.88,3.26,6.99,1.99-.95-6.41-1.88-6.12,2-10.97,13.12,6.71,16.55,21.31,9.64,34.08-17.24,31.83-66.69,1.6-47.61-26.59,1.42-2.1,5.75-6.45,7.99-7.49Z"/>
            <path class="cls-5" d="M464.84,293.43c.74,6.4,7.18,5.62,7.08-.49-.03-1.8-.7-6.65-1.08-8.49,2.41-.16,4.63.84,7,1-.64,1.82-3.16,1.91-3.82,3.68-.26.7-1.49,7.42.32,7.28.65-.05,4.35-7.35,10.49-6.97,21.98,22.21-5.23,53.32-32.35,39.8-11.95-5.95-19.38-25.2-11.62-36.81,4.47-6.68,14.72-8.52,15.99.99-3.15-1.11-11.74,6.59-9.98,8.99,7.26-5.58,18.8-3.1,19.47,6.98,6.36-6.62-2.6-10.21-3.32-12.65-.67-2.26.4-4.84-.69-7.3-.8-1.81-4.67-3.66-5.48-6,.14,0,1.15-1.09,2.47-1.09,5.54,0,5.09,7.39,5.52,11.08Z"/>
            <path class="cls-15" d="M456.84,283.45c.82,2.34,4.68,4.2,5.48,6,1.09,2.45.02,5.04.69,7.3.72,2.44,9.67,6.03,3.32,12.65-.67-10.08-12.21-12.56-19.47-6.98-1.75-2.4,6.83-10.11,9.98-8.99-1.27-9.51-11.52-7.67-15.99-.99-.64-5.63,4.85-11.01,10.36-10.67,1.77.11,3.65,1.63,5.63,1.68Z"/>
            <path class="cls-15" d="M486.82,241.53c.66.75,2.1,1.21,3.01,2.45,3.17,4.31,2.33,10.19,10.97,8.53-.2,3.4-3.9,5.65-6.99,4.99-4.03-.86-6.08-12.35-12.99-10.97,3.58,8.68.87,11.14-6.99,14.97.38-2.85,2.15-4.25,2.1-7.51-.04-2.73-2.24-5.27-2.09-5.9.29-1.26,10.37-7.93,12.97-6.56Z"/>
            <path class="cls-15" d="M477.83,285.45c9.49.64,14.36-1.72,14.98,10.98-3.35-1.63-3.85-6.73-7.98-6.99-6.14-.38-9.84,6.92-10.49,6.97-1.81.14-.58-6.58-.32-7.28.65-1.77,3.18-1.86,3.82-3.68Z"/>
            <path class="cls-5" d="M455.84,271.47l1.99,5.98c-6.89.65-10.91-4.86-9.99-11.49.61-4.39,3.05,1.75,5,3.51.62.56,1.89.96,3,2Z"/>
            <path class="cls-13" d="M474.83,233.55h-4c-.9-3.91-7.28-6.37-11.02-4.5-1.97.98-1.23,4.67-4.96,3.51,1.45-6-1.77-15.27-1.03-20.48.48-3.35,6.67-.22,8.39.64,5.06,2.5,12.46,15.52,12.62,20.83Z"/>
            <path class="cls-8" d="M453.84,238.54c-.93,4.65-1.55,9.47-.76,14.23.95,5.72,6.95,8.78,7.75,14.72-7.21-7.38-12.45-16.6-8.73-27.23.42-1.2,1.63-1.51,1.74-1.72Z"/>
            <path class="cls-13" d="M446.85,231.55c-1.19.51-2.59-.94-3-1,.48-3.88.64-8.81,3-11.98.36,4.22,1.03,8.99,0,12.98Z"/>
            <path class="cls-8" d="M408.87,264.49c-.38-.1-1.62-.1-2,0-.14-3.14-.37-7.37,2.99-8.98l-.99,8.98Z"/>
            <g>
              <path class="cls-5" d="M396.88,313.39c2.85,1.44,3.75,4.58,5.59,6.89,1.2,1.51,3.98,1.66,3.41,4.08-5.14,0-8.16,6.28-7.99,10.98,1.63-.19,1.34-2.25,3-3.47,2.85-2.09,7.87-4.16,11.41-3.49,2.06.39,3.11,2.8,5.56,1.53,3.44-1.79,1.31-7.73,2.2-10.86.51-1.81,2.29-1.99,2.8-2.67l6,4.99c-5.23-.54-10.14.81-3.44,3.96,1.02.48,2.62.29,3.75.97,1.65.99,2.62,5.29,6.68,6.05,1.59,8.32,1.89,12.6-2.58,19.88-15.4,25.07-54.37,10.03-51.27-17.28.44-3.87,4.57-14.85,6.9-17.81.92-1.17,6.18-3.21,7.98-3.76Z"/>
              <path class="cls-15" d="M428.86,321.38c6.8.7,5.3,10.86,14.99,7.99-1.16,3.2-5.1,3.53-7.99,2.98-4.07-.76-5.03-5.06-6.68-6.05-1.13-.68-2.74-.49-3.75-.97-6.7-3.14-1.79-4.5,3.44-3.96Z"/>
              <path class="cls-5" d="M409.87,318.38c-4.51.79-5.13-3.88-7-5.99,5.45-.48,7.83-.18,7,5.99Z"/>
            </g>
          </g>
          <path class="cls-8" d="M446.85,218.57c-2.36,3.17-2.51,8.1-3,11.98-1.62-.21-3.37.17-5,0l2-24.95c6.69,2.43,5.55,7.74,6,12.98Z"/>
          <g>
            <path class="cls-13" d="M514.8,177.65c-4.11,8.81,19.86,12.35,20,5.5.02-.82-2.23-.66-3.01-.51.59-6.65,6.02-4.64,9.96-1.46,4.4,3.56,7.46,13.28,6.93,18.81-.23,2.4-3.83,15.84-4.95,17.07-.75.83-2.22.96-2.95,1.51.44-3.07-1.12-1.98-3.06-1.56-2.52.55-4.91,2.26-7.93,1.57l6,2.98c-10.89,5.61-18.97,7.24-30.98,8.98,1.46-8.04,4.71-14.29,2.22-22.68-1.01-3.39-5.65-8.06-6.03-10.99-.12-.91,1.39-7.17,1.81-8.25,1.92-4.92,6.16-9.3,10.73-11.84,1.05-.23,1.03.72,1.26.86ZM540.77,182.65c-2.39-1.82-4.9,6.95-3.98,7.98.36.4,7.53-3.86,4.21,5.72s-17.87,5.4-25.19,3.75c8.63,7.78,29.96,12.19,28.97-4.94-.1-1.8-3.28-11.94-4.02-12.51ZM518.79,193.63c-1.92-.21-4.31-.51-5.94-1.56-2.8-1.81-2.37-6.41-6.04-6.43-.65,6.15,1.65,8.18,7.47,9,.93.13,4.74.69,4.51-1.01Z"/>
            <path class="cls-13" d="M469.83,165.68c-1.79,4.73,5.25,9.64,8.99,10.56,1.7.42,9.58-.3,8.99-3.57.74-.1,1.32-1.31,2.95-.54,4.29,2.03,4.23,8.7,5.04,12.51-2.21,2.62-1.68,7.58-2.97,10.33-.58,1.23-1.75.44-2.03.65,1.03-6.99-6.96,1.88-9.99,0,.86,2.82,4.01,1.73,6,1.99l-7.79,8.69c-1.91,3.51-4.01,7.16-4.2,11.27-.62-1.04-4.11-5.74-4.95-6.54-6.19-5.9-13.04-4.36-20.04-5.44,4.66-7.68,3.14-15.04,4-22.96.78-7.26,7.99-17.46,15.99-16.97ZM478.82,184.64c-3.55.25-6.73-.04-10-1.49-2.79-1.24-7.77-8.03-9.97-6.49-.18.13-1.07,3.51-.88,4.28.82,3.48,11.15,5.48,14.32,5.72,1.88.15,7.59,1.05,6.53-2.03Z"/>
            <path class="cls-7" d="M496.81,186.64c.77,3.38-.47,7.56,4,1l2,1c-.42,1.08-1.93,7.34-1.81,8.25.38,2.93,5.02,7.59,6.03,10.99,2.49,8.38-.76,14.63-2.22,22.68-7.6,1.1-15.28,2.3-22.98,2-.61-2.99-4.61-8.36-6.22-11.3-.72-1.31-.52-3.25-.77-3.67.19-4.11,2.29-7.76,4.2-11.27l7.79-8.69c.64.08,1.41-.12,2,0,.14.03.19,1.25.99,1v-2c.36-.37.46-.58,1.01-1,.28-.21,1.45.58,2.03-.65,1.29-2.75.76-7.71,2.97-10.33.2.93.92,1.64,1,2ZM497.81,206.59c2.43-2.37-4.31-5.62-5.99-3.98-2.43,2.37,4.31,5.62,5.99,3.98Z"/>
            <path class="cls-8" d="M453.84,182.64c-.85,7.92.67,15.28-4,22.96-3.36-.52-7.58-5.48-7.99-8.98,2.99-1.18,4.52-2.32,6.24-5.24.17-2.36,1.64-6.88,1.75-8.73h4Z"/>
            <path class="cls-16" d="M469.83,165.68c5.3.33,3.17,2.35,5.3,4.7,3.22,3.56,8.61,2.83,12.69,2.29.58,3.27-7.29,3.99-8.99,3.57-3.74-.92-10.78-5.84-8.99-10.56Z"/>
            <path class="cls-16" d="M531.79,182.64c.78-.15,3.02-.32,3.01.51-.13,6.85-24.11,3.31-20-5.5,3.29,1.97,3.93,5.91,8.75,6.8,3.95.73,5.33-1.24,8.24-1.81Z"/>
            <path class="cls-16" d="M535.79,221.57l-6-2.98c3.02.68,5.41-1.02,7.93-1.57,1.94-.42,3.5-1.51,3.06,1.56-2.47,1.87-2.4,1.66-5,2.99Z"/>
            <path class="cls-16" d="M518.79,193.63c.23,1.7-3.58,1.14-4.51,1.01-5.82-.83-8.12-2.85-7.47-9,3.67.02,3.23,4.63,6.04,6.43,1.63,1.05,4.03,1.35,5.94,1.56Z"/>
            <path class="cls-16" d="M540.77,182.65c.75.57,3.92,10.71,4.02,12.51.99,17.13-20.35,12.72-28.97,4.94,7.31,1.65,21.73,6.21,25.19-3.75s-3.85-5.32-4.21-5.72c-.93-1.03,1.58-9.8,3.98-7.98Z"/>
            <path class="cls-16" d="M478.82,184.64c1.06,3.07-4.65,2.17-6.53,2.03-3.17-.25-13.5-2.25-14.32-5.72-.18-.78.7-4.16.88-4.28,2.2-1.54,7.18,5.24,9.97,6.49,3.27,1.46,6.44,1.75,10,1.49Z"/>
            <path class="cls-16" d="M486.82,197.61c-1.98-.26-5.13.83-6-1.99,3.04,1.87,11.02-7,9.99,0-.55.42-.65.63-1,1-.32.34-.73.6-1,1-.59-.12-1.35.08-2,0Z"/>
            <path class="cls-16" d="M497.81,206.59c-1.67,1.63-8.41-1.62-5.99-3.98,1.67-1.63,8.41,1.62,5.99,3.98Z"/>
            <path class="cls-13" d="M489.82,196.62v2c-.81.26-.86-.97-1-1,.27-.39.68-.66,1-1Z"/>
          </g>
        </g>
      </g>
      <g>
        <g>
          <path class="cls-14" d="M496.81,186.64c1.64-5.18.72-9.87,2.06-15.41.73-3.02,8.66-18.54,7.93-19.5-.12-.16-3.72-1.18-3.95-1.01-.63.45-4,11.59-4.98,13.52-.4.78-1.86,3.82-3.05,2.43-2.14-2.5,8.54-21.16,0-21.95-1.74,1.61-3.6,20.16-5,23.45-2.5,5.89-13.7.84-14.08-4.98-.35-5.45,4.7-10.29,8.58-13.49,1.13-.93,1.61-2.42,3.49-1.99.79.82-5.65,14-6,16.47-.3,2.07,1.47,1.96,2.51,1.49,2.22-1.01,2.96-10.22,3.79-13.18s3.49-8.19,3.7-10.37c.32-3.28-1.94-4.89-1.94-6.89,0-1.59,1.54-2.88,1.73-4.22.55-3.88-.67-11.55,4.21-10.26-.14,2.1-.07,3.97.49,6.03.36,1.32,1.32,4.72,3.5,3.96.85-2.67-1.51-1.54-1.95-2.72-3.42-9.09.82-12.83,1.89-19.79,1.76-11.38-2.19-26.33-7.2-36.6-1.67-3.43-4.76-5.28-5.72-8.75h4.99c.5-.45-3.95-9.25-1.52-13.01,3.78-5.86,3.31,10.97,6.51,11,1.25-8.13,3.55-20.11,13-21.95.08,5.74-6.07,9.24-5.98,14.97.21.29,4.46-3.28,6.47-2.99s1.11,1.33.46,2.49c-1.73,3.08-2.45,6.89-3.93,10.48.27.32,8.76-5.55,6.98-1.51-1.03,2.33-4.33,4.33-5.35,8.72-.58,2.47.28,4.06-.09,5.78-.64,2.92-4.57,6.11-3.53,9.95l6.16-10.3,3.33-3.66c3.27,6.83-3.53,12.71-4.44,18.52-.89,5.69.51,12.56-.32,18.64-.52,3.81-5.98,16.59-5.61,18.01.18.69,1.78,2.44,2.37,2.7,1.86.82,7.56-21.8,7.5-23.96l2.98,1.02c2.52-6.35-.98-10.76-.99-16.97l4.98,2.99c.24-8.23-2.47-14.7,4.49-20.98,1.25-1.13,2.21-.71,2.46.56.4,2.02-.57,7.95.07,10.75.17.75,1.8.62,1.97,1.36.91,4.14-1.37,11.44,6.02,10.31,4.4,3.93-25.54,30.86-23.99,37.92l5.48-1c5.62-11.66,20.34-23.29,21.53-36.38.46-5.05-.63-22.8-3.59-26.44-1.62-1.99-8.65-6.09-9.18-8.66-.2-.97.75-2.42.51-3.63-.63-3.15-2.65-6.03-1.76-9.72.22-.3,7.72,5.56,5.98,1.51-.95-2.21-15.8-13.91-12.98-17.48l2.97-.48c-1.06-2.77-5.56-9.28-.98-10.02,2.82,5.34,8.08,9.09,10.73,14.25,2.34,4.56,2.54,11.21,7.25,14.2-.72-13.94-16.34-30.12-4-41.91l6,16.96c1.08-3.75-2.44-24.03,1.52-24.94,3.44.96,4.52,5.96,4.49,8.97,1.51.07,1.25-1.9,2.46-3.01.72-.66,5.92-4.62,6.52-3.97.17,3.47-2.81,6.17-4.99,8.48l2.98.52c.96,6.87-5.97,9.51-7.98,14.94,2.02.47,2.67-2.01,4.49-1.99.39,0,7.39,2.06,7.49,2.51l-8.98,13.46c4.76-2.77,6.05.79,6.64.92,1.37.3,4.08-2.18,3.34,3.5-.09.71-3.32,8.61-3.9,9.12-6.07,5.3-14.78-.52-12.07,13.41.26.35,7.07-3.99,7.49-3.97,3.91.25-2.15,11.15-1.5,11.95l5.98-2.99c2.38,6.09-7.09,9.99-7.78,11.18-1.16,2.03-1.68,15.78-3.15,20.31-1.07,3.28-16.34,28.35-15.04,29.38,7.46-.39,9.01-8.39,13.01-13.44,5.23-6.59,16.84-16.17,25.51-16.52,7.96-.32,10.5,5.3,15.44,10.01-.31-.7-.08-2.28-.75-3.7-1.26-2.67-4.9-3.77-4.24-7.28,15.26,4.17,19.58,20.86,18.97,34.93-2.89.56-1.59-.84-2.25-2.19-2.05-4.21-4.33-14.49-4.95-15.57-.22-.38-2.27-.96-3.28-2.2-1.95-2.38-1.47-2.06-3.5-3.99,7.83,17.77,10.97,37.83,5.98,56.88-1.56.35-1.38-2.91-2.49-2.97-.56-.03-2.63,3.46-4.11,3.74s-4.41-1.35-6.39-.77c-.94-3.91,4.39-5.54,5.48-8.01,1.2-2.71.57-7.37,2.56-10.38l-5.03-1.58c-.46-3.82,4.55-.53,5.79-4.68,1.55-5.19-1.88-20.15-4.03-25.51-5.09-12.65-11.68-14.65-23.76-8.24-12.11,6.43-10.39,16.64-18.64,22.31-7.46,5.12-18.73,6.11-27.27,3.62-3.36-.98-4.88-3.2-8.03-3.44,11.95,10.53,26.94,7.53,39.97.99l.99,4.98c.06-3.86,4.69-13.2,9.4-11.92,5.52,1.49-3.52,7.24-4.83,9-2.38,3.2-4.72,13.69-6.06,3.93-11,11.75-29.19,5.38-41.47-1l3.75,3.95c9.67,5.61,19.13,7.5,30.24,7.6.77,5.57-1.35,10.59-2,15.91s2.19,14.99-6.51,15.01c-12.37.03-5.46-19.18-2.5-25.5-1.4.29-3.34-1.07-4.4-.84-2.63.57-5.66,14.91-7.16,17.73-1.04,1.97-8.05,10.56-10.42,14.04-4.47,6.57-3.23,2.39-4-1ZM546.77,40.93c-1.4-.72-2.67.63-1.99.98,1.4.72,2.67-.63,1.99-.98ZM533.78,54.88c.72-1.4-.63-2.66-.98-1.99-.72,1.4.63,2.66.98,1.99ZM525.78,177.65l4-19.96c-1.5.23-2.23,3.42-2.74,4.74-1.39,3.61-5.4,12.68-1.26,15.22Z"/>
          <path class="cls-14" d="M580.75,56.89l-2.99,10.97c10.22-3.55,3.51,5.62,3.99,5.98,1.22-.25,4.97.26,4.98,1.51.02,2.43-10.76.84-11.97,3.48,4.28.39,8.86,1.97,10.97,5.98-6.09,5.25-11.13-3.45-17.97-1.97-.95,2.53,1.48,1.84,1.69,2.21,2,3.4-1.46,2.56-3.37,3.57-2.05,1.09-13.19,8.88-11.31,11.19,5.14-2.77,10.67-4.38,16.49-4.97s16.3.42,21.83-.99c.2-.05,2.23-4.81,2.65-1.49.19,1.5-1.02,3.95,1.47,3.45,5.95-1.2,3.46-11.21,5-13.97,1.7-3.06,4.4,3.96,4.54,5.49.3,3.12-.9,5.25-.94,7.08,0,.29,3.28.11.91,4.41l6.99-1.98c.72.69-2.02,7.32-4,7.48.62,1.3,4.97-2.23,3.99.98-1.59,5.21-8.54,5.88-12.97,5.01,3.94,2.89,23.34.16,9.99,5.5l2.99,6.97-9.98-2.99c2.48,6.07,4.69,11.71,5.02,18.42.66,13.26-4.85,26.64-5.07,39.03-.06,3.26,1.73,4.65,1.99,6.98.5,4.64-.7,10.35.27,14.7,1.61,7.22,13,7.53,18.77,5.71l-1,2.98c3-.01,6.44-.42,8.99,1.5-6.93,5.96-15.7,3.34-22.97-.49-.03,7.02,13.81,6.22,14.97,8.5.11,2.95-5.11,2.33-6.98,2.49l3.99,1c-3.42,1.95-1.89,5.61-2.09,5.89-.3.43-8.88,4.72-9.41,4.72-2.53-.01-5.79-4.85-6.54-7.08-1.91-5.67.92-11.77-2.94-15.52-.11,6.94-3.27,13.07-1.01,19.96-5.16.02-1.62-8.12-4.98-9.97,1.54,5.32-3.58,11.3-3.99,15.56-.47,4.86,6.43,21.29,4.98,23.37l-1.98-1.01.99,10.98c-1.72,1.94-6.96-7.76-7.36-9.19-.97-3.53.91-7.32.37-11.29-.19-1.36-.72-3.14-1.99-1.47,1.63,11.1-2.31,18.41-8.41,27.06-.84,1.19-.04,2.44-2.58,1.87l3.98-17.96-5.99,10.47c-1.19.9-6.75,7.77-7.99,6.48-.61-1.78,1.76-3.04,1.64-4.47-.07-.86-1.64-1.42-1.29-3.53.36-2.15,5.43-8.19,4.64-8.96-4.57.06-6.32,7.05-9.49.99-2.53-4.82,5.76-2.33,7.49-6.98-1.64-.47-3.49,1.81-4.5,1.73-.37-.03-5.73-3.95-5.45-5.16,1.38-6.04,16.96-4.81,20.94-10.06l-10.58,3.41c-1.1.03-5.39.99-4.4-1.39,1.35-3.23,13.34-7.21,16.83-11.15,2.54-2.86,13.79-22.66,15.34-26.6,1.46-3.7,2.1-7.7,1.79-11.67l-8.79,19.65c-.11,1.26-7.18,8.3-7.2,5.79l2.01-4.47c-2.58.39-4.03-.65-5.99-2.01.05,6.3,4.64,17.24-5.01,17.96-.29-.22,2.93-6.31.01-6.97-3.61,11.87-6.23,15.58-19.49,13.97-1.64-5.61,10-6.52,13.48-10.5-.19-3.83-.73-.53-1.06-.32-3.13,2-6.32,3.5-9.92,1.82-1.66-1.76,5.96-5.05,6.98-4.99.4-2.07-4.06.21-2.98-2.47.17-.43,4.81-6.81,5.45-7.54,2.43-2.75,6.24-3.94,8.08-5.92,1.28-1.37,1.23-3.52,2.08-4.12,1.42-.99,4.61-.61,6.38-1.39,1.29-.57,7.99-4.2,8.68-4.81,1.71-1.52,9.05-19.17,10.02-22.43.98-3.28,1.99-8.34,2.25-11.72.09-1.1.81-4.64-.97-4.47-1.67,9.98-3.8,21.22-12.99,26.94-.15-6.93,5.67-14.27,6.75-20.7.59-3.48-.05-6.95.49-10.48,2.31-15.02,7.75-18.35-.74-34.71-9.62-18.54-27.72-20.75-44.4-9.37-2.42,1.65-8.52,7.92-9.6,8.38-1.22.52-1.88-.22-1.47-1.47l17.74-30.22c1.14-4.36-4.86-13.19,4.22-10.23v-11.97c3.33.52,2.83,3.06,5.99,0l.5,8.98c3.19-5.17,6.42-10.65,12.49-12.97ZM605.73,100.81c-1.4-.72-2.67.63-1.99.98,1.4.72,2.67-.63,1.99-.98ZM579.75,246.52c.72-1.4-.63-2.66-.98-1.99-.72,1.4.63,2.66.98,1.99ZM577.01,249.49c0-.68-.55-1.23-1.23-1.23s-1.23.55-1.23,1.23.55,1.23,1.23,1.23,1.23-.55,1.23-1.23Z"/>
          <path class="cls-14" d="M629.72,155.7c-1.21,3.68-1.21,4.18-1.1,7.6.21,6.28-6.56,2.26-9.89,1.38,2.77,2.07,5.99,5,9.1,6.41,2.9,1.31,6.26-.02,3.38,6.57-1.08,2.46-3.37.81-3.48.98-.55.93,2.8,7.83-1,8.98l-2.02-6.97c-2.51.1.72,5.91-2.47,4.97-4.59-1.35-8.24-8.6-10.68-12.34-.72-1.1-2.4-1.5-2.88-2.32-3.47-5.93.21-12.87.93-18.89.56-4.71-1.26-10.52,1.63-14.35,2.18,10.73,5.42,19.85,18.48,17.97Z"/>
          <path class="cls-14" d="M471.82,59.88c.24,5.01,2.29,9.39,4.02,13.96l1.99-1.5c1.42,1.43,3.55,7.11,4.01,7.49,2.02,1.69,2.01-3.77,3.96-1.98,1.27,1.15,1.49,14.92,2.22,17.77l4.78,4.18c.59-5-4.12-9.13-1.98-13.96,2.92,1.63,2.53,7.71,6.98,4.98,1.05,8.15,1.49,16.49-4.5,22.96l-11.48-22.46c-1.25-3.28-13.2-8.34-14-9.49-1.46-2.12,3.53-3.63,4.99-2.98.79-.71-9.61-17.63-1.01-18.96Z"/>
          <path class="cls-14" d="M586.75,173.67c-2.82,15.71-16.82,27.14-30.97,32.93.02-5.76,4.71-9.79,9.98-10.99-.29-1.9-4.49-1.88-3.98-4.46.38-1.98,5.39-1.58,6.98-1.52-.83-2.4-6.03.49-6.92-2.61-.28-.98,1.46-6.38,2.17-7.15,1.78-1.91,6.44,1.06,9.99.58,5.32-.71,7.86-5.49,12.75-6.78Z"/>
          <path class="cls-14" d="M569.76,116.76c-.31.37-2.39-.82-1.99,1,4.6-.53,8.63,3.55,7.98,7.99-3.46-1.99-4.92,1.7-7.98,0,1.28,3.89.79,8.27-2.51,10.96-4.6-7.07-2.12-14.19-13.48-13.45,2.93-4.7,7.61-9.97,13.78-8.87,1.07.19,5.06,1.36,4.2,2.37Z"/>
          <path class="cls-14" d="M612.73,260.49c2.05,1.67,6.17,5.11,6.98,7.5s-.87.95-1.72.72c-5.77-1.57-18.67-13.35-19.24-20.2,4.08,2.25,7.45,1.45,11.42,2.05,2.86.44,6.6,3.87,4.56,5.92-1.01,1.01-7.69-1.26-7.99-.99-2.33,2.18,3.75,2.87,3.99,2.99-1.23,2.62,1.45,1.55,2,2Z"/>
          <path class="cls-14" d="M610.74,258.5c1.11-2.37,7.04-.47,8.99.01-.25,2.01-5.8,2.35-6.99,1.98-.14-.04-.81-1.4-2-2Z"/>
          <path class="cls-14" d="M598.74,238.54c.6.91-.34,2.71,2.52,3.07,3.15.4,4.51-2.37,7.47-2.07l.49,2.99c6.71-5.87,4.31,6.2,0,7.01-6.86,1.3-16.89-6.05-11.97-12.99.11-.05,1.27,1.65,1.49,1.99-.45-.79-.74-4.7-.99-5.99,1.12.54,5.95,5.08,5.97,5.49.05,1.52-4.11,2.03-4.98.5Z"/>
        </g>
        <g>
          <g>
            <path class="cls-9" d="M326.93,204.6c-1.13-2.94-1.38-6.75-3.97-9.51-3.81-4.06-10.32-5.64-13.41-12.55-2.59-5.8-.62-7.33-.55-12.34.19-14.15-14.18-18.09-11.8-33.73.62-4.06,3.86-7.83,4.52-10.46,1.1-4.38-.56-7.93,2.04-12.94.97-1.87,9.68-10.59,11.68-12.29.59-.5,9.66-5.59,10.22-5.76,2.67-.79,5.49-.19,8.1.47,5.92,1.5,33.41,22.05,35.66,27.26,3.99,9.26-5.21,12.72-6.43,20.52-.32,2.06-.15,4.79-.06,6.94.05,1.21-.76,3.71.98,3.47-.38-4.93.34-10.13,3.17-14.31,3.71-5.47,11.41-5.66,10.76-13-.31-3.53-.74-7.45-1.13-10.89-.2-1.8-2.1-2.96-1.8-6.12.23-2.44,5.09-8.89,7.99-9.58,16.24,12.19,24.43,26.15,31.98,44.91-.64,1-2.2,7.82-4,6.5-8.14-14.2-22.87-27.47-23.99-44.43-2.65.87-2.1,4.07-1.89,6.37,1.38,15.46,23.81,40.63,21.68,51.78-.32,1.66-5.15,16.39-5.71,17.1-1.89,2.38-3.45-2.96-5.09-4.85-4.61-5.3-9.68-10.34-14.37-15.58l-7.58-13.88c-1.23,7.82,4.34,13.74,7.99,19.95-4.39.25-9.66-1.23-12.97,2.52,18.07-5.26,32.35,12.62,27.95,29.44-.74.73-16.74-7.48-19.2-8.06l-1.77-1.92c2.54,7.5,14.7,7.46,16.98,15.96-2.66,1.68-5.19,8.53-8.99,9.98l-3.16-6.33-6.83-8.63c1.85,6.98.17,12.35-2.01,18.96-3.32-.69-6.66-1.26-9.99-2-1.09-7.53,6.28-12.23,2.99-19.96l-3.79,8.67-2.18,2.3c-.49-5.2-3.99-10.13-3.99-15.47,0-10.83,11.76-17.63,8.97-29.44l-4.82,10.64c-2.35,4.49-7.04,7.83-7.17,13.3l-6.02-20.41c1.86-7.51,2.55-18.09,12.02-19.52,1.01-4-4.59-.2-3.89-3.36,1.8-8.1,8.85-10.47,8.88-18.58l-9.82,11.63-11.14,21.29c-2.36-5.8-3.62-11-2.9-17.35,1.06-9.24,13.66-23.25,3.89-30.55.15,3.08,1.85,5.93.55,9.03l-8.55,16.91-6.02-28.93-2.02,8.52,2.03,17.41c-.63.73-6.59-4.27-7.46-5.01-4.19-3.58-9.04-7.81-8.53-13.95-2.35.7-2.22,3.47-1.96,5.41.73,5.54,16.45,16.54,20.14,23.85,1.16,2.29,6.42,18.83,5.8,19.65-12.71-6.1-23.06-11.02-26.98-25.94-2.72,1.51,1,6.75.52,8.96-2.97-2.42-4.21-6.23-4.52-9.96-5.45,4.49,3.33,14.27,7,17.48,7.6,6.65,19.43,8.61,24.83,17.12,3.61,5.69,4.89,14.77,6.67,21.28-5.4-2.95-12.2-3.47-17.55-6.41-3.87-2.13-5.68-6.25-9.92-7.05,3.01,6.64,8.86,11.13,15.97,12.5l-1.51,3.96c12.86-2.44,19.84,8.34,20.5,19.98-1.76-.42-3.54-.64-5-1-2.13-4.56-19.48-13.09-9.99-2.99-2.63-.72-5.38-1.28-7.99-2,.78-2.4-1.58-3.9-2-4.99ZM308.93,136.73c.72-1.4-.63-2.66-.98-1.99-.72,1.4.63,2.66.98,1.99Z"/>
            <path class="cls-3" d="M351.91,215.58c-.66-11.65-7.64-22.42-20.5-19.98l1.51-3.96c-7.11-1.37-12.95-5.86-15.97-12.5,4.24.8,6.05,4.92,9.92,7.05,5.35,2.95,12.15,3.46,17.55,6.41-1.78-6.51-3.06-15.59-6.67-21.28-5.4-8.51-17.23-10.47-24.83-17.12-3.66-3.2-12.45-12.99-7-17.48.31,3.73,1.55,7.54,4.52,9.96.48-2.21-3.24-7.45-.52-8.96,3.93,14.92,14.27,19.84,26.98,25.94.62-.81-4.64-17.35-5.8-19.65-3.7-7.31-19.41-18.31-20.14-23.85-.26-1.94-.39-4.71,1.96-5.41-.51,6.13,4.34,10.37,8.53,13.95.87.75,6.84,5.74,7.46,5.01l-2.03-17.41,2.02-8.52,6.02,28.93,8.55-16.91c1.29-3.1-.41-5.95-.55-9.03,9.77,7.3-2.84,21.31-3.89,30.55-.73,6.36.54,11.55,2.9,17.35l11.14-21.29,9.82-11.63c-.03,8.11-7.07,10.47-8.88,18.58-.7,3.15,4.9-.64,3.89,3.36-9.47,1.43-10.16,12.01-12.02,19.52l6.02,20.41c.13-5.48,4.82-8.81,7.17-13.3l4.82-10.64c2.79,11.81-8.97,18.61-8.97,29.44,0,5.34,3.51,10.27,3.99,15.47l2.18-2.3,3.79-8.67c3.3,7.72-4.08,12.43-2.99,19.96-3.28-.73-6.73-1.22-9.99-2Z"/>
            <path class="cls-3" d="M288.96,197.61c-3.95-6.13-14.65-10.64-18.45-16.01-.8-1.12-2.4-3.73-1.04-4.95,4.95,5.91,11.56,11.06,18.47,14.48-2.61-3.94-3.74-10.93-6.51-14.45-3.76-4.76-14.72-8.12-16.23-13.73-.5-1.86-1.15-5.08,1.78-4.28-2.55,4.42,11.32,12.72,11.99,11.98-.97-7.27-4.96-14.33-5.89-21.57-.13-1.03-.24-5.66,1.88-3.38.47.51,2.9,11.46,4.26,13.23l3.75,7.73v-14.47c0-.33-4.32-8.03-.02-4.48,2.87,2.36,3,12.87,3.06,16.5.03,2.04-1,3.91-.95,5.85.12,4.41,3.63,8.22,3.92,12.57l4.9-14.6-.89-5.87c3.66.34,3.07,4.8,2.99,7.5l4.98-1.99c.09,1.56-1.92,1.13-2.88,2.59-6.02,9.13-4.46,21-.11,30.34-2.98-.88-6.01-2.07-8.99-2.99Z"/>
            <path class="cls-5" d="M426.86,226.56c-.19.84.13,2.05,0,2.99-10.32-1.27-20.67-3.52-30.98-4.99,3.42-4.5,6.13-1.49,9.97-4.49-5.19-7.83-13.35-3.63-16.97,3.49-1.82-.36-4.44-1.69-6-2,.07-.65-.1-1.38,0-2,5.4-.89,12.35-11.25,18.28-9.83,2.19.52,5.34,6.35,8.64,7.39s7.1-.34,10.03.96c3.21,1.43,4.15,6.69,7.02,8.46Z"/>
            <path class="cls-8" d="M383.89,215.58c-.25,1.35-.78,2.64-1,3.99-.1.62.07,1.35,0,2-3.65-.72-7.31-1.23-10.99-2,2.18-6.61,3.86-11.97,2.01-18.96l6.83,8.63,3.16,6.33Z"/>
            <path class="cls-3" d="M346.92,214.58c-3.33-.83-6.66-2.09-9.99-2.99-9.49-10.09,7.86-1.57,9.99,2.99Z"/>
            <path class="cls-8" d="M328.93,209.59c-2.63-.72-5.16-2.02-7.99-2.01l5.99-2.98c.42,1.09,2.78,2.59,2,4.99Z"/>
            <path class="cls-9" d="M288.96,197.61c-4.65-1.44-23.94-6.29-25.87-8.6-4.9-5.87-.06-9.54-.05-13.85.01-3.8-3.48-5.17-3.05-11.96.69-10.89,7.77-26.54,21-24.08,9.97,1.86,10.86,10.09,15.94,16.81,1.7,2.25,5.69,4.17,7.41,7.84,2.82,6.01-.84,9.75,0,14.89.74,4.56,8.22,14.08,10.47,19.57.61,1.48,3.61,7.72.67,7.33-4.73-.63-12.56-3.49-17.53-4.96-4.35-9.34-5.91-21.21.11-30.34.97-1.46,2.97-1.03,2.88-2.59l-4.98,1.99c.09-2.7.68-7.16-2.99-7.5l.89,5.87-4.9,14.6c-.29-4.34-3.8-8.15-3.92-12.57-.05-1.94.98-3.81.95-5.85-.06-3.64-.2-14.14-3.06-16.5-4.3-3.55.02,4.16.02,4.48v14.47l-3.75-7.73c-1.35-1.76-3.78-12.72-4.26-13.23-2.12-2.27-2.02,2.35-1.88,3.38.93,7.24,4.92,14.3,5.89,21.57-.67.74-14.55-7.55-11.99-11.98-2.93-.8-2.28,2.42-1.78,4.28,1.51,5.61,12.47,8.97,16.23,13.73,2.78,3.52,3.9,10.51,6.51,14.45-6.91-3.42-13.52-8.57-18.47-14.48-1.36,1.21.25,3.82,1.04,4.95,3.8,5.37,14.49,9.88,18.45,16.01Z"/>
            <path class="cls-6" d="M414.87,144.72c2.1,5.22,2.5,6.78,4,11.98-3.39,4.44-2.81,10.52-4.97,15.48l7.97-2.51c.24,1.05,1.54,2.8,2,4.99-12.75,3.84-16.13,16.04-16.99,27.95-1.2.23-1.14.82-1,2h.99c.05-.66-.04-1.34,0-2,5.84-4.3,13.47-5,19.99-7.98.04.49,1.96,2.35.88,3.89-3.97,2.44-16.48,5.83-18.87,9.09-2.78.14-2.8-2.86-3-2.99-2.38-1.61-10.54-.54-12.99,1-2.28-8.5-14.43-8.46-16.98-15.96l1.77,1.92c2.46.58,18.46,8.8,19.2,8.06,4.4-16.81-9.89-34.69-27.95-29.44,3.32-3.75,8.58-2.27,12.97-2.52-3.65-6.2-9.22-12.13-7.99-19.95l7.58,13.88c4.7,5.24,9.76,10.28,14.37,15.58,1.64,1.89,3.21,7.23,5.09,4.85.56-.71,5.4-15.44,5.71-17.1,2.13-11.15-20.3-36.31-21.68-51.78-.2-2.3-.75-5.5,1.89-6.37,1.12,16.96,15.85,30.23,23.99,44.43,1.81,1.32,3.36-5.5,4-6.5Z"/>
            <path class="cls-6" d="M429.87,109.78c6.72-5.71,14.34-10.7,19.4-18.04l2.56-8.9c2.54,17.03-17.13,23.55-22.95,37.43.92.51,2.71-.95,3.47-1.52,7.05-5.21,15.04-11.72,21-17.95,1.38,5.04-4.82,7.74-7.51,10.46-6.8,6.84-13.86,13.5-20.53,20.45-1.25,1.3-1.58,4.78-3.5,2.4-3.92-4.85-.13-9.17.1-13.9.65-13.44-20.36-24.9-9.03-38.38-4.78,13.31,6.6,19.59,11.5,29.94,3.69-1.64,4.12-37.2,12.49-40.92l-6.98,38.92Z"/>
            <path class="cls-14" d="M405.88,204.6c.19.13.22,3.14,3,2.99-.47.64-1.71,3.49-.5,3.99,1.84-1.75,1.12-3.81,3.75-5.24,1.9-1.03,14.79-3.74,15.75-2.74,1.8,1.89-.92,4.31-3,4.99-1.86.6-6.84.12-7.99,2.98,4.47-.61,7.09,2.89,10.99,4,.15,4.49-.04,6.79-1,10.98-2.87-1.77-3.8-7.03-7.02-8.46-2.93-1.31-6.69.08-10.03-.96s-6.45-6.87-8.64-7.39c-5.93-1.41-12.89,8.94-18.28,9.83.22-1.35.75-2.65,1-3.99,3.81-1.45,6.33-8.31,8.99-9.98,2.45-1.54,10.61-2.6,12.99-1Z"/>
            <path class="cls-12" d="M406.87,202.61c-.05.66.04,1.33,0,1.99h-.99c-.14-1.16-.2-1.76,1-1.99Z"/>
            <path class="cls-12" d="M423.86,174.66c1.38,6.64,2.4,13.27,3,19.96-6.52,2.98-14.15,3.68-19.99,7.98.86-11.91,4.24-24.11,16.99-27.95Z"/>
            <path class="cls-6" d="M465.84,105.8c1.69-.25,1.02,2.35,1.02,3.5-.01,10.93-5.94,14.97-13.69,21.27l-25.33,15.7c-1.67-2.06-3.04-4.8-.99-7.05,1.91-2.1,16.9-7.28,20.68-9.29,8.91-4.74,18.28-13.28,18.32-24.13Z"/>
            <path class="cls-6" d="M455.84,155.7c2.96,3.45-16.54,15.96-20.98,13.96-1.19-4.77,5.67-3.78,8.67-5.8l12.31-8.16Z"/>
            <path class="cls-12" d="M421.86,169.67l-7.97,2.51c2.17-4.96,1.59-11.04,4.97-15.48,1.4,4.87,1.94,8.37,3,12.98Z"/>
            <path class="cls-5" d="M424.86,208.59c4.4,1.29,2.87,3.09,3,6.99-3.9-1.11-6.52-4.61-10.99-4,1.15-2.87,6.13-2.38,7.99-2.98Z"/>
            <path class="cls-3" d="M308.93,136.73c-.35.68-1.7-.58-.98-1.99.35-.68,1.7.58.98,1.99Z"/>
            <path class="cls-4" d="M237.99,133.74c23.64-39.18,59.53-65.89,107.41-61.87,9.09.76,28.89,7.53,37.03,11.92,2.62,1.41,7.96,6.83,9.87,6.94.65.04,7.31-1.14,7.63-1.35,2.5-1.68-2.02-10.47,5.89-13.08,2.3-.76,5.24-.17,7.35-1.39,1.77-1.02,4.43-5.92,9-8.23,13.97-7.06,34.07,3.93,37.42,18.88.36,1.61.02,6.03.24,6.25.24.23,4.55.13,6.57.92,10.6,4.15,10.76,23.15,4.84,30.94-.99,1.31-3.32,1.76-3.94,3.05-.22.46-1.35,6.9-1.35,7.57,0,.52,3.9,1.6,4.66,4.14.64,2.14.44,6.15-.24,8.33-1.2,3.9-6.06,4.93-7.11,6.94-.93,1.77.75,3.94.41,6.22-1.25,8.39-14.64,9.67-14.93,18.23-.06,1.79,1.13,3.97,1.1,4.48-.11,1.85-1.58,6.37-1.75,8.73-1.72,2.93-3.26,4.06-6.24,5.24-.43.17-1.79-.26-1.98,0-.9,1.19.93,7.06.98,8.98l-2,24.95c-3.88-.39-8.21-.53-11.99-1,.13-.94-.19-2.15,0-2.99.96-4.19,1.15-6.49,1-10.98-.13-3.9,1.4-5.7-3-6.99,2.09-.67,4.8-3.1,3-4.99-.95-1-13.85,1.71-15.75,2.74-2.63,1.43-1.91,3.49-3.75,5.24-1.21-.49.03-3.35.5-3.99,2.39-3.26,14.9-6.65,18.87-9.09,1.08-1.54-.84-3.4-.88-3.89-.6-6.7-1.62-13.32-3-19.96-.45-2.19-1.76-3.94-2-4.99-1.06-4.6-1.6-8.11-3-12.98-1.49-5.2-1.9-6.76-4-11.98-7.55-18.77-15.73-32.72-31.98-44.91-23.65-17.75-50.96-17.96-77.62-6.16-21.29,9.43-43.57,39.47-50.23,61.62-1.34,4.44-4.2,29.01-5.64,29.44-2.55.77-9.22.29-9.41-3.57,2.99-29.08,13.1-53.17,34.47-73.34l-.98-2.98c-18.67,15.85-29.19,39.15-34.01,62.85-.51,2.5-1.5,13.45-1.91,14.05-1.72,2.54-9.09-.58-11.56-1.06-.78-4.72,1.49-9.41,1-13.97.78-2.31,1.08-4.53,1-6.99l9.99-25.95ZM429.87,109.78l6.98-38.92c-8.37,3.71-8.8,39.28-12.49,40.92-4.89-10.35-16.27-16.62-11.5-29.94-11.33,13.48,9.68,24.94,9.03,38.38-.23,4.74-4.02,9.05-.1,13.9,1.92,2.38,2.26-1.1,3.5-2.4,6.67-6.96,13.74-13.61,20.53-20.45,2.7-2.72,8.9-5.42,7.51-10.46-5.96,6.24-13.95,12.74-21,17.95-.76.57-2.55,2.03-3.47,1.52,5.82-13.89,25.49-20.4,22.95-37.43l-2.56,8.9c-5.06,7.34-12.68,12.33-19.4,18.04ZM281.96,98.81c-1.4-.72-2.67.63-1.99.98,1.4.72,2.67-.63,1.99-.98ZM465.84,105.8c-.04,10.85-9.41,19.39-18.32,24.13-3.78,2.01-18.76,7.19-20.68,9.29-2.06,2.26-.68,5,.99,7.05l25.33-15.7c7.75-6.3,13.67-10.34,13.69-21.27,0-1.16.67-3.76-1.02-3.5ZM455.84,155.7l-12.31,8.16c-3,2.02-9.86,1.04-8.67,5.8,4.44,2,23.94-10.51,20.98-13.96Z"/>
          </g>
          <g>
            <path class="cls-1" d="M243.99,42.91c-.42-1.81-6.4-3.75-4.5-6.98,3.88.67,5.89,4.96,8.76,6.22,4.35,1.9,9.95.15,9.72,7.75-2.51-1.6-4.12-4.12-7.5-4.07-4.63.08-1.29,10.09,4.5,4.07,1.13,2.97.74,4.38-.99,6.98.42.37,3.14-1.59,5.38.07.84.62,8.47,14.54,8.61,15.5.09.68-.44,8.61-.69,9.14-1.48,3.13-5.79,2.69-6.28,3.33-.22.28,1.71,3.54-1.5,5.97-.96.73-2.69.64-3.24,1.22-.73.76-.1,2.95-1.88,3.6-1.09.4-9.64.39-10.76,0-2.2-.77-1.08-3.87-2.15-3.9-1.34-.03-4.34,1.45-6.23,1.75-4.46.72-16.29.79-18.77,2.21-6.7,3.84-11.06,15.42-12.32,22.63-.38,2.2-.55,15.31-2.62,15.33l-10.56-5.58c1.29-4.98,1.62-10.17,2.73-15.19,1.57-7.09,8.29-22.73,7.3-28.54-.57-3.36-6.56-16.41-8.99-19.04-3.12-3.37-6.77-1.13-8.47-3.5-.23-.32-2.13-7.01-2.11-7.49.08-2.34,5.09-5.26,3.58-7.44-.81-1.17-5.61.89-4.91-6.41.62-6.47,5.82-8.28,11.56-9.3,4.4-.78,6.07-1.72,8.88-2.27s6.49.44,9.76-.24c3.74-.77,6.1-4.93,11.12-1.67,2.94,1.9,6.84,13.56.6,13.87,1.03-3.2-1.45-4.03-2-4.99-1.5-2.61-2.6-1.93,0-4.98-2.8-1.11-2.91-.7-4.99-.01-4.63,1.53-.89,2.95-3.51,5.98-1.93.37-2.79-3.26-4.53-4.43-6.18-4.16-10.49,2.5-3.96,4.95,4.93,1.85,13.62,1.17,18.02,4.99,1.12.98.74,3,1.11,3.34.86.78,6.23-1.15,8.39,3.12,2.69,5.33-8.64,1.68-9.86,1.95-1.1.24-.54,1.94-.66,2.06-.21.22-3.52-.82-1.49,2.98,1.56,2.92,6.09,5.65,9.09,3.11,2.26-1.91.53-6.72,7.59-8.43,3.35-.81,6.56,2.26,9.79,2.33-2.89-4.85-11.24-2.16-13.99-6.97,1.75-.68,3.91.94,5,.99.8.03,6.74-.21,7.04-.41.97-.66,1.21-2.51.96-3.58ZM204.01,45.91c-1.76-5.76-1.91-3.35-6.34-6.14-2.98-1.88-4.72-6.16-9.22-2.91-5.66,4.08.36,6.81,1.33,8.75,2.63,5.26-.51,6.56-.77,9.86-.39,4.91,4.1,2.52,6.07,3.85,1.27.85.47,3.77,1.93,5.05.32.28,7.21,2.97,7.97,3.1,1.4.24,9.82-1.32,11.33-1.79,4.01-1.26.26-6.18-2.94-6.53-2.8-.31-9.34,1.75-8.39,5.72-3.67-.45-3.54-4.04-4.96-5.52-1.81-1.9-4.97-2.68-6.02-5.45,3.99-1.1,8.15,3.57,10.48,4,4.72.86-1.52-5.46-1.96-6.05-2.37-3.22.28-3.5-4.52-3.95-.33-.03-.67,0-1,0,2.74-3.98,4.45-1.89,7-2,.29.94-.11,2.53.44,4,1.43,3.79,2.87,2.09,4.75,3.09,1.05.55.61,1.81,2.26,1.98,1.55.16,5.08.09,5.5-1.66.12-.5-2.46-9.68-2.89-9.98-1.05-.75-6.1-.74-7.44-.28-1.52.52-1.12,2.78-2.62,2.84ZM240.99,57.88c-.13-.12.45-1.71-.66-2.01-4.69-1.28-9.64.66-9.34,6,2.58.22,11.17,1.49,11.89-.6,1.43-4.14-1.72-3.21-1.89-3.38ZM256.97,63.87c1.32-1.55-3.19-5.08-4.98-2.98-1.32,1.55,3.19,5.08,4.98,2.98ZM230.09,77.7c-.42-.6,2.71-5.66-1.03-9.4-3.93-3.92-9.2-.62-9.89,4.28-.55,3.97,2.49,2.57,4.75,3.85,2.99,1.7,4.45,4.52,9.08,3.4.03-1.56-2.54-1.6-2.91-2.13ZM241.89,67.96c-.64-.97-7.41-2-7.89.44-1.26,6.44,11.72,5.33,7.89-.44ZM260.68,80.54c1.32-.97,3.37-6.29,3.26-8.12-.45-7.57-9.87-5.12-7.95,2.43.9.93,7.34-2.64,5.98.49-1.75,4.02-7.56,2.27-7.98,6.5,1.86-.05,5.24-.22,6.69-1.29ZM250.98,72.85c-4.8-3.75-10.64,1.36-4,3.99,4.48,1.77,8.1-.79,4-3.99ZM246.98,85.83c.09-.11,1.79.43,2.04-.62,1.11-4.56-8.27-9.07-11.94-6.26-1.62,7.07,4.64,6.18,6.67,8.11,2.23,2.13.74,6.46,8.22,4.75-.11-7.62-2.9.15-5.97-3.49,1.01-.48.75-2.22.98-2.5ZM234.98,84.83c-.52-.39-11.06,3.53-11.98,4.98,4.39,0,8.79.47,12.99-1,.13-.18-.85-3.86-1.01-3.98Z"/>
            <path class="cls-11" d="M132.07,84.84c-.2,1.78,1.69.43,3.08,1.65,3.97,3.47,14.54,24.79,7.27,27.21-8.3,2.76-23.85-23.73-30.33-27.87l.77,4.71,16.22,34.8c-1.77,9.71-15.49,3.73-19.99-1.09-6.35-6.81-10.98-31.79-5.49-39.4,1.54-2.13,4.21-2.43,5.98-4.01,4.31-3.85,8.81-11.17,14.94-11.02s23.91,7.64,28.85,11.2c11.74,8.45,13.58,25.8-3.33,17.3-6.8-3.42-9.22-13.17-17.97-13.47Z"/>
            <path class="cls-11" d="M73.1,184.63c-3.96.53-7.55,3.94-7.98,7.99,2.06-1.59,3.81-4,6.06-5.41,5.02-3.15,6.39-2.67,9.93,2.4-5.69,2.11-9.92,13-11.75,18.72-2.5,7.85-2.66,14.52-2.28,22.75.27,5.87,4.96,14.79-2.9,17.36l-5.05-8.91c0,3.52,2.27,6.59,3.98,9.48-14.64-.35-19.26-23.97-17.87-35.83.88-7.53,11.12-24.35,16.81-29.11,3.17-2.66,8.49-3.04,11.06.55Z"/>
            <path class="cls-10" d="M78.84,145.92c7.57-1.48,21.9,10.98,23.09,17.5.79,4.36-7.79,15.91-11.55,17.02-2.67.79-15.33.48-18.35-.23-16.97-3.93-8.16-31.38,6.81-34.3Z"/>
            <path class="cls-10" d="M103.85,47.09c3.71-.54,13.03,2.24,15.74,4.78,4.73,4.44,2.39,10.62-.99,15.01-5.88,7.64-20.47,20.34-30.84,16.78-4.88-1.67-5.58-16.64-3.43-21.07,1.63-3.35,15.83-14.97,19.53-15.51Z"/>
            <path class="cls-11" d="M56.85,160.94c5.43,5.21-7.54,4.74-8.73,8.72,2.75,0,6.71-3.61,9.37-2.92,1.48.39,2.21,3.06,1.62,3.91-.43.62-15.18,4.86-11.98,7.99.54.53,9.63-6.25,11.98-5.98.01,2.01.37,4.04-.51,5.97-2.04,4.49-12.39,15.07-15.89,21.06-2.4,4.1-7.64,21.6-12.88,17.98-4.87-3.37-1.72-25.49-.21-31.05,1.68-6.23,9.39-20.7,14.58-24.36,3.09-2.18,9.65-4.21,12.66-1.32ZM44.11,182.64c.72-1.4-.63-2.66-.98-1.99-.72,1.4.63,2.66.98,1.99Z"/>
            <path class="cls-10" d="M186.53,132.31c25.97-.04,14.49,28.44-3.99,30.37-24.73,2.58-16.93-30.34,3.99-30.37Z"/>
            <path class="cls-11" d="M184.18,129.51c-.51-.4.51-2.18-1.13-1.75.24,2.98-3.78,2.25-6.02,3.48-1.85,1.02-3.87,2.16-5.5,3.49-2.68,2.19-1.93,5.48-6.77,3.79-2.77-.97-5.44-5.44-10.69-6.39-3.25-.59-4.83.75-7.51.68-6.2-.17-12.18-10.25-11.51-16.04,8.1,2.14,14.73-4.05,22.04-2.56,8.02,1.64,13.34,7.97,17.43,14.52,3.58-2.66-3.82-7.58-3.46-9.36,5.47-7.25,15.28-1.73,17.51,5.34,1.3,4.1-1.85,6.83-4.41,4.8Z"/>
            <path class="cls-11" d="M105.8,171.81c1.8-.5,16.02,5.93,18.22,7.39,3.03,2.01,8.82,11.43,6.08,13.91l-19.54,12.25c-8.32-5.1-16.92-18.42-10.93-27.67.71-1.09,5.18-5.62,6.17-5.89Z"/>
            <path class="cls-11" d="M90.1,206.59l1.05-10.53-1.05-5.43c1.7-.43,2,.67,3.01,1.48,6.39,5.13,6.58,23.91,4.32,31.29-1.57,5.13-16.07,16.45-19.59,8.91-2.54-5.44,4.82-41.7,8.75-41.66,3.77,4.2,3.6,10.58,3.51,15.94Z"/>
            <path class="cls-11" d="M173.03,66.87c-2.56,2.19-10.66-9.55-12.97-11.49-6.73-5.65-10.8-4.84-19.24-3.23-3.03.58-15.99,6.65-15.33-.32.64-6.77,15.72-14.39,22.08-14.89,16.67-1.32,28.14,14.53,25.46,29.93Z"/>
            <path class="cls-11" d="M102.33,156.43c-2.45-2.46.57-5.95.75-8.71l-3.01,3.98c-2.7-.92-2.3-5.01-1.77-7.27,2.09-8.95,23-8.9,29.76-6.19,5.11,2.05,16.68,13.06,16.03,18.96s-8.71-1.47-11.49-2.54c-5.13-1.97-13.57-2.72-18.96-1.89-4.46.69-8.16,6.83-11.31,3.67ZM105.08,145.72c-1.4-.72-2.67.63-1.99.98,1.4.72,2.67-.63,1.99-.98Z"/>
            <path class="cls-11" d="M90.81,87c5.15-1.51,6.37,2.46,7.01,6.57,1.68,10.7-4.03,22.73.39,32.55,2.33,5.16,10.45,13.57-3.42,10.39-4.99-1.14-11.65-13.7-12.46-18.49-1.08-6.4,1.11-28.87,8.47-31.03Z"/>
            <path class="cls-11" d="M148.97,179.56c-2.25.51-4.74,1.77-7.05,1.55-6-.58-28.5-9.59-32.76-14.01-7.67-7.97,9.79-10.04,15.33-9.32,8.34,1.09,25.95,11.53,24.49,21.78Z"/>
            <path class="cls-11" d="M237.99,133.74l-9.99,25.95c-.23-7.18-4.54-14.05-10.66-17.8-5.53-3.39-15.55-2.19-6.81-10.12,7.72-6.99,29.96-17.65,27.45,1.97Z"/>
            <path class="cls-11" d="M125.07,65.86c-.36-10.12,19.14-10.94,26.04-9.53,7.91,1.61,13.5,9.66,16.12,16.83,1.54,4.23,2.18,11.38-4.46,9.53-3.66-1.02-11.78-10.74-17.03-13.01-6.25-2.7-13.99-2.03-20.67-3.82Z"/>
            <path class="cls-5" d="M190.01,118.77c-4.84-4.72-8.43-12.1-7.99-18.96l-3,10.97c-2.8,2.18-5.04-13.82-5.02-15.42.04-3.18,5.6-24.05,7.54-24.5,1.72-.4,2.01,1.36,2.47,2.5,4.61,11.48,10.37,19.74,8.9,32.82-.46,4.09-2.7,8.36-2.9,12.58Z"/>
            <path class="cls-11" d="M62.12,124.75c-3.59-10.95-1.28-35.74,11.96-39.52.69-.2,8.63-.16,9.02.06,1.55.88.86,2.31.58,3.59-.91,4.14-5.62,8.69-6.37,13.67-.52,3.46,1.41,6.81.32,9.19s-8.56,5.85-11.02,8.02c-1.62,1.43-2.22,4.21-4.49,4.99ZM78.1,86.84c-1.4-.72-2.67.63-1.99.98,1.4.72,2.67-.63,1.99-.98Z"/>
            <path class="cls-11" d="M227,166.67c.49,4.56-1.78,9.25-1,13.97-1.56-.3-8.23-.45-8.86-1.13-.39-.42-.03-2.61-.66-3.8-.83-1.57-3.05-2.55-3.93-4.09-1.86-3.26-2.6-7.12-4.71-10.27-1.46-2.18-5.65-4.97-5.77-7.1-.06-1.12,1.37-5.33,2.41-5.43,2.53-.24,9.53,6.83,10.52,5.86.53-4.22-9.17-7.83-9.98-9-1.96-2.84,4.19-4.07,7.69-2.18,7.16,3.86,13.44,15.31,14.29,23.16ZM217,157.69c.72-1.4-.63-2.66-.98-1.99-.72,1.4.63,2.66.98,1.99Z"/>
            <path class="cls-11" d="M212.01,178.65h-27.98c-.3-5.33-.2-10.64,4.53-13.95,2.24-.75,1.27,2.49,3.46,2.97-2.75-5.38,4.28-6.31,7.53-9.75,7.23,5.48,10.94,11.75,12.47,20.73Z"/>
            <path class="cls-11" d="M70.1,144.72c1.84,2.7-.28,1.74-2.02,3.43-1.47,1.43-6.69,8.35-7.46,8.35-1.06,0-4.67-4.33-7.03-4.79-5-.97-8.72,2.09-13.46,1.97.48-10.56,22.97-20.9,30.89-16.38,5.58,3.19,7.4,9.12-.92,7.4Z"/>
            <path class="cls-11" d="M164.9,156.84c1.3,2.04-4.58,18.53-.08,23.35-.39,2-8.7,1.78-10.75,3.46-.55-4.67-4.25-10.4-4.83-14.75-1.04-7.83,13.03-16.2,15.67-12.06Z"/>
            <path class="cls-5" d="M239.53,103.03c1.46.22,2,2.63.98,3.79-9.52,6.11-19.06,16.29-29.84,20.12-5.44,1.93.64-7.34,1.93-9.08,3.43-4.62,9.72-9.79,15.13-11.84,1.74-.66,10.77-3.15,11.81-2.99Z"/>
            <path class="cls-11" d="M148.06,156.69c.96-5.97-2.32-9.66-4.98-14.39,7.45-6.85,14.56-7.63,20.41,1.47,6.08,9.45-9.72,9.86-15.43,12.93Z"/>
            <path class="cls-11" d="M174.04,169.66c1.78-.04.27-4.22,3.52-3.75,3.89.56,3.71,10.89,2.33,12.6-.96,1.19-10.55.96-12.84,2.14.63-4.01-1.55-8.22.56-11.87,2.69-4.66,8.79-6.58,6.44.89Z"/>
            <path class="cls-5" d="M215.01,30.94c2.08-.69,2.19-1.1,4.99.01-2.6,3.04-1.5,2.36,0,4.98,1.45,3.67-3.29,3.85-4.84,2.85-1.46-.94-1.08-6.17-.15-7.84Z"/>
            <path class="cls-5" d="M235.99,46.9c.12-1.78-3.16-7.03-.49-7.97,3.54-1.25,3.12,2.91,2.49,4.97l5.99-.99c.25,1.07,0,2.92-.96,3.58-.29.2-6.23.45-7.04.41Z"/>
            <path class="cls-5" d="M220,52.89c4.01-1.12,4.33,1.59,6.47,1.2,2.35-.43-2.03,9.17-6.47-1.2Z"/>
            <path class="cls-5" d="M232.99,42.91c-2.06,2.16-7.8-4.81-2.49-6.98.47,1.26,3.23,6.2,2.49,6.98Z"/>
            <path class="cls-5" d="M198.02,47.9c.02,4.03-4.25,3.72-5.51.99-1.2-2.59.55-5.14.04-6.03-.48-.83-3.27-1.47-3.52-2.46-.65-2.54,5.09-3.16,6-2.48.4.3-.87,8.62-.99,9.97.99.03,2-.02,2.99,0,.33,0,.67-.03,1,0Z"/>
            <path class="cls-5" d="M250.98,72.85c4.1,3.2.49,5.77-4,3.99v-2.99s2,1.99,2,1.99l2-2.99Z"/>
            <path class="cls-5" d="M207.01,64.87v-2.99s7.99.51,7.99.51c.58,3.33-6.21,2.51-7.99,2.48Z"/>
            <path class="cls-5" d="M212.01,47.89l-1.99,1,2.99,2c-8.39.81-6.77-8.3-.99-3Z"/>
            <path class="cls-5" d="M225,72.85c-.39-.4-2.87.91-1.99-2.99h2.99s-1,2.99-1,2.99c7.66-3.11,2.74,3.79.13,1.81-.39-.29.03-1.65-.13-1.81Z"/>
            <path class="cls-5" d="M246.98,85.83c-2.29,1.37-8.15-5.01-6.99-5.98,5.34-.92,3.21,1.21,4.54,2.93,1.03,1.32,3.16.34,2.45,3.05Z"/>
            <path class="cls-5" d="M240.99,57.88c.89,3.86-5.97,3.63-5.98,1.5,0-1.52,4.53-1.77,5.98-1.5Z"/>
          </g>
        </g>
      </g>
    </g>
  </g>
</svg>