<?xml version="1.0" encoding="UTF-8"?>
<svg id="Layer_2" data-name="Layer 2" xmlns="http://www.w3.org/2000/svg" viewBox="0 0 594.03 303.13">
  <defs>
    <style>
      .cls-1 {
        fill: #303e35;
      }

      .cls-2 {
        fill: #55b94d;
      }
    </style>
  </defs>
  <g id="Layer_1-2" data-name="Layer 1">
    <g>
      <rect class="cls-1" x="153.98" y="33.75" width="43.99" height="2.5"/>
      <g>
        <path class="cls-2" d="M62.08,163.6l21.48,33.22,1.26.77,1.26-.76,22.99-30.96,2.23-2.26h20.49c.05,0,.75.7.75.75v77.16h-22.98v-47.19c0-.15-.82-.93-1.24-.75-.47.36-.83.84-1.24,1.26-8.91,9.2-16.08,24.79-25.01,33.93-.49.5-.89,1.28-1.73,1.26-1.99-.03-5.51-6.82-6.78-8.6-6.04-8.48-12.11-16.96-17.94-25.62l-2.52-.73v45.7c0,.05-.7.75-.75.75h-14.24v-77.91h23.98Z"/>
        <path class="cls-2" d="M301.61,202.26c-1.33,1.31-3.01,2.83-4.6,3.75-1.06.61-2.58-.03-2.08,1.75l17.19,31.78c.41.82.58,2.71-.19,3.25-.97.68-21.17.46-23.78.24-1.12-.09-2.21-.2-3.2-.79-4.47-7.79-8.45-15.85-12.7-23.76-1.14-2.12-1.78-5.59-4.02-6.47-1.43-.56-7.74-1.09-8.21.35l-.05,28.42c-.05,1.61-.78,2.05-2.25,2.25-3.92.52-16.02.46-20.02-.01-1.22-.14-2.23-.49-2.99-1.51l.24-78.17c1.22-.41,2.46-.65,3.74-.76,12.26-1.03,31.53-.66,44.01,0,6.42.34,12.9,1.32,17.98,5.5,10.31,8.48,10.28,25.02.94,34.18ZM260.18,179.58c-.16.25-.75.61-.75.75v15.48c0,.05.7.75.75.75h18.99c.99,0,5.04-3.93,5.48-5.01.57-1.42.46-5.8-.12-7.33-.46-1.21-3.95-4.63-4.86-4.63h-19.49Z"/>
        <path class="cls-2" d="M431.31,193.06h40.22c.05,0,.75.7.75.75v13.98c0,.05-.7.75-.75.75h-38.97c-.17,0-.76.66-1.25.5v15.73c0,.05.7.75.75.75h43.97c.14,0,1.36.78,1.5,1,.38.63.47,12.22.28,13.76-.22,1.75-.78,1.71-2.4,2.1l-67.57-.13c-.24-.11-1.01-.9-1.01-.99v-77.41c0-.05.7-.75.75-.75h67.95c.05,0,.75.7.75.75v15.48c0,.05-.7.75-.75.75h-43.47c-.05,0-.75.7-.75.75v12.24Z"/>
        <path class="cls-2" d="M344.87,164.1v32.71c0,1.35,2.34.51,3.2-.29,4.78-4.43,8.69-12.66,13.79-17.2,3.32-5.36,8.09-9.91,11.48-15.22h18.49l-.27,1.98-18.57,23.12-.18,1.61,26.51,50.7h-21.73c-1.86,0-14.85-29.32-17.73-32.73-1.47-.74-2.08.11-3.03,1-1.29,1.22-11.97,14.52-11.97,15.5v16.23h-22.48v-77.41h22.48Z"/>
        <path class="cls-2" d="M227.46,241.51h-23.73c-1.47,0-6.15-15.89-8.24-17.74h-30.5s-6.48,17.74-6.48,17.74h-15.99l26.74-76.9c.64-.77,1.55-.91,2.48-1.01,4.93-.57,17.03-.52,22.02-.02,1.77.17,2.4.56,3.42,2.07l30.27,75.86ZM188.42,207.48c.36-.57-.07-2.14-.28-2.85-1.72-5.91-5.64-12.1-7.27-18.2-.43-1.06-1.23-1.54-2.38-1.36-.32,3.09-7.97,20.51-7.27,21.97.38.79,1.21.93,2,1.03,1.82.23,14.76.12,15.2-.59Z"/>
        <path class="cls-2" d="M485.52,163.6h69.95c.05,0,.75.7.75.75v14.48c0,.05-.7.75-.75.75h-21.98c-.05,0-.75.7-.75.75v60.93c0,.05-.7.75-.75.75h-21.98c-.19,0-1.75-1.13-1.75-1.25v-60.43c0-.05-.7-.75-.75-.75h-21.98c-.05,0-.75-.7-.75-.75v-14.48c0-.14.58-.5.75-.75Z"/>
      </g>
      <g>
        <path class="cls-1" d="M370.35,35.5c-.41,2.29-6.14,2.71-6.48-.01.68-10.3-.95-21.82-.04-31.97.39-4.37,4.16-4.35,6.74-1.69,3.18,5.83,5.49,12.11,8.42,18.05.4.81,1.12,2.43,1.86,2.89V1.54c0-1.7,6-1.7,6,0v34.96c0,1.11-5.87,1.19-6.73-.26-2.26-4.63-4.15-9.45-6.4-14.08-.93-1.92-1.95-4.33-3.35-5.89-.72,5.71.97,13.82,0,19.23Z"/>
        <path class="cls-1" d="M303.9,1.54c.47-1.55,6.37-2.08,6.37.6-.55,10.33,1.15,22.26.15,32.39-.47,4.8-6.52,2.46-6.52,1.47v-17.23h-9.49v16.73c0,1.69-6.28,3.26-6.98-.51l.21-32.72c.76-2.07,2.38-2.33,4.41-1.86,4.25.42,1.4,11.57,2.33,12.14,1.34.28,9.52.71,9.52-.52,0-2.19-.44-9.02,0-10.49Z"/>
        <path class="cls-1" d="M224.46,12.78h9.99V2.04c0-2.28,6.25-2.8,6.38.11-.57,10.32,1.14,22.24.14,32.38-.47,4.8-6.52,2.46-6.52,1.47v-17.23h-9.99v17.23c0,.99-6.05,3.33-6.52-1.47-1-10.14.71-22.05.14-32.38.14-2.92,6.38-2.39,6.38-.11v10.74Z"/>
        <path class="cls-1" d="M277.73,1.98c1.73,1.24,5.83,7.33,4.46,9.32-.44.63-4.02,1.71-4.94,1.41-1.6-.52-1.74-8.75-7.82-6.17-5.26,2.23-4.84,18.74-2.03,22.99,3.02,4.56,9.41,1.41,8.52-3.77-3.47.7-8.13-.42-5.53-4.77.99-1.65,8.91-1.61,10.67-1.11,2.96.85,1.65,6.55,1.04,8.82-2.96,11.05-15.84,12.55-20.86,2.01-3.12-6.55-2.97-19.92,1.22-26.03,3.23-4.7,10.57-6.08,15.28-2.69Z"/>
        <path class="cls-1" d="M353.47,36.65c-.17-.24-1.26-4.9-1.47-5.77-.54-2.22-.2-5.03-1.96-7.14-6-.6-5.82.77-7.05,5.88-.41,1.69-.2,5.93-1.82,7.17-1.17.9-5.24.87-5.72-.91,1.09-5.18,2.66-10.33,3.8-15.5s1.86-11.12,3.25-16.23c1.12-4.12,2.85-4.53,7.09-3.84,3.93.64,3.66,7.55,4.39,10.59,1.4,5.81,2.79,11.57,4,17.47.52,2.52,2.23,5.22,1.31,8.04-.45,1.38-5.31.95-5.82.21ZM346.37,11.28c0,.5-.01,1,0,1.5-.94.79-.79,1.95-1,3-.06.3.05.69,0,1-.03.2-.83.77-.5,1.5.31.08.78-.09,1,0,1.18.46,1.62.7,3,.5.48-.07.95-.04,1.28-.49.55-.52-.28-.94-.28-1.01,0-.33.05-.7,0-1-.11-.66.2-1.41-.5-2,.04-.32,0-.67,0-1,.03-1.12-.8-4.99-1.76-5.49-1.08-.57-1.25,2.99-1.24,3.49Z"/>
        <path class="cls-1" d="M423.59,2.57c3.6-3.51,10.38-3.33,13.73.46,2.11,2.38,3.83,8.06-.4,8.65-4.76.66-2.59-4.57-4.96-5.29-3.03-.91-5.74.75-5.06,4.03.78,3.73,9.75,5.52,12.1,11.41,4.17,10.47-5.8,20.7-15.16,14.16-2.55-1.78-7-11.42-2.77-12.22,5.56-1.05,3.86,1.83,5.03,4.97,1.34,3.61,6.53,4.37,7.2.76,1.48-7.93-4.34-7.76-8.74-11.71s-5.51-10.77-.96-15.21Z"/>
        <path class="cls-1" d="M323.89,31.76h10.24c1.08,0,1.28,5.29-.58,5.91-.85.29-13.16.31-14.4.07-1.82-.35-2.14-2.12-2.28-3.71-.67-7.4-.72-23.14.03-30.49.07-.71.33-2.27.74-2.75.66-.78,5.78-1.15,5.75.75l.5,30.21Z"/>
        <path class="cls-1" d="M175.06,12.22c.27.17,5.08.17,5.36,0,.34-.22,1.5-7.44,2.13-7.86.75-.49,3.69-.13,4.21.94.49,1.01-4.57,19.09-4.54,21.95-8.27,5.41-2.57-7.29-2.73-10.97l-5.69-.03c-.81.22-1.77,10.37-2.55,11.52-.57.84-3.1,1.17-3.96.55-1.32-3.02.56-5.76,1.08-8.41.21-1.07.02-2.19.24-3.26.77-3.77,2.09-7.52,2.63-11.36.62-1.3,3.41-1.39,4.53-.53,1.19,1.66-2.31,6.47-.72,7.46Z"/>
        <path class="cls-1" d="M202.22,4.29c.97.3,1.07,2.44.26,3.26-1.79,1.81-8.08-.88-8.44,3.06-.24,2.59,6.51-.57,6.82,3s-5.81,2.25-7.55,2.65c-.96.22-.81,3.67-.94,4.65-.19,1.36-1.91,2.96.36,3.36,1.7.3,7.74-.82,5.88,2.87-.25.5-1.47,1.62-1.88,1.62h-9.49c-2.31,0-.08-5.85.12-6.87,1.05-5.43,2-10.85,3.25-16.23.09-.4.94-1.37,1.13-1.37,2.16,0,9.06-.44,10.49,0Z"/>
        <rect class="cls-1" x="248.44" y="1.75" width="4.5" height="34.55"/>
        <path class="cls-1" d="M158.51,8.29c-3.91,1.56-6.23-3.36-2.75-4,1.16-.21,11.61-.2,12.42.07,1.32.43,1.23,2.86-.3,3.56s-3.4-.22-4.34,1.16l-4.26,18.72c-.52.77-3.75.72-4.57,0-.59-.8,3.9-16.9,3.79-19.5Z"/>
        <path class="cls-1" d="M395.58,1.79h8.99c.71,0,3.67,1.56,4.4,2.09,8.23,5.87,8.45,22.71,1.09,29.37-.63.57-4.43,3-5,3h-9.49c-.05,0-.75-.7-.75-.75V2.54c0-.14.58-.5.75-.75ZM400.15,5.86c-.93.31-1.22,2.25-1.31,3.18-.45,4.39-.56,16.2.05,20.43.72,5.03,6,2.92,8.43.04,3.88-4.58,4.17-14.25,1.38-19.33-1.6-2.91-5.03-5.49-8.54-4.31Z"/>
      </g>
      <g>
        <path class="cls-2" d="M242.94,61.22c.92-.23,1.76-.45,2.72-.52,5.25-.41,14.83-.47,20.03,0,1,.09,1.89.09,2.71.78l20.76,32.22c1.22.21,2-1.02,2.71-1.78,5.72-6.14,11.46-15.76,16.8-22.66,2.17-2.8,4.31-5.67,6.71-8.27,7.62-.34,15.43-.67,22.97.24v77.16c0,.65-2.63,1.18-3.25,1.25-4.36.5-13.51.37-18,.02-1.1-.09-3.73-.29-3.73-1.77v-45.7l-27.24,35.49-2.61-.65c-7.09-10.15-13.78-20.64-20.99-30.7-.36-.51-1.93-3.24-2.61-2.63-1.66,1.49.28,39.41-.59,44.61-.17.51-.58.75-1.03.96-1.15.54-12.02.66-13.61.35-.55-.1-1.76-.86-1.76-1.24V61.22Z"/>
        <path class="cls-2" d="M157.51,61.97c.28-.87,2.84-1.19,3.73-1.27,12.01-1.01,30.25-.57,42.51,0,16.92.79,28.51,8.38,25.59,27.12-1.16,7.43-7.01,13.27-13.39,16.61l17.79,32.68c.5.56,0,2.02-.54,2.02h-25.48l-1.46-1.54-14.56-28.4c-1.48-1.6-9.72-1.81-9.72.72v28.47c0,.05-.7.75-.75.75h-22.98c-.05,0-.75-.7-.75-.75V61.97ZM201.22,77.7h-17.99c-.05,0-.75.7-.75.75v14.23h19.74c.58,0,3.27-3.09,3.52-3.98.57-2,.49-6.54-.76-8.27-.37-.52-3.28-2.63-3.76-2.73Z"/>
        <path class="cls-2" d="M435.06,139.13c-.17-.05-.88-.78-.99-1.01V61.72c.79-.9,1.86-.92,2.97-1.02,11.81-1.05,29.9-.5,42.02,0,5.87.24,12.23.61,17.37,3.61,12.03,7.02,12.79,25.9,3.16,35.19-1.36,1.31-6.79,4.2-6.81,5.41,4.63,9.68,10.74,18.96,15.41,28.55.88,1.81,2.21,3.62,2.07,5.67h-26.23c-2.84-3.19-15.22-30.96-16.99-30.96h-8.24v29.71c0,.17-.66.76-.5,1.25h-23.23ZM459.04,77.2c-.16.25-.75.61-.75.75v14.48c0,.05.7.75.75.75h19.49c.18,0,2.67-1.7,2.96-2.03,2.78-3.17,2.44-9.35-.69-12.23-.64-.58-3.1-1.72-3.77-1.72h-17.99Z"/>
        <path class="cls-2" d="M530.49,110.66c1.97,2.84,2.79,6.73,5.42,9.31,5.36,5.26,16.91,5.91,23.93,4.55,6.34-1.24,11.3-6.97,3.99-10.72-5.03-2.58-16.32-3.03-22.42-4.55-12.05-3-23.99-9.37-24.67-23.28-1.55-31.86,57.31-34.56,71.16-9.2.75,1.37,4.58,11.43,2.05,11.43h-14.99c-1.46-3.7-1.98-6.64-5.23-9.25-5.22-4.21-20.45-5.88-25.33-1.06-5.3,5.24,1.91,9.18,6.42,10.48,13.62,3.91,39.92,3.57,42.85,22.59,4.13,26.77-27.14,30.7-46.68,29.18-13.1-1.02-27.57-8.39-31.98-21.47-.4-1.18-2.22-7.99-.5-7.99h15.99Z"/>
        <path class="cls-2" d="M377.35,77.7v12.49h39.22c.45,0,1.13,1.7,1.22,2.28.24,1.54.24,11.21-.23,12.2-.11.24-.91,1.01-.99,1.01h-39.22v16.98h44.22c.37,0,1.13,1.21,1.24,1.76.3,1.56.15,13.57-.44,14.4-.33.46-1,.44-1.5.59h-67.02c-.38-.12-1.47-.8-1.47-1.02V61.22c.64.27,1.48-.5,1.75-.5h66.45c.05,0,.75.7.75.75v15.48c0,.05-.7.75-.75.75h-43.22Z"/>
        <path class="cls-2" d="M149.51,138.13h-23.23l-.97-1.03-6.77-16.71c-8.97.23-19.47-1.13-28.27-.27-1.39.13-2.17.22-2.94,1.55l-5.77,16.46h-15.99c3.35-10.04,7.29-19.9,10.83-29.87,4.39-12.38,8.36-24.96,12.79-37.15.51-1.4,3.23-8.83,3.85-9.14.54-.31,1.14-.21,1.73-.27,5.06-.51,18.62-.62,23.54,0,.55.07,1.12-.05,1.49.51l29.72,75.92ZM111.54,105.17c-.6-4.89-2.97-10.22-4.9-14.82-.84-1.99-1.98-5.48-2.87-7.12-.62-1.15-2.13-1.61-2.61-.17-.62,1.84-1.09,4.37-1.76,6.23-.77,2.14-5.6,14.06-5.29,15.07.08.25.57.82.71.82h16.74Z"/>
        <path class="cls-2" d="M24.6,105.67c-1.68,1.41.81,31.02-.95,33.26-.48.61-1.08.64-1.77.72-2.07.26-19.82.17-20.76-.27-.49-.23-.83-.91-1.12-1.38L.45,61.18l2.39-.48,64.36.13c.51.11,1.36.45,1.62.88.4.68.44,11.69.25,13.25-.08.67-.65,2.74-1.26,2.74H24.85c-.05,0-.75.7-.75.75v10.99c0,.05.7.75.75.75h38.47c.19,0,1.75,1.13,1.75,1.25v13.48c0,.05-.7.75-.75.75H24.6Z"/>
      </g>
      <g>
        <path class="cls-1" d="M245.94,266.48c.44-.52,5.91-.83,6.74.51l7.57,16.91,2.19,3.06v-19.73c0-.92,5.96-2.47,6.5.5-.73,4.67,1.15,32.48-.45,34.51-.87,1.1-4.78,1.01-5.78.19l-10.75-21.96v21.22c0,1.59-6,1.73-6,.5v-35.71Z"/>
        <path class="cls-1" d="M194.98,267.72c.14-.49,1.18-1.12,1.76-1.24,1.56-.3,8.29-.24,9.95.02,13.83,2.16,15.33,32.19-.02,35.88-2.14.52-11.69,1.64-11.69-1.7v-32.96ZM201.47,272.72v23.47c0,1.24,3.77.69,4.78.28,7.16-2.83,7.24-24.01-2.05-24.52-.8-.04-2.46-.12-2.73.76Z"/>
        <path class="cls-1" d="M336.63,266.48c.67.17,3.89,2.31,4.43,3.04,2.6,3.54,2.57,8.25-.17,11.71-1.03,1.3-2.63,1.07-2.48,3.43l6.47,17.77c-2.22.49-4.2.82-6.38-.11l-6.22-17.25c-.93-.75-1.85-.37-2.88-.12v16.73c0,1.88-6,1.07-6,.75v-35.96c3.62.6,10-.81,13.24,0ZM335.23,278.31c.25-.18,1.51-2.35,1.57-2.71.55-3.25-4.58-4.41-6.95-3.42-.63.44-.7,5.72-.4,6.2.55.88,4.81.63,5.78-.08Z"/>
        <path class="cls-1" d="M283.95,290.42c.26.16,1.03-.04,1.46.03l4.74-23.48c1.62-1.13,3.66-1.27,5.46-.55,1.29,3.03-.54,5.74-1.08,8.42-1.81,8.91-3.8,17.82-5.72,26.75-.71,2.07-7.79,1.56-8.42.5l-7.26-35.1c.86-1.73,4.65-1.07,6.03-.02l4.77,23.46Z"/>
        <path class="cls-1" d="M306.9,277.46h8.74c2.23,0,2.64,5.99.5,5.99h-9.24v12.73c0,.05.7.75.75.75h9.99c.9,0,1.6,5.24-.6,5.89-1.37.4-12.56.36-14.41.12-.85-.11-1.52-.19-1.98-1.02v-34.96c.46-.83,1.13-.91,1.98-1.02,2.29-.29,11.89-.36,14,.04,2.77.52,2.21,5.57.01,5.98-1.95.36-8.18-.55-9.28.22-.95.66-.28,4.04-.47,5.28Z"/>
        <path class="cls-1" d="M229.45,277.46h9.24c1.39,0,1.88,5.99,0,5.99h-9.24v12.73c0,.05.7.75.75.75h10.24c.32,0,1.44,5.22-.85,5.89-1.47.43-11.91.33-13.9.11-.94-.11-1.82-.26-2.5-1v-34.97c.67-.74,1.56-.9,2.5-1,2.44-.28,11.28-.39,13.49.02,2.77.52,2.21,5.57.01,5.98-1.95.36-8.18-.55-9.28.22-.95.66-.28,4.04-.47,5.28Z"/>
        <path class="cls-1" d="M377.01,292.79c-4.24-4.99-.88-20.41,5.92-22.49,13.02-3.98,11.66,16.9,4.15,22.63-2.62,2-7.79,2.54-10.07-.14ZM384.7,273.54c-.7.2-2.79,2.55-3.23,3.3-1.63,2.78-3.87,13.4.74,14.04,6.01.83,8.97-19.16,2.49-17.34Z"/>
        <path class="cls-1" d="M366.71,289.29c1.82-1.44,1.57-5.26,4.38-5.37,5.13-.21.71,7.01-1.22,8.78-2.6,2.38-8.17,2.86-10.5-.01-4.16-5.14-1.68-15.43,2.51-19.96,2.88-3.11,7.26-4.58,10.75-1.29,2.9,2.73,3.53,8.4-1.96,6.45-1.02-.36-1.52-6.86-5.5-2.38-2.26,2.54-3.41,9.37-2.79,12.66.4,2.1,2.87,2.26,4.34,1.11Z"/>
        <path class="cls-1" d="M357.61,297.94h38.47c1.93,0,.68,4.99-.5,4.99h-38.47c-1.11,0-1.19-4.46.5-4.99Z"/>
        <path class="cls-1" d="M397.26,293.87c-.63.4-2.97-.12-3.93.07.06-2.66-.42-4.5,2.76-4.02,2.61.39,1.89,3.49,1.17,3.95Z"/>
      </g>
    </g>
  </g>
</svg>