<?xml version="1.0" encoding="UTF-8"?>
<svg id="Layer_2" data-name="Layer 2" xmlns="http://www.w3.org/2000/svg" viewBox="0 0 719.77 671.13">
  <defs>
    <style>
      .cls-1 {
        fill: #231f20;
      }

      .cls-2 {
        fill: #e87624;
      }
    </style>
  </defs>
  <g id="Layer_1-2" data-name="Layer 1">
    <g>
      <path class="cls-1" d="M563.75,601.52c-162.49,125.07-396.69,75.93-496.85-102.03-3.71-6.59-10.94-19.14-13.2-25.8-.44-1.31-.91-2.62.53-3.57,1.1-.73,13.4-1.43,14.59-.54,5.25,9.64,9.89,19.81,15.52,29.23,127.76,213.56,434.06,206.28,555.59-8.43,1.84-3.26,9.19-20.29,10.7-21.23.72-.45,13.15.34,14.36.67.95.26,1.5.73,1.22,1.9-.17.7-2.29,6.29-2.68,7.14-18.15,39.73-54.03,85.67-87.8,113.69-3.13,2.59-8.34,6.18-11.99,8.99Z"/>
      <path class="cls-2" d="M717.28,450c5.57,5.11,1.08,13.41-6.19,13.73-3.12.14-6.1-1.65-9.08-1.96-27.95-2.88-55.98-5.54-83.79-8.11-200.51-18.55-400.53-15.61-600.29,8.11-4.7.56-9.24,3.71-14.14.94-5.8-3.27-4.47-13.24,2.07-15.01,19.3-2.03,38.6-3.96,57.91-6.03,196.8-21.03,393.77-20.9,590.52-.1,18.05,1.91,40.39,2.44,57.74,6.19,1.56.34,4.12,1.2,5.26,2.24Z"/>
      <path class="cls-1" d="M196.57,485.23c69.56,77.79,188.12,93.37,276.51,40.06,27.19-16.4,51.9-38.23,68.89-65.41,1.35-.79,17.09.07,17.79.8.58.61-.17,2.06-.71,2.92-84.98,134.85-280.35,145.52-381.57,23.73-4.21-7.85-15.12-17.29-18.29-25.17-.75-1.87.63-1.24,1.5-1.46,17.98-4.43,15.73.78,24.46,11.47,3.57,4.37,7.66,8.85,11.43,13.07Z"/>
      <path class="cls-2" d="M271.85,575.76c2.46,1.42,10.22,23.73,12.2,27.76,1.24.92,3.89-7.47,3.97-8.62.22-3.19-3.83-8.04-1.84-11.2,1.59-2.53,15.62,1.09,16.66,4.54,2.72,8.97-5.18,6.82-5.94,7.87l-7.06,25.71c-.35,2.22-6.47,2.23-7.64,1.51s-8.81-22.52-10.17-25.8c-2.78-.29-1.58.09-1.94,1.53-.66,2.65-2.53,6.76-2.05,8.79.17.73,1.79.58,1.98,1.35.55,2.23.29,6.7-1.97,7.87-.73.38-8.69-1.64-9.99-2.07-3.12-1.03-6.51-1.61-5.77-5.7,1.02-5.57,3.38-3.94,5.74-5.27,1.51-.85,6.59-17.33,6-19.8-.19-.81-1.96-.33-2.1-2.14-.1-1.34.31-4.97,1-5.95s7.92-.94,8.9-.37Z"/>
      <path class="cls-2" d="M501.54,561.35c-.11.2-1.56.15-1.73.87-.63,2.62,5.99,14.66,7.72,18.07.41.81,4.15,5.57,4.25,5.95.24.94.3,4.72-.09,5.18-4.01,4.79-24.24-7.15-29.84-7.87.37,1.51,3.68,9.55,4.14,9.83,1.33.8,4.34-.48,5.69.32.24.14,2.11,4.64,2.01,5.2-.42,2.34-13.12,8.44-15.83,8.63.37-2.39-2.27-4.16-2.05-6.42.16-1.65,2.36-2.91,2.09-4.99-.07-.52-1.55-.5-1.71-.88-.82-1.9-6.53-14.91-7.5-15.5-1.04-.63-10.59-.97-7.37-7.16,5.5-10.56,26.44,5.53,34.51,4.98-.69-1.48-4.69-9.52-5.16-9.81-1.29-.79-3.54.64-5.88-1.62-6.57-6.34,7.14-8.94,10.52-12.65,3-.5,7.4,5.77,6.25,7.88Z"/>
      <path class="cls-2" d="M613.7,464.68c.74,1.08-4.01,8.84-4.98,10.49-9.91,16.93-21.15,32.35-33.5,47.41l-2.91,1.06c-1.31-3.46-10.06-7.85-9.17-11.04l18.93-24.19,15.24-24.58c5.68,2.14,10.67-1.78,16.39.84Z"/>
      <path class="cls-2" d="M128.6,475.27c4.03,6.23,8.44,12.63,12.77,18.69,4.55,6.37,9.86,12.21,14.7,18.36.72,2.15-8.78,11.09-9.52,11.22-1.35.24-3.89-2.87-4.87-3.91-9.9-10.49-24.56-32.1-31.33-44.81-.84-1.58-4.78-9.37-4.12-10.13,4.28-.62,11.19-2.05,15.29-.82,2.8.84,5.35,8.73,7.08,11.41Z"/>
      <path class="cls-2" d="M533.64,529.75c.27.24,2.93,6.2,2.99,6.56.3,1.72-.8,4.53-2.51,5.11-1.99.68-7.95-1.14-7.31,1.64.19.83,9.74,13,10.44,13.5,3.23,2.33,13.24,3.1,9.83,9.02-.56.98-10.1,8.06-10.78,8.08-2.25.07-5.14-1-6.05-3.14-1.22-2.87,1.1-3.21,1.36-4.66.18-.98-10.72-15.25-11.79-15.8-1.3-.66-2.63-.58-4.01-.49-.93,2.62,1.47,1.75,1.74,2.16,1.76,2.67-3.51,6.16-6.21,5.86-1.62-.18-7.5-6.66-7.53-8.55-.05-2.94,3.79-3.29,5.25-4.5,4.59-3.82,9.21-7.35,13.93-11.03.9-.7,2.83-3.55,3.06-3.62,1.3-.43,6.95-.71,7.6-.15Z"/>
      <path class="cls-2" d="M197.71,534.01c2.77,2.16,7.71,5.74,5.92,9.55-3.29,6.99-7.12.65-8.51,1.46-.86.5-11.54,15.06-11.62,16.04-.08,1.05,3.14,4.52,3.92,4.82,2.66,1.04,8.41-3.54,10.33,3.64.82,3.07-2.11,3.04-3.64,4.77-2.44,2.76-1.15,6.47-7.26,3.24-1.14-.6-15.22-11.95-16.72-13.45s-2.6-2.68-2.67-4.85c-.2-6.78,6.13-2.99,8.23-4.56.8-.6,12.04-14.7,12.44-15.62.82-1.91-2.17-.88-2.09-2.94.06-1.53,1.97-5.35,3.12-6.06,2.57-1.6,6.5,2.35,8.56,3.95Z"/>
      <path class="cls-1" d="M328,519.61c22.57-.35,45.36-.3,67.93,0,1.33.02,2.67-.04,4,0,.33.01.67-.01,1,0,1.98,3.28,1.34,6.47-3,5.99-3.36-2.51-73.76,1.92-83.91,0l-2-2c-.04-.65-.02-1.34,0-2,4.12-3.3,10.73-1.92,15.98-2Z"/>
      <path class="cls-1" d="M400.92,463.67c1.7,2.3.79,3.76,0,5.99-26.94-.4-53.98.53-80.92,0-1.33-.03-2.66.03-4,0-.33,0-.67.01-1,0-2.29-2.47-2.31-3.51,0-5.99,25.17-2.14,60.1-.74,85.91,0Z"/>
      <path class="cls-2" d="M345.98,607.52c-9.46,2.03-7.04-4.46-10.44-7.05-5.98-4.56-15.73-.71-17.3,6.77-2.37,11.31,7.2,16.02,17.18,15.28,3.9-7.99-5.7-3.54-7.95-6.97-.89-1.36-.9-5.63.47-6.61.91-.65,16.47.29,18.05,2.57-.27,2.86-.55,16.31-2.12,17.86-.91.9-12.3,2.31-14.41,2.16-19.26-1.34-28.94-22.69-14.84-36.9,8.88-8.95,21.73-2.45,32.41-2.64,1.4.88-.85,12.53-1.05,15.52Z"/>
      <path class="cls-1" d="M303.02,485.64c2.64,5.19,5.06,7.84,3,13.99-2.59,7.72-10.98,8.61-17.69,5.65-4.78-2.11-5.51-16.34.04-19.26,6.71-3.54,8.56-1.37,14.65-.37ZM299.65,490.03c-11.37-5.25-14.89,14-1.08,11.67,3.63-.61,5.33-9.71,1.08-11.67Z"/>
      <path class="cls-1" d="M349.97,503.62c-.1.29.09.69,0,1-7.19,2.77-11.63,2.12-17.98-2-.04-.33.05-.67,0-1-.32-2.12-.6-2.5-2-4,.1-.63-.15-1.47,0-2,1.59-5.46,3.17-9.98,9.56-10.93,8.81-1.31,15.17,5.5,13.21,14.22-.45,1.99-2.29,3.23-2.79,4.7ZM348.21,495.34c0-3.49-2.83-6.32-6.32-6.32s-6.32,2.83-6.32,6.32,2.83,6.32,6.32,6.32,6.32-2.83,6.32-6.32Z"/>
      <path class="cls-1" d="M451.87,485.64c.1.07-.18,1.34.3,1.68.67.49,1.64.25,1.7.31,4.3,5.26,2.94,16.02-4,17.98-19,5.37-22.16-20.92-4.49-21.06.83,0,6.22.9,6.49,1.08ZM451.5,495.3c0-3.52-2.86-6.38-6.38-6.38s-6.38,2.86-6.38,6.38,2.86,6.38,6.38,6.38,6.38-2.86,6.38-6.38Z"/>
      <path class="cls-1" d="M372.95,485.64c.63.11,1.5-.16,2,0l1,2c.11.58-.03,1.34,0,2,.09,1.86.33,4.62-.19,6.29-.45,1.43-2.44,2.33-2.57,3.18-.18,1.18,4.11,4.27,3.77,6.5-8.2,3.88-6.92-5.58-10.45-6.04-4.99-.65-.81,3.99-3.49,6.6-.49.48-4.04.09-4.04-1.04v-18.98c0-2.7,11.83-.88,13.99-.5ZM363.96,495.64c10.2.63,11.37-7.6,0-6v6Z"/>
      <path class="cls-1" d="M280.05,491.64c-4.84,1.69-6.03-2.68-9.43-1.99-5.54,1.12-6.23,8.83-1.33,11.24,5.05,2.48,4.65-1.04,5.44-1.23,3.99-.96,6.92-.36,4.82,3.98-3.58,7.37-25.94,1.91-17.75-14.7,3.55-7.21,19.95-7.36,18.26,2.71Z"/>
      <path class="cls-1" d="M389.93,485.64c2.07-.52,3.45-1.73,5.47,0,1.6,1.37,9.42,18.92,8.49,19.95-5.7,2.9-5.49-3.72-6.59-4.02-1.18-.32-7.55-.11-8.44.52-.94.67-.78,5.62-5.33,4.49-3.59-.88,1.92-8.03,2.4-10.95.1-.62-.08-1.35,0-2,2.42-.48,1.52-2.92,2-4,.57-1.29,1.54-1.41,2-4ZM395.92,497.63l-2.49-5.98-2.5,5.98h4.99Z"/>
      <path class="cls-1" d="M313.01,499.63c.49-3.18-2.07-16.72,3.49-14.98,2.91.92.93,14.1,1.51,16.98.66.05,1.33-.04,2,0,1.99.1,4-.07,5.99,0,.35.85,1.38,2.19,2,3,.16.21-.16.81,0,1-.07-.11-.65.06-1,0-4.01-.72-9.72.51-13.99,0h-1c.48-1.56.73-2.36,0-4,1.29-.82.81-.78,1-2Z"/>
      <path class="cls-1" d="M423.9,505.62c-4.34-.54-9.52.39-13.99,0v-19.98c9.38-3.16,20.64.74,18.77,12.23-.7,4.31-3.62,5.02-4.78,7.75ZM421.63,489.96c-2.52-.78-5.16-.16-7.73-.33v12c2.32-.38,6.29.91,8.09-.66,2.48-2.16,2.87-10.01-.36-11.02Z"/>
      <path class="cls-2" d="M377.95,629.49c.57,2.39-1.26,2.22-2.93,2.52-3.45.61-12.94,2.76-14.55-.52-3.63-7.38,3.41-8.08,3.56-8.6,1.48-5.22-2.51-13.17-1.3-18.75-.41-1.41-9.23-4.2-5.33-9.68.77-1.08,10.52-1.91,11.86-1.02s8.79,15.22,11.07,17.69c1.98-.07,2.49,6.25,4.59,4.37.26-.23,1.01-4.73,1.54-5.97,2.47-5.76,5.74-11.15,7.44-17.26,2.28-3.38,11.61-4.07,12.08-.28,1,8.05-3.77,5.84-4.14,7.12-.71,2.42,1.63,9.74,2.06,12.9.3,2.2-.64,5.93.47,7.52.83,1.2,9.1,3.18,4.64,9.36-.47.65-15.1,2.21-15.83,1.9-2.87-1.25-.15-5.14-1.75-7.3-1.88,3.85-2.64,5.09-5.5,7.99l-7-5.45c-1.31-1.86-4.59-10.12-5-10.53-2.71-2.65-2.32,7.69-1.98,7.99.35.32,2.81-.48,3.82.16.79.5,1.59,4.79,2.18,5.83ZM391.94,621.5c1.82,2.01,4.07-4.38,2.98-5.98-1.41.03-3.28,5.65-2.98,5.98Z"/>
      <path class="cls-2" d="M460.65,600.58c0,11.93-9.67,21.59-21.59,21.59s-21.59-9.67-21.59-21.59,9.67-21.59,21.59-21.59,21.59,9.67,21.59,21.59ZM443.55,589.88c-9.73-4.81-17.68,3.91-15.63,14.13.24,1.18,4.26,6.45,5.21,6.85,7.23,3.03,17.18.38,16.78-8.78-.17-3.93-2.77-10.42-6.36-12.2Z"/>
      <path class="cls-2" d="M250.3,579.23c0,11.85-9.61,21.46-21.46,21.46s-21.46-9.61-21.46-21.46,9.61-21.46,21.46-21.46,21.46,9.61,21.46,21.46ZM238.53,573.14c-1.21-2.35-1.39-4.2-4.39-5.13-11.72-3.66-20.69,7.71-14.93,17.92.75,1.34,5.97,5.36,7.44,5.61,9.22,1.58,15.2-9.37,13.4-17.28-.16-.7-1.34-.78-1.52-1.13Z"/>
      <path class="cls-2" d="M330,147c.05-4.5-1.97-6.98-2.99-10.98,2.11-.45,7.42.71,8.83-.17.59-.37,2.3-7.07,4.65-7.81l2.51,7.97c8.62-2.76,19.67-4.57,8.98,5.98,2.37-.25,10.32-.2,10.99,2.52.6,2.45-6.98,3.14-7.93,9.03-2.02,12.62,6.31,43.59,20.42,48.39-.37-13.26-.74-30.88,7.95-41.99.72-.92,8.64-7.8,9.23-7.93,2.89-.61,14.42-.39,17.78-.03,10.05,1.08,14.58,8.78,13.4,18.41-.17,1.4-3.05,13.03-4.9,11.56-3.73-16.07-20.82-15.32-26.99-.51,2.89.88,4.56-2.89,7.55-3.44,5.41-1,13.78-.13,15.89,5.99.94,2.73.5,5.19.55,7.95l-5.49,7.97c-2.26-2.09-2-5.73-4.05-7.92-5.3-5.7-16.47.9-16.42,7.94,13-6.45,18.45,1.28,15.97,13.99-1.71,2.53-2.51,6.57-6.99,5.99.15-3.96.27-10.92-4.53-11.95-1.05-.23-4.65-.33-5.33.11-1.28.82-2.69,12.71-3.43,15.05-.95,3-5.44,10.73-8.05,12.39-1.7,1.08-4.12,1.23-6,2.54-4.25,2.97-6.32,13.76-5.64,18.84,10.13.65,20.59,1.68,30.15,5.32,2.05.78,9.62,4.5,11.08,5.64,2.07,1.62,2.67,5.32,6.26,6.01s6.62-.95,9.92-1.02c96.11-2.24,191.53-8.36,286.74-21.02,12.79,0,12.34,14.26.95,16.01-13.37,2.05-28.36,2.54-41.88,4.07-205.25,23.3-413.47,23.28-618.47.09-13.85-1.57-29.16-2.07-42.79-4.16-11.48-1.76-9.81-16.27.95-16.01,40.54,5.84,81.09,8.87,121.76,12.18,55.62,4.53,111.98,8.74,167.97,9.92,6.49.14,8.62-4.4,13.52-7.44,7.09-4.41,15.47-6.75,23.62-8.34,7.03-1.37,16.25,2.07,13.97-8.44-3.51-16.18-22.09-23.21-25.23-39.7-1.15-6.04.83-16.16-.39-20.41-.32-1.1-4.63-.02-4.74-4.91-.05-2.1,3.35-8.03,4.72-9.93,1.82-2.53,9.74-6.58,5.71-10.5-2.44-2.37-11.22-.77-14.74-1.25-.03-2.56,4.57-5.19,4.99-5.98,8.03-1.08,9.88-.91,9.99-9.99ZM362.66,249.17c-.41-.5-5.71-4.4-6.17-4.28-3.38,3.75-5.49,6.63-4.52,11.99,3.07-.46,8.49.89,11.08-.48,1.24-.66.72-5.87-.39-7.23Z"/>
      <path class="cls-1" d="M537.41,50.48c52.22,32.14,99.06,85.31,125.27,140.94,2.86,6.07,21.51,49.89,18.95,52.48-2.92-.88-14.56,1.59-15.79-.21-6.56-23.07-16.49-46.02-28.3-66.87C562.44,44.26,401.48-16.79,256.12,32.66c-97.11,33.04-173.62,113.36-203.32,211.28l-1.93.9c-2.96-1.95-12.61.53-13.51-2.56-.26-.88,4.47-15.18,5.28-17.5C113.42,22.55,353.57-62.67,537.41,50.48Z"/>
      <path class="cls-1" d="M455.51,118.41c46.37,20.01,85.79,58.47,111.94,101.81.61,4.2,15.53,30.89,14.28,32.65-5.43,1.7-11.26.93-16.88.91-.3-1.49-.44-3-1.05-4.42-76.43-177.35-320.17-180.49-405.33-6.68-.87,1.78-3.93,10.72-4.45,11.03-1.65,1.02-13.12.1-15.8-.86-1.14-1.63,13.4-31.69,15.67-35.68,59.58-104.61,190.72-146.63,301.62-98.76Z"/>
      <path class="cls-2" d="M614.1,207.56c3.72,7.31,8.18,15.19,11.24,23.19.92,2.41,6.2,17.31,5.34,18.13-3.44-.28-13.23,2.82-15.51.02-.72-.88-.79-2.99-1.49-4.32-5.1-9.77-9.13-22.81-14.6-33.54-4.41-8.65-9.93-16.78-14.94-25.09-.5-1.05-.62-1.96.03-3,.59-.94,10.71-8.45,12.57-6.58,4.87,9.25,11.13,17.75,16.02,26.99.71,1.35.65,2.86,1.32,4.18Z"/>
      <path class="cls-2" d="M125.97,176.25c.27.13.43,1.3,1,1.67,1.58,1.01,8.98,5.31,9.03,6.52,0,.25-1.97,3.75-2.4,4.41-6.26,9.49-13.16,20.59-17.97,30.94-4.46,9.61-7.92,20.02-11.5,29.98l-15.87-.89c-1.45-1.44,12.61-33.67,14.61-37.83,5.8-12.06,13.25-23.17,19.5-34.92,1.18-.41,2.46-.41,3.61.12Z"/>
      <path class="cls-2" d="M509.81,104.04c5.47.39,3.5-11.51,3.99-11.99,2.79-1.13,11.01,3.45,11.07,5.47.17,5.97-3.39,3.57-6.12,5.98s-7.13,13.86-9.58,14.35c-6.48,1.31-4.78-16.1-6.36-19.79-4.38,3.28-3.57,7.22-2.99,11.98-1.52,1.5-10.75-3.25-11.55-4.96-1.88-4.03,5.02-5.16,6.13-5.94.38-.26,4.97-6.9,5.15-7.32,1.36-3.26-2.02-11,5-7.99,4.55,1.95,5.14,15.34,5.27,20.21Z"/>
      <path class="cls-2" d="M448.32,61.65c3.11,4.1,3.51,13.51.08,17.46-8.78,10.12-26.47,3.15-26.56-9.51,0-1.12,2.17-9.02,2.71-9.59,6.09-6.32,18.33-5.51,23.76,1.64ZM430.28,64.43c-6.75,15.01,16.83,19.06,13.57,2.17-1.13-5.84-11.77-6.18-13.57-2.17Z"/>
      <path class="cls-2" d="M289.63,60.53c14.58,10.93-6.48,28.61-19.57,25.53.16-1.69-.37-3.75.01-5.33.18-.75,1.66-.69,1.75-.87.33-.64-3.26-13.27-3.77-13.78-1.91-1.92-2.22,4.15-3.98,1.99-.26-.32-.18-6.22.42-7.06.55-.76,14.11-4.01,16.05-4,3.68.02,6.25,1.39,9.08,3.51ZM285.73,75.76c4.65-4.99,1.6-12.28-5.2-12.75-1.26-.09-5.91.46-6.39,1.16-.64.94,3.13,13.89,3.86,14.48,1.22.97,6.72-1.81,7.73-2.89Z"/>
      <path class="cls-2" d="M164.16,138.01c.47.49,10.27-1.15,9.52,7.09-.24,2.63-7.66,13.78-9.77,14.58-7.85,2.97-4.79-2.13-6.05-5.44-.17-.44-6.42-6.19-6.92-6.51-2.37-1.52-6.54-2.22-8.14-3.65-2.2-1.97.44-1.91,1.27-2.84,2.8-3.12,9.71-11.03,13.68-11.24,7.21-.38,5.99,7.59,6.39,8.01ZM156.82,136.09c-3.57,2.32-5.38,5.17-1.02,7.85,4.02-1.23,6.27-6.67,1.02-7.85ZM167.16,144c-3.79-1.31-9.87,2.57-5.53,6.09,3.45,2.8,6.41-2.75,5.53-6.09Z"/>
      <path class="cls-2" d="M351.97,46.1c.07.04-.16,1.23.34,1.62,10.09,7.87.72,13.29,1.66,16.82.46,1.75,7.73.93,5.55,5.51-2.81,5.89-9.58-.8-12.53-2.98,2.26,5.05-7.31,6.5-10.41,6.06-3.36-.48,1.19-7.67,1.37-8.6.46-2.43.34-9.74-.9-11.75-.83-1.34-3.43-.79-3.13-4.17.08-.88.97-2.51,1.57-2.51,2.51,0,15.76-.4,16.48,0ZM349.73,52.34c-1.4-1.38-4.84-1.25-6.75-1.24-2.69,16.37,12.58,6.98,6.75,1.24Z"/>
      <path class="cls-2" d="M473.55,68.36c1.17,1.05,1.29,3.98.4,5.13-1.05,1.36-3.5.12-4.05.63-.24.22,0,2.78-.51,3.96-1.02,2.35-2.8,3.89-3.34,6.77-1.01,5.49,6.56,7.42,9.45,2.88.53-.83.15-2.2.68-3.33.17-.35,1.43-.31,1.63-1.07.5-1.93-1.22-4.75,2.02-4.28v-.97c-3.77-.05-2.6-6.91,2.39-5.95,7.71,1.49,10.52,6.86,2.1,10.92-1.72,10.2-9.14,17.37-19.79,10.82-11.71-7.2,2.27-17.61-.67-27.81,1.02-.98,8.44,1.14,9.7,2.28Z"/>
      <path class="cls-2" d="M198.57,113.62c.22.43,1.43.18,1.63,1.85.81,6.59.22,10.95-5.03,15.08-9.54,7.49-23.12,2.4-23.1-10.03.02-13.98,18.95-21.36,26.49-6.9ZM191.79,114.38c-6.38-6.39-15.52-.8-13.36,7.9,2.99,12.03,23.61,2.36,13.36-7.9Z"/>
      <path class="cls-2" d="M223.1,80.06c.17,2.97.71,8.73,2.03,11.21.84,1.59,3.88,3.02,4.7,6.55,1.5,6.49-2.83,12.94-9.28,14.13-11.19,2.06-12.13-11.18-16.71-13.6-1.15-.61-3.03,0-3.55-.43-3.9-3.19,5.89-10.25,8.85-8.43,2.51,1.54.73,4.68,1.2,6.76.58,2.6,2.86,3.12,3.49,4.09.92,1.4-.51,4.61,4.05,5.49,2.74.53,6.68-2.32,6.27-5.22-.07-.52-1.64-.45-1.96-1.32-.77-2.06-2-8.85-4.22-10.12-1.96-1.11-4.31,3.73-4.92-3.51,4.11-1.26,5.52-5.88,10.06-5.61Z"/>
      <path class="cls-2" d="M322,48.1c1.94,14.12-3.6,6.31-8.45,6.92-5.37.68-1.01,7.56,4.47,5.06,2.1,8.47-6.53,2.79-5,9.99,5.75,2.28,5.79-5.37,10.27-3.81,2.58.9,3.79,4.85,2.29,6.89-.28.39-7.87,2.58-9.15,2.83-17.72,3.46-8.76-2.62-10.47-14.33-.74-5.07-5.6-5.74-3.93-11.56,7.04,1.11,13.09-2.14,19.97-1.99Z"/>
      <path class="cls-2" d="M413.91,60.09c-.21.21-5.8.22-6.01,0-.35-.37.4-3.65,0-4-.32-.29-2.32.34-3.23-.03-.97-.39-.76-1.86-1.43-2-1.54-.32-6.64,1.32-7.3,2.79-3.92,8.66,4.69,15.87,12.99,12.66l.98,6.56c-5.81,0-10.48.87-15.58-2.41-.56-.36-6.28-5.86-6.37-6.29-1.16-5.3.77-12.31,4.57-16.18,6.63-6.74,13.75-1.05,21.42-.64.7.42.3,9.18-.04,9.54Z"/>
      <path class="cls-2" d="M541.47,108.35c.63.49.91,1.95,1.78,2.66,1.44,1.16,7.53,5.2,8,6.02,3.35,5.87-6.63,9.97-7.53,6.33-.4-1.6,1.32-4.79-1.44-4.32-2.03.87-1.97,3.67-2.84,4.65-1.4,1.59-4.16,2.45-5.14,5.39-.74,2.22,1.1,6.48-4.43,6.83-.86-3.69-6.46-4.47-6.13-8.34s4.32-3.02,6.61-4.52c1.38-.9,6.77-7.11,5.28-8.9-.43-.51-5.81-.39-4.74-4.42.22-.83,3.81-4.48,4.52-4.6.43-.07,5.3,2.63,6.05,3.21Z"/>
      <path class="cls-2" d="M577.74,144c-1.21,7.72-13.71,1.33-19.36,5.89-1.88,1.52,1.69,7.3-4.19,7.09-.46-.02-5.31-4.25-5.91-5.01-3.19-4.07,1.16-7.43,5.48-4.96.74-3.65,3.32-6.82,3.95-10.55s-2.02-9.59,3.43-9.16c1.42.11,7.51,5.28,6.62,7.71-3.1.07-6.87,4.49-5.99,7.99,5.88,1.2,5.78-3.71,6.91-4.54,4.16-3.03,5.54,4.41,9.07,5.54Z"/>
      <path class="cls-2" d="M246.09,70.07c-1.59,3.16,1,16.48,3.12,17.85,4.64,2.98,5.53-3.07,6.76-4.22,3.53-3.28,7.04,2.98,6.16,6.71-.25,1.06-18.25,9.68-19.94,5.02-1.34-3.68,1.93-3.5,1.94-3.9.03-.73-5.68-12.73-6.25-13.18-.64-.5-3.95,1.24-3.85-1.79.17-4.9,2.89-3.42,5.25-4.59,1.75-.87,2.27-3.26,6.8-1.9Z"/>
      <path class="cls-1" d="M242.09,207.93c2.03,8.83-9,3.44-10,6.5-.86,2.64,5.72,1.2,7.28,1.53.71.15,1.12,2.25,2.65,2.01-.55,4.93-5.93,4.07-9.93,3.95-1.5,6.31,6.54.72,9.4,2.89,1.32,1,.37,3.57.6,5.1h-15.98v-21.98h15.98Z"/>
      <path class="cls-1" d="M262.06,213.92c-.63.65-10.01-2.73-9.96.5.02,1.43,6.29,2,7.93,3.04,4.17,2.66,5.03,8.66.62,11.51-5.34,3.46-19.18-1.15-13.95-5.16,2.73-2.1,8.96,2.54,9.38,2.1.09-.1.99-2.37.99-2.5,0-.73-9.89-4.14-10.8-5.67-1.13-1.89,1.36-7.66,3.26-8.88,2.48-1.6,10.62-1.82,12.06,1.07.44.89.85,3.63.49,3.99Z"/>
      <path class="cls-1" d="M485.52,210.24c2.04,2.74-.05,5.69.31,8.1.23,1.56,1.77,2.62,2.02,4.16,1.44,8.91-17.38,11.47-17.03-.12.06-2.16,1.45-3.45,1.57-4.92.18-2.28-1.18-4.16-.21-7.27,1.07-3.45,11.08-3,13.35.04ZM481.83,215.92c.59-3.77-1.72-4.36-4.99-3.99v3.99s4.99,0,4.99,0ZM481.98,222.93c0-1.73-1.4-3.14-3.14-3.14s-3.14,1.4-3.14,3.14,1.4,3.14,3.14,3.14,3.14-1.4,3.14-3.14Z"/>
      <path class="cls-1" d="M491.83,227.89c-2.99-4.38,9.41-3.37,9.98-3.99.93-1.01.75-1.94-1.25-1.71-12.51,1.43-10.05-13.09-4.22-14.24,15.91-3.14,12.94,19.89,6.79,21.75-2.35.71-10.06-.01-11.29-1.82ZM501.81,217.92c1.37-11.42-9.98-3.37-3.97-.51,1.3.62,2.59.63,3.97.51Z"/>
      <path class="cls-1" d="M454.87,221.92c-3.03-.22-4.59-2.04-4.97-5.55-.28-2.57,2.07-7.44,4.68-8.22,15.19-4.52,14.6,19.2,6.58,21.55-3.57,1.05-10.84,1.06-9.19-4.18.58-1.84,2.7-1.41,2.9-1.61,2.85,4.48,5.64,1.42,6.99-1.99-2.31-.14-4.69.16-6.99-.01ZM455.93,217.86c2.72,1.93,9.36-3.65,3.21-5.73-5.14-1.74-4.23,5-3.21,5.73Z"/>
      <path class="cls-1" d="M284.04,207.93c1.93,6.62-5.99,5.5-5.99,5.99v15.98h-5.99v-15.98c0-.54-8.27,1.84-5.99-5.99h17.98Z"/>
      <path class="cls-1" d="M439.88,213.93c-.53-.78-5.97.45-4-6,1.57.25,8.67-.35,9,0,1.2,1.28-.04,11.27-.05,13.45-.04,4.69,3.75,9.72-4.95,8.54-.55-2.63.74-14.9,0-15.98Z"/>
      <path class="cls-1" d="M174.16,409.72l-12.37,1.06c-.77-.21-1.49-3.84-1.55-4.7-1.86-27.75-1.74-67.94,0-95.79.6-9.67,4.68-3.56,11.82-5.41,2.67,6.82,4.26,14.03,6.6,20.97.35,1.02,1.4,1.69,1.5,1.96,2.88,8.62,4.49,18.02,8.08,26.38.44,1.02.28,2.44,1.9,2.59l16.09-50.84,11.89.9v101.89c0,.73-13.83,2.75-13.51-.95l.03-59c-5.14,11-8.26,22.86-12.57,34.2-.29.76-1.66.83-1.7.94-.26.67,2.06,4.91-1.21,2.22-4.22-3.49-5.17-12.37-7.09-17.58-.4-1.08-3.22-2.97-2.36-6.82l-5.52-11.94c-.39,19.95.48,39.99-.01,59.93Z"/>
      <path class="cls-1" d="M389.93,308.83l12.09.62,15.89,47.33,16.9-47.27c1.39-2.1,11.22-2.42,12.17-1.1l.89,96.82c.09,4.23-13.99,2.83-13.99,1v-56.44l-13.89,34.55-2.07,1.41-15-36.95v57.94h-12.99v-97.9Z"/>
      <path class="cls-1" d="M541.28,305.83c5.76,1.09,12.49,7.58,13.43,13.55,1.79,11.43,2,38.88-5.52,47.85l5.58,43.5c-2.69-.44-11.24,1.02-12.56-.94l-5.59-36.37c-1.92-3.14-7.53-1.16-10.83-1.66v37.96h-12.99v-102.39c0-.11,1.39-1.5,1.5-1.5,7.19,0,20.75-1.17,26.97,0ZM525.79,319.82v37.96c7.65.33,15.16,1.06,16.05-8.43.41-4.41.5-23.1-.83-26.28-2.31-5.51-10.37-2.58-15.22-3.26Z"/>
      <path class="cls-1" d="M577.74,345.79l15.92-41.52c1.14-2.03,13.63-2.01,14.04-1.43-5.9,18.57-13.97,36.49-18.91,55.36l18.96,53.99c.17,2.12-.16,1.31-1.51,1.53-3.93.63-8.47-.46-12.32-1.2l-16.18-44.76v43.95c-3.47-.56-9.3.86-12.35-.14-3.37-1.11-.96-7.98-1.02-10.52-.71-31.56-.76-63.14-.62-94.73.85-4.62,10.22-1.73,13.99-2.5v41.96Z"/>
      <path class="cls-1" d="M295.53,307.83c1.47.23,8.34,3.2,9.82,4.16,5.53,3.59,7.28,7.98,7.7,14.28.48,7.18.91,28.69-1.64,34.4-1.26,2.81-4.37,4.42-4.49,7.58l6.08,38.47c-2.52-.75-11.56,1.36-12.76-.21l-6.73-35.77c-3.03,1.2-8.47-1.04-9.68,2.45l.2,34.53h-13.99v-99.9c7.82.86,17.97-1.17,25.47,0ZM284.04,321.81v33.47c0,.22-1.85,1.73.62,2.38,4.51,1.19,12.41.73,14.63-4.09,1.19-2.58,1.26-25.2.21-27.73-2.34-5.63-10.59-3.82-15.46-4.02Z"/>
      <path class="cls-1" d="M647.66,299.84c.24,4.96-.17,10.02,0,14.98-.13.01-.94.87-2.39,1.06-5.03.65-11.38-.59-16.59-.06v31.47c0,2.86,12.38-.2,14.98,1.5v14.98h-14.98v35.96l18.99.99,1,14.99c-3.62-.21-7.38.29-10.99,0-3.2-.26-8.03-1.7-11.5-1.99s-7.02.17-10.48,0v-111.88c10.66.21,21.39-.71,31.97-2Z"/>
      <path class="cls-1" d="M359.65,317.55l-5.16,7.2c-6.43-6.84-17.43-6.59-19.27,3.79-.6,3.4-.85,14.94,1.47,17.31,5.14,5.22,18.09,2.84,23.47,13.23,2.45,4.72,2.71,29.27,1.33,34.69-3.3,12.99-20.19,16.9-31.51,13.48-2.52-.76-10.63-5.04-10.56-7.98.03-1.52,5.01-11,6.13-11.47,3.65-1.54,1.94,3.66,4.5,5.4,6,4.09,16.52,3.59,17.87-5.01.52-3.28.62-16.8.03-19.9-.88-4.64-14.82-7.66-19.29-10.68-1.27-.85-5.65-4.77-6.14-5.85-.8-1.75-1.06-28.55-.49-31.25,5.56-7.19,11.67-13.44,21.57-13.58,5.18-.07,19.01,3.58,16.05,10.6Z"/>
      <path class="cls-1" d="M19.32,297.34c.13-.53,1.24-1.37,1.98-1.19l31.87,2.8-.89,14.88h-19.98v35.96c5.01.95,13.27-2.78,14.03,3.45,1.76,14.36-1.08,13-14.03,12.53v52.94c-2.3-1-12.99,2.48-12.99-.5v-120.87Z"/>
      <path class="cls-1" d="M262.07,307.83l-1,12.99h-18.98c-1.91,9.53-.41,19.4,0,28.97h13.99v12.99h-13.99c.32.98-1,2.17-1,2.5v27.97c0,.11,1.39,1.5,1.5,1.5h16.98c1.78.99,2.98,12.51,2.5,12.99h-33.97v-99.9h33.96Z"/>
      <path class="cls-1" d="M671.64,297.84c8.31-.79,17.61.29,25.97-1.99-.21,3.36.93,14.62-1.95,16.52-3.18,2.1-12.08-2.14-13.03,2.96l1,102.39c-4.3-.12-8.69.2-12.99,0l-.99-103.9c-4.64.16-9.36-.21-13.99,0-.22-4.7.02-9.34-1-13.98,2.14-.13,4.35.24,6.49-.01,3.23-.38,7.59-1.71,10.5-1.99Z"/>
      <path class="cls-1" d="M150.18,315.82c.76,11.67,2.3,26.89,1,38.46-.88,7.86-8.37,11.51-5,18.48-.01.33,0,.67,0,1,.07,4.18.12,9.15,2,12.99.02.33-.01.67,0,1,.17,3.85.24,8.67,2,11.99.03.66-.03,1.33,0,2,.13,3.42.58,6.62,1,9.99-2.76.9-9.62-.65-12.99,0l-4.99-39.97h-10.99v40.96c-4.48.27-13.77,4.05-13.88-2.57l.1-105.61,2.25-2.3c9.89,2.06,24.39-1.18,32.53,5.07,3.31,2.54,4.9,6.63,6.97,8.51ZM122.21,357.78c5.48-.08,13.21,1.56,15.43-5.04.98-2.89,1.1-28.32.03-30.9-2.34-5.63-10.59-3.82-15.46-4.02v39.96Z"/>
      <path class="cls-1" d="M101.24,413.71l-12.89.9-3.62-22.89-16.53,1.45c-2.61,1.88-1.67,20.12-3.36,22.61-1.35,1.99-10.75.47-13.55.92l17.6-116.93c4.83,1.11,14.25-2.69,15.71,3.22l16.65,110.71ZM77.25,325.81c-2-.26-1.64-.18-2.25,1.24-1.52,3.55-.3,7.55-.76,11.23-1.67,13.47-4.18,26.88-4.98,40.47,3.72-.74,13.25,2.11,14.03-2.53l-6.04-50.42Z"/>
      <path class="cls-1" d="M487.83,306.83l16.98,101.89-12.94-.04c-1.24-3.61-1.78-19-4-20.47-1.23-.81-14.78-.84-16.06,0-3.04,2.01-1.4,15.62-3.4,18.58-1.35,2.01-10.74.47-13.55.93l17.02-99.84,15.94-1.04ZM486.83,375.76l-6.49-49.96c-3.9,4.9-1.91,10.78-2.6,16.39-.31,2.45-1.47,4.75-1.79,7.2-1.16,8.75-1.77,17.65-3.1,26.37h13.99Z"/>
    </g>
  </g>
</svg>