<?xml version="1.0" encoding="UTF-8"?>
<svg id="Layer_2" data-name="Layer 2" xmlns="http://www.w3.org/2000/svg" viewBox="0 0 230.56 191.13">
  <g id="Layer_1-2" data-name="Layer 1">
    <g>
      <path d="M89.83,55.05l6.44.05,8.78,30.39,8.18-30.14,6.54-.3v58.38h-6.49v-35.42c-.73-.11-.68.86-.85,1.39-2.19,6.74-3.22,14.35-5.39,21.06-.84,2.6-1.33,3.77-4.16,1.67l-6.57-24.12v35.42h-6.49v-58.38Z"/>
      <path d="M80.35,113.43h-6.99l-6.04-24.4-3.95.45v23.95h-6.49s-.5-55.88-.5-55.88c5.36.27,12.51-2.79,17.22.5,6.4,4.47,6.73,20.04,2.66,26.11-.73,1.09-2.81,2.48-2.88,3.54l6.95,25.73ZM63.38,64.53v17.46c8.66,1.27,9.53-4.06,9-11.25-.47-6.4-2.78-7.5-9-6.22Z"/>
      <path d="M154.58,4.29c4.84,4.47-5.37,19.89-8.6,23.83-2.62,3.19-6.69,4.43-5.03,9.5s7.84-1.05,9.61-2.96l2.15.67.54,1.5c-2.82,6.38-12.76,10.7-17.27,3.25-3.63,4.01-10.83,6.12-13.99.49-2.58,1.62-4.09,3.31-7.47,3.02-3-.26-2.37-1.96-4.24-3.51-1.67,4.77-8.68,5.48-11.2.96-4.19-7.52,5.14-20.57,12.88-17.84.65.23.66,1.16.91,1.31.84.49,2.88-.47,3.66,1.12.91,1.83-2.03,9.49-1.78,11.73.38,3.32,5.64-1.03,6.53-2.97,1.86-4.02,1.32-12.63,8.48-10.54,1.61,1.12-2.08,7.1-2.4,9.13-.27,1.71-.77,6.53,1.61,6.6,1.4.04,5.8-3.6,6.15-4.83.34-1.16-.05-2.58.16-3.83,1.24-7.44,5.15-23.44,12.56-26.86,1.84-.85,5.14-1.23,6.72.23ZM150.21,9.15c-2.75-.23-4.13,3.03-5.08,5.15-1.69,3.79-2.97,8.68-3.4,12.81,2.56-1.69,10.3-16.03,8.48-17.96ZM111.79,26.62c-5.11.28-11.4,8.13-6.97,12.23,6.13.66,6.39-7.86,6.97-12.23Z"/>
      <path d="M162.69,58.05c8.46.97,17.08.28,20.7,9.49,2.45,6.23,2.68,17.67-4.01,21.45l6.76,24.44h-6.99l-5.6-22.09c-.81-1.6-2.89-1.39-4.38-1.36v23.45h-6.49v-55.38ZM169.18,83.49c2.16-.25,5.74.68,7.47-.77,2.39-2,2.12-9.8,1.19-12.62-1.25-3.78-5.35-3.64-8.65-4.07v17.46Z"/>
      <path d="M101.81,13.64c1.52,1.15,7.21-5.22,9.27-3.02,2.24,3.1-8.5,7.3-10.51,8.02-3.13,9.1-13.24,27.88-24.09,28.3-13.24.52-8.44-23.62-4.61-30.8-.69-.65-7.51,4.86-9.28,4.99-2.06.14-2.14-1.87-1.24-3.29l15.49-9.47c1.25-.67,3.25.04,3.78,1.27.19.43-3.33,7-3.9,8.6-2.06,5.82-4.18,15.42-2.64,21.37,1.68,6.48,8.37-1.11,10.46-3.58,4.21-4.95,8.04-11.68,9.75-17.87-10.53-3.23-10.08-20.58,3.16-17.88,5.25,1.07,5.62,9.28,4.36,13.35ZM96.31,13.64c.42-2.88,2.02-10.47-3.14-8.89-3.87,1.19-.81,9.45,3.14,8.89Z"/>
      <polygon points="151.21 56.55 151.21 64.03 137.74 63.53 137.74 80.5 149.22 80.5 149.22 87.98 138.49 87.98 137.74 88.73 137.74 105.45 150.71 105.45 150.71 113.43 131.25 113.43 131.25 55.55 151.21 56.55"/>
      <path d="M49.41,113.43h-6.49s-1.49-11.48-1.49-11.48l-9.01.22-1.97,11.26h-6.49s10.31-52.81,10.31-52.81l3.92-.59,1.14.87,10.08,52.54ZM36.93,76.01c-1.25-.09-.85-.12-.98.75-.9,6.06-1.83,12.13-2.51,18.21h6.49s-2.99-18.96-2.99-18.96Z"/>
      <path d="M216.59,80.5l-6.42-1.07c.11-3.96-1.12-8.13-5.79-7.94-4,.17-3.96,7.18-2.88,9.87,1.25,3.1,10.21,5.49,12.81,9.14,2.08,2.91,2.54,8.21,2.3,11.71-1.24,18.15-24.84,13.97-22.48-2.76h6.49c-.47,4.76.73,8.35,6.21,7.45,3.86-.63,3.63-6.66,3.29-9.71-.55-4.85-6.61-5.62-9.96-8-3.77-2.68-5.21-5.86-5.54-10.43-1.67-23.06,23.39-15.48,21.98,1.73Z"/>
      <path d="M39.43,127.4l4.92.07,6.81,19.39,6.81-19.39,5.42-.07v36.92h-5.49v-21.95c-.74-.11-.67.86-.85,1.39-1.08,3.19-2.77,10.85-4.23,13.24-.73,1.19-2.22,1.19-3.17.34l-5.23-15.48v22.45h-5.49c-.25-.18.5-.64.5-.75v-36.17Z"/>
      <polygon points="0 67.53 19.46 63.53 19.44 70 6.49 72.02 6.49 86.98 17.96 85.49 17.9 91.9 6.49 92.97 6.49 113.43 0 113.43 0 67.53"/>
      <path d="M104.05,127.4c7.12,1.46,8.53,16.49,1.84,19.55l5.4,17.37-5.75-.49-4.68-15.18-3.55-.3v15.97h-4.99v-36.92c3.41.48,8.56-.65,11.73,0ZM97.32,143.86c3.98.12,7.07.54,7.51-4.22.51-5.52-.66-8.21-6.68-7.68l-.83.67v11.23Z"/>
      <path d="M120.77,127.4v16.47l7.72-15.98,5.25-.48-6.78,14.71,8.29,21.95-5.43.19-5.56-15.9c-1.17-.25-.8.16-1.11.64s-2.38,3.86-2.38,4.1v11.23h-4.99v-36.92h4.99Z"/>
      <path d="M88.33,164.32h-5.48s-1.47-7.76-1.47-7.76h-7.05s-1.47,7.77-1.47,7.77h-5.49s8.01-36.9,8.01-36.9l4.15.04.72.78,8.08,36.08ZM80.35,151.35c-.72-3.59-.97-7.77-1.97-11.25-.19-.68-.06-1.55-1.02-1.72l-2.5,12.97h5.49Z"/>
      <path d="M155.71,127.4v4.49h-10.48v11.48h8.98v4.99c-.18.25-.64-.5-.75-.5h-8.23v11.48h10.48v4.99h-15.97v-36.92h15.97Z"/>
      <polygon points="177.16 127.4 177.17 131.89 171.18 131.89 171.18 164.32 165.69 164.32 166.19 133.14 165.37 131.96 159.69 131.89 159.7 127.4 177.16 127.4"/>
      <polygon points="143.73 174.8 144.73 184.28 146.72 175.12 147.97 174.8 150.47 184.78 152.03 174.78 153.71 174.8 151.72 190.77 149.22 190.76 147.71 180.79 145.78 190.47 143.67 190.47 141.22 175.06 143.73 174.8"/>
      <polygon points="123.27 174.8 123.27 181.78 126.26 181.78 126.26 174.8 128.26 174.8 128.26 190.76 126.26 190.76 126.26 183.78 123.27 183.78 123.27 190.76 120.77 190.76 120.77 174.8 123.27 174.8"/>
      <path d="M87.83,174.8c5.29-.59,8.65.78,7.48,6.73-.25,1.25-1.55,1.44-1.49,2.94.07,1.64,1.74,4.26,2,6.04l-2.48.23c-1.08-7.87-4.23-10.27-3.52.02h-1.99v-15.97ZM90.64,176.83c-1.13.37-1.77,5.72.92,5.47,2.9-.27,2.31-6.52-.92-5.47Z"/>
      <path d="M134.1,174.89c1.74-.52,4.03.32,4.76,2.03.6,1.4.65,10.34.15,11.88-.97,2.98-6.73,3.46-7.28-1.27-.22-1.93-.26-9.67.49-11.01.22-.39,1.44-1.49,1.88-1.63ZM133.75,178.04c-.44,1.58,0,7.77,0,9.98,0,.91,2.83,1.3,3.39-.6.35-1.21.26-8.37-.23-9.51-.64-1.49-2.82-1.1-3.16.14Z"/>
      <path d="M71.86,190.76c-2.13.86-2.57-1.02-2.73-1-1.2.21-4.11,2.81-5.79.17-2.13-3.35,1.3-5.84,1.36-6.9.04-.6-1.06-1.75-1.23-2.62-1.14-5.64,7.61-5.43,5.8.52-.3.97-1.9,1.47-1.81,2.5l1.69,2.84c.77.16,1.67-1.99,2.72-.24l-1.44,2.06,1.45,2.67ZM65.88,181.78c3-.36,2.23-5.39-.46-2.67l.46,2.67ZM65.38,184.78c-1.19,1.72-1.14,5.33,1.69,4.45,2.27-.71-1.34-4.71-1.69-4.45Z"/>
      <path d="M117.13,175.94c.76.94.66,2.23.65,3.35l-1.92-.08c-.64-4.8-5.06-1.26-3.11,1.37,1.79,2.42,6.17.04,5,7.42-.81,5.09-8.75,3.6-7.45-1.72l1.96.03.49,2.26c2.78,1.08,3.71-.94,2.94-3.44-.71-2.29-6.79-.88-5.28-7.47.66-2.92,4.96-3.9,6.73-1.71Z"/>
      <path d="M82.32,174.82l3.52,15.94-2.47-.02-.58-3.41c-.17-.14-.45-.06-.68-.09-3.8-.52-2.16,1.81-2.99,3.06l-2.27.47,3.44-15.67,2.02-.27ZM82.34,185.27c.21-.21-.48-3.46-.66-4.09-.15-.52-.11-1.51-.84-1.4l-1,5.48h2.5Z"/>
      <path d="M230.56,64.53c.07,5.89-4.36,9.81-9.97,10.48-.63-5.76,4.32-10.46,9.97-10.48Z"/>
      <path d="M128.91,14.28c1.62-1.38,3.84-1.47,5.85-.9,5.75,7.71-9.45,10.05-5.85.9Z"/>
      <polygon points="104.8 174.8 104.8 176.79 102.31 176.79 102.31 190.76 100.31 190.76 100.31 177.54 97.31 176.79 97.32 174.8 104.8 174.8"/>
    </g>
  </g>
</svg>