<?xml version="1.0" encoding="UTF-8"?>
<svg id="Layer_1" data-name="Layer 1" xmlns="http://www.w3.org/2000/svg" viewBox="0 0 1083.85 261.64">
  <defs>
    <style>
      .cls-1 {
        fill: #d61f26;
      }

      .cls-2 {
        fill: #fbf8cd;
      }
    </style>
  </defs>
  <g>
    <path class="cls-2" d="M69.4,48.97c.02-.43.14-.55.85-.76,1.81-.78,3.16-2.08,4.24-4.09l2.85-5.28c1.3-2.47,1.71-5.2,1.25-8.39-.17-.68-.26-1.26-.26-1.68-.99-24.41-18.5-25.06-35.42-25.68-1.15-.07-2.33-.17-3.51-.27-1.19-.1-2.38-.2-3.53-.27h-.01s-23.73,0-23.73,0c-2.09.12-4.05.36-6.13.6l-.62.08C2.89,3.22.28,4.6.14,7.21,0,8.59,0,9.96,0,11.22c.09.83.19,1.66.29,2.49.21,1.73.43,3.52.52,5.34.15,3.48.27,6.87.14,10.13-.07,1.99-.23,4.06-.4,6.07-.17,2.09-.35,4.25-.42,6.4,0,1.44.12,2.97.24,4.45.06.78.12,1.56.17,2.32,0,5.73,0,11.65.13,17.47,0,.76.07,1.49.14,2.2.07.69.13,1.4.13,2.13s0,1.42.02,2.14c.03,2.15.05,4.37-.15,6.49-.36,4.18-.23,8.73.41,14.25,0,.65.23,1.21.45,1.76.09.21.17.43.25.66l.09.15c.16.16.65.51,1.03.51h0c1.11.14,2.35.14,3.4.14,1.1.09,2.21.15,3.32.21,2.16.12,4.39.24,6.53.6,1.81.3,3.67.45,5.69.45,1.27,0,2.61-.06,4.03-.18,3.64-.4,7.48-.4,11.2-.4.39,0,.75,0,1.11.12,1.85.57,3.82.42,5.53.29,2.47,0,4.89-.12,7.24-.24,1.16-.06,2.31-.12,3.5-.16,8.41-.97,12.19-2.88,18.59-7.79,4.49-3.22,6.54-8.01,8.26-12.64,1.36-3.85,1.5-8.12.42-13.07-1.46-6.64-5.88-11.79-12.44-14.52ZM18.38,82.42c-1.05,0-1.14-.14-1.25-1.04-1.06-6.23-1.28-11.68-.67-16.7.07-1.02.1-2.04.14-3.06.03-1.01.07-2.02.13-3.06,0-1.15,0-1.17,1.3-1.52.21,0,.41-.04.62-.07.18-.03.37-.06.55-.06,2.07,0,4.17-.18,6.2-.35,3.02-.25,6.14-.52,9.2-.19,2.19.18,4.34.24,6.61.3,1.08.03,2.18.06,3.28.1,1.52.09,3.08.3,4.58.51.77.11,1.53.21,2.23.28.68.23,1.19.27,1.64.11.46-.23.94-.23,1.32-.23,1.13,0,2.14.51,3.23,1.05,1.44.66,2.69,1.51,4.02,2.41l.78.52c1.15.89,1.92,2.06,2.32,3.5.78,1.95,1.19,4.2,1.19,6.51.14,4.69-3.36,8.46-8.31,8.96-2.8.13-5.7.27-8.55.54-1.49.14-3.01.3-4.53.47-1.52.17-3.05.34-4.5.47h-.29c-2.44.14-4.84.24-7.24.34-2.27.1-4.55.19-6.85.32v-.11h-7.14ZM52.27,41.14c-1.22.33-2.47.4-3.67.47-.74.04-1.5.09-2.24.19h0c-2.23.36-4.48.33-6.72.36-1.07,0-2.26,0-3.38.04h-4.47c-.27,0-.53,0-.81,0-1.44-.02-2.92-.04-4.51.45-.19.1-.56.1-.78.1-2.18,0-4.23,0-6.32.42-.67.17-1.36.11-2.03.05-.34-.03-.67-.06-.99-.06-.41,0-.6-.17-.71-.57,0-7.37.79-15.06,1.49-20.94.26-2.18,1-2.69,2.94-3.06,1.55-.26,3.31-.4,4.96-.4,1.67-.05,3.39-.17,5.05-.29,2.18-.16,4.42-.31,6.62-.31.75,0,1.49.02,2.23.06,3.11.27,6.09.54,9.06.81,1.16.14,2.28.24,3.4.34,1.11.1,2.22.2,3.33.33,1.05.23,2.2.51,3.48.94,1.41.47,2.33,1.52,2.73,3.11.12.53.19,1.07.27,1.64.16,1.25.33,2.54,1.08,3.79-.03,6.72-3.31,10.82-10.01,12.53Z"/>
    <path class="cls-2" d="M174.35,2.95h-3.49c-.83-.07-1.67-.1-2.52-.14-.81-.03-1.64-.07-2.52-.13-1.17,0-1.84.56-1.99,1.67-.27,1.61-.55,3.27-.55,4.91-.09,1.46-.06,2.94-.03,4.36.02.72.03,1.44.03,2.18.04.81.11,1.62.17,2.44.12,1.59.24,3.24.24,4.87.12,2.92.03,6.23-.27,9.84-.24,3.78-.29,7.91-.14,12.62,0,1.5.13,3.12.27,4.65l.07.6c.25,2.09.48,4.06.61,6.15.29,5.32-.92,10.4-2.01,14.2-.41,1.08-.79,2.11-1.44,2.89-6.15,8.39-11.48,9.87-20.39,9.87-2.92-.15-5.59-.11-7.92.14-1.79.24-3.49-.06-5.19-.91-8.52-4.48-12.66-10.79-12.66-19.32-.14-3.11-.14-6.27-.14-9.33,0-3.85,0-7.83.4-11.73.4-2.95.82-6,.55-9.14l-.41-9.33c0-.68,0-1.53-.14-2.22-.4-2.71-.35-5.48-.3-8.16.02-.92.03-1.83.03-2.8-.06-.45-.06-.94-.06-1.45s0-1.09-.07-1.61c0-1.15-.19-2.09-.56-2.83-.49-1.47-1.48-2.29-2.79-2.29-2.42,0-5.07-.45-7.9-1.34-.61-.15-1.09.09-1.55.33l-.23.12c-2.73,1.72-3.85,4.15-3.42,7.39l.41,4.89.81,7.31c.4,3.6.4,7.41,0,11.01-.82,6.39-.82,12.45-.82,18.87,0,.81,0,1.46-.13,2.25-.61,4.53-.39,9.49.68,15.16.17.83.32,1.66.47,2.49.3,1.7.61,3.46,1.2,5.22.83,2.35,1.77,5.01,3.26,6.91,4.04,6.27,5,7.57,11.5,11.49,1.84,1.1,4.05,1.87,6.76,2.35.75.14,1.47.24,2.18.34.71.1,1.41.2,2.15.33,1.39.28,2.79.41,4.27.41s3.12-.13,4.6-.27c.9,0,1.81-.1,2.68-.21.85-.1,1.74-.2,2.58-.2,3.56.14,7.16-.42,10.64-.95l.59-.11c1.34-.24,2.73-.49,4.06-.85.59-.2,1.2-.36,1.8-.53,1.86-.51,3.78-1.04,5.39-2.54.12-.12.31-.22.52-.34.16-.09.33-.18.46-.27,4.96-2.41,8.33-6.61,10.68-9.98,1.65-1.98,3.31-10.24,3.33-10.33.97-5.17,1.33-9.59,1.09-13.47,0-.7-.07-1.36-.14-2-.07-.62-.13-1.27-.13-1.92,0-1.69.03-3.38.07-5.07.03-1.69.07-3.39.07-5.07.12-2.91.27-6.53.27-9.91-.15-6.43.07-12.04.67-17.14.41-3.39.54-6.83.41-10.21-.15-4.15-3.15-4.15-6.06-4.15Z"/>
    <path class="cls-2" d="M215.05,33.28c.31-.72.62-1.45.93-2.2,1.38-3.67,4.16-6.49,8.76-8.87,2.06-1.13,4.36-2.07,6.57-2.98.97-.4,1.94-.8,2.89-1.21.88-.44,1.83-.64,3.08-.64h7.55c5.37.48,11.38,1.7,15.29,7.14,1.49,2.23,3.9,3.63,5.8,4.58.66.4,1.27.6,1.82.6,1.03,0,1.82-.58,2.75-1.53.28-.42.56-.85.7-1.26.64-1.36,1.22-2.73,1.83-4.19.42-.99.84-1.99,1.29-3.01.23-.62.42-1.27.61-1.96.15-.52.3-1.05.48-1.59.31-1.08-.01-2.06-.95-2.85-1.73-1.33-3.53-2.71-5.3-3.8-7.4-4.75-19.67-7.24-27.96-7.24-.14,0-.33-.05-.54-.11-.28-.08-.6-.16-.91-.16h0c-3.1-.27-6.3-.55-9.5.43-5.45,1.92-9.76,4.34-13.62,6.68-.23.15-.47.3-.71.46-.64.41-1.29.83-1.86,1.3-7.58,4.86-12.55,11.31-14.77,19.14-.29.8-.6,1.61-.92,2.41-.84,2.17-1.71,4.41-2.21,6.71-1.12,5.46-1.49,10.92-1.09,16.22.42,5.35,1.72,10.14,3.94,14.58.09.28.2.55.31.83.21.54.41,1.05.51,1.61,1.22,3.65,5.58,11.9,9.21,14,.95.67,1.88,1.35,2.82,2.04,2.25,1.64,4.58,3.34,7.08,4.88,2.17,1.36,4.63,2.33,7.28,2.89.3.07.62.11.93.15.29.03.57.06.82.12,2.58.67,5.24.87,7.81,1.07,1.12.09,2.24.17,3.31.29,1.49.27,2.97.4,4.35.41.49.07,1.01.1,1.53.1s1.07-.04,1.57-.11c1.38-.29,2.78-.55,4.18-.82,2.55-.49,5.19-1,7.75-1.62,2.98-.75,6.42-1.8,9.35-4,.6-.48,1.35-.88,2.2-1.16,1.36-.49,2.37-1.29,3.43-2.13l.49-.39c.58-.58,1.02-1.31,1.31-2.19.61-1.97-.08-3.78-.85-5.31-1.01-1.77-2.09-3.54-3.38-5.55-.65-1.14-1.83-2.36-3.17-2.36-.62,0-1.35.29-2.2.85-.55.28-1.13.7-1.62,1.2-.96,1.34-2.32,2.29-3.63,3.21-.49.34-.98.68-1.46,1.06-1,.88-2.15,1.41-3.64,1.68-2.48.65-4.92,1.17-7.83,1.75-.82.14-1.59.26-2.5.26-.68,0-1.37-.1-2.16-.21l-1.1-.22c-2.2-.5-4.69-1.06-7.04-1.06-7.42,0-13.2-4.5-18.07-8.74-.36-.24-.74-.62-.96-.96l-.28-.5c-1.53-2.67-2.98-5.19-3.6-8.19l-.05-.29c-.66-3.56-1.28-6.93-1.02-10.31v-.04c-.14-4.39.33-8.09,1.47-11.65.83-2.49,1.82-4.81,2.86-7.26Z"/>
    <path class="cls-2" d="M367.52,2.83c-.46-.16-.79-.16-1.2-.16-4.46,0-9.06,0-13.54-.14-1.75,0-2.94,1.32-3.69,2.33-1.76,2.52-3.96,4.66-6.73,7.13l-.97.98c-1.19,1.46-2.43,2.96-3.78,4.32-1.26,1.38-2.48,2.83-3.67,4.24-1.51,1.79-3.06,3.63-4.72,5.37-2.11,2.2-4.1,4.54-6.02,6.8-1.17,1.38-2.38,2.8-3.6,4.17-2.62,2.88-5.18,5.57-8.25,8.79-.93.93-2.02,1.75-3.06,2.53-.41.27-.55.25-.55.26,0,0-.08-.1-.08-.51-.04-.72-.11-1.45-.17-2.17-.12-1.41-.24-2.88-.24-4.3.04-3.03.01-6.11-.01-9.09-.06-5.91-.12-12.03.42-17.97l.41-6.35c.14-1.25.14-2.62,0-3.83,0-1.15-.25-1.93-.79-2.43-.55-.52-1.38-.72-2.57-.65-1.1,0-2.18.21-3.32.43-.44.09-.89.17-1.36.25-.65.13-1.32.26-1.96.26s-1.28-.13-1.96-.26c-.35-.07-.7-.11-1.05-.14-.33-.03-.65-.06-1.05-.14-2.56,0-3.76,3.13-3.76,5.23v.15c-.14,2.68-.27,5.21,0,7.77.27,2.01.27,3.9.27,5.93.07,1,.07,2.03.07,3.02s0,2.04.07,3.07l.41,7.18c.14,1.97.24,3.94.34,5.9.1,1.96.2,3.92.34,5.85v.56c.05.84.15,1.71.24,2.58.15,1.36.3,2.77.3,4.17,0,6.99,0,14.21-.14,21.38-.07,1.98-.16,3.99-.26,6.02-.1,2.13-.21,4.29-.28,6.45,0,.24,0,.45-.12.71-.5,1.73-.23,3.46.02,5.13l.11.73c.43,2.42,1.85,3.6,4.32,3.6.26,0,.53-.01.81-.04,1.89-.09,3.79-.32,5.62-.54.81-.1,1.6-.19,2.41-.28.47-.08,1.73-.29,1.92-1.49.4-1.48.82-3.01.96-4.57,0-1.01-.15-2.07-.3-3.1-.09-.66-.19-1.31-.24-1.95l-.07-.67c-.25-2.2-.48-4.29-.6-6.47v-.49c-.01-1.44-.03-2.92.87-4.15.72-.94,1.42-1.93,2.09-2.89,1.47-2.09,2.98-4.26,4.9-6,1.37-1.23,2.61-2.62,3.7-4.11,1.24-1.55,2.76-2.81,4.23-4.03.43-.35.85-.71,1.27-1.07.78-.67,1.62-.58,2.31.22.26.33.5.66.73.99.24.35.49.69.74,1,2.17,3.45,4.37,6.91,6.57,10.36,2.2,3.45,4.4,6.9,6.56,10.35,2.55,4.14,5.48,8.1,8.31,11.92.8,1.09,1.61,2.17,2.41,3.27,1.38,1.8,3.19,2.71,5.71,2.85h4.71v-.13c.37,0,.74.02,1.1.03.99.03,2.01.06,2.99-.03.7,0,1.31,0,1.85-.28.91-.23,1.44-.59,1.62-1.12.18-.53-.02-1.15-.61-1.92-.29-.36-.59-.71-.88-1.06-.93-1.11-1.81-2.16-2.63-3.4-1.74-2.32-3.44-4.9-4.74-6.9-.48-.65-.97-1.31-1.46-1.96-1.82-2.43-3.69-4.93-5.29-7.49-6.34-9.83-11.33-17.87-15.7-25.31-.34-.57-.62-1.31-.77-2.08-.26-.91-.06-1.69.59-2.35,1.86-2,3.79-4.06,5.54-6.08.27-.27.55-.58.82-.89.27-.3.53-.6.84-.91,3.69-4.96,7.89-9.78,12.84-14.73,3.5-3.76,7.12-7.64,10.59-11.94.41-.55.84-1.12,1.13-1.84.38-.92.41-1.72.1-2.4-.32-.69-.98-1.19-1.95-1.48Z"/>
    <path class="cls-2" d="M520.3,79.86l-.35-.05c-.84-.12-1.79-.25-2.77-.49-5.17-.65-8.46-1.64-13.84-3.63-.38-.16-.59-.32-.65-.46-.05-.13,0-.34.17-.67l.22-.5c.47-1.07.96-2.18,1.66-3.12,1.33-2.26,2.82-4.57,4.26-6.79l.06-.09c.83-1.24,1.39-2.75,1.68-4.47.44-2.22-.22-3.99-1.9-5.11-.89-.67-1.79-1.26-2.66-1.83-.71-.47-1.42-.93-2.11-1.44-.29-.18-.59-.38-.88-.57-.8-.53-1.63-1.08-2.49-1.45-.52-.35-1.15-.47-1.56-.47-1.04,0-1.95.72-2.37,1.83-.22.43-.28.86-.35,1.3-.03.18-.05.36-.08.52-1.62,5.75-4.73,10.78-7.22,14.46-.1.11-.19.21-.27.31-.11.14-.2.25-.31.3l-.1.07c-.69.69-.9.66-1.57.21-3.89-2.33-7.33-5.45-9.55-7.67-1.23-1.12-2.48-2.23-3.74-3.33-1.89-1.67-3.85-3.39-5.72-5.18-3.45-3.45-6.35-7.72-9.14-13.45-.92-1.71-1.3-3.55-1.18-5.6.04-.4.07-.79.1-1.17.06-.78.12-1.52.3-2.34.75-4.91,2.94-7.79,7.81-10.3,1.72-1.06,3.56-1.57,5.63-1.57,6.56,0,13.78,4.59,16.56,6.56,1.17.88,2.29.93,3.56.14,1.22-.88,2.4-1.73,3.59-2.57,1.19-.85,2.37-1.69,3.58-2.57.45-.3.75-.6,1.02-1.01,1.41-1.61.85-2.93.14-3.74-.65-.74-1.26-1.48-1.87-2.21-1.15-1.39-2.35-2.82-3.7-4.18-5.2-4.91-11.11-7.26-17.59-7.01-1.18,0-2.4,0-3.58-.26-1.86-.37-3.89-.33-6.39.14-2.4.56-4.48,1.55-6.56,2.59-8.86,3.82-11.73,8.93-16.07,16.66l-.09.16c-2.7,5.14-3.72,10.72-3.02,16.59.13,1.49.41,2.86.68,4.21.14,1.11.08,1.96-.7,2.52-1.32,1.23-2.3,2.68-3.24,4.08-.55.82-1.08,1.59-1.67,2.33-1.83,2.35-3.13,5.18-3.87,8.43-.2,1.22-.44,2.4-.67,3.58-.24,1.19-.47,2.38-.68,3.6-.71,4.23-.23,8.37,1.38,11.99,4.44,10.42,13.6,18.34,24.47,21.2,1.85.56,3.8.87,5.68,1.17.91.15,1.83.29,2.73.46.3.08.61.11.89.11s.55-.04.77-.11c8.27-1.87,15.18-5.6,22.71-9.92.91-.52,1.76-1,2.69-.78.7.2,1.43.33,2.13.46,1.24.22,2.41.43,3.52,1.02.7.28,1.4.42,2.05.55,3.71,1.2,7.34,2.02,11.17,2.88,1.33.3,2.67.6,4,.92.88.25,1.63.42,2.41.42,2.5,0,3.36-1.59,4.02-4.37.27-1.62.41-3.25.54-4.83l-.37-.1.37.03v-4.23c0-1.05-.59-1.83-1.68-2.13ZM474.91,79.6c.01.11-.05.27-.14.36-.07.07-.23.15-.28.16l-.16.04c-2.64,1.26-5.61,1.98-9.25,2.27-.28-.05-.61-.11-.96-.18-.68-.13-1.45-.28-2.18-.37-8.2-.71-14.57-6.9-14.82-14.4-.13-3.32.92-6.34,2.12-9.4.15-.18.28-.43.39-.67.41-.61.61-.74.72-.75.19,0,.44.25.86.78,1.35,1.55,2.67,3.1,3.98,4.66,1.32,1.56,2.65,3.12,4.02,4.7,1.59,1.59,3.4,3.19,5.72,5.04,1.59,1.28,3.31,2.53,4.97,3.74,1.19.87,2.39,1.74,3.52,2.6.21.21.45.42.7.63.23.2.46.39.66.59l.06.05c.06.04.08.08.09.14Z"/>
    <path class="cls-2" d="M657.77,48.97c.02-.43.14-.55.85-.76,1.81-.78,3.16-2.08,4.24-4.09l2.85-5.28c1.3-2.47,1.71-5.2,1.25-8.39-.17-.68-.26-1.26-.26-1.68-.99-24.41-18.5-25.06-35.42-25.68-1.15-.07-2.33-.17-3.51-.27-1.19-.1-2.38-.2-3.53-.27h-.01s-23.73,0-23.73,0c-2.09.12-4.05.36-6.13.6l-.62.08c-2.5,0-5.1,1.38-5.25,3.99-.14,1.37-.14,2.75-.14,4,.09.83.19,1.66.29,2.49.21,1.73.43,3.52.52,5.34.15,3.48.27,6.87.14,10.13-.07,1.99-.23,4.06-.4,6.07-.17,2.09-.35,4.25-.42,6.4,0,1.44.12,2.97.24,4.45.06.78.12,1.56.17,2.32,0,5.73,0,11.65.13,17.47,0,.76.07,1.49.14,2.2.07.69.13,1.4.13,2.13s0,1.42.02,2.14c.03,2.15.05,4.37-.15,6.49-.36,4.18-.23,8.73.41,14.25,0,.65.23,1.21.45,1.76.09.21.17.43.25.66l.09.15c.16.16.65.51,1.03.51h0c1.11.14,2.34.14,3.4.14,1.1.09,2.21.15,3.32.21,2.16.12,4.39.24,6.53.6,1.81.3,3.67.45,5.69.45,1.27,0,2.61-.06,4.03-.18,3.64-.4,7.48-.4,11.2-.4.39,0,.75,0,1.11.12,1.86.57,3.82.42,5.53.29,2.47,0,4.89-.12,7.24-.24,1.16-.06,2.31-.12,3.5-.16,8.41-.97,12.19-2.88,18.59-7.79,4.49-3.22,6.54-8.01,8.26-12.64,1.36-3.85,1.5-8.12.42-13.07-1.46-6.64-5.88-11.79-12.44-14.52ZM606.75,82.42c-1.05,0-1.14-.14-1.25-1.04-1.06-6.23-1.28-11.68-.67-16.7.07-1.02.1-2.04.14-3.06.03-1.01.07-2.02.13-3.06,0-1.15,0-1.17,1.3-1.52.21,0,.41-.04.62-.07.18-.03.37-.06.55-.06,2.07,0,4.17-.18,6.2-.35,3.02-.25,6.14-.52,9.2-.19,2.19.18,4.34.24,6.61.3,1.08.03,2.18.06,3.28.1,1.52.09,3.08.3,4.58.51.77.11,1.53.21,2.23.28.68.23,1.19.27,1.64.11.46-.23.94-.23,1.32-.23,1.13,0,2.14.51,3.23,1.05,1.44.66,2.69,1.51,4.02,2.41l.78.52c1.15.89,1.92,2.06,2.32,3.5.78,1.95,1.19,4.2,1.19,6.51.14,4.69-3.36,8.46-8.31,8.96-2.8.13-5.7.27-8.55.54-1.49.14-3.01.3-4.53.47-1.52.17-3.05.34-4.5.47h-.29c-2.44.14-4.84.24-7.24.34-2.27.1-4.55.19-6.85.32v-.11h-7.14ZM640.64,41.14c-1.22.33-2.47.4-3.67.47-.74.04-1.5.09-2.24.19h0c-2.23.36-4.49.33-6.72.36-1.09,0-2.26,0-3.38.04h-4.47c-.27,0-.53,0-.81,0-1.44-.02-2.92-.04-4.51.45-.19.1-.56.1-.78.1-2.18,0-4.23,0-6.32.42-.67.17-1.36.11-2.03.05-.34-.03-.67-.06-.99-.06-.41,0-.6-.17-.71-.57,0-7.37.79-15.06,1.49-20.94.26-2.18,1-2.69,2.94-3.06,1.55-.26,3.31-.4,4.96-.4,1.67-.05,3.39-.17,5.05-.29,2.18-.16,4.42-.31,6.62-.31.75,0,1.49.02,2.23.06,3.11.27,6.09.54,9.06.81,1.16.14,2.28.24,3.4.34,1.11.1,2.22.2,3.33.33,1.05.23,2.2.51,3.48.94,1.41.47,2.33,1.52,2.73,3.11.12.53.19,1.07.27,1.64.16,1.25.33,2.54,1.08,3.79-.03,6.72-3.31,10.82-10.01,12.53Z"/>
    <path class="cls-2" d="M763.97,82.87c-.57-.28-1.15-.58-1.71-.58h-.02l-.28-.05c-2.22-.39-4.32-.76-6.59-.63-1.46.13-3.09,0-4.63-.13-1.69-.34-2.99-.38-4.25-.12-.67.22-1.52.27-2.35.13-1-.28-1.99-.28-2.95-.28-2.57,0-5.14-.03-7.71-.07-2.57-.03-5.15-.07-7.72-.07-2.8,0-5.33.18-7.5.55-2.76.38-5.59.07-8.32-.22-1.11-.12-2.25-.24-3.38-.32-1.94-.12-2.37-.87-2.65-2.99-.12-.35-.12-.71-.12-1.09.14-8.53.14-17.21.14-25.59v-1.05c.72-8.76.81-17.46.81-24.84-.14-1.82-.3-3.68-.47-5.54-.17-1.87-.34-3.73-.48-5.57-.26-2.75-.54-5.92-.55-8.83-.31-1.68-1.3-2.61-2.79-2.61h0c-3.26-.14-6.43-.13-9.53-.13-1.62.15-2.87,1.33-3.18,3.03l-.09.62c-.26,1.77-.54,3.6-.04,5.47.13.64.13,1.45.13,2.23,0,1.74,0,3.54.14,5.17.04.81.11,1.63.17,2.44.12,1.59.24,3.24.24,4.85,0,1.41,0,2.82.01,4.23.02,5.53.04,11.25-.28,16.87-.29,4.08-.24,8.21-.18,12.19.02,1.47.04,2.93.04,4.38h-.14v15.54c0,1.34,0,2.73.14,3.96.14,1.63.31,3.23.48,4.83.17,1.58.34,3.17.47,4.77.14,3.01.96,3.88,3.62,3.88.69,0,1.29,0,2.01-.29.34-.11.86-.25,1.39-.25,1.52-.09,3.05-.17,4.59-.25,2.95-.15,6-.3,9-.57.62-.12,1.26-.12,1.88,0,2.5.5,5.03.42,7.47.34.92-.03,1.84-.06,2.76-.06.64,0,1.25-.17,1.76-.52.68-.68,1.47-.57,2.34-.45,1.63.47,3.37.45,5.05.43.34,0,.67,0,.95-.01.84.14,1.7.02,2.25.12,1.81.56,3.79.56,5.53.56h7.85c.99,0,1.99-.02,3-.03,2-.03,4.07-.06,6.02.03,2.2.27,4.26.27,6.31,0,1.72-.16,2.62-.88,2.89-2.27.28-.71.43-1.55.43-2.44v-5.96c0-1.31-.71-2.3-1.97-2.77Z"/>
    <path class="cls-2" d="M858.12,34.24c-1.38-5.65-5.89-16.12-10.11-20.34-6.45-6.77-16.71-10.26-22.27-11.75-.34-.07-.67-.14-1.01-.21-1.69-.36-3.43-.72-5.15-.61h-10.02c-.35,0-.7.03-1.05.07-.33.03-.65.07-1.01.07-1.82.17-3.54.62-5.2,1.06-.97.25-1.96.51-3,.72-.21.07-.4.13-.59.19-.57.17-1.11.34-1.61.64-12.47,5.81-18.26,10.81-24.81,21.41-3.46,5.99-3.69,9.89-4.08,16.35l-.04,15.53c.16,4.59,1.03,8.21,2.76,11.41.83,1.44,1.53,2.95,2.22,4.41.97,2.09,1.98,4.25,3.39,6.23l.06.16c2,4.43,8.06,10.62,12.22,12.5,3.68,1.84,7.34,3.31,10.9,4.36,5.71,1.61,10.3,2.36,14.58,2.36.6,0,1.18-.01,1.77-.04,2.24,0,6.51-.21,10.05-1.66,1.21-.61,2.42-1.18,3.63-1.75,1.23-.58,2.45-1.16,3.68-1.77,11.85-5.93,20.52-15.88,25.78-29.62.98-3.64,1.4-7.42,1.77-10.75.14-1.26,0-2.52-.13-3.72-.27-5.09-1.18-10.22-2.72-15.23ZM840.22,67.34c-2.4,5.07-5.8,8.78-10.4,11.34-1.41.74-2.91,1.35-4.37,1.95-1.47.6-3,1.23-4.47,2-.21.14-.61.11-.94.09-.13,0-.24-.02-.34-.02-2.3,0-4.48,0-6.63.14-1.58,0-3.2-.41-4.77-.8-1.08-.31-2.14-.63-3.21-.94-2.14-.63-4.28-1.27-6.53-1.9-1.23-.41-2.97-1.15-4.36-2.38-2.67-2.09-5.62-4.77-7.2-8.79-2.5-5.91-3.76-12.38-3.76-19.18.07-.81.13-1.64.19-2.46.17-2.31.35-4.7.75-6.99,1.32-8.42,6.38-13.21,12.87-18.59,2.49-2.09,10.73-3.97,13.61-3.98.47-.05.93-.11,1.39-.17.85-.12,1.64-.23,2.53-.23.51-.03,1.02-.04,1.53-.04,4.4,0,8.47,1.08,11.6,2.06,5.73,1.87,10.13,5.66,13.44,11.56.19.48.45.96.68,1.38.1.19.2.37.3.56,2.93,5.06,2.93,8.95,2.93,14.84v.02c.37,6.32-1.26,13.23-4.84,20.53Z"/>
    <path class="cls-2" d="M963.72,34.24c-1.38-5.65-5.9-16.13-10.11-20.34-6.45-6.77-16.71-10.26-22.27-11.75-.34-.07-.67-.14-1.01-.21-1.69-.36-3.44-.72-5.16-.61h-10.02c-.35,0-.7.03-1.05.07-.33.03-.65.07-1.01.07-1.82.17-3.54.62-5.2,1.06-.97.25-1.96.51-3,.72-.21.07-.4.13-.59.19-.57.17-1.11.34-1.61.64-12.47,5.81-18.26,10.81-24.81,21.41-3.46,5.99-3.69,9.89-4.08,16.36l-.04,15.52c.16,4.59,1.03,8.21,2.76,11.41.83,1.44,1.53,2.95,2.22,4.41.97,2.09,1.98,4.25,3.39,6.23l.06.16c2,4.43,8.06,10.62,12.22,12.5,3.68,1.84,7.34,3.3,10.9,4.36,5.71,1.61,10.3,2.36,14.58,2.36.59,0,1.18-.01,1.77-.04,2.24,0,6.51-.21,10.05-1.66,1.21-.61,2.42-1.18,3.64-1.75,1.23-.58,2.45-1.16,3.68-1.77,11.85-5.93,20.52-15.88,25.78-29.62.98-3.64,1.4-7.42,1.77-10.75.14-1.25,0-2.51-.13-3.72-.27-5.08-1.18-10.22-2.72-15.23ZM945.82,67.34c-2.4,5.07-5.8,8.78-10.4,11.34-1.41.74-2.91,1.35-4.37,1.95-1.47.6-3,1.23-4.47,2-.21.14-.61.11-.94.09-.13,0-.24-.02-.34-.02-2.3,0-4.48,0-6.63.14-1.58,0-3.2-.41-4.77-.8-1.07-.31-2.13-.62-3.18-.94-2.15-.64-4.3-1.27-6.55-1.9-1.23-.41-2.97-1.15-4.35-2.38-2.67-2.09-5.62-4.77-7.2-8.79-2.5-5.91-3.76-12.38-3.76-19.18.07-.81.13-1.63.19-2.46.17-2.31.35-4.7.75-6.99,1.32-8.42,6.38-13.21,12.87-18.59,2.49-2.09,10.73-3.97,13.61-3.98.47-.05.93-.11,1.39-.17.85-.12,1.64-.23,2.53-.23.51-.03,1.02-.04,1.53-.04,4.4,0,8.47,1.08,11.6,2.06,5.73,1.87,10.13,5.66,13.44,11.56.19.48.45.95.67,1.37.1.19.2.38.3.57,2.93,5.06,2.93,8.95,2.93,14.84v.02c.37,6.33-1.26,13.23-4.84,20.53Z"/>
    <path class="cls-2" d="M1083.14,26.35c.13-3.45.37-6.74.63-10.23l.07-.99h-.16v-4.63c0-1.34,0-2.86-.14-4.26-.3-1.83-1.42-3-3.14-3.28-1.42-.28-2.92-.55-4.34-.41-1.51.27-3.01.3-4.6.33-.79.02-1.58.03-2.39.07-4.22.15-5.23,2.34-6.3,5.66-.97,2.63-2.18,5.01-3.63,7.12-.48.82-.95,1.6-1.43,2.38-.47.77-.94,1.55-1.39,2.33-.54.75-1.05,1.49-1.56,2.24-.51.74-1.01,1.49-1.56,2.24-2,2.67-4.07,5.43-5.72,8.45-.58,1.3-1.48,2.42-2.12,3.18-2.41,3.21-4.14,5.99-5.46,8.74-1.42,3.26-3.32,6.27-5.5,8.71-.38.45-.51.45-.53.44-.02,0-.17-.04-.5-.68-.22-.33-.39-.71-.57-1.09-.25-.54-.48-1.05-.83-1.41-.86-.86-1.38-1.83-1.92-2.86-.27-.51-.55-1.03-.87-1.53-.11-.18-.21-.37-.32-.56-.32-.56-.64-1.13-1.06-1.65-1.9-2.41-3.66-4.94-5.52-7.94-.42-.74-.98-1.38-1.53-2-.18-.21-.36-.42-.53-.61-.68-.88-1.36-1.73-2.04-2.58-.68-.84-1.35-1.69-2.01-2.55-1.33-2-2.7-4.18-4.01-6.28l-.06-.1c-.8-1.07-1.48-2.29-2.12-3.44-.61-1.42-1.18-2.84-1.76-4.26-.58-1.42-1.15-2.85-1.77-4.28l-.09-.2c-1.47-3.21-3.48-7.6-7.83-7.6-1.15,0-2.46-.26-3.7-.53-1.09-.27-2.2-.42-3.2-.42-3.83,0-8.23.72-8.23,6.35.13,2.72.01,5.5-.1,8.19-.12,3.04-.25,6.18-.04,9.28.11,1.84.17,3.7.24,5.51.1,2.72.2,5.54.44,8.33.26,1.71.4,3.56.4,5.36,0,1.22,0,2.28-.14,3.38,0,.31-.03.62-.06.95-.04.38-.07.78-.07,1.2-.13,3.34-.27,6.78-.14,10.18.1,3.94-.34,7.72-.81,11.72-.14,1.17-.28,2.35-.4,3.53-.04.44-.1.89-.16,1.33-.12.9-.25,1.84-.25,2.77v10.56c0,.48.03.97.07,1.45.03.46.07.93.08,1.49.27,1.08.69,2.29,1.8,3.08,1.97,1.16,4.06,1.74,6.24,1.74.43,0,.87-.02,1.31-.07,1.14-.16,2.25-.47,3.32-.77.73-.21,1.49-.42,2.26-.59,2.46-.58,3.13-1.13,3.13-3.89v-.81c0-6.79,0-13.81-.13-20.58,0-2.23.02-4.46.03-6.69.05-6.58.1-13.39-.31-20.02-.13-1.13-.17-2.26-.2-3.35-.03-1.11-.07-2.25-.21-3.42-.31-2.92-.39-5.24-.27-7.54,0-.11.03-.26.06-.4.03-.16.06-.33.07-.47.04-.07.1-.1.15-.11l.03.03c.51.51.89,1.15,1.28,1.8.32.64.61,1.31.92,2,.47,1.06.95,2.16,1.55,3.19,1.34,1.92,2.39,3.94,3.51,6.08.44.84.88,1.7,1.34,2.53.95,1.9,2.19,4.11,4.16,6.08.63.53,1.1,1.25,1.55,1.94l1.91,2.87c3.51,4.59,6.53,9.53,9.48,14.35,1.35,1.75,2.58,3.67,3.76,5.5l.4.75c1.2,2.25,1.33,2.33,3.63,2.3.3,0,.64,0,1.04,0h.23c1.22.13,2.23-.45,2.96-1.71,1.48-3.25,3.25-6.41,4.98-8.88.54-.79,1.11-1.58,1.68-2.38.98-1.37,1.99-2.79,2.93-4.26.66-1.02,1.34-2.03,2.03-3.06,1.13-1.69,2.29-3.43,3.39-5.21.35-.55.66-1.15.96-1.72.3-.56.6-1.14.92-1.65,2.41-3.44,5.5-8.02,8.01-12.9,1.14-2.08,3.85-6.61,5.01-7.3l.11-.07v1.77c-.04,2.44-.03,4.93-.01,7.34.03,4.86.06,9.88-.39,14.84-.26,3.42-.02,6.89.22,10.24.13,1.85.27,3.76.32,5.63,0,2.22.13,4.45.25,6.61.06,1.02.11,2.02.16,3.02.07,1.82.07,3.63.07,5.38s0,3.54.07,5.3c0,.91.12,1.77.24,2.61.06.44.12.89.17,1.38.2,1.22.84,2.07,1.68,2.3,1.23.68,2.72,1.3,4.49.71,1.75-.54,3.62-1.07,5.47-1.34,1.76-.16,3.04-1.5,3.18-3.31.09-.92.06-1.87.03-2.88-.01-.49-.03-.99-.03-1.49,0-.38-.07-.71-.14-1.03-.06-.29-.13-.57-.13-.84.2-2.86.18-5.84.15-8.73,0-.98-.02-1.96-.02-2.94,0-1.99.13-4.07.27-6.23,0-8.67-.13-17.13-.41-25.88-.27-5.23-.14-10.39,0-15.85v-.09Z"/>
  </g>
  <g>
    <path class="cls-2" d="M390.71,226.62c.65-1.13.67-2.38.06-3.44-.62-1.07-1.77-1.71-3.07-1.71s-2.68.35-3.82,1c-1.74.95-3.51,2.08-5.25,3.18l-1.38.93c-.47.23-.93.43-1.4.62-.48.2-.97.4-1.47.66-7.09,4.18-17.12,8.65-24.02,8.65-4.07,0-6.96-2.15-8.83-6.58-1.53-3.47-1.81-7.16-.93-11.95l.63-2.7c1.21-5.6,2.62-11.55,5.35-17.16,2.04-4.24,4.28-8.56,6.48-12.81,10.4-19.71,28.76-34.18,40.75-37.79,1.07-.31,2.15-.46,3.22-.46s2.29.25,3.65.76l1.41.63c2.83,1.42,4.75,3.17,5.84,5.36,1.94,4.23,2.15,7.96.63,11.41-1.16,2.82-2.59,5.27-4.39,7.52-.81,1.13-1.8,1.92-2.7,2.56l-1.41.63c-.33.13-.44.09-.45.09h0s-.07-.1,0-.49l.32-3.36c0-1.75-.9-3.29-2.39-4.11-1.83-1.17-3.69-1.49-5.7-.99-3.94,1.26-6.37,3.96-7.22,8.05-.5,3.19.53,5.83,3.02,7.65,1.76,1.12,3.68,1.64,6.06,1.64,13.26,0,24.9-19.66,24.9-31.58-.17-2.05-.69-3.81-1.63-5.53l-.63-1.11-.02-.04c-4.86-6.67-12.57-8.07-18.18-8.07-2.6,0-5.58.58-9.15,1.76-30.87,11.33-53.95,40.32-58.79,73.87-.68,3.96-1.31,8.7-.8,13.86.61,7.48,5.09,16.01,13.71,18.21,1.48.49,3.24.5,4.69.49.53.02,1.05.03,1.58.03,3.43,0,6.9-.43,10.54-1.3,9.59-2.09,22.79-8.06,28.35-14.98.97-.97,1.8-2.13,2.43-3.4Z"/>
    <path class="cls-2" d="M570.44,195.2c-9.36,0-16.36,7.89-21.06,16.83-.67-.17-1.38-.08-2.06.3-1.3.72-2.75,1.7-4.15,2.64-1.64,1.1-3.19,2.15-4.21,2.57l-3.43,1.56c-.62.18-1.39.2-1.92-1.18-.56-1.69-1.47-3.33-2.34-4.92l-1.32-2.41c-1.08-2.16-.93-4.67.38-6.41,1.13-1.49,2.92-2.13,4.92-1.76l2.91.48c.1,0,.17.02.28.06.13.04.29.1.51.1h1.42c1.71,0,3.52-.89,3.7-2.86.17-1.38-.64-2.78-2.2-3.82-1.33-1.03-2.89-1.63-4.82-1.82h-3.66c-3.7.16-6.92,1.42-9.58,3.74-2.84,2.68-3.92,5.99-3.28,10.15.22,1.31.59,2.6,1.16,4.03-.59.08-1.19.37-1.95.82-1.31.92-2.6,1.92-3.84,2.9l-.77.6c-3.28,2.66-13.26,10.74-16.6,13.28-2.17,1.63-4.01,2.79-5.89,3.74-.32.09-.63.2-.94.3-.72.24-1.4.48-2.12.48-.93,0-1.4-.34-1.53-1.07-.18-2.74.11-4.89.92-6.78.36-.72.61-.88,1.67-.58,1.15.17,2.16.02,3.37-.5l4.3-1.91c15.2-8.31,18.39-19.05,18.39-26.64-.51-4.27-4.78-6.82-8.6-6.82-2.25,0-4.39.64-6.55,1.97l-3.35,2.39c-6.6,5.64-11.21,11.22-14.58,18.02-.37.15-.76.36-1.21.63-1.32.92-2.61,1.93-3.85,2.9l-.76.59c-3.28,2.66-13.26,10.74-16.6,13.28-2.17,1.63-4.01,2.79-5.89,3.74-.32.09-.63.2-.94.3-.72.24-1.39.48-2.12.48-.93,0-1.4-.34-1.53-1.07-.18-2.74.11-4.89.92-6.78.36-.72.61-.88,1.67-.58,1.15.17,2.16.02,3.37-.5l4.3-1.91c15.2-8.31,18.39-19.05,18.39-26.64-.51-4.27-4.77-6.82-8.6-6.82-2.25,0-4.39.64-6.55,1.97l-3.35,2.39c-6.72,5.74-11.38,11.42-14.76,18.39l-2.66,2.52c-.41.41-1.98,2.25-3.65,4.21-1.59,1.86-3.24,3.79-3.64,4.2l-2.84,3.31-3.74,4.06-2.61,1.86c-.3.12-.56.13-.72.02-.15-.1-.19-.31-.19-.46v-1.81c.3-1.23.61-2.5,1.08-3.59.67-1.68,1.52-3.3,2.33-4.88.33-.64.66-1.27.97-1.9,1.51-2.94,2.48-5.24,3.41-7.46.93-2.21,1.89-4.5,3.4-7.43,1.11-2.39,1.82-4.43,2.24-6.4.48-1.91-.19-4.3-2.73-5.02-.4-.2-.92-.2-1.28-.2h-2.3c-1.46.33-2.93.98-4.38,1.63-5.11,3.03-10.06,6.72-14.29,10.63l-1.66,1.37c.04-.17.09-.35.13-.51l.07-.27c3.84-6.97,8.24-13.08,11.67-17.65,3.14-4.62,6.43-8.98,9.79-12.95.44-.56.91-1.11,1.38-1.67.87-1.04,1.76-2.11,2.58-3.23,1.23-1.54,2.09-3.3,2.61-5.4.17-1.12-.04-2.11-.62-2.84-.57-.72-1.46-1.15-2.6-1.23-.89,0-1.65.26-2.46.53l-.41.15c-1.81.99-3.25,2.12-4.55,3.58l-4.12,5.39c-1.36,1.9-2.62,3.76-3.85,5.57-.93,1.37-1.85,2.73-2.8,4.08-4.34,6.07-9.32,13.16-13.62,20.43l-5.55,8.89c-.07.13-.11.24-.15.34-.05.13-.06.16-.1.2l-.07.1c-1.01,2.12-2.6,5.01-4.28,8.07-3.37,6.13-7.19,13.07-7.94,16.72-.15,1.02-.35,2.43.18,3.84.56,1.3,1.33,1.95,2.56,2.13.54,0,1.05-.17,1.56-.34l.74-.3c.75-.19,1.42-.56,1.88-1.01.65-.49,1.33-.99,1.82-1.83l.43-.62c1.02-1.45,2.07-2.95,2.9-4.46.88-1.4,1.16-2.02,1.4-2.57.28-.62.5-1.12,1.6-2.64,6.15-9.05,13.39-16.68,20.89-22.02l4.06-1.87c.47-.05.8,0,.96.16.16.16.21.5.16.96l-.46,1.7-1.58,3.78c-.54,1.15-1.11,2.27-1.68,3.38-.77,1.51-1.49,2.93-2.12,4.37-1.81,3.74-3.54,7.61-5.22,11.35-.53,1.18-1.06,2.36-1.6,3.55l-1.44,3.69c-.29,1.18-.35,2.47-.17,3.92.17,2.22,1.71,3.97,3.65,4.14.52.06,1.01.1,1.48.1,1,0,1.88-.14,2.65-.43,1.88-.68,3.77-1.66,5.28-2.72,3.05-1.77,5.48-4.36,7.85-6.88.58-.65,2.67-3.44,5.16-6.77-.09.41-.19.81-.28,1.23-.27,1.6-.1,3.16.06,4.67.03.33.07.65.1,1,.79,4.28,4.72,7.27,9.55,7.27,2.45,0,5.12-.76,7.94-2.26,2.94-1.66,10.7-8.07,17.55-13.73,1.27-1.05,2.48-2.04,3.61-2.97-.53,1.91-1.02,3.91-1.46,6.03-.27,1.6-.1,3.16.06,4.67.03.33.07.65.1,1,.79,4.28,4.72,7.27,9.55,7.27,2.45,0,5.12-.76,7.94-2.26,2.93-1.66,10.7-8.07,17.54-13.72,4.29-3.54,8-6.6,9.75-7.86l.28-.28c.29-.16.47-.42.62-.69l.55,1.49c.97,2.22.27,4.78-1.77,6.5l-2.07,1.44c-3.51,2.71-4.83,3.87-6.73,8-.61.92-.99,2.03-1.17,3.49-.16,1.61.41,2.98,1.82,4.39,1.3,1.63,4.18,2.36,6.46,2.36,1.63,0,3.08-.39,4.31-1.16,5.52-3.38,6.36-5.67,7.62-9.13.55-1.52,1.18-3.24,2.32-5.41,1.21-2.27,3.05-4.12,5.31-5.34.41-.03.77-.25.97-.58l3.88-2.63c-1.11,3.14-1.94,6.13-2.48,8.65-.32,2.21-.64,4.5-.16,6.77,1.15,6.33,6.97,7.27,10.34,7.27,8.61,0,18.68-6.13,23.4-14.23,1.05-1.4,1.66-2.9,1.81-4.44.18-1.28-.08-2.29-.74-2.84-.41-.34-1.15-.66-2.38-.27-.3.01-.49.13-.69.24-.06.04-.13.08-.2.11l-2.07.95c-.37.19-.56.38-.66.49-1.07.64-2.15,1.44-3.2,2.2-.52.38-1.05.77-1.59,1.15-1.94,1.49-3.94,2.89-6.31,4.42-1.53,1.02-2.9,1.54-4.44,1.68-1.72.29-2.94-.54-3.37-2.24-.29-1.43-.19-2.92.31-4.57.41-1.38,1.34-2.12,2.81-2.26h1.52c1.95.32,3.63.16,5.15-.52l3.41-1.86c.4-.03.62-.25.73-.37,6.34-4.05,11-10.74,11.88-17.05v-.12c.17-1.39.31-2.7-.18-4.02-1.5-3.66-3.9-5.3-7.78-5.3ZM570.7,206.6l-.59,1.79c-.95,1.9-2.42,3.5-3.7,4.78-2.41,1.93-5.04,3.45-7.8,4.53l-1.4.47c-.22.04-.43-.04-.57-.21-.16-.19-.2-.46-.12-.66l.47-.78c2.08-3.13,6.27-8.64,10.84-10.44l2.23-.48s.07-.01.1-.01c.08,0,.14.02.21.07.16.12.32.43.33.94ZM505.86,199.46l.86.37c.71,1.34.79,2.44.25,3.65-2.04,4.07-9.38,14.03-13.75,14.03-.29,0-.53-.08-.65-.23-.14-.17-.13-.41-.09-.59l.29-1.99,1.25-2.98c2-4.01,4.53-7.32,7.47-9.83l2.96-2.02,1.4-.42ZM468.52,199.46l.86.37c.71,1.34.79,2.44.25,3.65-2.04,4.07-9.38,14.03-13.75,14.03-.29,0-.53-.08-.65-.23-.14-.17-.13-.41-.09-.59l.29-1.99,1.25-2.98c2-4.01,4.53-7.32,7.47-9.83l2.96-2.02,1.4-.42Z"/>
    <path class="cls-2" d="M687.12,223.18c-.62-1.07-1.77-1.71-3.07-1.71s-2.68.35-3.82,1c-1.75.96-3.53,2.08-5.25,3.18l-1.38.93c-.47.23-.93.43-1.4.62-.48.2-.97.4-1.47.66-7.09,4.18-17.13,8.65-24.02,8.65-4.07,0-6.96-2.15-8.83-6.58-1.53-3.47-1.81-7.16-.93-11.95l.63-2.7c1.21-5.61,2.63-11.55,5.35-17.16,2.05-4.27,4.31-8.61,6.48-12.81,10.39-19.71,28.76-34.18,40.75-37.79,1.07-.31,2.15-.46,3.22-.46s2.29.25,3.65.76l1.41.63c2.83,1.42,4.75,3.17,5.84,5.36,1.94,4.23,2.15,7.96.63,11.41-1.16,2.82-2.59,5.27-4.39,7.52-.81,1.13-1.81,1.92-2.7,2.56l-1.41.63c-.33.13-.44.09-.45.09h0s-.07-.1,0-.49l.32-3.36c0-1.75-.9-3.29-2.39-4.11-1.83-1.17-3.69-1.49-5.69-.99-3.94,1.26-6.37,3.96-7.22,8.05-.5,3.19.53,5.83,3.02,7.65,1.76,1.12,3.68,1.64,6.06,1.64,13.26,0,24.9-19.66,24.9-31.58-.17-2.05-.69-3.81-1.63-5.53l-.63-1.11-.02-.04c-4.86-6.67-12.57-8.07-18.18-8.07-2.59,0-5.58.58-9.15,1.76-30.87,11.33-53.95,40.32-58.79,73.87-.68,3.96-1.31,8.7-.8,13.86.85,10.38,7.51,16.63,13.71,18.21,1.48.49,3.25.5,4.69.49.53.02,1.05.03,1.58.03,3.43,0,6.9-.43,10.54-1.3,9.59-2.09,22.79-8.06,28.35-14.98.97-.97,1.8-2.13,2.43-3.4.65-1.13.67-2.38.06-3.44Z"/>
    <path class="cls-2" d="M739.15,211.6c-.1-.31-.27-.51-.51-.61-.24-.1-.51-.07-.81.08l-.21.1v.16c-.27.14-.51.27-.65.41l-2.54,2.07c-.68.6-2.88,2.55-5.14,4.55-2.47,2.19-5.03,4.44-5.78,5.11l-1.7,1.54-1.83.79-.08-.15.53-1.06c3.08-4.62,6.54-12.75,6.87-18.72,0-6.24-3.74-12.88-10.66-12.88-2.23,0-4.69.92-6.5,2.41-.39.19-.76.57-.92.9l-.44.59c-.09.09-.19.23-.28.37-.06.1-.13.19-.19.26l-.07.1c-.37.73-.23,1.67.32,2.39.11.23.17.37.17.4,0,.01-.06.07-.31.2-2.55,1.13-4.78,2.82-7.24,5.47-6.57,7.05-15.17,21.81-13.71,32.58.46,3.95,2.8,5.87,7.18,5.87,1.46,0,3.04-.26,4.89-.82,3.86-1.54,9.08-5.72,12.31-8.94.62-.62,1.14-.81,1.82-.71,1.14.43,2.5.43,4.17.02,3.95-.85,12.61-8.03,18.93-13.28.92-.77,1.8-1.49,2.6-2.15,1.73-1.56,2.06-3.16,1.02-5.06l-1.23-1.98ZM706.94,225.7c.16.96.32,1.74.61,2.64l-.27,1.07c-1.61,1.74-3.74,3.92-6.01,5.55l-2.8,1.56c-.33.12-.79.22-1.14,0-.38-.23-.52-.74-.57-1.05l.16-2.18c1.62-10.51,7.59-21.53,15.22-28.1l.45-.38c.94-.79,1.83-1.53,2.29-2.64l.71-.35c1.73.33,2.95,1.48,3.37,3.16.26,1.32.21,2.73-.16,4.59-.58,2.45-1.45,4.76-2.78,7.45-.09.12-.29.38-.27.42,0,0-.07-.04-.27-.3-.79-.79-1.67-1.22-2.48-1.22-.92,0-1.64.38-2.46.88-.99.83-1.65,1.81-2.32,2.83-.7,1.57-1.15,3.19-1.3,4.74v1.33Z"/>
    <path class="cls-2" d="M756.55,234.52c-1.2-2.92-3.76-4.66-6.83-4.66-1.86,0-3.54.69-4.87,2.03-1.12,1.28-1.94,2.87-2.45,4.73-.54,1.82-.08,3.62.33,4.84.98,2.38,3.17,3.83,5.48,3.83.59,0,1.18-.09,1.77-.29,1.73-.47,3.02-1.38,4.42-2.61,2.34-2,3.17-5.01,2.16-7.86Z"/>
  </g>
  <g>
    <g>
      <path class="cls-1" d="M253.19,180.55c-.87,0-1.68-.45-2.13-1.2-.29-.47-.67-1-1.11-1.62l-.4-.56c-1.6-2.24-3.35-4.32-5.2-6.53-3.18-3.79-6.47-7.7-8.85-12.38-.18-.35-.27-.73-.27-1.11-.33-.26-.68-.75-.85-1.13-2.42-5.73-1.5-10.76-.62-15.63.08-.45.29-.87.59-1.21,1.34-1.51,3.16-2.31,5.28-2.31,3.03,0,6.5,1.71,9.05,4.46,1.82,1.96,6.87,9.14,8.29,11.27,1.74,2.61,3.5,6.34,4.84,10.23.21.62.17,1.31-.12,1.9-2.6,5.36-4.55,9.87-6.15,14.2-.33.9-1.15,1.53-2.1,1.62-.08,0-.16.01-.24.01Z"/>
      <path d="M239.62,139.37c2.45,0,5.26,1.55,7.21,3.66,1.63,1.76,6.5,8.63,8.04,10.95,1.76,2.64,3.39,6.27,4.56,9.65-2.27,4.69-4.42,9.46-6.25,14.42-.43-.71-1-1.47-1.61-2.32-4.48-6.28-10.29-11.58-13.85-18.59.02-.43-.1-.91-.44-1.42-.19-.28-.39-.5-.61-.67-2.12-5.03-1.32-9.47-.46-14.21.91-1.03,2.11-1.46,3.41-1.46M249.18,167.41l-8.53-17.42,1.24-.68c-.16-.88-1.91-1.53-2.77-1.53-.25,0-.43.06-.47.18,1.63,6.93,5.23,14.34,10.53,19.45M253.19,165.78c.06,0,.12-.02.17-.06-2.03-4.22-4.66-9.87-7.44-13.65-.32-.43-2.55-2.23-3.32-2.23-.16,0-.25.08-.26.25,3.43,4.66,6.34,9.79,9.61,14.54.21.31.81,1.15,1.23,1.15M239.62,134.37c-2.81,0-5.35,1.12-7.15,3.15-.61.68-1.01,1.52-1.18,2.42-.91,4.99-1.93,10.64.77,17.05.2.46.46.89.78,1.28.09.39.23.77.41,1.13,2.51,4.94,5.89,8.96,9.16,12.86,1.82,2.17,3.54,4.22,5.08,6.37l.41.57c.39.55.77,1.06,1,1.45.91,1.5,2.54,2.4,4.27,2.4.16,0,.32,0,.48-.02,1.91-.18,3.54-1.45,4.21-3.25,1.57-4.26,3.5-8.7,6.05-13.97.58-1.19.66-2.56.23-3.81-1.4-4.08-3.27-8.02-5.12-10.8-1.31-1.96-6.52-9.41-8.54-11.58-3.01-3.24-7.18-5.26-10.88-5.26h0Z"/>
    </g>
    <g>
      <g>
        <path class="cls-1" d="M237.29,173.19c-.22,0-.44-.03-.65-.09-2.39-.64-4.41-2.23-6.19-3.63-.56-.44-1.1-.87-1.64-1.25-1.83-1.39-3.83-2.66-5.75-3.82-.23.75-.78,1.36-1.52,1.66-.3.12-.62.19-.95.19-.02,0-.04,0-.05,0-.59-.01-1.2-.2-2.04-.63-.9-.5-1.75-1.02-2.62-1.54-1.72-1.05-3.51-2.13-5.1-2.75-.15-.06-.3-.13-.44-.22-1.07-.68-1.56-1.88-1.26-3.04.03-.12.78-2.83,5.96-3.2,0,0,.24-.02.3-.02,2.1,0,4.19.66,6.03,1.24.58.18,1.14.36,1.69.51.03,0,.06.02.1.03,1.47.47,2.74.94,4.12,1.72,3.92,2.15,7.71,6.01,10.77,9.12l.3.31c.68.68,1.83,1.84,1.46,3.42-.2.84-.88,1.58-1.7,1.86-.26.09-.53.13-.8.13Z"/>
        <path d="M215.35,157.35c2.26,0,4.81,1.06,7.02,1.67,1.35.43,2.45.84,3.67,1.52,3.73,2.05,7.44,5.88,10.51,9,.26.26,1.04,1.05.75,1.15-2.57-.69-4.86-2.96-7.04-4.5-2.69-2.03-5.66-3.8-8.68-5.54-1.19-.63-2.49-1.44-3.71-1.74-.15-.02-.28-.04-.4-.04-1.18,0-.5,1.26.53,2.15.37.45,3.2,2.48,2.58,2.74-.23,0-.67-.21-.95-.36-2.54-1.42-5.33-3.37-7.96-4.4-1.1-.7,2.76-1.59,3.53-1.64h.13s.02,0,.02,0M215.35,152.35h-.04c-.12,0-.24,0-.35.01h-.13c-.86.07-2.18.37-3.1.65-1.17.35-4.29,1.28-5.09,4.44-.57,2.23.35,4.49,2.34,5.76.28.18.57.33.88.45,1.39.54,3.08,1.57,4.71,2.56.86.52,1.75,1.06,2.63,1.55.05.03.09.05.14.08,1.19.61,2.15.89,3.14.91.03,0,.07,0,.1,0,.65,0,1.3-.13,1.9-.38.43-.18.82-.4,1.17-.67,1.23.78,2.45,1.6,3.58,2.46.04.03.08.06.12.09.47.33.99.74,1.54,1.18,1.87,1.47,4.2,3.3,7.08,4.08.43.12.87.17,1.3.17.54,0,1.08-.09,1.6-.26,1.68-.57,2.92-1.93,3.33-3.65.69-2.92-1.29-4.91-2.13-5.76l-.29-.3c-3.16-3.22-7.1-7.22-11.35-9.56-1.54-.86-2.94-1.38-4.55-1.9-.06-.02-.13-.04-.19-.06-.48-.13-1.03-.31-1.6-.49-2.02-.64-4.3-1.36-6.75-1.36h0Z"/>
      </g>
      <g>
        <path class="cls-1" d="M222.49,177.07c-.37,0-.75-.08-1.1-.26-2.47-1.22-5.93-2.94-8.37-4.24-.04-.02-.24-.14-.25-.15-2.05-1.31-5.55-3.85-5.86-6.16-.12-.89.15-1.77.74-2.41.03-.03.06-.07.09-.1.64-.63,1.53-.99,2.44-.99.76,0,1.5.25,2.08.7.58.46,1.9,1.47,3.46,2.68,3.34,2.58,7.49,5.78,8.35,6.49.98.81,1.2,2.22.51,3.29-.47.74-1.28,1.15-2.1,1.15Z"/>
        <path d="M210.18,165.26c.2,0,.39.06.55.18,1.77,1.39,10.52,8.11,11.76,9.13-2.49-1.22-5.89-2.92-8.29-4.2l-.08-.05c-.72-.46-5.53-3.77-4.61-4.78.18-.18.43-.27.68-.27M210.18,160.26c-1.56,0-3.09.62-4.2,1.71-.06.06-.13.13-.19.19-1.08,1.19-1.58,2.81-1.37,4.42.13.94.51,3.81,6.99,7.94.03.02.06.04.08.05l.08.05c.08.05.16.1.24.14,2.46,1.31,5.95,3.05,8.44,4.28.71.35,1.46.51,2.2.51,1.65,0,3.26-.82,4.21-2.29,1.38-2.13.93-4.96-1.03-6.57-.83-.68-4.14-3.24-8.39-6.52-1.57-1.21-2.89-2.23-3.47-2.69-1.03-.8-2.31-1.24-3.62-1.24h0Z"/>
      </g>
      <g>
        <path class="cls-1" d="M257.2,197.72c-.77,0-1.5-.35-1.98-.98l-.22-.29c-9.47-4.7-18.88-9.09-26.86-12.76-1.45-.67-3.38-1.44-5.42-2.26-6.13-2.46-13.08-5.24-16.45-8.63-1.13-1.13-4.94-6.39-5.35-8.53-.2-1.03.09-6.67,1.06-8.2.91-1.43,2.87-2.52,3.96-3.04,2.58-1.24,5.9-1.93,9.35-1.93,2.79,0,5.44.44,7.66,1.28,7.12,2.68,13.31,8.17,18.29,12.58.49.44,11.68,10.54,13.27,12.09,1.41,1.38,2.76,2.94,4.07,4.45,1.05,1.21,2.13,2.45,3.2,3.56.67.69.88,1.71.55,2.62-1.04,2.78-1.95,5.55-2.72,8.23-.26.91-1.01,1.59-1.93,1.77-.16.03-.31.04-.47.04Z"/>
        <path d="M215.29,153.6c2.42,0,4.81.38,6.78,1.12,6.52,2.45,12.35,7.54,17.51,12.11,0,0,11.61,10.47,13.18,12,2.46,2.41,4.76,5.42,7.23,7.96-1.03,2.77-1.97,5.58-2.78,8.42l-.57-.75c-9.06-4.51-18.25-8.81-27.44-13.05-5.6-2.58-17.02-6.24-21.14-10.38-1.09-1.09-4.42-5.91-4.67-7.24-.16-.83.28-5.7.71-6.38.53-.83,2.02-1.69,2.93-2.13,2.34-1.13,5.32-1.68,8.27-1.68M211.65,155.66c-.2,0-.35,0-.44-.02-.04,0-.08,0-.12,0-1.18.12-2.33.43-3.34,1.06-.53.33-1,.74-1.45,1.19,2.44-.68,5.27-1.02,7.71-1.53.3-.07.77-.2.95-.35.16-.31-.72-.37-1.67-.37-.59,0-1.21.02-1.64.02M220.58,163.76c.62-.25-2.21-2.29-2.58-2.74-1.02-.9-1.71-2.15-.53-2.15.11,0,.25.01.4.04,1.22.3,2.52,1.1,3.71,1.74,3.02,1.74,5.99,3.51,8.68,5.54,2.18,1.54,4.47,3.81,7.04,4.5.3-.1-.49-.89-.75-1.15-3.07-3.12-6.77-6.94-10.51-9-1.23-.68-2.32-1.09-3.67-1.52-2.21-.61-4.75-1.67-7.02-1.67h-.16c-.76.06-4.62.95-3.53,1.65,2.63,1.02,5.43,2.98,7.96,4.4.28.14.72.35.95.36M222.49,174.57c-1.24-1.02-9.99-7.74-11.76-9.13-.15-.12-.35-.18-.55-.18-.25,0-.5.09-.68.27-.92,1.02,3.89,4.32,4.61,4.78l.08.05c2.4,1.28,5.81,2.98,8.29,4.2M215.29,148.6c-3.81,0-7.52.77-10.44,2.18-1.62.78-3.8,2.1-4.98,3.95-1.47,2.31-1.65,8.76-1.41,10.02.59,3.09,5.17,8.95,6.04,9.82,3.74,3.76,10.94,6.65,17.3,9.19,2.01.81,3.91,1.57,5.3,2.21,7.82,3.61,17.02,7.89,26.28,12.48.96,1.13,2.36,1.78,3.82,1.78.31,0,.63-.03.94-.09,1.85-.35,3.35-1.72,3.87-3.54.75-2.62,1.65-5.33,2.66-8.05.68-1.81.25-3.84-1.1-5.23-1.03-1.06-2.04-2.22-3.11-3.46-1.34-1.54-2.73-3.14-4.21-4.6-1.6-1.56-12.13-11.06-13.33-12.14-5.16-4.58-11.55-10.24-19.1-13.08-2.5-.94-5.46-1.44-8.54-1.44h0Z"/>
      </g>
    </g>
    <g>
      <path class="cls-1" d="M240.59,261.64c-1.07,0-2.06-.15-2.95-.43-2.4-.84-3.28-3.01-3.92-4.6l-.04-.11c-.44-1.18-.91-2.5-1.15-3.92-.31-2.01.24-3.66.73-5.11.2-.58.38-1.13.52-1.71l.04-.15c.64-2.43,1.36-5.18,2.11-7.65.53-2.16,1.7-3.8,2.73-5.25.35-.49.71-.99,1.04-1.52,2.11-3.73,4.44-7.68,7.68-11.27.84-.99,2.06-2.44,3.84-2.44.56,0,2.45.19,3.16,2.68l.2.7c.63,2.21,1.27,4.49,2.01,6.64.41,1.2.44,2.38.24,3.5.12.05.23.11.35.17.21.12.4.27.56.44,1.39,1.45,2.36,3.86,2.35,5.87,0,.05-.01.28-.01.28-.16,1.66-.89,3-1.53,4.18-.2.37-.4.74-.57,1.11-.91,1.78-1.71,3.66-2.47,5.47-.25.58-.49,1.16-.73,1.71-1.25,2.86-2.86,5.86-6.08,8.46-2.13,1.86-5.16,2.97-8.12,2.97h0Z"/>
      <path d="M251.24,219.98c.31,0,.58.24.75.86.71,2.49,1.41,5.03,2.25,7.46,1.1,3.21-2.11,6.6-3.35,9.75-.72,1.61-1.73,3.38.06,3.38.02,0,.05,0,.08,0,.54-.04.97-.11,1.45-.88.92-1.65,1.69-3.72,2.18-5.3.33-1.07.61-1.98,1.08-1.98.07,0,.15.02.23.07.88.92,1.66,2.7,1.65,4.13v.11c-.16,1.52-1.22,2.97-1.89,4.4-1.2,2.34-2.25,4.97-3.23,7.24-1.27,2.9-2.68,5.37-5.39,7.54-1.81,1.6-4.34,2.39-6.51,2.39-.79,0-1.54-.1-2.18-.31-1.31-.46-1.86-1.91-2.41-3.26-.41-1.08-.81-2.21-1-3.38-.32-2.02.7-3.67,1.22-5.83.66-2.51,1.38-5.25,2.13-7.73.57-2.4,2.21-4.08,3.51-6.15,2.17-3.84,4.39-7.56,7.39-10.88.64-.75,1.39-1.61,1.99-1.61M245.15,240.71c.13,0,.4-.33.76-.99,2.01-3.71,3.62-7.27,4.73-11.21.17-.56.22-1.72-.29-1.72-.13,0-.29.07-.49.25-1.08,1.33-1.05,3.2-1.62,4.72-.81,2.4-1.91,4.86-2.78,7.26l-.05.13c-.37,1.04-.43,1.55-.26,1.55M250.36,233.38c.46-.54.87-1.83.49-2.32-.55.47-.8,1.77-.54,2.32h.04M243.99,251.17c.35,0,.63-.15.71-.55-.08-.53-.48-1.01-.69-1.53-.24-.53-.77-.71-1.2-.97-.38-.29-.17-.67.05-1.25.3-.8.8-1.75.84-2.57,0-.04-.02-.05-.04-.05-.14,0-.62.85-1.08,1.45-.68.99-1.82,1.69-2.13,2.79v.09c.38.87,1.36,1.35,2.07,2.02.33.27.97.58,1.47.58M251.24,214.98c-2.89,0-4.74,2.13-5.75,3.32-3.37,3.75-5.76,7.78-7.92,11.6-.28.44-.6.88-.93,1.36-1.09,1.54-2.45,3.45-3.1,6.03-.77,2.52-1.49,5.29-2.13,7.73l-.02.06s-.02.07-.03.11c-.11.46-.28.96-.46,1.49-.52,1.56-1.24,3.68-.84,6.28.28,1.69.79,3.14,1.26,4.37.01.04.03.07.04.11l.04.1c.68,1.68,1.94,4.81,5.35,6.01.04.01.08.03.12.04,1.14.37,2.39.55,3.72.55,3.53,0,7.15-1.33,9.73-3.56,3.61-2.93,5.38-6.23,6.76-9.36.25-.58.49-1.16.74-1.75.75-1.77,1.52-3.6,2.35-5.21.03-.06.06-.12.08-.17.13-.27.31-.61.51-.97.72-1.32,1.61-2.96,1.81-5.05,0-.05,0-.1.01-.15v-.11c.02-.11.02-.22.02-.33,0-2.64-1.22-5.7-3.05-7.61-.03-.03-.06-.06-.09-.09,0-.99-.14-2.03-.5-3.1-.71-2.07-1.35-4.31-1.96-6.48l-.21-.73c-.94-3.32-3.59-4.49-5.56-4.49h0Z"/>
    </g>
    <g>
      <path class="cls-1" d="M212.88,249.46c-2.28,0-5.38-.32-7.22-1.83-.19-.15-.35-.33-.49-.54-1.09-1.61-.7-3.91-.28-6.34.12-.7.29-1.74.29-2.15-.26-.88-.24-1.86.07-2.89.75-2.22,2.09-4.71,3.54-6.57,8.56-10.86,21.13-16.91,33.29-22.76,5.68-2.73,11.04-5.31,15.94-8.33.12-.07.24-.14.37-.19.59-.24,1.13-.35,1.65-.35.9,0,1.72.35,2.32.99,1.08,1.17.96,2.73.87,3.98-.02.3-.05.6-.05.88,0,.05,0,.09,0,.14-.01.22-.02.43-.03.65-.04,1.09-.08,2.44-.69,3.88l-.06.14c-.84,1.82-2.41,3.4-3.8,4.8-.38.39-.76.76-1.11,1.13-1.5,1.51-2.98,2.94-4.46,4.37-3.32,3.21-6.75,6.52-9.69,10.07l-.92,1.09c-2,2.38-4.08,4.83-6.42,7.05-3.48,3.22-7.53,6.52-12.42,10.12-.03.02-.06.04-.09.06-2.86,1.91-7.35,2.59-10.59,2.59h0Z"/>
      <path d="M260.05,200.02c1.13,0,.64,1.89.64,3.34-.07,1.21,0,2.44-.53,3.7l-.05.12c-.83,1.8-2.91,3.59-4.44,5.22-4.8,4.83-9.93,9.34-14.25,14.55-2.29,2.7-4.55,5.48-7.14,7.92-3.78,3.5-8.02,6.86-12.19,9.92-2.12,1.42-5.9,2.17-9.2,2.17-2.43,0-4.59-.41-5.63-1.26-.93-1.38.79-6.36.36-7.71-.16-.47-.13-.99.03-1.55.6-1.79,1.79-4.04,3.12-5.75,12.05-15.29,32.9-20.85,48.57-30.49.29-.12.53-.17.72-.17M214.52,235.09c.16,0,.4-.13.62-.24,5.72-3.78,11.43-8.86,17.18-12.85,3.03-2.28,6.7-4.22,9.57-6.54.11-.12.19-.26.16-.34-.02-.04-.07-.06-.16-.06-.31,0-1.03.27-1.79.64-2.82,1.35-7.64,3.51-10.68,5.25-4.78,4.11-9.74,7.75-14.04,12.42-.38.43-.88,1.07-1.01,1.47v.06c-.01.14.05.18.15.18M234.91,216.03c.39,0,1.04-.22,1.25-.59l.02-.05c.01-.06-.09-.09-.25-.09-.26,0-.65.08-.95.28-.25.16-.41.41-.27.43.05.02.12.03.2.03M217.29,236.31c.54,0,1.8-.38,2.57-.62l.14-.05c.62-.22,1.18-.47,1.78-.79,4.53-2.37,8.22-6.47,12.04-10.17.55-.52,1.55-1.57,1.1-1.57-.13,0-.39.09-.82.32-5.84,3.32-11.15,8.23-16.68,12.29-.55.44-.49.59-.14.59M215.42,229.72c.6,0,1.14-.62,1.48-1.18.14-.25.44-.52.49-.72,0-.13-.08-.22-.15-.22-.03,0-.05.01-.07.04-.45.52-1.45,1.54-1.85,2.06h.05s.04.01.06.01M216.26,242.28s0,0,0,0c-.06,0-.08.31-.03.31,0,0,0,0,0,0,.11.17.29.22.5.22.17,0,.36-.03.53-.07h.11c1.12-.07,2.67-.25,3.86-1.03.37-.24.88-.63.84-.82-.02-.14-.28-.13-.42-.14-1.71.1-3.67.76-5.39,1.52M260.05,195.02c-.85,0-1.7.18-2.6.54-.26.1-.5.23-.74.37-4.79,2.95-10.1,5.5-15.72,8.2-12.42,5.97-25.25,12.15-34.16,23.45-1.63,2.08-3.13,4.85-3.93,7.25-.02.05-.03.1-.05.16-.39,1.3-.45,2.6-.19,3.82-.05.4-.16,1.05-.24,1.52-.48,2.81-.97,5.71.68,8.16.27.4.6.76.97,1.07,1.94,1.59,4.9,2.4,8.81,2.4,1.75,0,7.8-.22,11.98-3.01.06-.04.12-.08.18-.13,4.97-3.65,9.1-7.02,12.62-10.28l.04-.03c2.45-2.31,4.56-4.82,6.61-7.25l.9-1.07s.03-.03.04-.05c2.85-3.44,6.08-6.56,9.5-9.86,1.46-1.41,2.97-2.87,4.45-4.35.03-.03.07-.07.1-.1.33-.35.69-.71,1.06-1.08,1.54-1.54,3.28-3.29,4.28-5.47.01-.03.03-.06.04-.1l.05-.12c.81-1.91.87-3.58.91-4.81,0-.2.01-.4.02-.59,0-.09,0-.19,0-.28,0-.16.02-.43.04-.7.11-1.46.29-3.9-1.53-5.87-1.07-1.15-2.54-1.79-4.15-1.79h0ZM236.46,211.31h0ZM217.2,242.04h0s0,0,0,0h0Z"/>
    </g>
    <g>
      <path class="cls-1" d="M199.75,217.87c-9.25,0-16.15-2.83-21.08-8.64-.04-.04-.08-.09-.11-.14-1.33-1.82-2.18-3.94-2.65-6.68-.03-.16-.13-.44-.23-.73-.27-.75-.63-1.78-.53-3.03.07-1.01.43-1.91.73-2.57.73-1.62,1.49-2.75,2.42-4.05.02-.03.91-1.18.91-1.18,2.65-3.44,5.65-7.34,9.57-9.16.03-.02.07-.03.1-.04.57-.24,1.15-.39,1.67-.53.4-.11.9-.24,1.14-.36.1-.07.18-.14.25-.19.38-.31,1.02-.83,2.07-.95,2.41-.29,4.88-.43,7.33-.43,13.61,0,25.9,4.47,37.79,8.8,5.69,2.07,11.57,4.21,17.58,5.86,3.91.7,3.65,4.49,3.54,5.93-.02.25-.04.52-.05.78,0,.06,0,.12-.01.18-.02.21-.02.44-.02.67,0,.98-.02,2.47-1.03,3.75-.06.08-.13.15-.2.22-.02.02-.11.11-.13.13-1.12,1.03-2.62,1.07-3.18,1.09-6.89.03-15.61,2.53-24.84,5.18-10.47,3.01-21.29,6.11-31.01,6.11h0ZM225.95,189.14h0Z"/>
      <path d="M201.32,181.67c19.59,0,36.08,9.48,54.82,14.61,2.11.33,1.62,2.18,1.54,4.17-.12,1.02.14,2.3-.52,3.14l-.06.06c-.38.35-1,.41-1.56.43-15.07.05-37.87,11.29-55.79,11.29-7.59,0-14.31-2.02-19.18-7.76-1.23-1.68-1.85-3.6-2.21-5.63-.21-1.06-.83-1.99-.73-3.12.04-.6.27-1.19.52-1.75.62-1.39,1.26-2.34,2.18-3.65,2.81-3.61,5.75-7.78,9.49-9.52,1.01-.42,2.31-.55,3.2-1.09.62-.43.78-.72,1.26-.77,2.4-.28,4.74-.41,7.04-.41M187.38,191.44s.09,0,.15,0l.1-.02c3.05-1.45,5.83-3.5,8.86-5.06.21-.14.69-.4.6-.63-.1-.07-.22-.1-.37-.1-.3,0-.66.12-.92.16-1.72.44-3.37.73-4.84,1.74-.33.25-5.06,3.91-3.58,3.91M225.26,191.68c1.12,0,2.32-.17,1.47-.87-1.89-1.08-8.14-1.91-11-2.34h-.08c-.58-.1-1.75-.15-2.96-.15-1.88,0-3.88.12-4.05.44.04.39,1.19.53,1.63.64,4.36.75,9.31,1.71,13.56,2.18.19.04.8.1,1.44.1M217.4,193.52c2.08,0-.07-.84-1.39-1.03-2.47-.49-5.55-.5-7.91-.55h-.12c-1.24-.02-2.72-.08-4.25-.08-2.75,0-5.67.21-7.66,1.29-.13.14.03.17.25.19,3.55.07,16.51.13,21.07.17M239.4,197.55s.08,0,.12,0c.01,0,.03,0,.04,0,.92,0,1.56-.45.53-1.08-3.4-1.89-8.38-2.1-12.14-2.1-.2,0-.4,0-.59,0h-.11c-1.44.19-.2.76.48.92,3.87,1.05,7.69,2.26,11.68,2.26M201.11,210.67c3.79,0,7.59-.41,10.93-.72l.12-.02c.82-.03,6.16-1.08,3.23-1.34-.07,0-.14,0-.21,0-3.01,0-6.03.54-9.04.54-.57,0-1.15-.02-1.72-.07-5.02-.39-11.78-1.87-16.04-3.19-1.15-.34-2.09-.98-3.18-1.59-.24-.14-.59-.27-.84-.27-.26,0-.41.14-.22.57,4.1,4.89,10.52,6.07,16.96,6.07M201.32,176.67c-2.55,0-5.11.15-7.63.45-1.67.19-2.75,1.01-3.26,1.43-.16.05-.38.11-.54.15-.56.15-1.25.33-1.98.63-.07.03-.13.06-.2.09-4.48,2.08-7.67,6.24-10.5,9.91-.28.36-.56.72-.83,1.08-.05.06-.09.12-.13.18-.97,1.37-1.84,2.65-2.67,4.49-.35.76-.83,1.97-.94,3.41-.14,1.77.36,3.19.67,4.04.05.14.12.34.15.43.54,3.04,1.55,5.54,3.08,7.62.07.09.14.19.22.28,5.37,6.32,13.1,9.52,22.99,9.52s21.07-3.16,31.7-6.21c9.06-2.6,17.61-5.06,24.1-5.08.04,0,.08,0,.12,0,.74-.02,2.99-.08,4.8-1.74.04-.04.09-.08.13-.13l.06-.06c.14-.14.28-.29.4-.45,1.55-1.95,1.56-4.12,1.57-5.28,0-.14,0-.29,0-.42.01-.12.02-.23.03-.35,0-.24.03-.47.04-.7.08-1.13.18-2.53-.3-4.03-.75-2.38-2.63-4.01-5.17-4.51-5.87-1.62-11.68-3.73-17.29-5.77-12.09-4.4-24.59-8.95-38.64-8.95h0Z"/>
    </g>
  </g>
  <g>
    <g>
      <path class="cls-1" d="M844.46,260.21c-3.03,0-6.5-1.71-9.05-4.46-1.82-1.96-6.87-9.14-8.29-11.27-1.74-2.61-3.5-6.34-4.84-10.23-.21-.62-.17-1.31.12-1.9,2.6-5.35,4.55-9.86,6.15-14.2.33-.9,1.15-1.53,2.1-1.62.08,0,.16-.01.24-.01.87,0,1.68.45,2.13,1.2.29.47.67,1.01,1.12,1.62l.39.55c1.6,2.24,3.35,4.33,5.2,6.53,3.18,3.79,6.46,7.7,8.84,12.38.18.35.27.73.27,1.11.33.26.68.75.85,1.13,2.42,5.73,1.5,10.76.62,15.63-.08.45-.29.87-.59,1.21-1.34,1.51-3.16,2.31-5.28,2.31h0Z"/>
      <path d="M830.89,219.02c.43.71,1,1.47,1.61,2.32,4.48,6.28,10.29,11.58,13.85,18.59-.02.43.1.91.44,1.42.19.28.39.5.61.67,2.12,5.03,1.32,9.47.46,14.21-.91,1.03-2.11,1.46-3.41,1.46-2.45,0-5.26-1.55-7.21-3.66-1.63-1.76-6.5-8.63-8.04-10.95-1.76-2.64-3.39-6.27-4.56-9.65,2.27-4.69,4.42-9.46,6.25-14.42M844.96,249.3c.25,0,.43-.06.47-.18-1.63-6.93-5.23-14.34-10.53-19.45l8.53,17.42-1.24.68c.16.88,1.91,1.53,2.77,1.53M841.47,247.23c.16,0,.25-.08.26-.25-3.43-4.66-6.34-9.79-9.61-14.54-.21-.31-.81-1.15-1.23-1.15-.06,0-.12.02-.17.06,2.03,4.22,4.66,9.87,7.44,13.65.32.43,2.55,2.23,3.32,2.23M830.89,214.02c-.16,0-.32,0-.48.02-1.91.18-3.54,1.45-4.21,3.25-1.57,4.26-3.5,8.7-6.05,13.97-.58,1.19-.66,2.56-.23,3.81,1.4,4.08,3.27,8.02,5.12,10.8,1.31,1.96,6.52,9.41,8.54,11.58,3.01,3.24,7.18,5.26,10.88,5.26,2.81,0,5.35-1.12,7.15-3.15.61-.68,1.01-1.52,1.18-2.42.91-4.99,1.93-10.64-.77-17.05-.2-.46-.46-.89-.78-1.28-.09-.39-.23-.77-.41-1.13-2.51-4.94-5.89-8.96-9.16-12.86-1.82-2.17-3.54-4.22-5.08-6.37l-.41-.57c-.39-.55-.77-1.06-1-1.45-.91-1.5-2.54-2.4-4.27-2.4h0Z"/>
    </g>
    <g>
      <g>
        <path class="cls-1" d="M868.73,242.22c-2.06,0-4.15-.66-6-1.25-.58-.18-1.14-.36-1.69-.51-1.57-.5-2.83-.97-4.22-1.75-3.92-2.16-7.72-6.02-10.77-9.12l-.3-.3c-.68-.68-1.83-1.84-1.46-3.42.2-.84.88-1.58,1.7-1.86.26-.09.53-.13.8-.13.22,0,.44.03.65.09,2.39.64,4.41,2.23,6.19,3.63.56.44,1.1.87,1.64,1.25,1.83,1.39,3.83,2.66,5.75,3.82.23-.75.78-1.36,1.52-1.66.3-.12.62-.19.95-.19.02,0,.03,0,.05,0,.6.01,1.21.2,2.05.64.9.5,1.75,1.02,2.62,1.54,1.72,1.05,3.51,2.13,5.1,2.75.15.06.3.13.44.22,1.07.68,1.56,1.88,1.26,3.04-.03.12-.78,2.83-5.96,3.2,0,0-.24.02-.3.02h-.03Z"/>
        <path d="M846.79,226.39c2.57.69,4.86,2.96,7.04,4.5,2.69,2.03,5.66,3.8,8.68,5.54,1.19.63,2.49,1.44,3.71,1.74.15.02.28.04.4.04,1.18,0,.5-1.26-.53-2.15-.37-.45-3.2-2.48-2.58-2.74.23,0,.67.21.95.36,2.54,1.42,5.33,3.37,7.97,4.4,1.1.7-2.76,1.59-3.53,1.64h-.13s-.02,0-.02,0c-2.26,0-4.81-1.06-7.02-1.67-1.35-.43-2.45-.84-3.67-1.52-3.73-2.05-7.44-5.88-10.51-9-.26-.26-1.04-1.05-.75-1.15M846.79,221.39c-.54,0-1.08.09-1.6.26-1.68.57-2.92,1.93-3.33,3.65-.69,2.92,1.28,4.91,2.13,5.76l.29.3c3.16,3.22,7.1,7.22,11.35,9.56,1.54.86,2.94,1.38,4.55,1.9.06.02.13.04.19.06.48.13,1.03.31,1.6.49,2.02.64,4.3,1.36,6.75,1.36.12,0,.27,0,.39-.01h.13c.86-.07,2.18-.37,3.1-.65,1.17-.35,4.29-1.28,5.09-4.44.57-2.23-.35-4.49-2.34-5.76-.28-.18-.57-.33-.88-.45-1.39-.54-3.08-1.56-4.71-2.55-.86-.52-1.75-1.06-2.63-1.55-.05-.03-.09-.05-.14-.07-1.18-.61-2.15-.9-3.14-.92-.03,0-.07,0-.1,0-.65,0-1.3.13-1.9.38-.43.18-.82.4-1.18.67-1.23-.78-2.44-1.6-3.58-2.46-.04-.03-.08-.06-.13-.09-.47-.33-.99-.74-1.54-1.18-1.87-1.47-4.2-3.3-7.08-4.08-.43-.12-.87-.17-1.3-.17h0Z"/>
      </g>
      <g>
        <path class="cls-1" d="M873.9,234.31c-.76,0-1.5-.25-2.08-.7-.58-.46-1.9-1.47-3.46-2.68-3.34-2.58-7.49-5.78-8.35-6.49-.98-.81-1.2-2.22-.51-3.29.47-.74,1.28-1.15,2.1-1.15.37,0,.75.08,1.1.26,2.47,1.22,5.93,2.94,8.37,4.24.04.02.23.14.25.15,2.05,1.31,5.55,3.85,5.86,6.16.12.89-.15,1.77-.74,2.41-.03.03-.06.07-.09.1-.64.63-1.53.99-2.44.99h0Z"/>
        <path d="M861.59,222.51c2.49,1.22,5.89,2.92,8.29,4.2l.08.05c.72.46,5.53,3.77,4.61,4.78-.18.18-.43.27-.68.27-.2,0-.39-.06-.55-.18-1.77-1.39-10.52-8.11-11.76-9.13M861.6,217.51c-1.65,0-3.26.82-4.21,2.29-1.38,2.13-.93,4.96,1.03,6.57.82.68,4.14,3.24,8.38,6.51,1.57,1.21,2.9,2.24,3.48,2.69,1.03.8,2.31,1.24,3.62,1.24,1.57,0,3.1-.63,4.2-1.72.06-.06.12-.13.18-.19,1.08-1.19,1.58-2.81,1.37-4.42-.13-.94-.51-3.81-6.99-7.94-.03-.02-.06-.04-.09-.06l-.08-.05c-.08-.05-.16-.09-.24-.14-2.46-1.31-5.95-3.05-8.44-4.28-.71-.35-1.46-.51-2.2-.51h0Z"/>
      </g>
      <g>
        <path class="cls-1" d="M868.79,245.97c-2.79,0-5.44-.44-7.66-1.28-7.12-2.68-13.31-8.17-18.29-12.58-.49-.44-11.68-10.54-13.27-12.09-1.41-1.38-2.76-2.94-4.07-4.44-1.05-1.21-2.13-2.46-3.21-3.56-.67-.69-.88-1.71-.55-2.62,1.04-2.78,1.95-5.55,2.72-8.23.26-.91,1.01-1.59,1.93-1.77.16-.03.31-.04.47-.04.77,0,1.5.35,1.98.98l.22.29c9.48,4.71,18.88,9.09,26.86,12.76,1.45.67,3.38,1.44,5.42,2.26,6.13,2.46,13.08,5.24,16.45,8.63,1.13,1.13,4.94,6.38,5.35,8.53.2,1.03-.09,6.67-1.06,8.2-.91,1.43-2.87,2.52-3.95,3.04-2.58,1.24-5.91,1.93-9.35,1.93h0Z"/>
        <path d="M826.87,201.85l.57.75c9.06,4.51,18.25,8.81,27.44,13.05,5.6,2.58,17.02,6.24,21.14,10.38,1.09,1.09,4.42,5.91,4.67,7.24.16.83-.28,5.7-.71,6.38-.53.83-2.02,1.69-2.93,2.13-2.34,1.13-5.32,1.68-8.27,1.68-2.42,0-4.81-.38-6.78-1.12-6.52-2.45-12.35-7.54-17.51-12.11,0,0-11.61-10.47-13.18-12-2.46-2.41-4.76-5.42-7.23-7.96,1.04-2.77,1.97-5.58,2.78-8.42M873.9,231.81c.25,0,.5-.09.68-.27.92-1.02-3.89-4.32-4.61-4.78l-.08-.05c-2.4-1.28-5.81-2.98-8.29-4.2,1.24,1.02,9.99,7.74,11.76,9.13.15.12.35.18.55.18M868.73,239.72h.16c.76-.06,4.62-.95,3.53-1.65-2.63-1.02-5.43-2.98-7.97-4.4-.28-.14-.72-.35-.95-.36-.62.25,2.21,2.29,2.58,2.74,1.02.9,1.71,2.15.53,2.15-.11,0-.25-.01-.4-.04-1.22-.3-2.52-1.1-3.71-1.74-3.02-1.74-5.99-3.51-8.68-5.54-2.18-1.54-4.47-3.81-7.04-4.5-.3.1.49.89.75,1.15,3.07,3.12,6.77,6.94,10.51,9,1.23.68,2.32,1.09,3.67,1.52,2.21.61,4.75,1.67,7.02,1.67M870.8,241.43c.59,0,1.21-.02,1.64-.02.2,0,.35,0,.44.02.04,0,.08,0,.12,0,1.18-.12,2.33-.43,3.34-1.06.53-.33,1-.74,1.45-1.19-2.44.68-5.27,1.02-7.71,1.53-.3.07-.77.2-.95.35-.16.31.72.37,1.67.37M826.88,196.85c-.31,0-.62.03-.94.09-1.85.35-3.35,1.72-3.87,3.54-.75,2.63-1.65,5.33-2.66,8.05-.68,1.81-.25,3.85,1.09,5.23,1.03,1.06,2.04,2.22,3.11,3.46,1.34,1.54,2.72,3.14,4.21,4.6,1.6,1.56,12.13,11.06,13.33,12.14,5.16,4.58,11.55,10.24,19.1,13.08,2.5.94,5.46,1.44,8.54,1.44,3.81,0,7.52-.77,10.43-2.18,1.62-.78,3.8-2.1,4.98-3.95,1.47-2.31,1.65-8.76,1.41-10.02-.59-3.09-5.17-8.95-6.04-9.82-3.74-3.76-10.94-6.65-17.3-9.19-2.01-.81-3.91-1.57-5.3-2.21-7.82-3.61-17.01-7.89-26.28-12.48-.96-1.14-2.36-1.78-3.82-1.78h0Z"/>
      </g>
    </g>
    <g>
      <path class="cls-1" d="M832.84,179.6c-.56,0-2.45-.19-3.16-2.68l-.2-.69c-.63-2.21-1.28-4.5-2.01-6.64-.41-1.2-.44-2.38-.24-3.5-.12-.05-.23-.11-.35-.17-.21-.12-.4-.27-.56-.44-1.39-1.45-2.36-3.86-2.35-5.87,0-.05.01-.28.01-.28.16-1.66.89-3,1.53-4.18.2-.37.4-.74.57-1.11.91-1.78,1.71-3.65,2.47-5.47.25-.58.49-1.16.73-1.71,1.25-2.86,2.86-5.86,6.08-8.46,2.13-1.86,5.16-2.97,8.12-2.97,1.07,0,2.06.15,2.95.43,2.4.84,3.28,3.01,3.92,4.6l.04.11c.44,1.18.91,2.49,1.15,3.92.31,2.01-.24,3.66-.73,5.11-.2.58-.38,1.13-.52,1.71-.66,2.53-1.39,5.31-2.15,7.81-.53,2.16-1.7,3.8-2.73,5.25-.35.49-.71.99-1.04,1.52-2.11,3.73-4.44,7.68-7.68,11.27-.84.99-2.06,2.44-3.84,2.44Z"/>
      <path d="M843.49,137.93c.79,0,1.54.1,2.18.31,1.31.46,1.86,1.91,2.41,3.26.41,1.08.81,2.21,1,3.38.32,2.02-.7,3.67-1.22,5.83-.66,2.51-1.38,5.25-2.13,7.73-.57,2.4-2.21,4.08-3.51,6.15-2.17,3.84-4.39,7.56-7.39,10.88-.64.75-1.39,1.61-1.99,1.61-.31,0-.58-.24-.75-.86-.71-2.49-1.41-5.03-2.25-7.46-1.1-3.21,2.11-6.6,3.35-9.75.72-1.61,1.73-3.38-.06-3.38-.02,0-.05,0-.08,0-.54.04-.97.11-1.45.88-.92,1.65-1.69,3.72-2.18,5.3-.33,1.07-.61,1.98-1.08,1.98-.07,0-.15-.02-.23-.07-.88-.92-1.66-2.7-1.65-4.13v-.11c.16-1.52,1.22-2.97,1.89-4.4,1.2-2.34,2.25-4.97,3.23-7.24,1.27-2.9,2.68-5.37,5.39-7.54,1.81-1.6,4.34-2.39,6.51-2.39M840.42,152.83c.14,0,.62-.85,1.08-1.45.68-.99,1.82-1.69,2.13-2.79v-.09c-.38-.87-1.36-1.35-2.07-2.02-.33-.27-.97-.58-1.47-.58-.35,0-.63.15-.71.55.08.53.48,1.01.69,1.53.24.53.77.71,1.2.97.38.29.17.67-.05,1.25-.3.8-.8,1.75-.84,2.57,0,.04.02.05.04.05M833.73,170.29c.13,0,.29-.07.49-.25,1.08-1.33,1.05-3.2,1.62-4.72.81-2.4,1.91-4.86,2.78-7.26l.05-.13c.37-1.04.43-1.55.26-1.55-.13,0-.4.33-.76.99-2.01,3.71-3.62,7.27-4.73,11.21-.17.56-.22,1.72.29,1.72M833.23,166.01c.55-.47.8-1.77.54-2.32h-.05c-.46.54-.87,1.83-.49,2.32M843.49,132.93c-3.53,0-7.15,1.33-9.73,3.56-3.61,2.93-5.38,6.23-6.76,9.36-.25.58-.5,1.16-.75,1.75-.75,1.77-1.52,3.6-2.35,5.21-.03.06-.06.12-.08.17-.13.27-.31.61-.51.97-.72,1.32-1.61,2.96-1.81,5.05,0,.04,0,.08-.01.13v.11c-.02.12-.02.23-.02.35,0,2.64,1.22,5.7,3.05,7.61.03.03.06.06.09.09-.01.99.14,2.03.5,3.1.71,2.08,1.35,4.32,1.96,6.49l.2.71c.94,3.32,3.59,4.49,5.56,4.49,2.89,0,4.74-2.13,5.75-3.32,3.37-3.74,5.76-7.78,7.92-11.6.28-.44.6-.88.93-1.36,1.09-1.54,2.45-3.45,3.1-6.03.77-2.52,1.49-5.28,2.13-7.73l.02-.06s.02-.07.03-.11c.11-.46.28-.96.46-1.49.52-1.55,1.24-3.68.84-6.28-.27-1.68-.79-3.14-1.26-4.37-.01-.04-.03-.07-.04-.11l-.04-.1c-.68-1.68-1.94-4.81-5.35-6.01-.04-.01-.08-.03-.12-.04-1.14-.37-2.39-.55-3.72-.55h0Z"/>
    </g>
    <g>
      <path class="cls-1" d="M824.03,199.56c-.9,0-1.72-.35-2.31-.99-1.08-1.17-.96-2.73-.87-3.98.02-.3.05-.6.05-.88,0-.05,0-.09,0-.14.01-.22.02-.43.03-.65.04-1.09.08-2.44.69-3.88l.06-.14c.84-1.82,2.41-3.4,3.8-4.8.38-.39.76-.76,1.11-1.13,1.5-1.51,2.98-2.94,4.46-4.36,3.32-3.21,6.76-6.52,9.69-10.07l.93-1.1c2-2.37,4.07-4.83,6.42-7.04,3.48-3.22,7.53-6.52,12.42-10.12.03-.02.06-.04.09-.06,2.86-1.91,7.35-2.59,10.59-2.59,2.28,0,5.38.32,7.22,1.83.19.15.35.33.49.54,1.09,1.61.7,3.91.28,6.34-.12.7-.29,1.74-.29,2.15.26.88.24,1.86-.07,2.89-.75,2.22-2.09,4.71-3.54,6.57-8.56,10.86-21.13,16.91-33.29,22.76-5.68,2.73-11.04,5.31-15.94,8.33-.12.07-.24.14-.37.19-.59.24-1.13.35-1.65.35h0Z"/>
      <path d="M871.2,150.12c2.43,0,4.59.41,5.63,1.26.93,1.38-.79,6.36-.36,7.71.16.47.13.99-.03,1.55-.6,1.79-1.79,4.04-3.12,5.75-12.05,15.29-32.9,20.85-48.57,30.49-.29.12-.53.17-.72.17-1.13,0-.64-1.89-.64-3.34.07-1.21,0-2.44.53-3.7l.05-.12c.83-1.8,2.91-3.59,4.44-5.22,4.8-4.83,9.93-9.34,14.25-14.55,2.29-2.7,4.55-5.48,7.14-7.92,3.78-3.5,8.02-6.86,12.19-9.92,2.12-1.42,5.9-2.17,9.2-2.17M862.43,156.32c1.71-.1,3.67-.76,5.39-1.52,0,0,0,0,0,0,.06,0,.08-.31.02-.31,0,0,0,0,0,0-.11-.17-.29-.22-.5-.22-.17,0-.36.03-.53.07h-.11c-1.12.07-2.67.25-3.86,1.03-.38.24-.88.63-.84.82.02.14.28.13.42.14M849.15,173.96c.13,0,.39-.09.82-.32,5.84-3.32,11.15-8.23,16.68-12.29.55-.44.49-.59.14-.59-.54,0-1.8.38-2.57.62l-.14.05c-.62.22-1.18.47-1.78.79-4.53,2.37-8.22,6.47-12.04,10.17-.55.52-1.55,1.57-1.1,1.57M842.19,182.01c.31,0,1.03-.27,1.79-.64,2.82-1.35,7.64-3.51,10.68-5.25,4.78-4.11,9.74-7.75,14.04-12.42.38-.43.88-1.07,1-1.47v-.06c.01-.14-.05-.18-.15-.18-.16,0-.4.13-.62.24-5.72,3.78-11.43,8.86-17.18,12.85-3.03,2.28-6.7,4.22-9.57,6.54-.11.12-.19.26-.16.34.02.04.07.06.16.06M866.84,169.47s.05-.01.07-.04c.45-.52,1.45-1.54,1.85-2.06h-.05s-.04-.01-.06-.01c-.6,0-1.14.62-1.48,1.18-.14.25-.44.52-.49.72,0,.13.08.22.15.22M848.14,181.79c.26,0,.65-.08.95-.28.25-.16.41-.41.27-.43-.05-.02-.12-.03-.2-.03-.39,0-1.04.22-1.25.59l-.02.05c-.01.06.09.09.25.09M871.2,145.12c-1.75,0-7.8.22-11.98,3.01-.06.04-.12.08-.18.13-4.97,3.65-9.09,7.01-12.62,10.28-2.48,2.35-4.6,4.85-6.65,7.28l-.91,1.07s-.03.03-.04.05c-2.85,3.44-6.08,6.56-9.5,9.86-1.46,1.41-2.97,2.87-4.45,4.36-.03.03-.07.07-.1.1-.33.35-.69.71-1.06,1.08-1.54,1.54-3.28,3.29-4.28,5.47-.02.04-.03.07-.05.11l-.05.12c-.8,1.89-.86,3.57-.9,4.79,0,.2-.01.4-.02.59,0,.09,0,.19,0,.28,0,.16-.02.43-.04.7-.11,1.46-.29,3.9,1.53,5.87,1.07,1.15,2.54,1.79,4.15,1.79.85,0,1.7-.18,2.6-.54.26-.1.5-.23.74-.37,4.79-2.95,10.1-5.5,15.72-8.2,12.42-5.97,25.25-12.15,34.16-23.45,1.63-2.08,3.13-4.85,3.93-7.25.02-.05.03-.1.05-.16.39-1.3.45-2.6.19-3.82.05-.39.16-1.05.24-1.52.48-2.81.97-5.71-.68-8.16-.27-.4-.6-.76-.97-1.07-1.94-1.59-4.9-2.4-8.81-2.4h0Z"/>
    </g>
    <g>
      <path class="cls-1" d="M882.76,217.9c-13.61,0-25.9-4.47-37.79-8.8-5.69-2.07-11.57-4.21-17.58-5.86-3.91-.7-3.65-4.49-3.54-5.93.02-.25.04-.52.05-.78,0-.06,0-.12.01-.18.02-.21.02-.44.02-.67,0-.98.02-2.47,1.03-3.74.06-.08.13-.15.2-.22.02-.02.11-.11.13-.13,1-.91,2.22-1.06,3.18-1.09,6.9-.03,15.61-2.53,24.84-5.18,10.47-3.01,21.29-6.11,31.01-6.11s16.15,2.83,21.08,8.64c.04.04.08.09.11.14,1.33,1.82,2.18,3.94,2.65,6.68.03.16.13.44.23.73.27.75.63,1.78.53,3.02-.07,1.01-.43,1.91-.73,2.58-.72,1.62-1.49,2.75-2.42,4.05-.02.03-.91,1.18-.91,1.18-2.65,3.44-5.65,7.34-9.57,9.16-.03.02-.07.03-.1.04-.57.24-1.15.39-1.67.53-.4.11-.9.24-1.14.36-.1.07-.17.14-.24.19-.38.31-1.02.83-2.07.95-2.41.29-4.88.43-7.32.43h0ZM858.13,207.93h0Z"/>
      <path d="M884.33,181.71c7.59,0,14.31,2.02,19.18,7.76,1.23,1.68,1.85,3.6,2.21,5.63.21,1.06.83,1.99.73,3.12-.04.6-.27,1.19-.52,1.75-.62,1.39-1.26,2.34-2.18,3.65-2.81,3.61-5.75,7.78-9.49,9.52-1.01.42-2.31.55-3.2,1.09-.62.43-.78.72-1.26.77-2.4.28-4.74.41-7.04.41-19.58,0-36.08-9.48-54.82-14.61-2.11-.33-1.62-2.18-1.54-4.17.12-1.02-.14-2.3.52-3.14l.06-.06c.38-.35,1-.41,1.56-.43,15.07-.05,37.87-11.29,55.79-11.29M868.89,188.48c3.01,0,6.03-.54,9.04-.54.57,0,1.15.02,1.72.07,5.02.39,11.78,1.87,16.04,3.19,1.15.34,2.09.98,3.18,1.59.24.14.59.27.84.27.26,0,.41-.14.22-.57-4.1-4.89-10.52-6.07-16.96-6.07-3.79,0-7.59.41-10.93.72l-.12.02c-.82.03-6.16,1.08-3.23,1.34.07,0,.14,0,.21,0M844.56,199.53s-.03,0-.04,0c-.91,0-1.56.45-.53,1.08,3.4,1.89,8.38,2.1,12.14,2.1.2,0,.4,0,.59,0h.11c1.44-.19.2-.76-.48-.92-3.87-1.05-7.69-2.26-11.68-2.26-.04,0-.08,0-.12,0M880.35,205.21c2.75,0,5.67-.21,7.66-1.29.13-.14-.03-.17-.25-.19-3.55-.07-16.51-.13-21.07-.17-2.08,0,.07.84,1.39,1.03,2.47.49,5.55.5,7.91.55h.12c1.24.02,2.72.08,4.25.08M871.39,208.75c1.88,0,3.88-.12,4.05-.44-.04-.39-1.19-.53-1.63-.64-4.36-.75-9.31-1.71-13.56-2.18-.19-.04-.8-.1-1.44-.1-1.12,0-2.32.17-1.47.87,1.89,1.08,8.14,1.91,11,2.34h.08c.58.1,1.75.15,2.96.15M887.36,211.45c.3,0,.66-.12.92-.16,1.72-.44,3.37-.73,4.84-1.74.33-.25,5.06-3.91,3.58-3.91-.04,0-.09,0-.15,0l-.1.02c-3.05,1.45-5.83,3.5-8.86,5.06-.21.14-.69.4-.6.63.1.07.22.1.37.1M884.33,176.71c-10.08,0-21.07,3.16-31.7,6.21-9.06,2.6-17.61,5.06-24.1,5.08-.04,0-.08,0-.12,0-.74.02-2.99.08-4.8,1.74-.05.04-.1.09-.14.14l-.06.06c-.14.14-.27.28-.39.44-1.55,1.95-1.56,4.12-1.57,5.28,0,.14,0,.29,0,.42-.01.12-.02.23-.03.35,0,.24-.03.47-.04.7-.08,1.13-.18,2.53.3,4.03.76,2.38,2.63,4.01,5.17,4.51,5.87,1.62,11.68,3.73,17.29,5.77,12.09,4.4,24.59,8.95,38.64,8.95,2.55,0,5.11-.15,7.63-.45,1.67-.19,2.75-1.01,3.26-1.43.16-.05.38-.11.54-.15.56-.15,1.25-.33,1.98-.63.07-.03.13-.06.2-.09,4.48-2.08,7.67-6.24,10.5-9.91.28-.36.56-.72.83-1.08.05-.06.09-.12.13-.18.97-1.37,1.84-2.65,2.67-4.49.35-.76.83-1.97.94-3.41.14-1.77-.36-3.19-.67-4.04-.05-.14-.12-.34-.15-.43-.54-3.04-1.55-5.54-3.08-7.62-.07-.09-.14-.19-.22-.28-5.37-6.32-13.1-9.52-22.99-9.52h0Z"/>
    </g>
  </g>
</svg>