<?xml version="1.0" encoding="UTF-8"?>
<svg id="b" data-name="Layer 2" xmlns="http://www.w3.org/2000/svg" width="733.929" height="555.847" viewBox="0 0 733.929 555.847">
  <g id="c" data-name="Layer 1">
    <g>
      <path d="M107.08,200.185c-.013,9.414-3.753,6.251-8.994,8.503-1.062.456-2.184,2.476-3.671,3.325-5.637,3.219-11.577,6.79-17.326,9.135l-.018-1.978-.976.006c.662,3.238-2.93,1.365-3.85,2.135-.794.664.364,4.823-3.154,2.851-1.026,3.544,3.306,1.347,3.999,1.995,1.86,1.736-1.832,12.286-1.86,14.476-.027,2.092,1.501,4.321,1.643,6.312.336,4.731-.257,15.953-5.776,17.195.304-2.279-2.513-4.204-2.825-5.723-.359-1.75,1.038-3.722.852-5.719-.372-3.992-2.128-7.849-2.129-12.045-.002-6.51,3.244-12.226,3.889-17.212.237-1.828-1.189-3.268-.347-5.235,1.213-2.835,18.27-16.917,21.642-18.423,7.016-3.134,11.873-.189,18.901.403Z"/>
      <path d="M223.012,18.28c-.438.572-12.588,1.809-14.228,2.265-6.909,1.921-18.785,6.499-25.506,9.449-1.232.541-1.135,2.079-1.932,2.263-5.615,1.298-9.796-3.217-13.65-1.831-1.49.535-1.569,2.589-2.712,3.324-2.851,1.831-10.758,5.741-14.352,7.562-2.066,1.047-14.775,6.718-15.569,5.964-2.034-10.935-1.166-6.895,5.275-9.216,10.611-3.824,23.064-12.408,32.649-15.326,4.489-1.366,5.997-.462,10.744-2.425,6.789-2.807,22.662-6.676,29.964-6.63,1.429.009,11.607,1.612,9.319,4.602Z"/>
      <path d="M721.67,139.353c.586.361,2.197,10.718,2.171,12.302-.068,4.255-.737,11.239-1.026,15.966-.113,1.853-1.663,13.418-5.534,9.645-3.422-3.335-2.325-8.585-4.968-12.047-2.911,4.068-5.587,8.395-8.497,12.428-1.21,1.676-4.406,4.242-5.054,5.268-.798,1.264.469,3.229-1.442,4.251-4.088-3.804-.35-8.5-1.493-12.967,4.704.823,2.365-1.939,3.225-5.263.737-2.848,4.411-8.672,4.54-9.344.253-1.318-1.12-3.172-.844-4.693.111-.611,8.56-8.275,10.062-6.699l.993,3.002c1.023-2.625-1.094-6.592-.982-8.388.034-.542,1.336-.565,1.605-1.004.518-.844.28-2.19.508-2.413.401-.395,6.083-.445,6.736-.044Z"/>
      <path d="M100.062,63.258c.209.191.547,3.9.341,4.803-1.433,6.288-7.562,7.561-11.832,11.229-2.292,1.969-5.227,4.433-7.193,6.197-2.321,2.083-4.325,10.068-6.313,11.279-1.656,1.008-7.413.271-6.998-2.511-1.432-.43-.803,1.083-1.597,1.836-4.508,4.281-9.895,8.436-14.877,12.145-1.298.966-3.552,2.34-4.994,3.023-3.829,1.814-1.631-2.881-.51-4.53,2.624-3.86,8.992-5.741,11.452-8.54,2.355-2.678,4.979-8.02,6.854-10.636.847-1.182,4.597-2.465,5.381-3.602,1.798-2.607.976-6.831,6.314-9.189,2.767-1.222,7.502-1.427,10.701-3.797.808-.599,1.016-2.607,2.281-3.276,1.487-.787,5.827.78,7.993-.441l-1.99-1.483c.725-1.287,3.895-3.498,4.985-2.506Z"/>
      <path d="M661.778,224.225c.075,2.619,1.551,5.365-.168,7.726-4.78.746-8.797,3.562-13.222,5.252-11.372,4.343-21.934,8.155-33.788,11.191-8.149,2.087-17.97,7.368-25.725,1.24l9.67-3.301c6.626-2.41,19.184-9.954,24.971-10.94,1.922-.327,4.637,2.217,8.568,1.565.874-.145,12.856-5.317,14.089-6.008,1.301-.73,1.597-2.287,2.435-2.796,4.317-2.622,7.653-5.027,13.169-3.93Z"/>
      <path d="M371.952,515.994c3.117,2.995-10.502,9.202-12.272,10.928-1.228,1.198-1.278,2.682-2.253,3.993-.696.936-2.527,1.295-3.017,2.073-.46.732.666,6.206-.436,7.985,2.293-1.903,4.092-.134,5.561-.105.574.011.3-1.503.561-1.699,1.26-.946,13.744,8.359,16.861,7.812-.923,5.714-8.829,5.247-13.245,4.727-8.31-.978-14.987-4.355-22.001-6.976-3.712-1.387-8.339-.206-9.714-4.262.192-2.651,13.465-2.516,15.962-1.482,2.27-3.751-.755-10.622,4.003-11.021l-1.506-1.99c7.375-3.051,12.814-9.936,21.498-9.982Z"/>
      <path d="M726.569,196.423c3.917,3.931,2.721,47.638-2.335,48.687-5.821,1.208-5.621-14.728-5.899-18.466-.122-1.65,1.134-3.464,1.037-4.999-.224-3.545-3.602-9.558-4.328-13.203-.425-2.134-1.611-11.346.531-12.28,1.58-.689,9.692-1.046,10.994.261Z"/>
      <path d="M19.9,176.402c-.379,3.616,3.303,11.805,3.156,14.316-.091,1.556-2.057,2.402-1.529,3.475,1.023,2.079,8.959,6.168,10.583,8.428,2.969,4.131,5.604,8.747,8.959,12.806,2.833,3.427,4.888,3.687,7.933,5.282,4.374,2.292,1.891,3.147,1.455,5.136-.213.975.677,2.186.61,2.283-.245.35-7.895.908-8.492.841-.214-.024-3.082-2.22-3.475-2.551-.857-.722-6.802-6.524-7.047-6.955-1.419-2.5-.507-7.383-2.184-9.072-.79-.795-2.694-.583-3.502-1.484-.783-.873-1.534-4.222-3.271-6.226-4.614-5.325-8.191-5.905-9-15.006-.391-4.395,1.343-8.151,1.018-12.479l4.787,1.205Z"/>
      <path d="M566.879,237.154c1.312,9.912-7.066,5.39-12.034,6.383-5.599,1.118-7.215,9.123-14.958,6.622,3.065,3.16.531,2.665.005,5.981,4.729.297,9.032.544,11.658-4.016,5.514,1.891,11.196-2.978,15.908,1.943,4.549,4.751-1.013,3.811-1.4,4.261-.49.571.074,2.259-.297,2.638-2.055,2.101-16.023.386-19.233.52-2.673.112-10.204,3.641-12.195.714-.658-.968-1.206-8.221-.514-9.397.803-1.363,3.309-.122,4.654-1.633.65-.731-.937-4.546,1.439-6.497.378-.311,8.059-3.88,8.891-4.096,2.299-.596,4.499-.039,6.379-.445.844-.183.674-2.019,2.586-2.549,2.97-.824,6.1-.336,9.111-.43Z"/>
      <path d="M731.531,323.391c2.733,2.683,2.262,7.592,1.186,10.934-2.013,6.249-.988,9.346-1.973,16.204-.568,3.953-2.993,7.575-2.826,13.124.05,1.656,2.541,2.904.79,5.339-8.122,1.682-19.591-2.981-4.898-3.923-.435-1.314-1.481-2.241-1.786-3.7-1.92-9.184-3.074-23.22-.104-32.453.768-2.388,3.574-3.68,5.185-4.794.869-.601,1.059-4.038,4.428-.731Z"/>
      <path d="M186.035,429.041c-5.863-.698-6.537-1.964-5.993-7.997,4.219-.756,4.377,1.256,6.386,3.648.368.438,2.977.367,1.57,2.322-.341.473-1.392-1.216-1.963,2.027.988.118,3.771-.242,3.993.002.289.317-.505,7.123,2.601,7.833,1.334.305,5.59-1.817,7.948-1.873,2.818-.067,5.549,1.484,8.444,1.039-.859,7.011-5.473,3.578-10.26,5.232-3.267,1.129-5,3.583-10.388,3.682-8.522.158-14.342.207-21.627,1.23-1.703.239-3.08,2.384-5.244,2.799s-13.522.656-13.431-2.455c.012-.397,6.112-4.034,6.712-4.262,1.332-.507,3.195-.024,4.506-.492,6.045-2.158,9.982-5.153,17.043-3.528,1.531.352,10.249,7.928,8.746.284-.101-.515-2.142-.426-2.049-.974.26-1.523,2.317-4.599,3.007-8.517Z"/>
      <path d="M58.098,443.033c6.422,1.516,12.911,2.844,19.404,4.094,3.756.723,7.558.905,11.909-.101,1.987-.459-1.618-1.081,5.076-.98.386.006.538-1.866,2.729-2.416,2.264-.568,3.738.25,5.205.048,2.442-.336,4.151-1.901,7.047-1.629,5.46.512,5.254,6.893,2.935,7.778-1.492.569-10.326,2.43-12.191,2.652-3.741.447-11.32-1.339-13.764-.665-4.237,1.169-6.108,7.543-13.874,4.721-2.626-2.571-17.497-9.311-14.476-13.503Z"/>
      <path d="M211.034,169.194c6.35-6.297,16.05,3.228,6.572,7.083-2.785,1.133-18.02,6.54-20.15,6.889-2.261.37-4.642-.74-5.961-.504-5.215.933-11.355,6.126-14.407-1.031l9.479-6.406c1.8-2.423-4.107-2.542-.017-4.021,1.792-.648,1.369,1.472,1.715,1.645.435.217,1.107-.514,1.521-.304.294.149.262,1.63.82,1.677,1.057.09,4.408-1.451,6.183-1.773,5.302-.962,4.632-1.412,9.222-2.815,2.072-.633,2.669,1.924,4.517-2.434l.506,1.993Z"/>
      <path d="M254.014,301.117c2.329-2.191,5.463,10.369,5.742,11.74,2.519,12.376.328,24.41.554,36.61.025,1.362,1.285,2.702,1.276,4.15-.002.326-.846,6.169-1.023,6.443-.582.904-2.205,1.226-3.081,1.947-4.955-4.17-1.794-5.01-1.528-8.474.928-12.112-5.298-24.511-4.311-37.486.242-3.178.219-5.477.389-8.386.118-2.024,2.361-4.156,1.981-6.544Z"/>
      <path d="M445.918,550.96l1.024-1.985c-7.561-.831-1.295-1.716.67-2.789,1.797-.981,2.932-2.23,5.067-2.958,5.711-1.947,19.808-2.465,25.49-1.012,5.059,1.294,9.45,7.435,3.677,11.176-7.413,4.804-26.705-6.436-35.927-2.433Z"/>
      <path d="M723.899,415.956c-2.173-1.459-.773-15.151-1.247-18.391-.077-.525-1.586-.368-1.777-1.139-.552-2.233,1.235-6.683-2.056-9.339,5.401-3.982,13.301-10.765,14.936.55.658,4.552-.63,19.327-2.548,23.317-1.121,2.331-4.453,6.92-7.308,5.004Z"/>
      <path d="M161.052,184.188c1.528,8.143-4.305,5.432-6.046,6.533-1.474.932-1.514,3.931-2.112,4.306-.604.379-11.53,1.727-14.056,2.438-2.979.838-16.377,6.884-17.774,5.705.735-1.803.599-5.766,1.492-7.02.624-.875,2.316-.71,3.12-1.356,8.809-7.086,6.411-4.637,16.449-7.035,2.65-.633,3.724-2.561,5.011-3.019,4.552-1.617,9.203-.828,13.915-.553Z"/>
      <path d="M12.105,353.09c.285.27-.678,2.724-.384,4.044.437,1.963,3.143,2.926,3.343,3.677,1.429,5.356,4.495,15.754,4.092,20.813-.117,1.461-1.354,6.821-2.172,7.318-2.139,1.3-4.787-2.702-5.369,1.119-7.515-2.452-6.269-19.734-4.864-26.05.512-2.303,2.56-4.696,2.873-6.422.185-1.02-1.013-3.992-.51-4.499.105-.106,2.882-.103,2.991,0Z"/>
      <path d="M523.639,259.393c.445.516,1.473,4.516,1.247,4.743-4.18-2.068-2.365.556-4.633,1.833-1.021.575-12.644,4.16-13.892,4.218-3.765.174-7.259-2.243-10.894-2.54s-14.22,1.795-16.546-3.021c-1.212-2.51,5.088-1.198,6.311-1.502,1.638-.407-1.091-2.186,6.237-1.218.735.097,1.609-.647,1.993-.62.784.056.064,2.167.936,1.851.361-.131.837-1.173,2.016-1.449,4.475-1.049,24.249-5.746,27.225-2.294Z"/>
      <path d="M410.807,530.126c.231.134,2.849,4.216,2.901,4.478.21,1.059-1.253,3.874-.77,4.368.506.516,6.292-1.554,1.02,4.502,1.272,2.346,4.342.881,5.776,1.707.788.454,1.531,4.808,5.203,3.798.627.645-2.738,5.518-3.464,6.08-3.183,2.461-4.114-1.588-5.291-2.026-.736-.274-6.964-1.901-7.803-2.018-5.146-.719-15.493,2.999-18.961-2.018-.494-.715-1.085-1.765.069-2.037,7.504-3.028,19.329,1.577,22.434-7.495-11.588,3.329-6.16-12.267-1.113-9.339Z"/>
      <path d="M10.098,233.16c.337.302,2.846,7.89,2.95,8.553.356,2.268,1.261,12.893,1.147,14.937-.279,4.973-4.438,2.921-3.6,6.506-3.945-1.645-10.151.15-10.584-5.493-.129-1.678.945-14.306,1.344-15.773.604-2.216,5.786-11.383,8.743-8.73Z"/>
      <path d="M358.304,150.547c-1.405,1.615-4.592,5.347-5.689,6.908-3.638,5.178-.728,8.503-10.174,7.82-7.409-.536-4.919-6.518-1.887-10.986,1.622-2.389,7.243-7.399,9.718-8.74,1.291-.699,3.161-.157,4.635-.88,2.92-1.433,5.816-6.418,9.049-4.986,5.947,2.634-4.283,9.289-5.653,10.863Z"/>
      <path d="M304.759,524.216c.239.113,3.432,3.529,3.646,3.828,1.878,2.618,4.948,7.515.871,8.719-6.437,1.9-5.406-1.103-7.977-2.637-1.556-.928-5.941-.833-8.504-2.238-4.286-2.349-8.939-6.443-12.253-9.95-1.957-2.072-5.664-2.42-4.49-6.375.331-1.115,1.826-2.049,3.011-1.161l19.132,9.96c2.109,1.012,4.683-1.035,6.563-.147Z"/>
      <path d="M71.499,408.422c1.495-2.623,3.486-3.04,6.16-1.413,2.736,1.665,5.535,19.031,5.922,23.012.244,2.511,1.289,9.025-1.183,9.856-1.327.446-6.553.161-6.42-2.238-.999-7.479-8.215-22.665-4.479-29.218Z"/>
      <path d="M729,272.844c.504.308,1.585-.766,1.737-.66,2.953,2.06,1.39,14.77-.003,18.186-.314.769-1.907.743-1.929,1.343-.08,2.195,1.823,5.279.988,8.747-.188.779-1.892.614-1.868,1.096.164,3.422,3.463,5.199-3.112,4.554,1.689-5.522.065-3.12-1.432-5.013-3.449-4.362-1.583-20.936-3.576-26.959,4.053,1.76,5.851-2.931,8.569-2.97.421-.006.349,1.507.626,1.676Z"/>
      <path d="M29.873,422.3c.643.35,4.559,5.531,5.576,6.387,4.024,3.386,18.541,8.398,19.215,9.272.795,1.031.682,2.983-.049,4.109-1.008,1.553-2.752-.026-3.339.227-.326.141-2.233,3.828-5.686,3.684-1.075-.045-8.974-3.965-9.967-4.955-2.808-2.804-4.295-8.044-5.855-10.669-.658-1.108-3.557-2.618-4.183-5.216-.669-2.778,1.822-4.181,4.289-2.838Z"/>
      <path d="M323.869.398c.887.528.944,4.114-.548,4.987-2.183,1.276-11.064,3.339-13.959,3.787-3.74.578-14.481,1.591-17.918,1.163-1.138-.142-6.333-2.093-6.504-2.669-2.295-7.746,8.217-5.309,12.594-5.329,1.973-.009,3.849-.995,5.727-.833,1.464.126,3.845,1.762,4.26,1.71.979-.124,1.208-2.578,1.565-2.819.261-.176,2.184,1.044,3.365.922,2.628-.271,9.418-2.11,11.419-.918Z"/>
      <path d="M249.008,272.135c.028-3.994,2.118-6-.074-11.231-.303-.724-1.812-.761-1.942-1.428-1.218-6.212,18.737-19.079,19.999-12.773.098.491-4.504,8.138-4.96,8.696-1.706,2.085-5.4,2.772-5.986,6.274-.076.457.856,7.723,1.085,8.796.175.822,1.705.292,1.955,2.094.589,4.237-.481,6.886-2.07,10.564l2.987-.991c-.44,1.118-.954,4.721-.62,5.543.508,1.251,2.044,1.133,2.376,1.605.161.228-.207,5.025-.399,5.568-1.219,3.45-11.53,1.353-12.351-1.73l3.507.006-.514-2.999,4.004-.015c-4.32-4.156,1.192-9.756,1.001-10.475-.263-.99-2.879-1.129-3.08-2.16-.427-2.187,2.497-5.601,1.592-8.32l-6.51,2.976Z"/>
      <path d="M382.956,125.221c.196.188.226,4.828.062,5.42-.246.887-1.769.406-2.646.958-.444.279-.505,1.452-1.14,1.6-2.676.622-4.853-.955-6.828-.866-1.781.08-3.859,2.431-6.203,2.72-2.283.282-3.96-.959-5.698-.817-3.547.291-7.528,6.087-12.051,2.015-6.835-6.153,3.396-5.303,6.764-6.278,4.709-1.364,8.908-4.822,15.503-5.503,1.705-.176,11.794.327,12.236.752Z"/>
      <path d="M282.386,229.543c-1.44,1.733-4.679,8.171-5.86,8.307-1.906.219-3.842-2.175-5.083-2.651-1.849-.71-1.638,4.209-3.437,1.953-2.621-3.288,3.216-14.173,8.989-9.997-2.294-3.988.156-2.461,2.035-4.42,2.442-2.547,8.114-8.591,11.01-10.014,2.568-1.261,9.212-3.021,6.998,1.993-2.07,4.69-10.508,9.843-14.651,14.83Z"/>
      <path d="M638.833,41.264c.208.225,4.05.584,5.911,1.611,5.602,3.095,9.331,9.048,13.352,13.131,2.569,2.609,9.783,2.383,8.728,10.252-3.093.11-4.261-3.166-5.673-3.776-9.993-4.315-11.673-8.926-20.401-13.619-3.474-1.868-8.542-.669-8.585-5.885-.036-4.384,2.104-9.587,6.752-5.193,1.279,1.209-.424,3.11-.084,3.478Z"/>
      <path d="M274.402,158.655c-.321.191-4.504,2.566-4.838,2.644-7.608,1.775-16.367,1.89-24.11,3.403-2.441.871-5.272-5.911-2.153-5.257,4.226.886,4.35-.432,7.976-2.284s12.534-5.151,17.583-5.361c6.906-.288,14.621,1.455,5.543,6.855Z"/>
      <path d="M509.893,10.303c.413,1.722-1.483.636-1.874,1.077-.347.391,1.909,3.244.367,3.924-5.409-2.054-11.34-.489-16.963-1.031-5.492-.529-11.628-2.63-17.012-2.985-1.583-.104-3.452,1.305-4.868.905-.242-.068-3.69-3.18-3.674-3.431.098-1.55,2.708-5.305,4.514-5.059l39.51,6.599Z"/>
      <path d="M9.103,175.193c-.421,3.115,1.509,5.733,1.928,8.571,1.48,10.029-.841,12.626-1.794,21.04-.791,6.983,2.501,12.603-4.626,16.343-2.381-2.042.614-4.994.531-8.433-.068-2.843-1.739-5.722-1.062-9.066.641-3.163,5.007-1.061,1.944-7.695-2.369-5.129-.886-4.576-1.936-9.083-.174-.748-1.762-.612-1.951-1.37-1.313-5.267,1.679-9.554,6.965-10.308Z"/>
      <path d="M400.815,1.427c1.232.85,3.993,8.546.523,10.756-3.94,2.51-11.252-2.644-16.119-3.657-4.438-.924-9.652,1.811-11.142-3.91.603-5.947,25.461-4.071,26.738-3.189Z"/>
      <path d="M533.896,538.992c-1.928,4.066,1.548,8.098-3.506,9.984-7.386,2.756-18.601,1.997-25.16-2.394-.531-.356-.276-1.516-.346-1.598-.902-1.055-1.249,4.225-2.976,1.982-.281-.365.143-2.97.011-3.965,4.479.636,14.847-2.617,18.511-1.837.848.181.058,2.136.959,1.807,3.25-4.046,7.354-6.15,12.507-3.978Z"/>
      <path d="M606.14,30.986c3.293,2.608,14.809,2.391,15.702,9.288-6.211-2.277-14.916-2.597-20.695-5.782-2.942-1.621-5.672-5.212-8.78-7.212-1.66-1.068-9.059-2.663-8.457-5.407,1.712-7.801,14.488-.572,17.938,2.922,1.461,1.48,3.101,5.247,4.292,6.191Z"/>
      <path d="M697.791,194.196c3.115,4.269,1.387,9.308-2.311,12.639-.685.617-2.314.576-3.138,1.311-6.722,5.992-12.297,10.665-21.5,13.02-1.276-6.246,2.184-5.143,4.913-7.57,3.495-3.108,14.034-11.681,15.742-14.678.238-.418-.703-1.474-.569-1.618.256-.276,6.555-3.32,6.863-3.104Z"/>
      <path d="M634.01,504.166c-.175.245.842,1.416.673,1.659-.945,1.356-12.234,5.77-14.39,6.107-3.774.588-10.322,1.498-10.32-3.496,0-1.554,17.519-9.398,20.083-10.759,1.392-.739,1.95-2.613,2.456-2.702,4.188-.734,6.763,3.405,4.86,7.049-.772,1.478-2.992,1.628-3.362,2.143Z"/>
      <path d="M267.658,500.648c-3.939,2.601-2.455,6.863-8.658,5.351-.805-11.292-.489-22.29,3.013-32.986,5.353.85,3.973,8.9,4.54,12.132.742,4.233,3.419,11.415,1.105,15.502Z"/>
      <path d="M266.797,267.353c-1.445-.863-4.922.119-6.789-.22,2.401-9.086,10.842-.389,15.741.737,4.082.938,13.721-.945,17.615.392,2.145.736,4.212,8.246-.91,8.836-5.037.581-15.573-1.404-19.955-3.966-2.479-1.449-5.309-5.546-5.702-5.781Z"/>
      <path d="M8.09,278.14c2.747,2.339,6.405,23.508,4.507,26.965-.373.679-4.157,3.028-5.018,3.04-2.887.04-5.537-8.888-5.562-11.523-.015-1.526.979-12.122,1.238-12.882.437-1.279,2.285-1.284,2.631-1.827.414-.65-.246-5.86,2.203-3.774Z"/>
      <path d="M314.541,192.727c-1.922,1.708-3.733,5.474-4.57,5.943-.382.214-7.04,1.567-7.417,1.532-2.293-.213-2.125-6.656-.228-8.744,1.866-2.054,7.656-3.13,8.46-3.552.434-.227,2.641-3.749,4.039-4.606,1.364-.836,11.963-6.145,12.662-6.08,5.204.483-3.407,10.135-5.543,11.431-3.186,1.932-4.003,1.056-7.403,4.076Z"/>
      <path d="M266.998,11.304c.62.828-4.635,4.285-5.801,4.7-3.149,1.121-13.803,2.527-17.849,3.217-1.946.332-3.768-.689-4.887-.536-1.324.18-2.241,2.419-2.961,2.6-2.319.583-4.498-6.884-2.498-8.489,2.393-1.921,32.548-3.424,33.996-1.491Z"/>
      <path d="M407.667,275.86c-2.29,2.802-6.326,1.205-8.923,1.474-1.824.189-4.252,1.665-5.361,1.731-.428.025-.315-1.759-1.089-1.93-5.312-1.178-15.115,1.08-17.337-5.987,4.111-.961,8.265.598,12.447-.058,3.437-.539,4.077-.819,8.044-1.151,3.113-.261,12.305-2.773,13.262,1.82.15.722-.568,3.52-1.043,4.101Z"/>
      <path d="M329.13,143.377c-2.239,1.696-9.407,2.983-13.768,3.714-4.08.684-10.049.362-13.714,1.126-.738.154-.697,1.606-.876,1.703-2.489,1.351-6.281-1.452-.852-4.272,6.944-3.607,20.632-8.361,28.573-7.45,3.082.353,6.52,1.472,5.468,5.497-.801,3.065-4.243-.764-4.833-.318Z"/>
      <path d="M263.997,364.085c.543,2.758-2.294,4.84-2.008,7.425.156,1.409,1.709,2.531,1.954,4.121.514,3.341,1.759,14.346-4.304,13.328-.359-.06-5.512-4.282-5.622-4.629-1.922-6.082-.205-23.459,9.98-20.245Z"/>
      <path d="M37.654,127.811c-2.56,2.435-6.156,4.216-8.124,6.335-.93,1.001-6.758,11.657-9.421,9.061l6.274-15.721c6.684-3.507,11.614-10.769,19.7-12.257,2.111,2.824-6.446,10.695-8.429,12.582Z"/>
      <path d="M436.669,4.61c.255.114.201,1.454.94,1.669.368.107,6.905-.402,4.32,2.004-1.518,1.412-25.055,2.364-28.012,1.515-5.344-1.534-5.14-4.279-4.97-9.495.83-.889,10.443,3.215,12.451,3.521,3.221.491,11.907-.714,15.27.786Z"/>
      <path d="M138.817,442.312c.287.128.357,1.412.931,1.713,1.737.911,3.984.716,5.284,2.505-2.245,2.805-5.169,4.56-8.711,5.263-6.27,1.244-16.174,2.575-19.234-4.27.219-2.103,19.533-6.19,21.73-5.211Z"/>
      <path d="M581.404,529.547c-.281.371-2.09,2.364-2.252,2.396-7.515,1.493-17.459,1.085-25.267,2.029-.371-.329,1.129-5.587,2.65-5.835,5.855-1.11,11.935-2.007,17.747-3.244,2.232-.475,6.032-3.647,8.12-2.014,3.008,2.354.634,4.512-.998,6.668Z"/>
      <path d="M721.129,445.336c-1.92,2.551-4.139,5.497-6.812,7.689-1.784,1.462-4.015,3.249-6.496,2.994-.176-2.891-.63-5.788,2.99-6.008.498-1.633-1.738-.544-2.022-1.475-.817-2.672,1.372-2.187,1.962-3.259,2.976-5.407,1.318-2.172,3.788-4.45.811-.748.937-4.502,1.307-4.781.113-.085,1.42,1.035,1.785.799.692-.448.842-3.178,3.901-3.661,5.111-.808,3.548,7.882,1.671,10.783-.451.698-1.719.896-2.075,1.369Z"/>
      <path d="M546.681,11.529c.496.653.143,1.899.212,2.755,1.65.548.483-2.05,1.551-2.054.316-.001,3.462.87,3.916,1.071.24.107-.821,5.369,2.024-.027l.488,2.006,4.006.018c-4.434,5.75-15.128,1.848-21.609,1.103-1.272-.146-2.73.832-3.762.642-2.407-.443-4.323-5.315-4.769-5.567-.298-.169-5.487,2.029-3.781-3.613,1.125-3.719,4.874.654,6.61,1.079,2.341.574,8.101.338,10.768.921.699.153,4.204,1.479,4.345,1.665Z"/>
      <path d="M705.817,112.225c.605.374,2.277-1.425,3.498-.07,6.769,7.512.165,19.726-.509,28.059-1.771-.588-2.875-2.538-3.362-4.216-1.628-5.612-.2-12.093-1.115-16.809-.861-4.439-4.614-7.038-.011-10.936,2.77,1.051,1.3,3.849,1.499,3.972Z"/>
      <path d="M459.917,271.129c-5.439-.331-10.889.99-16.299.579-3.608-.274-9.067-2.46-11.258-2.538-.456-.016-.376,1.919-.859,1.898-.528-.023-4.299-.827-3.559-2.417,2.068-4.441,26.72-5.432,31.071-3.04.871.479.18,4.314.904,5.517Z"/>
      <path d="M683.539,72.505c2.229,1.926,3.224,7.242,4.656,9.386,1.646,2.466,5.648,5.214,7.459,8.018.597.924,3.229,4.767.652,5.329-3.206.698-3.964-2.839-5.484-4.529-3.682-4.092-4.436-2.974-8.184-5.46-.802-.532-6.571-7.114-7.198-7.993-4.013-5.622,5.083-7.359,8.1-4.751Z"/>
      <path d="M12.116,327.104c1.404,1.247,5.66-2.534,7.531-2.956.996-.225,6.406-.901,5.445,1.44-.218.531-8.734,6.582-9.27,6.788-1.412.542-3.541-.485-3.71-.289-1.084,1.258,1.118,9.387-5.998,8.007.213-2.374-1.698-4.948-1.674-7.029.016-1.429,1.477-11.297,1.806-11.795.537-.814,2.505-.921,3.385-.272,2.373,1.752,2.235,5.882,2.486,6.106Z"/>
      <path d="M355.722,1.57c.272.121.345,1.318.954,1.737.953.656,3.039.488,3.337,1.641.382,1.478.171,5.793-1.507,6.092-3.744-1.598-20.631.696-21.492-4.345-.79-4.623,15.308-6.629,18.708-5.124Z"/>
      <path d="M685.732,475.929c-.3.413-2.427.361-3.178,1.024-2.829,2.498-5.807,6.1-9.497,7.782-1.445.659-9.969,3.501-10.198.777-.118-1.402,14.651-13.805,16.924-15.082,3.4-2.27,7.792,2.959,5.948,5.499Z"/>
      <path d="M73.159,385.985c-.277-.124-3.459-4.486-3.614-4.874-2.283-5.713-2.996-16.758,6.015-15.063,4.718.888,1.967,8.302,1.642,11.645-.124,1.28.727,2.66.591,3.756-.207,1.675-2.783,5.366-4.634,4.536Z"/>
      <path d="M72.818,266.399c1.627,1.593,2.322,6.637,2.026,8.917l-5.242,13.788c-7.381-3.804-3.321-8.214-2.599-13.55.374-2.763-.49-6.59.036-8.752.398-1.635,4.45-1.705,5.779-.404Z"/>
      <path d="M470.915,441.044c-3.452,3.105-.892,5.258-1.197,8.265-.937,9.232-21.342,12.006-23.708,2.323,4.902-5.171,4.292-1.183,6.104.178.248.186,1.135-.665,1.561-.465.239.112.238,1.5.922,1.649,5.189,1.134,7.176-.817,9.732-5.055,2.119-3.514,1.103-8.253,6.585-6.896Z"/>
      <path d="M70.693,295.187c5.503-1.878,5.992,6.596,6.182,10.427.033.658-.225,7.257-.304,7.631-.463,2.176-5.061,7.159-6.304,3.18-.485-1.554-2.096-9.208-2.218-10.829-.166-2.201.499-9.676,2.645-10.408Z"/>
      <path d="M265.001,424.054c-3.674,5.221,2.821,17.008-.686,21.047-4.126,4.751-9.804-1.94-9.347-6.481.091-.902,2.548-.827,2.977-2.201.493-1.578-.881-3.337-.671-4.74.284-1.903,4.419-9.78,7.728-7.624Z"/>
      <path d="M124.91,48.355c.198.158.633,2.1,1.089,2.807-5.491,2.595-10.535,6.15-15.599,9.445-1.348.877-.533,3.481-4.586,2.461-.761-.191-4.619-2.837-4.741-3.324-.874-3.486,9.664-6.38,11.685-7.285,2.285-1.024,9.947-5.864,12.152-4.104Z"/>
      <path d="M325.979,275.119c-.075-.078-.373-2.111.484-1.967,2.315,1.781,4.452-2.118,8.254-2.772,4.42-.76,15.927.017,15.297,6.2-.613,6.022-5.663,2.105-7.768,1.766-2.453-.396-15.122-2.036-16.268-3.227Z"/>
      <path d="M702.824,351.092c-6.591.794-5.309.158-8.467-2.995-2.967-2.963-4.696-2.085-3.481-8.455.95-4.98,6.637-7.28,9.542-3.589.809,1.028-.7,3.139-.591,4.508.189,2.363,4.832,6.324,2.997,10.531Z"/>
      <path d="M214.027,438.021c-2.93-4.457,12.994-9.425,17.227-8.76,2.641.415,7.138,2.476,3.725,5.242-2.491,2.02-19.012,6.47-20.953,3.517Z"/>
      <path d="M70.083,332.099c2.858.032,4.658-2.541,5.453.968l2.543-.968c.373,2.23-.012,3.805,0,5.996l-1.005,2.993-2.984-.993c-1.034,2.871,4.274,7.42.486,8.99-1.003.416.265-2.503-1.484-1.99.097,1.084-.274,2.391-.035,3.372.271,1.113,2.454-.021,2.019,1.61l-4.993-.989c-.082-.311.075-.684,0-.999v-1.999c-.85-4.791-4.341-12.585,0-15.99Z"/>
      <path d="M448.925,84.248c-10.37.102-5.672-4.153-4.503-9.01,1.896-7.877,1.333-15.022,11.48-6.481-.013.474-5.968,2.652-6.819,6.211-.536,2.245,1.545,4.161,1.634,5.975.077,1.567-1.604,2.481-1.792,3.305,7.854.149,16.183.568,24.487-.004,1.647,3.319-4.231,4.06-6.958,3.937-1.401-.063-2.233-1.652-3.578-1.479-2.56.329-8.026,4.53-9.442,4.57-.763.022-.339-1.486-1.189-2.066-2.09-1.426-4.471.079-3.32-4.958Z"/>
      <path d="M171.04,277.143c-3.366,2.959-7.998,2.586-11.926,5.554-3.118,2.357-4.711,7.268-6.051,7.999-3.646,1.989-8.265-4.014-5.887-7.441.442-.637,3.136-.538,4.096-1.143,1.052-.662,1.087-2.021,2.474-2.739,4.336-2.242,6.648-.852,9.666-1.195.711-.081.55-1.943,1.279-2.091,1.883-.381,4.321,1.218,6.348,1.054Z"/>
      <path d="M572.666,417.325c.533.372-.552,2.208,1.699,1.733.326-.069,1.353-3.684,5.5-2.004.285,6.594-5.71,1.943-9.747,4.249-2.65,1.514-2.202,8.763-9.535,6.539-9.627-2.919,6.096-14.693,12.083-10.517Z"/>
      <path d="M535.653,276.37c.753.945.621,3.508,1.315,4.98.582,1.235,3.372,2.608,2.677,6.166-.655,3.353-7.827,3.318-9.514,1.361-.313-.363-2.15-8.587-2.157-9.331-.003-.286,2.972-.005.921-4.407,1.677-.051,5.738-.049,6.758,1.231Z"/>
      <path d="M373.734,361.857c-.444.634-2.888.828-4.237,2.262-1.695,1.803-2.335,6.723-3.492,7.526-1.204.835-5.391.091-5.899-.714-3.306-5.236,7.879-15.606,13.311-14.839,1.801.362.933,4.884.317,5.764Z"/>
      <path d="M206.017,207.186c.321.319-.723,2.566.616,3.033.63.22,11.233,1.949,11.841,1.907,1.629-.11,10.826-6.088,8.507-.491-1.248,3.013-6.734,2.127-9.191,2.803-2.505.689-3.344,2.645-7.011,2.469-4.998-.24-3.142-2.609-3.992-3.493-.535-.557-2.166.04-2.846-.838-2.378-3.07-.22-7.67,2.076-5.39Z"/>
      <path d="M258.337,398.399c.442-.412,2.394-1.469,2.61-1.321,1.94,3.296,5.61,16.376-.46,17.033-5.322.576-5.178-12.89-2.15-15.712Z"/>
      <path d="M254.006,42.273c-2.484.381-7.048,1.244-9.62,1.785-4.43.932-7.97,2.999-12.366,3.207-1.681-4.712,4.933-6.204,8.757-6.746,1.369-.194,12.696-.618,13.227-.225.267.197-.187,1.507.002,1.979,4.142-.635,16.18-2.262,19.714-1.737,6.151.915-1.517,4.968-4.459,5.495-4.204.754-8.583-.603-12.668,1.262-.897-.076-2.16-3.953-2.587-5.02Z"/>
      <path d="M198.024,192.188c.478,2.336-1.003,4.894-.575,7.072.66,3.36,10.117,4.978-5.416,6.906,1.834-3.61-2.655-5.969-2.005-10.266.218-1.441,6.183-4.434,7.996-3.712Z"/>
      <path d="M21.757,157.859c-.834.996-2.922,1.855-4.215,3.281-2.192,2.416-1.094,6.22-6.429,5.049-.424-1.679,1.68-.423,1.966-1.602.247-1.021-.978-4.557.228-6.186.537-.725,2.634-.553,3.554-1.435.98-.94,1.225-3.655,2.288-5.002.568-.72,6.497-6.347,6.944-5.753.148,4.023-1.76,8.573-4.335,11.648Z"/>
      <path d="M593.859,135.223c.552.483-4.593,6.329-4.963,6.504-1.725.816-3.814.133-5.31.704-1.606.612-2.131,2.345-4.236,2.772-4.4.891-9.526-1.463-4.2-4.21,1.569-.809,17.972-6.414,18.708-5.77Z"/>
      <path d="M716.809,364.07c-.448.658-9.399,1.264-10.737.722-2.731-1.105-4.072-6.826-3.249-9.702.461-.492,12.029,4.505,12.558,4.923,1.072.847,2.079,3.1,1.428,4.056Z"/>
      <path d="M239.257,83.934c-.296-.178-.227-1.686-.813-1.713-1.327-.061-3.543,1.751-5.334.942-.705-1.68-2.077-5.121.53-5.836.576-.158,9.984.739,11.917.876,10.335.733-2.588,7.958-6.301,5.731Z"/>
      <path d="M271,72.259c2.613,2.457-8.557,7.772-10.29,8.227-2.205.578-5.131.009-6.699-1.749l9.952-6.911,7.037.434Z"/>
      <path d="M153.048,416.059c-2.887,6.607-5.138,9.442-10.701,13.72-4.545,3.496-3.64-.692-2.047-3.991,2.109-4.365,7.628-9.611,12.748-9.73Z"/>
      <path d="M78.08,338.096c.042,7.726-.975,13.518-2.006,20.992-5.892.59-3.109-.55-4.06-3.399-.543-1.626-1.496-2.945-1.931-4.601l4.993.989c.435-1.631-1.748-.497-2.019-1.61-.239-.981.132-2.288.035-3.372,1.749-.512.481,2.406,1.484,1.99,3.788-1.57-1.519-6.119-.486-8.99l2.984.993,1.005-2.993Z"/>
      <path d="M497.9,60.257c.36.361.56,9.155.003,10.19-.512.949-1.738,1.106-2.342,1.921-1.383,1.865-1.308,4.287-4.644,4.884-2.894-5.969,2.266-7.267,2.842-9.688.484-2.033-2.643-6.043.776-7.175.69-.228,3.238-.26,3.365-.132Z"/>
      <path d="M472.907,56.267c3.057,3.002-8.176,2.495-8.793,2.601-2.37.41-9.108,4.509-10.182.859-2.222-7.555,15.237-3.162,18.975-3.461Z"/>
      <path d="M559.507,299.37c2.1-.707,15.181-.546,14.36,3.232-.668,3.075-14.392,3.025-15.983-1-.244-1.157.606-1.89,1.623-2.232Z"/>
      <path d="M179.905,413.176c2.583,4.135-2.365,8.649-8.138,5.637-9.132-4.765,5.703-9.535,8.138-5.637Z"/>
      <path d="M37.093,301.115c-.344,1.796.581,8.105-.113,8.886-.235.265-6.491,2.246-6.78,2.042-.17-.12-1.894-3.487-1.933-3.692-.569-2.929,5.489-8.345,8.826-7.236Z"/>
      <path d="M580.213,241.794c1.011.781,9.746,5.885,4.054,7.295-4.371,1.083-12.6-3.52-9.246-8.778,2.148-3.367,4.518.962,5.191,1.483Z"/>
      <path d="M365.947,383.071c.67.446.032,3.723.169,3.859,1.252,1.239,3.96-.153,5.076,4.423,1.061,4.35-1.379,4.421-4.995,3.01-5.368-2.095-4.953-14.425-.25-11.292Z"/>
      <path d="M192.038,294.116c9.577-.933,2.68,14.243-1.493,12.992-4.036-3.565,2.308-8.526,1.493-12.992Z"/>
      <path d="M590.523,430.14c7.228-2.361,6.153,9.175-.174,10.852-3.982-2.105-3.633-9.608.174-10.852Z"/>
      <path d="M428.928,203.182c-.13,4.932-6.322,2.325-9.308,3.012-.746.172-.608,1.77-1.37,1.955-1.855.45-8.307.539-9.3-1.489-.535-1.966,2.378-2.23,3.575-2.389,5.045-.673,11.211-.514,16.402-1.088Z"/>
      <path d="M15.916,399.274c1.302.734,3.701,10.221,3.192,10.775l-6.992,1.006c-.837-1.621.426-11.443.996-12.002.123-.12,2.203-.117,2.803.221Z"/>
      <path d="M37.009,296.035c-3.791,2.636-4.663-3.161-5.146-3.665-1.12-1.168-7.333-.315-6.756-4.24,4.28.211,11.131-1.677,12.573,3.97.241.945-.194,3.603-.671,3.934Z"/>
      <path d="M562.871,436.037c-.145,3.795,3.44,11.473-3.295,9.859-5.344-1.28-4.162-12.465,3.295-9.859Z"/>
      <path d="M574.864,113.243l-5.47,5.001c-1.352,1.234-3.434,1.14-4.863,1.952-.992.564-.095,2.408-1.642,2.021-2.622-6.519,6.86-12.651,11.975-8.974Z"/>
      <path d="M215.119,165.111c-.321-.2-3.443-6.399-3.093-6.894,4.388-2.833,10.739.376,9.995,5.467-.122.836-6.602,1.614-6.901,1.428Z"/>
      <path d="M263.989,456.023c-.098,2.044,2.105,4.781,2.065,6.429-.016.636-1.605.565-2.075,1.256-.618.909-.564,2.175-.899,2.698-1.446,2.252-4.77-3.408-6.058-4.898,3.765-1.452,2.273-5.692,6.967-5.485Z"/>
      <path d="M720.815,301.124c3.32,3.47-11.165,6.841-11.995,5.985-1.29-1.332,3.982-6.669,4.663-6.897.515-.172,7.076.646,7.331.912Z"/>
      <path d="M405.728,521.213c.208.122,1.742,2.855,1.797,3.29.448,3.535-7.386,4.331-8.47,3.364-.465-.415-1.21-4.281-.233-5.439,1.297-1.537,5.291-2.167,6.906-1.215Z"/>
      <path d="M403.684,371.338c2.809,3.316-2.099,10.431-5.225,9.725-2.798-.631,1.622-8.735.491-10.991,1.366-.029,3.86.234,4.734,1.266Z"/>
      <path d="M107.063,139.22c-1.212,5.997-6.433,9.526-11.988,5.979.625-2.951,10.267-7.516,11.988-5.979Z"/>
      <path d="M594.859,262.139c1.221,2.974-.881,12.707-4.982,9.992-2.06-1.364-2.365-12.88,4.982-9.992Z"/>
      <path d="M187.701,313.788c-2.397,3.086-7.157.86-8.161,4.346-3.037-.428-3.355-3.112-1.051-5.075.344-.293,7.75-3.756,8.197-3.825,2.715-.418,2.239,2.978,1.015,4.554Z"/>
      <path d="M388.946,510.997c.52,8.686-7.412,3.402-12.99,4.982,2.951-5.646,7.247-5.387,12.99-4.982Z"/>
      <path d="M491.902,78.257c.677,4.722-13.148,5.876-13.995,4.987.126-.809-.194-2.783,0-2.988.489-.515,13.275-2.605,13.994-2Z"/>
      <path d="M560.878,126.233c-1.825,3.41-3.787,4.206-5.262,8.025-.392,1.016.349,1.904.262,1.95-2.89,1.511-4.817-.877-4.745-3.703s6.67-7.028,9.744-6.271Z"/>
      <path d="M239.742,188.443c2.66,2.225-1.751,10.82-5.725,8.735-.155-3.321.362-13.221,5.725-8.735Z"/>
      <path d="M543.861,298.146c.086.059-.237,1.393.742,1.943,1.86,1.045,5.775.492,7.274,1.533,5.521,3.835-6.398,5.848-8.916,2.349-.289-.401.595-1.945.403-2.954-.123-.643-2.994-5.252.497-2.871Z"/>
      <path d="M235.667,205.828c-1.603,1.301-5.667,2.07-7.64,3.344-2.074-3.857,9.191-12.149,9.993-7.471.119.693-1.704,3.6-2.353,4.127Z"/>
      <path d="M588.871,444.036c.345.363.202,3.06-.662,4.077-1.716,2.02-6.832,1.614-9.334,1.91-.402-4.409,7.819-8.273,9.997-5.987Z"/>
      <path d="M157.041,313.106c-.609.63-4.813-.822-5.501-1.985-.681-1.151-.768-7.717-.486-8.001,2.935-2.954,7.134,8.799,5.987,9.986Z"/>
      <path d="M386.952,393.073c3.37,4.161-8.075,5.509-10.988,1.969-2.794-3.393,9.878-3.34,10.988-1.969Z"/>
      <path d="M200.024,156.21c1.242,4.573-7.109,9.958-8.982,5.481-1.26-3.01,6.519-6.576,8.982-5.481Z"/>
      <path d="M593.865,425.034l-7.003.013c-1.324-10.526,6.541-8.197,7.003-.013Z"/>
      <path d="M72.082,138.221c3.477.552,4.085-3.683,7.987-4.003.043,6.855-4.7,13.467-7.987,4.003Z"/>
      <path d="M566.87,143.205c3.18,3.764-6.076,6.796-7.739,4.753-4.704-5.778,4.615-4.043,7.739-4.753Z"/>
      <path d="M704.812,316.114c.578,3.417-3.471,10.377-6.534,6.031-2.117-3.002,3.586-7.156,6.534-6.031Z"/>
      <path d="M279.254,58.028c-2.573-2.669.222-6.034,3.224-6.76,5.113,3.762.189,10.3-3.224,6.76Z"/>
      <path d="M555.818,139.254c.237.163,1.413,4.283.993,4.868-.169.236-5.123,2.145-5.408,2.092-4.189-.784.875-9.396,4.415-6.96Z"/>
      <path d="M186.036,277.147c1.805,2.168-1.719,3.759-3.782,3.779-3.673.036-6.901-2.711-3.685-5.769,1.242.962,7.22,1.693,7.467,1.99Z"/>
      <path d="M225.014,58.258c.249.238.113,6.626-.113,6.889-.194.227-5.656,1.343-5.875,1.107-2.145-2.311,2.234-4.668,2.725-5.313.248-.326.743-5.096,3.263-2.683Z"/>
      <path d="M85.07,126.231c.839,3.584-8.359,5.624-8.984,4.984-.566-6.144,4.2-5.824,8.984-4.984Z"/>
      <path d="M462.921,438.044c-.259-.489.305-2.264.006-3.291-.348-1.194-2.344-.365-2.004-1.21,1.745-4.335,8.393-1.667,6.917,2.89-.666,2.058-4.798,1.839-4.919,1.61Z"/>
      <path d="M109.072,138.21c-1.662-1.962,3.938-8.289,5.478-7.985,4.959.979-2.817,8.754-5.478,7.985Z"/>
      <path d="M230.009,76.265c-.73,2.3-8.501,3.638-9.043,1.396-1.708-7.072,5.689-2.332,9.043-1.396Z"/>
      <path d="M166.036,412.033c-.604.854-7.344,3.498-7.985.503-1.005-4.699,10.54-4.113,7.985-.503Z"/>
      <path d="M592.607,115.446c8.821-1.128-.414,9.166-4.721,2.281,0-.891,3.658-2.145,4.721-2.281Z"/>
      <path d="M23.108,280.135c.137.143.12,3.823-.021,3.962-.176.175-4.318.62-4.933.614-2.601-.021-2.508-4.101-2.052-4.577.242-.253,6.764-.253,7.006,0Z"/>
      <path d="M396.952,353.091l.002,2.99c-2.371-.732-7.591,2.51-8.994-.511-1.264-2.722,7.892-2.711,8.992-2.479Z"/>
      <path d="M599.837,127.248c2.665,2.173-2.886,6.254-4.45,5.975-4.458-.795,1.312-8.534,4.45-5.975Z"/>
      <path d="M407.937,200.183c-.079,1.5.408,3.822-.438,5.049-3.245,4.707-9.949-4.728.438-5.049Z"/>
      <path d="M489.908,55.27c.104.107.107,2.878.004,2.986-.317.336-7.867,1.839-8.991-.508-.943-1.97,2.065-1.557,3.172-1.787,1.227-.256,5.275-1.251,5.815-.691Z"/>
      <path d="M85.082,150.203c-.951-3.274,8.175-8.47,7.972-4.492-.057,1.125-5.964,5.473-7.972,4.492Z"/>
      <path d="M211.021,156.22c2.151,2.32-6.852,4.607-7.983,1.469-1.218-2.528,6.832-2.51,7.983-1.469Z"/>
      <path d="M414.934,190.19l-3.826,3.864-4.16-.386c-.506-2.915,6.118-3.997,7.986-3.478Z"/>
      <path d="M582.864,116.234c.359,8.056-11.162,1.988-5.32.168,1.619-.504,3.618-.085,5.32-.168Z"/>
      <path d="M189.296,286.377c.555-.54,2.713-.502,3.726-1.249,1.004,11.857-7.335,4.759-3.726,1.249Z"/>
      <path d="M430.783,201.029c-5.002,2.977-5.861-5.048,1.139-5.848.411.543-.547,5.496-1.139,5.848Z"/>
      <path d="M187.038,169.192c-1.359-1.069.537-6.877,2.483-5.985,4.856,2.225-.132,7.835-2.483,5.985Z"/>
      <path d="M160.138,319.005c-2.579-4.088,5.479-3.575,5.899-1.382.622,3.243-5.225,2.451-5.899,1.382Z"/>
      <path d="M397.834,390.968c-1.219.925-5.019.643-3.877-2.393,1.456-3.872,7.005.019,3.877,2.393Z"/>
      <path d="M70.083,332.099c1.496-1.174,5.691-3.215,7.484-3.013,1.058.291.364,2.127.512,3.013l-2.543.968c-.795-3.51-2.595-.936-5.453-.968Z"/>
      <path d="M70.083,350.088c-.456-1.918.017-1.9,0-1.999v1.999Z"/>
      <path d="M249.008,272.135l6.51-2.976c.905,2.719-2.02,6.133-1.592,8.32.201,1.031,2.817,1.169,3.08,2.16.191.719-5.321,6.32-1.001,10.475l-4.004.015.514,2.999-3.507-.006c-.167-.625-.732-6.631-.677-7.368.17-2.257,2.257-4.959,2.241-7.123-.014-1.857-1.582-3.914-1.564-6.496Z"/>
    </g>
  </g>
</svg>