<?xml version="1.0" encoding="UTF-8"?>
<svg id="b" data-name="Layer 2" xmlns="http://www.w3.org/2000/svg" width="19.934" height="14.087" viewBox="0 0 19.934 14.087">
  <defs>
    <style>
      .d {
        fill: #f8f8cd;
      }
    </style>
  </defs>
  <g id="c" data-name="Layer 1">
    <path class="d" d="M19.933,1.649c-.098-.866-.866-1.589-1.758-1.647H1.794C.93.064.266.613.057,1.458-.014,3.716-.003,6.018.007,8.244c.006,1.338.013,2.723.002,4.095.093.973.81,1.675,1.794,1.749l16.382-.002c.901-.076,1.587-.719,1.749-1.661V1.649ZM18.531,2.424v9.238l-4.652-4.632,4.652-4.606ZM7.078,8.065c.099.092.195.185.29.276.679.655,1.32,1.273,2.423,1.327,1.411.079,2.178-.7,3.051-1.599l4.665,4.613H2.434l4.644-4.618ZM17.508,1.404l-6.501,6.484c-.621.501-1.453.502-2.063.009L2.434,1.404h15.075ZM6.064,7.03L1.411,11.662V2.424l4.653,4.606Z"/>
  </g>
</svg>