<?xml version="1.0" encoding="UTF-8"?>
<svg id="b" data-name="Layer 2" xmlns="http://www.w3.org/2000/svg" width="63.497" height="47.175" viewBox="0 0 63.497 47.175">
  <defs>
    <style>
      .d {
        fill: #d61f26;
      }
    </style>
  </defs>
  <g id="c" data-name="Layer 1">
    <g>
      <path class="d" d="M4.524,39.421c-1.486-1.276-2.415-2.996-2.487-4.598-.052-1.161.35-2.247,1.135-3.055.259-.268.588-.459.948-.554,2.234-.584,4.763-1.246,7.743-.249.217.072.415.18.598.319.186.023.367.07.538.143,2.337.975,4.303,2.384,6.204,3.748,1.071.771,2.079,1.495,3.143,2.134l.273.166c.283.175.527.322.725.423.147.075.279.166.404.273.456.392.724.969.71,1.59-.017.783-.479,1.487-1.19,1.811-1.923.879-3.913,1.929-6.266,3.301-.467.272-1.022.348-1.542.209-1.912-.502-3.773-1.216-5.102-1.958-.945-.532-4.548-2.662-5.609-3.511-.075-.065-.15-.123-.226-.188v-.006Z"/>
      <path d="M22.422,39.712c-2.226,1.019-4.358,2.175-6.442,3.394-1.602-.418-3.34-1.049-4.618-1.765-1.124-.629-4.469-2.635-5.341-3.326l-.164-.141c-1.499-1.287-2.447-3.423-1.218-4.688,2.162-.566,4.183-1.088,6.584-.286.033.034.067.069.103.1.066.056.14.109.226.155.247.138.476.175.671.154,3.363,1.4,6.016,3.894,9.073,5.744.418.25.789.489,1.13.662M8.48,35.378c.085.073.175.122.271.13l.267-.597,8.346,3.33-.184-.158c-2.536-2.178-5.991-3.525-9.172-4.022-.199.086.068.976.468,1.32M10.075,37.204c.036.031.066.056.088.07,1.845,1.151,4.544,2.163,6.567,2.953.066-.103-.033-.234-.168-.349s-.301-.213-.385-.262c-2.307-1.342-4.781-2.504-7.055-3.925-.441.049.572,1.192.946,1.513M25.076,36.621c-.243-.208-.514-.39-.808-.54-.128-.064-.359-.206-.587-.345l-.283-.175c-.99-.599-1.97-1.304-3.008-2.047-1.992-1.431-4.055-2.911-6.608-3.975-.177-.072-.354-.133-.538-.183-.234-.132-.479-.246-.733-.328-3.553-1.192-6.521-.418-8.905.208-.722.19-1.373.571-1.894,1.104C.531,31.558-.075,33.18.007,34.91c.1,2.154,1.293,4.416,3.196,6.05.095.082.187.161.288.236,1.234.979,5.025,3.209,5.881,3.693,2.018,1.134,4.366,1.839,5.583,2.154,1.042.273,2.15.119,3.081-.421,2.293-1.337,4.228-2.355,6.089-3.208,1.419-.651,2.343-2.058,2.377-3.619.026-1.232-.51-2.393-1.419-3.173h-.006Z"/>
    </g>
    <g>
      <g>
        <path class="d" d="M15.594,33.034c-1.371-1.178-2.911-2.591-3.915-4.13-.443-.665-.726-1.279-1.013-1.987-.011-.027-.019-.051-.03-.077-.086-.239-.184-.483-.286-.73-.359-.896-.771-1.91-.845-3.005-.004-.049-.004-.095-.005-.141v-.061c.001-.285.032-2.864,1.649-3.612.773-.356,1.654-.233,2.307.327.125.107.241.23.344.369.079.107.152.222.21.346.31.648.849,1.401,1.37,2.128.281.39.553.777.802,1.15.014.017.024.038.035.053.304.489.454.892.495,1.302.024.277-.004.555-.091.823-.077.242-.198.463-.349.652.445.604.91,1.197,1.4,1.749.016.014.03.031.04.046.189.225.393.452.607.681.766.834,1.632,1.783,2.077,3.031.136.379.152.792.053,1.18-.175.682-.714,1.256-1.384,1.473-1.177.375-2.085-.399-2.469-.729l-.144-.124c-.275-.231-.56-.47-.846-.715h-.012Z"/>
        <path d="M12.12,21.16s.03.025.044.049c.565,1.181,1.569,2.401,2.31,3.523.077.123.187.32.198.427-.035.107-.189.014-.386-.155-.322-.276-.757-.764-.931-.914l-.036-.031c-.043-.037-.086-.079-.128-.116-.472-.406-1.032-.584-.855.133.18.554.598,1.123.935,1.652.908,1.332,1.833,2.645,2.863,3.815.79.952,1.916,1.93,2.327,3.092-.035.141-.432-.194-.56-.304-.315-.27-.649-.546-.987-.836-1.306-1.121-2.681-2.387-3.538-3.699-.36-.543-.588-1.035-.83-1.642-.361-1-.939-2.146-1.019-3.195v-.061c-.003-.34.252-2.025.593-1.732M14.777,18.066h0c-1.244-1.068-3.007-1.317-4.486-.631-2.029.936-2.468,2.988-2.61,3.658-.052.246-.223,1.103-.221,1.817v.046c.002.098.006.193.01.288.104,1.412.593,2.635.99,3.614.098.244.192.473.259.661.019.051.038.101.058.152.29.711.634,1.485,1.2,2.347,1.145,1.753,2.811,3.285,4.287,4.553.289.248.574.493.853.726l.154.132c1.416,1.205,2.896,1.58,4.393,1.104,1.362-.432,2.387-1.519,2.741-2.907.198-.782.163-1.604-.106-2.366-.582-1.639-1.682-2.847-2.492-3.73-.204-.221-.398-.433-.54-.606-.027-.035-.054-.063-.084-.095-.191-.215-.383-.443-.567-.674.119-.457.156-.932.108-1.401-.091-.956-.491-1.698-.788-2.176-.024-.038-.045-.073-.07-.111-.277-.414-.565-.822-.843-1.209-.47-.66-.954-1.338-1.191-1.826-.117-.243-.257-.471-.417-.689-.191-.255-.405-.484-.644-.69h0l.007.012Z"/>
      </g>
      <g>
        <path class="d" d="M18.407,27.202c-.049-.042-.102-.087-.145-.136-.34-.354-1.633-1.789-3.291-3.629-.62-.686-1.142-1.266-1.373-1.521-.83-.912-.851-2.315-.046-3.259l.07-.082c.258-.274,1.658-1.552,3.698.2.896.769,1.775,1.929,1.782,1.941l.045.061c.024.032.045.067.069.099.697,1.1,1.618,2.643,2.266,3.741.525.889.299,2.035-.528,2.659-.768.583-1.836.538-2.554-.079l.007.006Z"/>
        <path d="M15.997,20.322c.62.532,1.332,1.423,1.479,1.617l.027.035c.676,1.065,1.579,2.575,2.231,3.682-.513-.537-3.928-4.341-4.63-5.109-.137-.152-.136-.413,0-.57.168-.175.514.019.894.346M18.651,17.232c-2.487-2.135-5.115-1.524-6.509-.054-.048.056-.099.109-.144.161-1.461,1.721-1.426,4.276.087,5.946.234.258.75.832,1.36,1.51,1.732,1.92,2.984,3.309,3.344,3.686.093.097.192.188.291.272,1.44,1.237,3.572,1.323,5.112.154,1.65-1.251,2.101-3.536,1.049-5.318-.659-1.118-1.597-2.688-2.301-3.799-.042-.064-.083-.129-.128-.19l-.027-.035c-.014-.023-.034-.046-.051-.067-.013-.011-1.01-1.34-2.086-2.264h0l.003-.003Z"/>
      </g>
      <g>
        <path class="d" d="M21.424,41.021c-.772-.68-5.527-5.207-6.069-5.718-2.278-2.206-5.095-4.933-6.65-8.28-1.173-2.524-1.306-6.046-.318-8.572.29-.743.793-1.747,1.556-2.317.946-.71,3.83-1.009,4.378-.949,1.306.152,4.079,1.934,4.6,2.376,1.834,1.575,3.401,4.761,4.784,7.579.443.905.863,1.756,1.215,2.382,1.95,3.504,4.266,7.624,6.724,11.758.065.044.123.089.182.139.509.437.773,1.097.699,1.775-.086.764-.598,1.413-1.317,1.68-1.193.44-2.418.951-3.644,1.522-.714.333-1.557.22-2.162-.283-.531-.444-1.109-.872-1.72-1.323-.702-.523-1.43-1.063-2.103-1.64l-.151-.13h-.006Z"/>
        <path d="M17.608,19.124c2.057,1.766,4.141,6.901,5.529,9.393,2.28,4.095,4.591,8.188,6.995,12.213l.365.239c-1.286.475-2.552,1.007-3.793,1.583-1.218-1.011-2.625-1.935-3.8-2.943l-.135-.115c-.763-.672-6.006-5.664-6.006-5.664-2.294-2.221-4.847-4.737-6.21-7.663-.916-1.967-1.065-4.933-.27-6.968.169-.436.513-1.155.879-1.428.299-.222,2.537-.598,2.92-.553.625.069,2.965,1.44,3.509,1.901l.01.008M19.734,25.656c-.652-1.107-1.558-2.62-2.231-3.682l-.027-.035c-.147-.194-.855-1.082-1.479-1.617-.381-.327-.727-.521-.894-.346-.135.157-.137.418,0,.57.702.768,4.114,4.575,4.63,5.109M10.827,22.826c.023.02.045.021.074.007.061-.084.105-.309.128-.448.149-1.143.205-2.469.436-3.615-.192.223-.364.457-.498.713-.257.492-.357,1.027-.374,1.577.001.018.003.037.007.058.061.235.041,1.552.228,1.712M16.921,31.489c.335.287.666.572.987.836.128.11.522.448.56.304-.41-1.162-1.537-2.14-2.327-3.092-1.03-1.17-1.955-2.482-2.863-3.815-.334-.527-.749-1.099-.935-1.652-.174-.714.382-.538.858-.13.043.037.085.073.128.116l.036.031c.174.149.61.637.931.914.197.169.351.262.386.155-.011-.106-.124-.3-.198-.427-.745-1.124-1.745-2.342-2.31-3.523-.014-.017-.027-.035-.044-.049-.341-.293-.593,1.394-.592,1.732v.061c.075,1.046.653,2.192,1.017,3.195.249.607.473,1.102.83,1.642.857,1.312,2.232,2.578,3.538,3.699M20.262,16.033l-.02-.017c-.305-.262-3.569-2.608-5.691-2.851-.297-.033-.909-.103-2.682.216-1.6.29-2.421.583-3.15,1.126-.917.689-1.672,1.768-2.234,3.206-1.191,3.047-1.043,7.136.369,10.172,1.716,3.684,4.808,6.681,7.066,8.871l.026.023c.883.844,5.346,5.086,6.128,5.774l.167.144c.728.625,1.483,1.187,2.214,1.73.588.437,1.141.849,1.632,1.253,1.211,1.006,2.89,1.228,4.318.567,1.179-.544,2.353-1.035,3.496-1.456,1.444-.533,2.461-1.837,2.636-3.362.15-1.33-.363-2.631-1.34-3.504-2.375-4.011-4.613-7.99-6.506-11.388-.323-.58-.733-1.41-1.162-2.291-1.469-2.989-3.135-6.379-5.268-8.21h0Z"/>
      </g>
    </g>
    <g>
      <path class="d" d="M40.485,39.067c-.495-.425-.783-1.02-.805-1.671-.039-1.162.761-1.968,1.257-2.46,1.593-1.67,3.364-2.909,5.041-4.033.212-.16.411-.326.61-.491.692-.574,1.471-1.222,2.592-1.599,1.138-.442,2.39-.878,3.498-1.26.015-.004.048-.016.063-.02.221-.072.453-.169.694-.271.71-.302,1.595-.676,2.74-.589.763.068,1.439.249,2.007.418.015.002.094.03.094.03.55.176,1.298.413,1.935.96.374.321.664.707.854,1.149.004.015.015.03.019.045.743,1.823.371,4.354-.883,6.047-1.19,1.725-2.624,2.638-3.991,3.367-.257.133-.516.269-.779.403-.797.41-1.617.835-2.341,1.279-.023.014-.044.025-.068.039-.15.082-.296.179-.445.279-.564.365-1.266.817-2.165.974-.021.005-.112.018-.112.018-.046.007-.088.01-.134.016-1.155.091-2.528-.341-3.422-1.08l-.03-.025-.098-.085c-.468.054-.957.033-1.474-.103-.989-.256-2.051-.473-3.079-.683l-.34-.069c-.495-.1-.912-.299-1.247-.586h.006Z"/>
      <path d="M58.894,29.629c.135.115.24.252.317.421.441,1.086.273,2.868-.655,4.089-.908,1.329-1.998,2.069-3.293,2.753-1.011.534-2.188,1.108-3.231,1.745-.638.358-1.272.897-1.968,1.024l-.052.007c-.661.053-1.512-.244-1.964-.62-.18-.268.279-.451.838-.671.715-.281,1.642-.711,2.375-1.193.34-.25.352-.45.355-.699-.012-.205-.062-.333-.144-.403-.266-.228-.862.155-1.422.461-1.408.684-2.865,2.288-4.389,1.892-1.151-.299-2.35-.536-3.524-.775-.156-.031-.264-.078-.329-.134-.305-.262.176-.755.577-1.157,1.431-1.501,3.067-2.662,4.762-3.794.915-.674,1.626-1.488,2.718-1.838,1.117-.438,2.36-.863,3.495-1.257.982-.314,1.705-.844,2.653-.766.553.047,1.085.19,1.599.341.462.146.945.293,1.277.578M52.664,32.995s.01.008.022.008c.377-.047.801-.309,1.157-.477.243-.117.407-.215.545-.097l.033.028c.099.137.179.302.314.418.049.042.107.081.173.103.245.079.482.242.728.26.451-.114.144-.765-.089-1.005-.227-.207-.416-.471-.643-.666-.108-.093-.228-.173-.363-.221h-.04c-.492.182-.778.734-1.212,1.08-.276.248-.681.515-.626.563M44.877,36.78c.138.118.551.062.759-.021,1.781-.654,3.368-1.52,5.011-2.577.33-.212.475-.361.423-.406-.049-.042-.281.009-.7.197l-.062.026c-1.083.484-2.178,1.077-3.256,1.536-.681.316-1.548.369-2.123.913-.123.163-.121.267-.052.326M46.824,36.77c.239.154.819-.078,1.053-.31l-.005-.021c-.259-.103-.851.062-1.051.328M61.55,26.535c-.952-.817-1.97-1.138-2.645-1.354l-.05-.015c-.031-.01-.063-.02-.091-.027-.715-.209-1.503-.413-2.389-.49-.009-.002-.022-.001-.028,0-1.644-.129-2.877.397-3.697.741-.208.089-.386.164-.521.208-.03.008-.057.02-.087.028l-.024.008c-1.112.385-2.367.818-3.528,1.268-1.459.497-2.462,1.334-3.201,1.949-.176.145-.343.287-.488.396-1.678,1.124-3.599,2.473-5.315,4.265-.607.601-1.913,1.937-1.842,3.958.04,1.208.593,2.356,1.512,3.145.604.518,1.332.865,2.164,1.037l.343.072c1.047.215,2.034.413,2.969.657.46.121.906.179,1.333.193,1.256.828,2.903,1.273,4.363,1.158.091-.007.182-.02.271-.03l.052-.007c.039-.006.079-.012.115-.021,1.304-.231,2.275-.857,2.915-1.271.129-.083.263-.167.336-.213.044-.025.091-.053.135-.078.662-.406,1.45-.813,2.211-1.208.268-.14.531-.273.785-.409,1.53-.813,3.268-1.914,4.707-3.989,1.662-2.261,2.118-5.534,1.112-8-.015-.03-.026-.062-.041-.092-.316-.721-.787-1.354-1.397-1.878h0l.021-.005Z"/>
    </g>
    <g>
      <path class="d" d="M31.577,43.867c-.279-.239-1.158-1.148-.657-2.713.035-.107.079-.211.13-.31,1.199-2.333,2.193-4.877,3.248-7.573,2.31-5.917,4.697-12.029,9.561-16.499.883-.803,2.076-1.575,3.131-2.02.021-.011.042-.015.062-.026.554-.214,1.125-.282,1.665-.2.188-.033.522-.116.753-.174,1.228-.308,2.495-.622,3.588-.003.115.065.222.139.321.224.049.042.102.087.145.136,1.799,1.875,1.752,6.908.407,9.298-.016.026-.03.054-.046.08-1.509,2.415-2.91,4.432-4.287,6.168-.984,1.213-2.062,2.276-3.107,3.3l-.465.456c-1.517,1.462-2.848,3.072-4.258,4.774-.598.723-1.219,1.473-1.853,2.205l-.037.043c-.153.165-.308.345-.466.529-.642.748-1.369,1.595-2.299,2.107l-.092.047c-.806.414-1.547.501-2.092.558-.094.01-.189.02-.28.034-.039.006-.076.009-.113.012-.11.008-.225.029-.34.044-.649.098-1.731.264-2.617-.497h0l-.003.003Z"/>
      <path d="M52.048,16.12c1.019,1.063,1.109,5.101.101,6.886-1.268,2.035-2.671,4.107-4.154,5.98-1.037,1.281-2.238,2.421-3.405,3.574-2.257,2.177-4.159,4.705-6.222,7.094-.7.762-1.452,1.791-2.253,2.232l-.053.029c-.564.291-1.133.298-1.689.374-.549.042-1.22.246-1.47.032-.105-.09-.133-.257-.045-.546,3.901-7.577,5.738-17.405,12.376-23.509.74-.676,1.741-1.304,2.546-1.644.253-.096.496-.127.715-.07.637.154,2.879-.817,3.552-.439M50.931,20.375l-.007-.006c-.02-.017-.15.002-.139.029-.296.823-.526,1.748-.515,2.545.007.052.014.143.05.174.007.006.016.014.029.013.09.015.252-.234.349-.413.318-.576.346-1.299.334-1.816l.002-.049c.016-.158.037-.356-.071-.448-.01-.008-.023-.02-.036-.025M39.141,33.257l.01.008c.038.009.102-.032.153-.085.969-1.408,1.733-3.174,2.682-4.651,1.643-2.796,3.787-5.612,5.333-8.388.051-.133.125-.292.066-.342-.013-.011-.035-.019-.068-.013l-.024.008c-.182.072-.46.323-.644.518-2.005,2.149-3.516,4.573-5.242,6.922-.698,1.464-1.526,3.769-2.049,5.115-.178.44-.285.85-.213.912M42.609,29.736c.085.073.473-.358.668-.606,1.576-1.896,3.337-3.741,4.272-5.919.125-.286.225-.554.303-.851l.019-.069c.104-.446.272-1.226.163-1.319-.039-.034-.112.018-.237.196-1.681,2.695-3.763,5.319-5.091,8.134-.117.276-.138.4-.102.431M44.07,21.41c.02.017.051.027.084.021.093-.029.207-.175.315-.248.256-.185.532-.467.488-.755l-.005-.021c-.223.207-.664.701-.889.929-.029.021-.021.051.006.073M39.046,30.547s.01.008.019.005l.023-.014c.195-.134.271-.554.208-.687-.004-.009-.004-.015-.007-.018-.03-.025-.125.052-.178.155-.119.211-.117.515-.065.56M54.705,13.026c-.2-.172-.414-.321-.642-.454-1.798-1.019-3.697-.547-5.085-.205-.108.027-.253.062-.373.09-.758-.053-1.531.07-2.285.358-.042.015-.084.031-.122.049-1.269.535-2.651,1.428-3.701,2.385-5.222,4.801-7.809,11.426-10.094,17.273-1.035,2.646-2.009,5.149-3.161,7.386-.104.201-.19.407-.256.624-.701,2.191.194,3.957,1.27,4.881,1.598,1.372,3.456,1.086,4.25.965.07-.008.139-.023.209-.031.073-.006.137-.013.213-.022.076-.009.152-.018.231-.03.623-.069,1.66-.188,2.782-.764.012-.007.021-.011.032-.018l.053-.029c.023-.014.053-.029.076-.043,1.244-.693,2.132-1.726,2.851-2.557.144-.167.287-.335.429-.487l.076-.089c.642-.748,1.272-1.501,1.879-2.234,1.373-1.659,2.671-3.224,4.088-4.589l.031-.036.459-.455c1.084-1.064,2.203-2.167,3.245-3.455l.025-.03c1.427-1.795,2.873-3.877,4.42-6.356.033-.052.062-.106.093-.154,1.567-2.781,1.959-8.92-.71-11.707-.09-.094-.189-.185-.291-.272h0l.007.006Z"/>
    </g>
    <g>
      <path class="d" d="M29.89,42.492c-.433-.372-.734-.858-.899-1.456-.957-2.669-2.144-5.283-3.284-7.812-2.886-6.371-5.865-12.958-5.528-20.945.029-.744.364-1.221.524-1.454h0c.024-.088.048-.221.065-.321.048-.255.104-.572.214-.899.007-.028.02-.057.031-.082.78-2.077,2.563-3.676,4.133-5.086l.471-.422c.02-.023.046-.04.069-.06.589-.486,1.138-.927,1.936-1.359.353-.192.847-.436,1.46-.525.736-.12,1.353.05,1.764.163.078.022.188.053.234.059,1.387.137,2.541.506,3.523,1.115.042.024.081.052.12.08.266.194.524.399.77.61,6.437,5.527,4.382,15.475,2.572,24.255-.888,4.293-1.726,8.35-1.504,11.385l.004.049c.018.351.06,1.277-.577,2.092l-.051.059c-.054.062-.132.154-.196.208-.776.718-1.715.796-2.218.837-.073.006-.15.008-.216.02-.039.006-.106.017-.145.023-.113.012-.225.029-.331.047-.722.104-1.929.282-2.933-.58h-.006Z"/>
      <path d="M34.164,5.643c8.413,7.223-.339,24.565.364,34.243.013.257.005.546-.144.732l-.025.03c-.364.337-.961.263-1.433.354-.687.077-1.332.264-1.703-.054-.125-.107-.22-.268-.275-.51-3.382-9.47-9.173-17.457-8.726-28.074.011-.225.136-.305.312-.61.216-.43.231-1.033.391-1.517.67-1.79,2.491-3.293,4.063-4.719.568-.47.988-.799,1.607-1.134.247-.135.511-.257.787-.299.518-.085.97.172,1.468.229.948.09,1.86.309,2.675.821.224.164.439.332.643.506M35.32,21.563c.197.169.396-1.603.384-1.921l.002-.055c.066-4.013.338-9.468-2.993-12.327-.148-.127-.301-.247-.46-.361-.398-.148-.249.277-.103.499.319.485.647.892.846,1.411.756,1.92,1.683,4.99,2.036,7.294.266,1.676.023,3.399.166,5.084.036.23.079.347.118.38M23.994,13.532c.107.035.212-.194.269-.3.613-1.457,1.463-2.813,2.027-4.273l.006-.046c.002-.095-.012-.152-.041-.178-.249-.214-1.547,1.749-1.643,1.901-.415.715-.491,1.488-.635,2.299-.017.173-.097.464.015.594M28.206,23.024c.082.07.134-.016.103-.385-.178-2.102-.665-8.088-.82-9.726-.011-.061-.024-.112-.044-.129-.013-.011-.031-.01-.054.016-.669,1.489-.286,3.938-.142,5.543l.004.055c.104,1.087.216,2.511.528,3.634.083.368.291.876.422.989M27.439,27.097c.492.423.274-1.189.205-1.42-.369-1.947-.985-4.197-1.483-6.186-.062-.167-.142-.578-.28-.696-.023-.02-.048-.03-.073-.034-.231.149-.046,2.576.106,3.249l.006.039c.301,1.302.903,4.166,1.466,4.998l.052.045M30.603,33.171c.246.211.38-.084.346-.456-.129-1.861-.832-3.604-1.458-5.372-.052-.159-.162-.389-.26-.474-.089-.076-.165-.033-.178.286v.052c.126,1.766.375,4.225,1.421,5.808.048.07.092.119.134.155M36.817,2.552c-.289-.248-.592-.485-.9-.71-.078-.055-.156-.111-.239-.16-1.217-.76-2.61-1.215-4.253-1.4-.015-.002-.031-.01-.047-.012-.504-.136-1.437-.391-2.622-.205-.931.141-1.652.497-2.123.753-.951.517-1.611,1.039-2.254,1.576-.046.04-.089.077-.135.118-.152.137-.307.278-.459.415-1.659,1.488-3.726,3.344-4.679,5.888-.02.057-.038.11-.058.167-.134.409-.21.783-.262,1.069-.266.45-.6,1.177-.639,2.159-.356,8.46,2.726,15.273,5.708,21.857,1.12,2.472,2.278,5.028,3.203,7.601.277.945.796,1.761,1.508,2.372,1.713,1.47,3.705,1.175,4.56,1.048.085-.013.176-.026.267-.039.07-.008.143-.02.213-.028.03-.002.058-.007.085-.006.64-.055,2.142-.178,3.431-1.374.117-.11.231-.229.338-.354l.025-.03.101-.118c.738-.939,1.079-2.1,1.01-3.453-.002-.03-.002-.064-.004-.095-.2-2.754.608-6.676,1.47-10.827.917-4.434,1.863-9.014,1.86-13.359-.002-5.707-1.671-9.91-5.096-12.851h0l-.009-.002Z"/>
    </g>
  </g>
</svg>