<?xml version="1.0" encoding="UTF-8"?>
<svg id="b" data-name="Layer 2" xmlns="http://www.w3.org/2000/svg" width="46.681" height="63.564" viewBox="0 0 46.681 63.564">
  <defs>
    <style>
      .d {
        fill: #d61f26;
      }
    </style>
  </defs>
  <g id="c" data-name="Layer 1">
    <g>
      <path class="d" d="M36.507,59.549c-1.43,1.339-3.24,2.076-4.84,1.975-1.16-.074-2.196-.592-2.914-1.459-.239-.286-.392-.634-.448-1.003-.339-2.284-.723-4.87.591-7.724.095-.208.224-.394.382-.56.043-.182.11-.357.2-.52,1.223-2.218,2.835-4.02,4.397-5.762.882-.981,1.711-1.905,2.462-2.894l.195-.254c.204-.263.377-.489.499-.675.09-.138.195-.26.315-.372.439-.411,1.042-.615,1.657-.534.777.102,1.426.637,1.671,1.379.666,2.007,1.494,4.099,2.604,6.586.22.494.235,1.054.041,1.556-.706,1.846-1.617,3.619-2.499,4.86-.631.882-3.139,4.233-4.097,5.196-.073.068-.139.136-.212.204h-.006Z"/>
      <path d="M38.734,41.788c.772,2.323,1.69,4.568,2.677,6.772-.589,1.547-1.405,3.207-2.254,4.4-.747,1.05-3.103,4.158-3.884,4.949l-.158.148c-1.442,1.351-3.668,2.062-4.793.704-.329-2.21-.629-4.276.428-6.576.038-.029.075-.059.11-.091.063-.059.123-.128.178-.208.164-.23.226-.455.226-.65,1.756-3.192,4.522-5.559,6.692-8.398.294-.388.571-.731.781-1.052M32.917,55.179c.082-.077.14-.161.158-.255l-.564-.33,4.214-7.937-.177.166c-2.439,2.286-4.153,5.574-4.991,8.683.064.207.978.038,1.363-.323M34.905,53.791c.035-.033.063-.059.079-.08,1.344-1.709,2.642-4.283,3.647-6.208-.095-.077-.236.008-.365.129s-.245.277-.302.354c-1.584,2.148-3.006,4.482-4.666,6.588,0,.444,1.247-.44,1.607-.777M35.949,38.815c-.234.219-.444.469-.624.745-.077.12-.243.335-.406.547l-.204.263c-.703.919-1.509,1.817-2.36,2.769-1.638,1.825-3.333,3.716-4.667,6.138-.091.168-.17.337-.24.515-.157.218-.296.449-.405.694-1.57,3.403-1.121,6.437-.757,8.875.111.738.419,1.427.892,2.002,1.08,1.305,2.628,2.083,4.356,2.188,2.153.134,4.53-.807,6.36-2.522.092-.086.18-.169.265-.261,1.107-1.12,3.734-4.648,4.307-5.446,1.346-1.884,2.301-4.141,2.746-5.317.385-1.006.351-2.124-.086-3.108-1.081-2.425-1.883-4.458-2.53-6.4-.493-1.482-1.792-2.552-3.34-2.755-1.222-.159-2.434.248-3.308,1.067h0v.006Z"/>
    </g>
    <g>
      <g>
        <path class="d" d="M31.356,47.853c-1.319,1.236-2.891,2.614-4.53,3.444-.71.369-1.35.583-2.085.792-.028.008-.052.014-.08.022-.247.059-.5.131-.756.205-.929.26-1.982.56-3.079.515-.049-.002-.095-.006-.14-.011l-.061-.008c-.284-.031-2.843-.34-3.413-2.029-.271-.807-.053-1.669.575-2.258.12-.112.255-.215.404-.302.115-.067.237-.127.367-.172.678-.238,1.485-.692,2.264-1.132.418-.237.832-.466,1.23-.673.019-.012.04-.02.056-.029.519-.249.936-.355,1.348-.351.278.006.552.064.808.179.232.102.439.247.611.418.649-.377,1.289-.775,1.89-1.202.016-.015.035-.026.05-.035.244-.163.491-.342.742-.53.912-.671,1.949-1.43,3.238-1.736.392-.094.804-.066,1.179.075.659.248,1.172.846,1.315,1.536.245,1.21-.623,2.03-.992,2.376l-.139.13c-.259.249-.527.506-.802.763v.012Z"/>
        <path d="M19.176,50.021s.028-.027.053-.038c1.235-.434,2.557-1.3,3.752-1.916.131-.063.338-.151.445-.151.103.046-.006.189-.196.367-.309.29-.842.67-1.009.827l-.035.033c-.041.038-.088.077-.129.115-.454.426-.692.963.039.864.57-.119,1.181-.473,1.744-.751,1.423-.758,2.828-1.536,4.102-2.433,1.032-.682,2.126-1.696,3.326-1.978.136.05-.24.408-.363.524-.303.284-.613.586-.938.89-1.256,1.177-2.664,2.407-4.06,3.117-.579.299-1.092.472-1.722.648-1.033.251-2.235.701-3.286.667l-.061-.008c-.339-.032-1.986-.468-1.657-.776M16.388,47.045h0c-1.196,1.121-1.635,2.847-1.113,4.391.711,2.119,2.703,2.777,3.354,2.991.239.078,1.072.341,1.782.416l.046.005c.098.009.192.015.287.022,1.415.049,2.684-.304,3.7-.592.253-.071.491-.14.685-.186.052-.014.105-.027.157-.041.738-.212,1.545-.47,2.463-.939,1.867-.949,3.57-2.439,4.99-3.769.278-.26.552-.517.814-.769l.148-.139c1.351-1.278,1.884-2.708,1.573-4.247-.282-1.401-1.251-2.537-2.593-3.04-.756-.282-1.577-.336-2.363-.15-1.693.401-3.012,1.364-3.977,2.073-.241.179-.473.349-.661.471-.037.023-.069.047-.103.073-.235.167-.482.333-.732.49-.441-.167-.91-.256-1.381-.259-.96-.013-1.742.304-2.248.548-.04.02-.078.037-.118.057-.442.23-.878.473-1.293.708-.707.396-1.434.804-1.944.986-.254.09-.496.204-.73.34-.275.162-.525.35-.756.566h0l.012-.006Z"/>
      </g>
      <g>
        <path class="d" d="M25.863,44.425c-.047.044-.098.092-.151.13-.389.299-1.956,1.429-3.964,2.879-.749.542-1.382.998-1.661,1.2-.997.726-2.394.595-3.245-.307l-.074-.079c-.245-.286-1.364-1.816.599-3.655.861-.807,2.11-1.556,2.122-1.562l.065-.038c.034-.02.072-.037.106-.058,1.169-.574,2.803-1.322,3.964-1.847.941-.425,2.055-.077,2.586.812.496.827.336,1.883-.355,2.531l.006-.006Z"/>
        <path d="M18.763,46.076c.596-.559,1.559-1.17,1.768-1.295l.037-.023c1.132-.557,2.731-1.291,3.902-1.819-.59.452-4.741,3.435-5.581,4.05-.166.12-.425.09-.567-.061-.156-.186.075-.509.441-.851M15.978,43.103c-2.392,2.241-2.069,4.92-.758,6.464.05.054.097.11.145.161,1.553,1.638,4.097,1.88,5.92.557.282-.205.909-.656,1.648-1.189,2.096-1.514,3.612-2.608,4.027-2.925.107-.082.207-.171.302-.259,1.385-1.298,1.702-3.408.706-5.065-1.065-1.775-3.288-2.472-5.173-1.618-1.183.534-2.845,1.296-4.026,1.876-.068.034-.137.069-.202.107l-.037.023c-.025.011-.05.029-.072.044-.013.012-1.441.859-2.476,1.829h0l-.003-.003Z"/>
      </g>
      <g>
        <path class="d" d="M39.927,42.922c-.76.694-5.775,4.931-6.341,5.414-2.44,2.026-5.456,4.531-8.951,5.715-2.636.893-6.152.644-8.556-.612-.707-.369-1.651-.978-2.135-1.798-.603-1.017-.588-3.917-.47-4.455.293-1.282,2.365-3.845,2.86-4.316,1.764-1.653,5.102-2.866,8.052-3.936.947-.342,1.839-.668,2.5-.95,3.695-1.559,8.041-3.416,12.417-5.412.051-.06.102-.113.158-.166.489-.458,1.175-.65,1.84-.503.75.168,1.34.747,1.527,1.491.309,1.234.683,2.507,1.119,3.787.254.746.05,1.571-.516,2.119-.499.479-.987,1.008-1.501,1.567-.596.641-1.211,1.307-1.858,1.913l-.145.136v.006Z"/>
        <path d="M17.745,44.345c1.979-1.854,7.309-3.369,9.936-4.48,4.318-1.824,8.637-3.678,12.898-5.632l.277-.337c.333,1.329.725,2.646,1.163,3.942-1.137,1.101-2.207,2.4-3.337,3.459l-.129.121c-.75.685-6.281,5.358-6.281,5.358-2.456,2.04-5.234,4.306-8.291,5.344-2.054.698-5.019.525-6.957-.486-.415-.215-1.093-.635-1.325-1.028-.188-.321-.32-2.586-.234-2.963.136-.614,1.752-2.791,2.27-3.282l.009-.009M24.47,42.939c-1.171.528-2.773,1.265-3.902,1.819l-.037.023c-.209.125-1.168.733-1.768,1.295-.366.343-.597.666-.441.851.142.151.401.181.567.061.84-.615,4.994-3.595,5.581-4.05M20.692,51.487c.022-.021.026-.042.015-.073-.077-.07-.295-.138-.432-.176-1.12-.272-2.432-.471-3.547-.825.201.215.415.411.654.572.461.309.982.466,1.527.542.018,0,.037.001.058-.001.24-.035,1.547.127,1.727-.042M29.963,46.367c.322-.302.641-.6.938-.89.123-.115.502-.47.363-.524-1.199.282-2.294,1.296-3.326,1.978-1.274.898-2.68,1.675-4.102,2.433-.56.276-1.174.626-1.744.751-.728.096-.494-.438-.036-.867.041-.038.082-.077.129-.115l.035-.033c.167-.157.7-.537,1.009-.827.189-.177.298-.321.196-.367-.107,0-.312.091-.445.151-1.198.619-2.517,1.482-3.752,1.916-.019.012-.037.023-.053.038-.328.308,1.322.741,1.657.776l.061.008c1.048.037,2.25-.413,3.286-.667.63-.181,1.146-.351,1.722-.648,1.397-.71,2.804-1.94,4.06-3.117M14.96,41.372l-.019.018c-.293.275-2.979,3.265-3.451,5.349-.065.292-.2.893-.075,2.69.115,1.622.317,2.47.778,3.253.586.986,1.577,1.853,2.945,2.568,2.9,1.514,6.981,1.809,10.152.734,3.848-1.307,7.163-4.056,9.584-6.064l.025-.024c.934-.786,5.634-4.764,6.404-5.467l.161-.151c.701-.656,1.341-1.345,1.959-2.014.498-.538.967-1.042,1.422-1.487,1.131-1.095,1.533-2.74,1.031-4.231-.413-1.231-.774-2.451-1.069-3.633-.374-1.493-1.56-2.645-3.057-2.985-1.306-.293-2.655.076-3.629.953-4.245,1.927-8.443,3.721-12.026,5.235-.611.259-1.481.576-2.404.907-3.13,1.137-6.681,2.426-8.732,4.348h0Z"/>
      </g>
    </g>
    <g>
      <path class="d" d="M40.048,23.761c-.477.446-1.099.668-1.749.619-1.16-.087-1.875-.97-2.31-1.516-1.488-1.765-2.527-3.659-3.464-5.448-.136-.228-.279-.444-.422-.659-.496-.75-1.056-1.595-1.309-2.75-.317-1.179-.614-2.471-.874-3.614-.003-.015-.011-.049-.013-.065-.048-.228-.119-.469-.194-.719-.224-.738-.5-1.659-.289-2.787.15-.751.404-1.403.632-1.95.004-.015.04-.09.04-.09.234-.528.551-1.246,1.164-1.819.36-.337.775-.584,1.235-.725.015-.003.031-.011.046-.014,1.893-.541,4.369.102,5.916,1.533,1.586,1.37,2.338,2.894,2.915,4.332.104.27.212.542.316.818.322.837.655,1.698,1.018,2.465.011.025.02.047.031.071.065.158.146.314.229.473.302.6.675,1.347.734,2.257.002.021.005.113.005.113.002.046,0,.089.002.135-.035,1.158-.613,2.477-1.444,3.285l-.028.027-.095.089c.003.471-.071.955-.261,1.454-.361.955-.692,1.988-1.012,2.987l-.106.33c-.153.481-.396.874-.717,1.176v-.006Z"/>
      <path d="M32.658,4.439c.129-.121.276-.211.452-.27,1.127-.321,2.881.039,3.994,1.094,1.223,1.046,1.84,2.211,2.38,3.571.421,1.063.865,2.295,1.385,3.401.287.673.754,1.362.805,2.067v.052c-.017.663-.405,1.477-.828,1.885-.286.15-.418-.326-.576-.906-.202-.741-.529-1.709-.929-2.49-.211-.365-.409-.399-.656-.428-.205-.01-.337.026-.416.1-.256.24.06.874.304,1.463.527,1.473,1.964,3.096,1.406,4.568-.422,1.112-.787,2.278-1.151,3.42-.048.151-.106.254-.169.313-.293.275-.732-.256-1.088-.699-1.337-1.585-2.315-3.337-3.256-5.145-.571-.982-1.304-1.777-1.533-2.901-.314-1.158-.603-2.44-.871-3.611-.206-1.01-.655-1.787-.474-2.72.106-.544.307-1.058.512-1.553.195-.443.394-.908.712-1.207M35.33,10.996s.009-.009.01-.021c-.006-.38-.221-.83-.349-1.202-.09-.254-.17-.428-.037-.552l.032-.03c.147-.084.32-.146.449-.267.047-.044.092-.098.122-.161.106-.235.293-.452.338-.696-.065-.461-.745-.226-1.009-.021-.23.204-.514.363-.731.567-.104.098-.196.208-.259.337l-.004.04c.127.509.645.853.942,1.322.217.301.438.733.492.683M38.25,19.147c.133-.124.122-.541.061-.757-.457-1.841-1.146-3.513-2.019-5.261-.175-.351-.308-.512-.358-.464-.047.044-.021.281.12.717l.019.065c.364,1.129.834,2.282,1.174,3.404.24.711.2,1.579.678,2.21.148.139.252.149.318.087M38.45,17.211c.179-.221.011-.823-.194-1.08l-.021.002c-.13.247-.031.853.213,1.081M29.87,1.463c-.915.857-1.345,1.835-1.632,2.483l-.02.048c-.013.03-.026.06-.037.088-.286.688-.573,1.45-.746,2.322-.003.009-.004.021-.004.027-.307,1.621.083,2.903.337,3.756.066.216.122.402.151.54.005.031.013.059.019.089l.005.025c.263,1.147.557,2.441.879,3.645.337,1.504,1.06,2.592,1.591,3.393.125.191.248.372.341.528.936,1.79,2.069,3.846,3.665,5.746.532.669,1.718,2.112,3.736,2.26,1.206.091,2.406-.335,3.29-1.163.581-.544,1.004-1.231,1.266-2.039l.109-.333c.327-1.017.63-1.977.975-2.881.17-.444.276-.881.336-1.305.959-1.159,1.579-2.748,1.624-4.212.003-.092,0-.184,0-.272v-.052c-.003-.04-.005-.08-.01-.117-.089-1.322-.606-2.354-.948-3.035-.069-.137-.138-.28-.175-.358-.02-.047-.043-.096-.063-.143-.332-.702-.651-1.529-.961-2.329-.11-.282-.214-.558-.322-.824-.642-1.609-1.549-3.456-3.456-5.112-2.068-1.897-5.272-2.705-7.832-1.971-.031.011-.065.019-.096.031-.751.236-1.431.636-2.018,1.186h0l-.002-.021Z"/>
    </g>
    <g>
      <path class="d" d="M43.855,33.137c-.268.251-1.266,1.027-2.768.36-.103-.046-.202-.101-.295-.163-2.189-1.445-4.611-2.708-7.177-4.049-5.632-2.937-11.45-5.971-15.368-11.291-.703-.965-1.341-2.234-1.669-3.331-.008-.022-.011-.043-.019-.065-.153-.574-.158-1.149-.019-1.677-.012-.19-.059-.531-.091-.768-.173-1.254-.349-2.548.385-3.567.077-.108.163-.206.257-.295.047-.044.098-.092.151-.13,2.059-1.585,7.057-.994,9.287.602.024.019.051.035.075.054,2.237,1.762,4.091,3.373,5.668,4.93,1.099,1.11,2.039,2.297,2.944,3.446l.402.512c1.289,1.667,2.745,3.164,4.285,4.75.654.673,1.332,1.371,1.991,2.081l.038.041c.147.17.31.344.476.52.674.719,1.437,1.534,1.846,2.514l.037.096c.324.846.331,1.592.328,2.14,0,.095,0,.19.003.282.002.04,0,.077,0,.113-.004.11.005.227.007.343.028.656.075,1.749-.777,2.548h0l.003.003Z"/>
      <path d="M18.487,9.782c1.167-.898,5.191-.55,6.857.645,1.885,1.481,3.794,3.1,5.495,4.777,1.161,1.17,2.165,2.487,3.185,3.772,1.92,2.479,4.227,4.644,6.379,6.954.681.778,1.623,1.638,1.975,2.481l.023.056c.229.592.173,1.159.189,1.719-.018.55.113,1.24-.127,1.464-.101.095-.27.104-.547-.015-7.11-4.698-16.681-7.589-22.032-14.848-.592-.809-1.108-1.872-1.359-2.709-.068-.262-.072-.507.008-.719.222-.617-.501-2.95-.052-3.578M22.597,11.353l-.006.006c-.019.018-.014.149.014.141.786.384,1.681.712,2.474.787.052-.001.144.002.178-.031.006-.006.016-.015.016-.027.024-.088-.205-.276-.373-.391-.538-.379-1.254-.484-1.77-.529l-.049-.008c-.155-.033-.349-.076-.454.022-.009.009-.022.021-.029.033M34.127,24.468l.009-.009c.013-.036-.021-.105-.068-.161-1.295-1.116-2.968-2.067-4.333-3.17-2.602-1.936-5.169-4.372-7.762-6.209-.126-.065-.276-.156-.333-.103-.013.012-.022.033-.021.067l.005.025c.052.188.272.492.445.697,1.919,2.225,4.166,3.99,6.314,5.96,1.38.853,3.581,1.925,4.863,2.59.418.225.814.375.883.31M31.002,20.64c.082-.077-.305-.509-.53-.73-1.714-1.772-3.358-3.722-5.421-4.888-.27-.156-.526-.283-.813-.394l-.066-.027c-.433-.152-1.189-.403-1.293-.305-.038.035.005.113.169.256,2.497,1.963,4.88,4.317,7.535,5.942.261.146.383.181.417.148M22.882,18.286c.019-.018.032-.048.03-.082-.018-.095-.152-.225-.212-.34-.156-.274-.406-.579-.697-.567l-.021.002c.182.245.625.736.828.985.017.031.048.026.073.002M31.423,24.27s.009-.009.007-.018l-.011-.025c-.113-.209-.522-.329-.661-.282-.009.003-.015.003-.019.006-.028.027.039.13.134.194.197.141.499.172.55.125M15.699,6.806c-.192.18-.364.377-.521.589-1.208,1.677-.944,3.616-.754,5.033.015.111.034.258.049.381-.134.748-.096,1.53.108,2.31.011.043.022.086.036.127.395,1.319,1.133,2.79,1.971,3.937,4.208,5.711,10.513,9,16.079,11.904,2.518,1.315,4.901,2.555,7,3.942.189.125.384.233.592.322,2.102.934,3.954.236,4.989-.734,1.537-1.44,1.454-3.318,1.419-4.121,0-.07-.008-.141-.008-.211.002-.073.001-.138,0-.214,0-.077-.001-.153-.005-.233-.001-.627-.007-1.671-.458-2.848-.006-.012-.008-.022-.014-.034l-.023-.056c-.011-.025-.023-.056-.034-.081-.554-1.312-1.485-2.306-2.233-3.111-.151-.161-.302-.322-.437-.479l-.08-.085c-.674-.719-1.355-1.427-2.018-2.109-1.501-1.545-2.916-3.004-4.12-4.561l-.033-.035-.403-.506c-.94-1.193-1.916-2.424-3.083-3.6l-.027-.028c-1.63-1.613-3.543-3.276-5.84-5.082-.048-.038-.099-.074-.143-.109-2.595-1.859-8.655-2.913-11.715-.562-.104.079-.204.168-.302.259h0l.006-.006Z"/>
    </g>
    <g>
      <path class="d" d="M42.307,34.665c-.417.39-.932.637-1.544.736-2.757.663-5.484,1.559-8.122,2.419-6.646,2.179-13.517,4.428-21.42,3.228-.737-.11-1.174-.494-1.388-.678h0c-.085-.033-.215-.071-.312-.099-.248-.075-.558-.165-.871-.31-.027-.01-.054-.026-.078-.039-1.981-1.001-3.377-2.946-4.609-4.66l-.369-.514c-.021-.022-.035-.05-.053-.075-.42-.638-.798-1.231-1.141-2.072-.153-.372-.341-.889-.364-1.508-.04-.745.197-1.34.353-1.735.03-.076.073-.181.084-.227.286-1.364.778-2.471,1.49-3.381.029-.039.061-.075.092-.11.222-.244.453-.478.69-.7,6.191-5.801,15.859-2.681,24.391.068,4.172,1.347,8.114,2.62,11.155,2.728l.049.002c.351.021,1.276.078,2.018.8l.053.057c.056.06.139.148.186.217.63.85.606,1.791.592,2.296-.002.073-.008.15-.004.217.002.04.006.107.007.147,0,.113.005.227.011.334.025.729.071,1.948-.894,2.853h0v.006Z"/>
      <path d="M6.136,26.427c8.091-7.581,24.384,2.996,34.081,3.345.257.014.543.054.712.222l.027.028c.296.398.158.984.197,1.463.002.692.118,1.353-.238,1.687-.12.112-.291.189-.536.218-9.781,2.337-18.347,7.229-28.854,5.636-.222-.035-.288-.168-.572-.377-.405-.261-1.002-.342-1.466-.552-1.707-.86-3.004-2.833-4.251-4.55-.405-.616-.687-1.069-.954-1.72-.108-.261-.2-.536-.212-.815-.029-.524.276-.946.386-1.435.193-.933.509-1.816,1.105-2.571.187-.205.377-.401.573-.584M22.088,27.001c.189-.177-1.551-.568-1.868-.59l-.055-.008c-3.982-.5-9.376-1.361-12.579,1.641-.142.133-.278.272-.408.418-.19.379.248.277.484.156.516-.265.957-.547,1.494-.689,1.991-.544,5.143-1.133,7.472-1.235,1.695-.083,3.382.346,5.072.385.233-.011.353-.041.391-.076M12.878,37.391c.046-.103-.17-.232-.269-.299-1.382-.767-2.638-1.759-4.028-2.478l-.046-.011c-.094-.012-.153-.005-.181.022-.24.225,1.571,1.728,1.712,1.839.666.49,1.426.649,2.217.88.17.036.451.146.592.05M22.771,34.231c.079-.074-.002-.135-.372-.144-2.109-.05-8.113-.215-9.758-.238-.061.004-.114.012-.133.029-.013.012-.013.03.01.055,1.408.826,3.884.711,5.495.742l.055.002c1.092.014,2.519.057,3.67-.132.375-.043.903-.194,1.029-.312M26.736,35.434c.473-.444-1.153-.402-1.39-.357-1.975.156-4.279.525-6.31.804-.173.043-.59.079-.723.203-.022.021-.035.045-.042.069.124.246,2.556.325,3.241.246l.04-.002c1.327-.159,4.24-.446,5.127-.916l.05-.047M33.117,32.947c.237-.222-.042-.387-.416-.393-1.864-.073-3.673.437-5.499.867-.163.034-.405.118-.499.207-.085.08-.051.16.266.208l.052.005c1.769.067,4.241.086,5.927-.783.075-.04.128-.078.169-.117M3.351,23.455c-.278.26-.547.536-.804.818-.064.071-.127.143-.185.22-.887,1.128-1.491,2.463-1.852,4.076-.004.015-.013.03-.017.045-.19.486-.544,1.387-.488,2.585.04.941.315,1.696.519,2.192.411,1.002.859,1.714,1.323,2.411.035.05.067.097.102.147.12.166.243.335.363.501,1.3,1.811,2.921,4.066,5.347,5.289.054.026.105.049.16.076.392.178.755.294,1.034.376.418.313,1.105.724,2.077.869,8.372,1.27,15.479-1.057,22.347-3.308,2.579-.846,5.245-1.72,7.903-2.362.969-.173,1.837-.601,2.522-1.243,1.647-1.543,1.569-3.556,1.536-4.42-.003-.086-.006-.178-.01-.27,0-.07-.004-.144-.005-.214,0-.031-.001-.058.003-.086.015-.642.055-2.149-.995-3.56-.097-.129-.203-.254-.315-.374l-.027-.028-.106-.114c-.854-.835-1.971-1.3-3.324-1.378-.031,0-.064-.005-.095-.006-2.759-.099-6.571-1.327-10.604-2.633-4.308-1.391-8.759-2.827-13.079-3.295-5.674-.616-10.033.588-13.327,3.675h0l-.003.009Z"/>
    </g>
  </g>
</svg>