<?xml version="1.0" encoding="UTF-8"?>
<svg id="b" data-name="Layer 2" xmlns="http://www.w3.org/2000/svg" width="46.681" height="63.564" viewBox="0 0 46.681 63.564">
  <defs>
    <style>
      .d {
        fill: #d61f26;
      }
    </style>
  </defs>
  <g id="c" data-name="Layer 1">
    <g>
      <path class="d" d="M10.168,59.549c-.073-.068-.139-.136-.212-.204-.958-.963-3.466-4.314-4.097-5.196-.882-1.241-1.793-3.013-2.499-4.86-.194-.502-.178-1.062.041-1.556,1.109-2.487,1.938-4.579,2.604-6.586.245-.742.895-1.277,1.671-1.379.615-.081,1.219.123,1.657.534.12.112.225.234.315.372.122.186.295.413.499.675l.195.254c.751.988,1.58,1.913,2.462,2.894,1.562,1.742,3.175,3.544,4.397,5.762.091.162.158.338.2.52.158.166.287.352.382.56,1.314,2.855.93,5.44.591,7.724-.055.369-.209.717-.448,1.003-.718.868-1.754,1.385-2.914,1.459-1.6.101-3.411-.636-4.84-1.975h-.006Z"/>
      <path d="M7.944,41.785c.209.321.487.663.781,1.052,2.17,2.839,4.936,5.206,6.692,8.398,0,.196.063.42.226.65.055.081.115.149.178.208.035.033.072.062.11.091,1.057,2.3.757,4.366.428,6.576-1.125,1.358-3.35.647-4.793-.704l-.158-.148c-.781-.791-3.137-3.9-3.884-4.949-.85-1.193-1.665-2.852-2.254-4.4.987-2.204,1.905-4.449,2.677-6.772M13.762,55.182c.385.361,1.299.53,1.363.323-.838-3.109-2.552-6.397-4.991-8.683l-.177-.166,4.214,7.937-.564.33c.018.094.076.178.158.255M11.777,53.797c.36.337,1.606,1.22,1.607.777-1.659-2.106-3.082-4.44-4.666-6.588-.058-.078-.173-.233-.302-.354s-.27-.205-.365-.129c1.005,1.925,2.303,4.499,3.647,6.208.016.021.044.048.079.08M10.732,38.809h0c-.874-.819-2.087-1.226-3.308-1.067-1.548.203-2.847,1.274-3.34,2.755-.647,1.942-1.449,3.976-2.53,6.4-.436.984-.47,2.102-.086,3.108.445,1.176,1.4,3.433,2.746,5.317.574.798,3.2,4.326,4.307,5.446.086.092.174.175.265.261,1.83,1.715,4.208,2.656,6.36,2.522,1.728-.105,3.275-.884,4.356-2.188.474-.575.782-1.265.892-2.002.364-2.438.813-5.472-.757-8.875-.109-.244-.248-.475-.405-.694-.07-.178-.149-.347-.24-.515-1.333-2.423-3.028-4.313-4.667-6.138-.851-.951-1.657-1.849-2.36-2.769l-.204-.263c-.163-.212-.329-.427-.406-.547-.18-.276-.39-.526-.624-.745v-.006Z"/>
    </g>
    <g>
      <g>
        <path class="d" d="M15.325,47.841c-.275-.257-.543-.515-.802-.763l-.139-.13c-.369-.346-1.237-1.165-.992-2.376.143-.69.656-1.288,1.315-1.536.375-.141.787-.169,1.179-.075,1.289.307,2.326,1.066,3.238,1.736.251.188.498.366.742.53.016.009.034.02.05.035.601.427,1.241.825,1.89,1.202.172-.171.378-.315.611-.418.256-.115.53-.173.808-.179.413-.004.829.102,1.348.351.016.009.037.017.056.029.398.207.813.436,1.23.673.779.44,1.586.894,2.264,1.132.13.045.251.105.367.172.15.087.285.19.404.302.628.588.846,1.45.575,2.258-.569,1.689-3.129,1.999-3.413,2.029l-.061.008c-.046.005-.091.009-.14.011-1.097.045-2.15-.254-3.079-.515-.256-.074-.51-.146-.756-.205-.028-.008-.052-.014-.08-.022-.735-.209-1.375-.423-2.085-.792-1.639-.831-3.211-2.209-4.53-3.444v-.012Z"/>
        <path d="M27.499,50.021c.328.308-1.319.744-1.657.776l-.061.008c-1.051.034-2.253-.416-3.286-.667-.63-.175-1.143-.348-1.722-.648-1.397-.71-2.804-1.94-4.06-3.117-.325-.305-.635-.607-.938-.89-.123-.115-.499-.473-.363-.524,1.199.282,2.294,1.296,3.326,1.978,1.274.898,2.68,1.675,4.102,2.433.563.278,1.174.632,1.744.751.731.099.494-.438.039-.864-.041-.038-.088-.077-.129-.115l-.035-.033c-.167-.157-.7-.537-1.009-.827-.189-.177-.298-.321-.196-.367.107,0,.315.088.445.151,1.195.616,2.517,1.482,3.752,1.916.025.011.053.038.053.038M30.306,47.051h0c-.23-.216-.481-.403-.756-.566-.234-.136-.476-.251-.73-.34-.511-.182-1.237-.59-1.944-.986-.415-.234-.851-.477-1.293-.708-.04-.02-.078-.037-.118-.057-.507-.244-1.288-.561-2.248-.548-.471.003-.939.092-1.381.259-.25-.157-.497-.323-.732-.49-.035-.026-.066-.05-.103-.073-.188-.122-.419-.292-.661-.471-.965-.709-2.285-1.673-3.977-2.073-.786-.186-1.607-.131-2.363.15-1.342.503-2.312,1.639-2.593,3.04-.311,1.54.222,2.97,1.573,4.247l.148.139c.262.252.537.509.814.769,1.42,1.331,3.124,2.82,4.99,3.769.918.469,1.725.727,2.463.939.052.014.105.027.157.041.194.046.432.114.685.186,1.016.288,2.285.642,3.7.592.095-.006.189-.012.287-.022l.046-.005c.71-.075,1.543-.338,1.782-.416.651-.214,2.643-.872,3.354-2.991.522-1.544.083-3.27-1.113-4.391h0l.012.006Z"/>
      </g>
      <g>
        <path class="d" d="M20.825,44.431c-.691-.648-.851-1.704-.355-2.531.531-.889,1.646-1.238,2.586-.812,1.161.525,2.795,1.274,3.964,1.847.034.02.072.037.106.058l.065.038c.012.006,1.261.754,2.122,1.562,1.963,1.839.844,3.369.599,3.655l-.074.079c-.852.903-2.249,1.034-3.245.307-.279-.202-.912-.659-1.661-1.2-2.008-1.449-3.575-2.579-3.964-2.879-.053-.038-.104-.085-.151-.13l.006.006Z"/>
        <path d="M27.918,46.076c.366.343.597.666.441.851-.142.151-.401.181-.567.061-.84-.615-4.991-3.598-5.581-4.05,1.171.528,2.77,1.262,3.902,1.819l.037.023c.209.125,1.171.736,1.768,1.295M30.701,43.106h0c-1.035-.97-2.464-1.817-2.476-1.829-.022-.015-.047-.032-.072-.044l-.037-.023c-.065-.038-.134-.072-.202-.107-1.181-.58-2.843-1.342-4.026-1.876-1.885-.853-4.108-.157-5.173,1.618-.995,1.657-.679,3.767.706,5.065.095.089.195.177.302.259.414.317,1.931,1.412,4.027,2.925.739.533,1.366.984,1.648,1.189,1.824,1.324,4.367,1.082,5.92-.557.047-.05.094-.107.145-.161,1.311-1.545,1.634-4.223-.758-6.464l-.003.003Z"/>
      </g>
      <g>
        <path class="d" d="M6.754,42.916l-.145-.136c-.647-.606-1.262-1.271-1.858-1.913-.514-.558-1.002-1.087-1.501-1.567-.565-.548-.77-1.373-.516-2.119.436-1.281.81-2.553,1.119-3.787.187-.743.777-1.322,1.527-1.491.665-.147,1.351.045,1.84.503.057.053.107.107.158.166,4.376,1.996,8.722,3.853,12.417,5.412.661.281,1.553.607,2.5.95,2.95,1.07,6.288,2.283,8.052,3.936.496.47,2.568,3.034,2.86,4.316.118.538.133,3.438-.47,4.455-.484.82-1.428,1.429-2.135,1.798-2.404,1.256-5.92,1.505-8.556.612-3.496-1.183-6.511-3.689-8.951-5.715-.566-.483-5.581-4.72-6.341-5.414v-.006Z"/>
        <path d="M28.936,44.351l.009.009c.518.491,2.134,2.669,2.27,3.282.086.377-.046,2.642-.234,2.963-.232.393-.91.813-1.325,1.028-1.937,1.011-4.903,1.184-6.957.486-3.057-1.039-5.835-3.304-8.291-5.344,0,0-5.531-4.672-6.281-5.358l-.129-.121c-1.13-1.059-2.2-2.358-3.337-3.459.438-1.296.83-2.612,1.163-3.942l.277.337c4.261,1.954,8.58,3.808,12.898,5.632,2.628,1.111,7.957,2.626,9.936,4.48M22.211,42.939c.587.455,4.741,3.435,5.581,4.05.166.12.425.09.567-.061.156-.186-.075-.509-.441-.851-.6-.562-1.559-1.17-1.768-1.295l-.037-.023c-1.129-.554-2.731-1.291-3.902-1.819M25.986,51.484c.18.169,1.487.007,1.727.042.021.002.04.002.058.001.545-.076,1.066-.234,1.527-.542.24-.161.453-.357.654-.572-1.114.354-2.427.553-3.547.825-.136.038-.354.106-.432.176-.011.031-.007.052.015.073M16.721,46.364c1.256,1.177,2.664,2.407,4.06,3.117.576.296,1.092.466,1.722.648,1.036.254,2.238.704,3.286.667l.061-.008c.335-.035,1.986-.468,1.657-.776-.016-.015-.035-.026-.053-.038-1.235-.434-2.554-1.297-3.752-1.916-.134-.06-.338-.151-.445-.151-.103.046.006.189.196.367.309.29.842.67,1.009.827l.035.033c.047.038.088.077.129.115.458.429.692.963-.036.867-.57-.125-1.184-.475-1.744-.751-1.423-.758-2.828-1.536-4.102-2.433-1.032-.682-2.126-1.696-3.326-1.978-.139.053.24.408.363.524.297.29.616.589.938.89M31.721,41.372c-2.051-1.922-5.602-3.211-8.732-4.348-.922-.331-1.793-.648-2.404-.907-3.583-1.514-7.781-3.308-12.026-5.235-.974-.877-2.323-1.246-3.629-.953-1.497.339-2.684,1.492-3.057,2.985-.295,1.181-.656,2.402-1.069,3.633-.502,1.491-.1,3.136,1.031,4.231.455.444.924.949,1.422,1.487.618.668,1.259,1.357,1.959,2.014l.161.151c.769.703,5.47,4.681,6.404,5.467l.025.024c2.421,2.008,5.735,4.758,9.584,6.064,3.171,1.075,7.252.78,10.152-.734,1.369-.715,2.359-1.582,2.945-2.568.461-.783.663-1.631.778-3.253.125-1.797-.011-2.398-.075-2.69-.472-2.083-3.157-5.074-3.451-5.349l-.019-.018h0Z"/>
      </g>
    </g>
    <g>
      <path class="d" d="M6.633,23.767c-.322-.302-.564-.695-.717-1.176l-.106-.33c-.32-.999-.65-2.032-1.012-2.987-.191-.499-.264-.983-.261-1.454l-.095-.089-.028-.027c-.831-.808-1.409-2.126-1.444-3.285.002-.046,0-.089.002-.135,0,0,.003-.092.005-.113.059-.911.433-1.657.734-2.257.084-.159.164-.314.229-.473.011-.025.02-.047.031-.071.364-.768.697-1.629,1.018-2.465.104-.276.212-.548.316-.818.577-1.438,1.329-2.962,2.915-4.332,1.547-1.43,4.023-2.074,5.916-1.533.015.003.031.011.046.014.46.141.875.388,1.235.725.612.574.929,1.291,1.164,1.819,0,0,.036.075.04.09.229.546.483,1.199.632,1.95.211,1.128-.065,2.049-.289,2.787-.074.25-.146.491-.194.719-.003.015-.011.049-.013.065-.26,1.144-.557,2.435-.874,3.614-.253,1.156-.813,2-1.309,2.75-.143.216-.286.432-.422.659-.936,1.79-1.976,3.684-3.464,5.448-.435.546-1.15,1.429-2.31,1.516-.65.049-1.272-.173-1.749-.619v.006Z"/>
      <path d="M14.02,4.442c.319.299.517.763.712,1.207.206.495.406,1.009.512,1.553.18.933-.269,1.71-.474,2.72-.268,1.171-.557,2.453-.871,3.611-.23,1.124-.962,1.919-1.533,2.901-.942,1.808-1.919,3.559-3.256,5.145-.356.443-.794.974-1.088.699-.063-.059-.122-.161-.169-.313-.364-1.142-.73-2.308-1.151-3.42-.559-1.472.878-3.094,1.406-4.568.244-.589.56-1.224.304-1.463-.079-.074-.212-.109-.416-.1-.247.029-.445.063-.656.428-.4.781-.726,1.749-.929,2.49-.159.58-.29,1.056-.576.906-.423-.408-.811-1.222-.829-1.885v-.052c.052-.705.519-1.394.806-2.067.521-1.106.964-2.338,1.385-3.401.54-1.361,1.157-2.525,2.38-3.571,1.113-1.055,2.867-1.415,3.994-1.094.176.059.323.149.452.27M11.357,10.996c.054.05.275-.382.492-.683.297-.469.815-.813.942-1.322l-.004-.04c-.062-.13-.155-.24-.259-.337-.218-.204-.501-.363-.731-.567-.264-.206-.944-.44-1.009.021.045.243.232.461.338.696.03.063.074.117.122.161.129.121.303.183.449.267l.032.03c.133.124.053.298-.037.552-.129.371-.343.822-.349,1.202,0,.012.01.021.01.021M8.438,19.147c.066.062.17.053.318-.087.478-.631.438-1.498.678-2.21.34-1.122.81-2.275,1.174-3.404l.019-.065c.142-.436.168-.672.12-.717-.05-.047-.183.113-.358.464-.873,1.748-1.562,3.419-2.019,5.261-.06.216-.071.633.061.757M8.234,17.214c.243-.228.343-.834.213-1.081l-.021-.002c-.206.258-.373.86-.194,1.08M16.809,1.484h0c-.587-.55-1.267-.95-2.018-1.186-.031-.011-.065-.019-.096-.031-2.56-.734-5.765.074-7.832,1.971-1.907,1.656-2.814,3.503-3.456,5.112-.108.267-.212.542-.322.824-.311.799-.629,1.627-.961,2.329-.02.047-.043.096-.063.143-.037.078-.106.221-.175.358-.342.681-.859,1.714-.948,3.035-.005.037-.007.077-.008.117v.052c-.002.089-.005.181-.002.272.045,1.464.665,3.053,1.624,4.212.06.423.166.86.336,1.305.345.904.648,1.864.975,2.881l.109.333c.262.808.685,1.495,1.266,2.039.884.828,2.085,1.254,3.29,1.163,2.017-.148,3.204-1.591,3.736-2.26,1.596-1.9,2.729-3.956,3.665-5.746.093-.156.215-.337.341-.528.531-.8,1.254-1.889,1.591-3.393.322-1.204.616-2.498.879-3.645l.005-.025c.005-.031.013-.059.019-.089.029-.139.084-.324.151-.54.254-.853.643-2.135.337-3.756,0-.006,0-.018-.004-.027-.172-.872-.46-1.634-.746-2.322-.01-.027-.023-.057-.037-.088l-.02-.048c-.287-.648-.717-1.626-1.632-2.483l-.002.021Z"/>
    </g>
    <g>
      <path class="d" d="M2.829,33.134h0c-.852-.798-.805-1.892-.777-2.548.002-.116.011-.233.007-.343-.001-.037-.002-.073,0-.113.003-.092.003-.187.003-.282-.003-.548.004-1.294.328-2.14l.037-.096c.409-.98,1.172-1.794,1.846-2.514.166-.177.328-.35.476-.52l.038-.041c.659-.71,1.337-1.408,1.991-2.081,1.539-1.586,2.996-3.083,4.285-4.75l.402-.512c.905-1.149,1.845-2.336,2.944-3.446,1.577-1.557,3.431-3.168,5.668-4.93.024-.019.051-.035.075-.054,2.23-1.596,7.229-2.187,9.287-.602.053.038.104.085.151.13.095.089.18.187.257.295.734,1.019.559,2.313.385,3.567-.032.237-.079.578-.091.768.14.528.134,1.103-.019,1.677-.008.022-.011.043-.019.065-.328,1.097-.966,2.366-1.669,3.331-3.917,5.319-9.736,8.354-15.368,11.291-2.566,1.341-4.988,2.604-7.177,4.049-.093.061-.192.116-.295.163-1.502.667-2.5-.108-2.768-.36l.003-.003Z"/>
      <path d="M28.2,9.781c.449.628-.274,2.961-.052,3.578.08.212.076.456.008.719-.251.837-.767,1.9-1.359,2.709-5.35,7.26-14.921,10.15-22.032,14.848-.278.119-.446.109-.547.015-.24-.225-.109-.914-.127-1.464.015-.56-.04-1.128.189-1.719l.023-.056c.352-.844,1.294-1.703,1.975-2.481,2.152-2.31,4.459-4.474,6.379-6.954,1.02-1.284,2.023-2.602,3.185-3.772,1.702-1.677,3.61-3.296,5.495-4.777,1.665-1.195,5.689-1.543,6.857-.645M24.081,11.356c-.007-.012-.019-.024-.029-.033-.104-.098-.299-.055-.454-.022l-.049.008c-.516.044-1.231.15-1.77.529-.168.116-.397.304-.373.391,0,.012.01.021.016.027.035.033.126.03.178.031.793-.075,1.688-.404,2.474-.787.028.008.033-.123.014-.141l-.006-.006M12.551,24.465c.069.065.465-.086.883-.31,1.282-.666,3.483-1.738,4.863-2.59,2.148-1.97,4.394-3.735,6.314-5.96.174-.205.393-.508.445-.697l.005-.025c.002-.034-.008-.055-.021-.067-.057-.053-.207.037-.333.103-2.593,1.837-5.16,4.274-7.762,6.209-1.365,1.103-3.039,2.054-4.333,3.17-.047.057-.082.125-.068.161l.009.009M15.682,20.643c.035.033.156-.002.417-.148,2.655-1.625,5.038-3.979,7.535-5.942.164-.143.207-.221.169-.256-.104-.098-.861.153-1.293.305l-.066.027c-.287.11-.543.238-.813.394-2.064,1.165-3.708,3.116-5.421,4.888-.225.221-.612.653-.53.73M23.799,18.286c.025.024.056.029.073-.002.203-.248.646-.74.828-.985l-.021-.002c-.291-.012-.541.293-.697.567-.061.115-.194.245-.212.34-.002.034.011.064.03.082M15.259,24.27c.05.047.352.016.55-.125.096-.064.163-.167.134-.194-.003-.003-.009-.003-.019-.006-.139-.047-.548.073-.661.282l-.011.025c-.003.009.007.018.007.018M30.988,6.812h0c-.098-.092-.199-.18-.302-.259-3.059-2.351-9.12-1.297-11.715.562-.045.035-.096.07-.143.109-2.297,1.806-4.21,3.469-5.84,5.082l-.027.028c-1.167,1.176-2.143,2.407-3.083,3.6l-.403.506-.033.035c-1.204,1.557-2.619,3.016-4.12,4.561-.663.682-1.344,1.39-2.018,2.109l-.08.085c-.136.157-.286.318-.437.479-.748.804-1.679,1.799-2.233,3.111-.011.025-.023.056-.034.081l-.023.056c-.006.012-.008.022-.014.034C.033,28.167.027,29.211.026,29.838c-.004.08-.004.156-.005.233,0,.077-.002.141,0,.214,0,.07-.008.141-.008.211-.035.803-.118,2.681,1.419,4.121,1.035.97,2.887,1.668,4.989.734.208-.089.404-.197.592-.322,2.1-1.387,4.482-2.627,7-3.942,5.566-2.904,11.871-6.193,16.079-11.904.838-1.147,1.576-2.618,1.971-3.937.014-.04.025-.083.036-.127.204-.781.243-1.562.108-2.31.014-.123.034-.27.049-.381.189-1.417.454-3.356-.754-5.033-.157-.212-.328-.408-.521-.589l.006.006Z"/>
    </g>
    <g>
      <path class="d" d="M4.374,34.659h0c-.966-.905-.92-2.124-.894-2.853.006-.107.011-.221.011-.334.002-.04.006-.107.007-.147.004-.067-.002-.144-.004-.217-.013-.504-.038-1.446.592-2.296.047-.069.13-.157.186-.217l.053-.057c.741-.722,1.667-.779,2.018-.8l.049-.002c3.041-.108,6.983-1.381,11.155-2.728,8.532-2.75,18.2-5.87,24.391-.068.237.222.468.456.69.7.032.036.064.071.092.11.712.91,1.204,2.017,1.49,3.381.011.046.054.151.084.227.157.396.393.991.353,1.735-.023.619-.211,1.136-.364,1.508-.343.84-.721,1.434-1.141,2.072-.018.025-.032.053-.053.075l-.369.514c-1.232,1.714-2.628,3.659-4.609,4.66-.024.013-.051.029-.078.039-.313.145-.623.234-.871.31-.097.028-.227.066-.312.099h0c-.214.184-.652.569-1.388.678-7.903,1.199-14.775-1.049-21.42-3.228-2.638-.86-5.365-1.756-8.122-2.419-.612-.099-1.128-.346-1.544-.736v-.006Z"/>
      <path d="M40.548,26.424c.196.183.386.379.573.584.597.755.913,1.638,1.105,2.571.111.489.415.91.386,1.435-.012.279-.104.554-.212.815-.266.651-.548,1.104-.954,1.72-1.247,1.717-2.545,3.69-4.251,4.55-.464.211-1.061.292-1.466.552-.284.208-.35.342-.572.377-10.506,1.593-19.073-3.299-28.854-5.636-.246-.029-.416-.106-.536-.218-.357-.334-.24-.996-.238-1.687.04-.479-.099-1.065.197-1.463l.027-.028c.169-.168.455-.208.712-.222,9.696-.349,25.99-10.926,34.081-3.345M24.59,27.004c.038.035.158.065.391.076,1.691-.04,3.378-.468,5.072-.385,2.329.102,5.481.691,7.472,1.235.537.142.978.424,1.494.689.236.121.674.223.484-.156-.13-.146-.266-.285-.408-.418-3.203-3.001-8.596-2.14-12.579-1.641l-.055.008c-.317.023-2.058.413-1.868.59M33.807,37.394c.141.096.422-.014.592-.05.791-.231,1.551-.39,2.217-.88.14-.112,1.951-1.615,1.712-1.839-.028-.027-.087-.034-.181-.022l-.046.011c-1.39.718-2.646,1.711-4.028,2.478-.099.067-.315.197-.269.299M23.914,34.234c.126.118.654.269,1.029.312,1.15.189,2.578.146,3.67.132l.055-.002c1.611-.031,4.087.084,5.495-.742.024-.025.023-.044.01-.055-.019-.018-.071-.025-.133-.029-1.645.023-7.649.188-9.758.238-.37.009-.451.07-.372.144M19.951,35.434l.05.047c.887.47,3.8.758,5.127.916l.04.002c.685.079,3.118,0,3.241-.246-.007-.024-.02-.048-.042-.069-.133-.124-.55-.16-.723-.203-2.031-.28-4.335-.648-6.31-.804-.237-.044-1.863-.086-1.39.357M13.564,32.94c.041.038.094.076.169.117,1.687.869,4.158.85,5.927.783l.052-.005c.317-.047.351-.128.266-.208-.095-.089-.336-.173-.499-.207-1.825-.43-3.635-.94-5.499-.867-.373.006-.652.171-.416.393M43.327,23.445h0c-3.295-3.087-7.654-4.291-13.327-3.675-4.32.468-8.771,1.904-13.079,3.295-4.033,1.306-7.845,2.534-10.604,2.633-.031,0-.064.005-.095.006-1.353.078-2.47.542-3.324,1.378l-.106.114-.027.028c-.112.12-.218.246-.315.374-1.049,1.411-1.01,2.918-.995,3.56.004.027.002.055.003.086,0,.07-.004.144-.005.214-.003.092-.006.184-.01.27-.033.864-.111,2.876,1.536,4.42.685.642,1.552,1.069,2.522,1.243,2.658.642,5.324,1.516,7.903,2.362,6.868,2.252,13.975,4.578,22.347,3.308.971-.145,1.659-.556,2.077-.869.279-.082.642-.198,1.034-.376.054-.026.105-.049.16-.076,2.426-1.223,4.048-3.479,5.347-5.289.12-.166.243-.335.363-.501.035-.05.067-.097.102-.147.464-.697.912-1.409,1.323-2.411.204-.496.479-1.252.519-2.192.056-1.198-.298-2.098-.488-2.585-.004-.015-.013-.03-.017-.045-.361-1.613-.965-2.949-1.852-4.076-.058-.078-.121-.149-.185-.22-.257-.282-.526-.558-.804-.818l-.003-.009Z"/>
    </g>
  </g>
</svg>