<?xml version="1.0" encoding="UTF-8"?>
<svg id="Layer_2" data-name="Layer 2" xmlns="http://www.w3.org/2000/svg" viewBox="0 0 536.73 392.83">
  <g id="Layer_1-2" data-name="Layer 1">
    <g>
      <path d="M171.08,372.52l1.95-1c-.82,6.1,4.76,3.56,4.03,7.99l1.78-.69,1.68,1.69c.7-.97,2.04-.92.86-2.01-3.85-3.6-8.65-7.52-9.47-12.87-.58-.4-1.46.06-1.87-.1.21.84-.49,5,1.03,6.99Z"/>
      <path d="M218.95,72.23c-1.44,1.26-6.2,1.77-4.44,5.55,4.84-4.62,8.96-7.18,15.48-8.98.97,2.64-1.81,1.62-2.01,2.66-.24,1.26.47,3.55-.12,4.21-.29.33-2.11-.05-3.32,1.18-2.4,2.46-8,14.24-8.67,14.78-.7.58-2.9-.12-4.14.16-.84.19-.82,1.78-1.98,2.31-4.7,2.12-8.11,1.37-8.72,8.67l9.5-6.81,3.46,3.79c1.58-1.59,1.75-4.89,2.27-5.73.57-.93,2.89-3.58,3.63-5.08.95-1.93,1.94-3.97,2.13-6.16l2.48,2.97c4.88-1.32,3.34-6.54,5-9.05.75-1.13,2.48.21,3.46-.4,2.69-1.69,6.03-15.11,5.04-18.5-4.94,2.9-12.26,6.31-16.38,10.1-1.6,1.47-1.5,3.32-2.66,4.33Z"/>
      <path d="M339.41,28.83l-2.04,2.98c3.31,3.08,5.31,6.32,4.54,11.01.65.08,1.37-.1,2,0-.43-2.95.25-7.1-2.46-10.07-1.49-1.63-2.85.68-2.03-3.91Z"/>
      <path d="M335.67,133.86c-.04.13-.07.26-.11.38l-1.13,1.4-3.52-.9c.56,1.01.05,3.35.3,3.82.24.46,2.14-.48,1.69,1.15-4.23,3.15-3.57,1.78-7.72.41-.62-.21-1.73.6-2.1.34-.43-.29.48-2.62-2.15-1.72l3,4.5c.73,2.56-5.24,1.49-6,2.5.91,2.3,4.53,3.15,2.99,5.97,5.04-1.02,4.94-6.08,7.5-8.98l.99,1.99c4.54-3.68,7.76-5.73,8.28-11.04-.67.13-1.35.19-2.02.18Z"/>
      <path d="M532.31,174.62c-8.93-.9-19.95,2.79-28.62.46-13.31-3.58-31.29-18.08-42.54-25.75-2.18-1.48-2.02-3.86-2.47-4.42-.16-.2-1.46.47-1.86.16-2.21-1.7-3.88-4.3-7.02-4.35l1.02-2.97c-3.63-.2-5.56-3.38-8.13-5.43-.71-.57-2.36-.37-2.76-.69-.14-.11.89-2.05-.38-3.58-8.5-10.26-43.16-12.34-56.23-12.71-6.12-.17-12.3.24-18.45.42l9-2.99-.02-2.99-1.48,1.99c-2.89-2.06-.45-5.43-3.41-6.64l1.86-6.24-13.43-4.1,2.48,5-4.05-.49-.97-5.51c-5.15.37-13.58-2.69-18.48-4.97-.74-.34-6.24-2.52-4.47-4.01,4.2.35,6.5-1,9.86-3.13l-2.87-6.87c4.99.14,6.89-1.06,7.1-5.91,4.99,1.48,4.48-3.92,6.14-4.87,6.85-3.9,16.77-8.25,25.34-9.1,2.97-.29,8.29-.17,10.37,1.88l.99-1.99c-.12.73.03,1.63.74,1.95,4.26,1.94,12.91,4.99,17.26,5.04l-.51,2.01c3.69-.41,3.28,3.9,4.76,4.75,2.78,1.59,7.53,2.99,10.42,5.54,2.09,1.85,3.09,6.1,4.75,7.73,3.46,3.39,7.77,6.28,10.01,11.97.65,1.64.66,3.24.55,4.95l2.98-1.01c.92,2.54,1.95,5.85,3.09,8.21.44.9,1.74.92,2.21,2.03,2.39,5.77-.09,16.78,7.7,15.74-2.29-3.6-.8-8.77-1.7-11.78-1.71-5.74-8.76-12.03-7.28-18.18-4.04,1.03-7.31-2.84-4-5.99-6.2.41-4.52-3.11-6.56-5.94-1.32-1.83-6.51-5.52-7.88-8.07-.73-1.36-.31-3.5-.67-3.87-.31-.32-2.55-.05-3.79-.68-3.19-1.63-7.13-6.13-5.1-9.43-5.87,4.62-12.57-3.27-18.05-5.46-1.51-.61-6.68-.27-8.9-2.06l-1.03-1,3-10.46c-3.49-.21-3.74,4.57-3.06,6.91-4.03-.87-2.29,2.35-3.59,3.13-1.45.86-5.82.38-6.92-1.01.35-3.5,1.87-6.88,1.64-10.52-.22-3.45-2.2-5.35-1.06-8.5l-2.66,1.49,1.66,8.49h-3.99c2.61,4.13-.87,6.29-2.01,9.98l-1-1.99-2.98,2c-.37-1.94.8-3.77.84-5.62.06-2.68-.42-13.62-.87-15.65-.13-.58-2.99-1.22-2-3.7-1.43-.21-1.92,2.7-1.88,3.53.13,2.36,2.67,8.01,2.8,11.04.24,5.69-4.33,6.41-1.9,11.4l-4.99,1.01.9-4.58-1.91-.91,1.87-5.88-3.39-11.6c-2.31-.67-1.73,3.55-1.57,4.55.28,1.8,1.72,1.45,1.77,1.64,1.21,4.73-.21,7.48-.19,11.28.01,2.25,1.44,4.25,1.5,6.49l-4.98.99,1.85-7.39-2.85-1.59c.53,2.23-.08,5.93-.64,8.07-.47,1.79.01,2.26-2.35,1.9l.99-3.99-2.99.99,1.05-2.41c-3.95-1.02.3-4.24-2.23-7.43-.52-.41-1.26-.06-1.82-.14.58,3.99-.35,9.63,3.99,11.47l-3.5,9.52-5.2-5.2-.27-14.79-5-1.01c.2,2.81,2.68,2.51,3.48,5.99.49,2.11-.19,5.62.5,8l-1.98-1.01c-.91,1.32,1.91,7.65-2,7.02l3.96,5.48c-2.17,3.09-5.78.25-8.92.45l-.03-3.96h-4.02s1.01-1.98,1.01-1.98c-4.42,1.23-8.16-3.18-12.93-3.52-1.22-.09-6.46.89-8.37.57-.45-.08-2.36-4.38-6.23-5.05l-.94,2c-.78-1.4-2.09-1.11-3.26-1.48-.66-.21-4.07-1.72-5.75-2.04-.98-.19-2.92.96-3.42.47-.39-.38.17-4.07-2.94-4.07l.86-2.87-5.99-.02-.99,4-1.06-6.45,9.04-4.55-.81-1.8c3.46-2.07,7.18-3.8,10.69-5.77,1.3-.73,2.2-2.5,3.08-2.86.97-.4,2.58.71,2.94.44.39-.29.37-2.83,1.31-3.75.65-.64,7.53-2.94,9.5-3.94,10.34-5.29,23.46-10.15,35.68-8.24l1.04-2.03,4.09,2.05,1.88-2.04c6.68,2.82,14.65,2.37,21.79,4.05.69.16,1.26,3.06,5.11.93l.63,2,1.97-1.98c-.17,3.03,4.47,2.54,7.01,3.49,4.68,1.75,11.46,3.89,15.66,5.8,1.93.88,3.3,4.83,6.2,2.74,4.38,5.62,14.64,9.19,17.16,16.92,2.48-2.36,4.09,4.21,5.89,6.35,4.75,5.65,7.28,6.74,10.93,14.47,2.02,4.29,5.46,8.7,4.11,13.16l2.99.04,3.66,31.95c-1.96,3.81-6.49,9.26-.66,11.97,1.04-1.87.93-6.52,1.34-7.77.05-.16,1.38-.25,1.57-.98,1.57-5.79,2.13-16.9,1.13-22.57-.13-.72-1.67-.52-1.81-1.14-.35-1.6.57-5.67.12-7.52-1.68-6.8-6.67-14.43-9.05-20.27-1.83-4.5-1.15-4.42-4.69-8.34-24.13-26.73-38.88-38.11-75.31-46.03-4.16-.9-7.77-3.72-12.56-3.33l-1.13,2.05c-4.19-3.2-10.29-.39-14.95-2.03l-.99,1.93c-6.18-2.36-12.89,2.18-19.05,3.1l.46-1.95c-4.06-1.79-8.05-3.48-12.19-5.13-.71-.28-.72-1.73-1.47-1.9-6.25-1.36-27.97-2.6-34.32-1.4-.65.12-1.27.42-1.95.38l1.01,1.98-11.99.99c.53,6.69-.8,2.74-4.28,3.2-3.08.4-5.11,4.56-8.64,2.84.36,4.71-6.77,4.81-10.03,7.54-.18.15-2.67,3.45-2.75,3.66-.1.25,1.25,5.13-1.78-.24-1.41,1.26-2.56,2.8-4.01,4.02-4.05,3.39-7.87,6.56-12.73,9.94-1.13.79-1.37,2.5-2.99,3.3-4.08,2.02-9.38-3.09-10.64-2.21-1.57,6.26-10.02,7.08-10.09,13.91.96,1,6-3.16,4.99,1-5.16-.35-6.77,7.45-9.53,10.05-.89.84-2.22-.08-2.34.12-1.85,3.16-12.96,15.1-16.86,17.77-4.32,2.95-11.56,4.31-15.88,7.4-7.15,5.12-9.13,12.41-13.7,18.64-.32.43.32,1.67.17,1.83-1.52,1.57-9.39,2.16-11.8,1.16,1.37,3.16,3.54,3.47,6.44,1.94l.57,2.04,3.97-1.99.89,3.55c-3.06.8-1.49,3.22-2.11,5.7-1.23,4.83-5.13,12.71-5.74,15.42-.4,1.76.53,5.23-.15,6.18-.43.6-2.87.44-3.64,1.35-.72.86-.94,4.76-1.84,6.67-2.15,4.57-11.79,15.43-15.42,19.83-1.33,1.62-.47,4.38-4.91,4.3l.98,1.94h-3.03s1.03,2,1.03,2c-4.07-.91-2.8,2.14-4.3,3.72-1.63,1.71-5.25,2.63-6.36,3.62-7.42,6.64-12.75,13.31-21.37,20.11-1.08.85-3.51,1.28-3.79,1.72-.56.89.23,2.84-.29,3.65-1.01,1.57-4.51-1.23-4.74,7.62-.19,7.43,3.39,11.17-4.71,17.43l.13,11.11-38.51,1.48c-.42,2.5,5.08,3.18,6.61,3.36,4.34.52,10.35.9,14.83,1.16,6.08.35,13.44-2.65,17.35,2.45-3.99,4.15-.12,2.71,1.24,5.89,1.75,4.06,4.33,10.01,8.66,12.57,7.83,4.64,22.11,6.48,30.62,4.99,11.79-2.06,25.77-6.76,37.55-8.51,2.05-.3,3.7.85,6.06.15,4.21-1.26,8.98-12.61,15.54-13.56,5.3-.76,8.08,2.48,10.91,2.56.72.02,15.3-4.48,12.02,1.44l-80.96,60c-.56-.06-8.11-6.98-8.51-7.53-6.05-8.34-5.24-7.75-13.35-14.72-16.85-14.49-36.27-29.91-54.5-42.37-3.89-2.66-7.49-8.6-12.11-4.71-2.4,12.76-4.04,25.83-4.77,38.76-.71,12.63-.77,24.9-2.25,37.91-1.46,12.88-5.91,30.49-5.02,43.02.15,2.11,1.72,4.49,3.53,5.53,5.04,2.9,20.8,1.88,27.17,4.63,27.79-.92,55.75,4.08,83.76,7.81,4.03.54,9.61.68,13.49-.48-.25.51-.47,1.03-.7,1.54,1.65.33,3.23.83,4.72,1.47l-1.01-1,9.39-.99,1.08,1.99,3.5-3c-.55,3.47,2.68,1.02,5.1,1.28,8.27.88,14.38.67,22.02,1.3,4.07.34,16.99,3.92,19.25,2.34.6-.42,1.23-.72,1.34-1.55-1.35-11.65.35-23.21.27-34.9-.12-18.15.8-37.02-.03-54.91-.13-2.73-2.52-7.46-2.52-8.96,0-2.37,1.58-5.45,1.36-8.87-.18-2.82-1.35-5.84-1.84-8.63l-1.97,7.5c-1.26,10.08.42,22.6-1.06,31.9-.47,2.95-3.87,3.71.04,7.53-3.42-.4.49,2.5-2.97,2.03l2.98,1c.43,1.68-1.61.51-1.88,1.46-.54,1.95,2,8.9-1.12,11.04l2.01.93-2,4.09c3.2.38,1.51,3.31-.99,3.47l2.99,2c-4.12,5.25,0,12.14-2,17.96l3.99-1.98.16,16.5c2.08-.35,1.88,7.78.33,8.45-2.49,1.08-1.57-3.33-1.67-3.53-1.23-2.42-4.65-.99-3.27,2.59l-3.52,1.94-.13-1.78c-4.29-.3-11.01.82-11.89-4.18h-1.99s1.02,1.97,1.02,1.97c-3.21-1.32-7.24.62-9.49.57-2.98-.07-7.28-3.26-9.18-3.38-1.35-.08-3.63.48-7.27.25-8.44-.52-19.48.08-26.45-2.53l-20.94.12-1.12-2.03-1.06,2.03-8.9-2.08-1.51,2.05c.51-2.57-4.36-2.06-6.39-2.99l-1.61,2c-.91-5.45-5.01-1.49-6.52-1.37-1.15.09-4.15-2.13-6.21-2.39-10.86-1.38-24.3-.77-35.49-.45l-20.74-4.29c-.21-1.12,1.8-2.43,2.02-4.04.68-4.79-.39-15.77.26-19.77.31-1.93,2.16-5.22,2.98-9.87,4.29-24.54,2.58-50.44,6.41-75.33.26-1.67-1.89-3.96.9-5.32,3.56-1.01,18.13,14.54,21.75,17.59,9.75,8.21,14.4,10.07,22.63,20.84,2.64,3.46,6.57,6.43,8.7,8.78,1.98,2.18,3.61,5.33,6.27,7.23l-49.94,43.44c5.94.79,8.43-5.36,12.1-8.37,5.71-4.67,12.54-8.84,18.34-13.62,7.28-6,13.97-12.71,21.23-18.78,2.95-1.05,4.67,2.4,7.36,4.21,1.86,1.25,4.35,1.91,5.87,3.13,3.78,3.04,4.02,7.86,11.41,7.21l22.25-17.49,4.34.75c-2.11,5.36,2.8,6.79,4.94,9.78,5.5,7.69,10.76,17.47,16.04,24.7,3.34,4.58,10.13,8.32,13.48,12.57,1.53,1.94.51,3.66.67,3.77.73.54,4.91,2.78,5.85,3.13-1.54-6.14-25.66-35.36-31.33-43.2-1.96-2.71-4.12-7.44-5.97-10.46l-4.65-2.78c.62-4.65,2.73-3.05,4.68-4.82,12.47-11.36,28.68-25.44,42.76-34.67,2.23-1.46,6.17-2.13,8.77-3.96,2.53-1.79,2.6-6.52,5.24.98,2.17-1.88,2.19-4.45,1.51-6.99l1.98,1.01c1.61-6.06-1.1-7.71-6.75-8.74-8.06-1.47-17.04-1.2-25.22-1.27,3.43-8.03-4.45-2.16-7.32.18-2.31,1.88-5.05,6.18-7.47,7.51-2.53,1.4-4.51.85-5.97,1.59-.31.16-4.43,4.43-5.01,4.68-5.06,2.19-19.95,1.6-25.53,3.11-2.68.73-9.75,4.87-13.38,5.69-2.91.65-6.08-.48-8.84,1.15l-.91-1.91-2.49,1.99c.33-3.84-2.18-.62-4.31-1.13-2.7-.65-11.25-6.87-12.89-9.61l-1.74.73c-2.51-5.87-3.45-17.08-2.03-23.26.16-.69,1.56-.52,1.91-1.43.77-2.02.73-8.11,5.06-8.24-.91,5.08,1.73,9.61,2.53,15.04.44,2.93-1.94,7.99,2.46,7.93.47-1.79-.69-4.02-.54-5.53.42-4.18,5.58-10.58,8.88-13.12,5.28-4.06,11.33-6.76,18.1-6.36,5.23.3,7.97,3.07,13.78.77,3-1.19,10.98-8.38,6.79-11.26-1.17-.8-5.13-.7-7.25-1.54-8.31-3.31-17.31-10.15-25.26-12.65-2.32-.73-6.21-.47-8.49-1.76.55-.94,2.17-1.12,2.68-1.79,12.42-16.18,30.76-28.27,42.1-46.35,11.46-18.28,14.84-37.74,20.34-58.14l2.82-.13c-2.54-2.9,5.45-7.93,8.08-9.39,4.95-2.75,12.29-3.85,17.65-6.26,5.5-2.47,11.26-5.19,15.22-9.82-5.63-2.75-7.77,5.28-12.98,4.01,7.3-6.45,13.88-13.83,20.61-20.83,4.88-5.08,2.74-2.55,8.66-5.9,1.64-.93,3.19-4.07,4.53-4.69,3.27-1.51,8.94-.33,12.11.35,1,.21,2.27-.58,2.82-.23.43.28.65,1.65,1.33,2.18,3.86,3,9.66,7.38,10.9,11.62,2.42-1.42,4.21-3.71,4.5-3.83.21-.08,3.32.47,4.61.22,3.97-.78,7.85-1.99,11.88-2.38l.5,4.98c2.86-3.29,7.98-.8,8.94-3.89l3.56.91-1.01,1.98c6.01-.66,9.96,0,13.67,4.97l4.82-1.96.92,1.95,7.1-1.7c2.89,8.43,8.16,2.45,12.89,2.72.65.04.54,1.71,1.04,1.8,1.27.24,5.86-.27,6.44.31.31.3-.04,5.08,2.58,5.9l-.37-3.52c7.97-4.03,2.84,2.63,2.88,3.03.26,2.32,3.2.37,4.42.49,1.89.18,3,2.85,5.54,1.01l-2.1,5.52c-.05,1.76,3.32,1.29,2.15,4.96-2.14.49-7.98,4.77-8.06,7,1.9.22,2.74,3.5,2.9,5.9.6-.11,1.22-.18,1.86-.18.14,0,.27.02.41.02.95-1.22,2.54-2.01,5.06-2.08.89-.03,8.8,2.45,9.2,2.72,1.04.72.38,2.86,1.08,4.08,1.4,2.41,12.37,2.25,15.48,3.05-1.89,2.41-3.33,1.36-3.09,5.5.24,4.1,3.92,2.4,3.1,6.47l-6.98-.99v2.97c2.9-.37,5.18,1.85,7.47,2.48,12.95,3.58,27.26.41,40.03,1.04,4.52.22,14.83,3.26,17.93,4.34,1.43.49,6.34.36,9.48,1.88,4.15,2.01,6.79,6.49,11,7.27l-1.99,1.48c4.89,5.25,12.46,8.41,14.49,15.49l.99-2.01,2,2.99,2.49-1.98c-.83,3.13,2.98,2.68,1.01,4.99,6.5-.55,3.95,1.57,6.01,3.47,6.29,5.82,29.23,19.16,37.57,21.5,7.63,2.13,18.36-.8,26.36.02.33,6.36-2.12,5.04-5.11,7.42-1.72,1.37-1.03,2.99-1.3,3.31-1.92,2.22-5.75,5.88-8.55,6.31l.96,1.91c-6.17,3.07-9.09-.25-13.91-1.53-4.51-1.2-10.91-2.2-15.05-4.09-2.03-.92-4.26-4.37-4.58-4.35-5.61.27-2.91-.87-4.01-.98-5.28-.54-10.9.93-15.9-.24-15.93-3.72-38.44.27-55.64,4.53-2.86.71-4.86,3.8-8.79,1.69-2.88,7.2,6.92.79,10.98,2,.03,1.37-.24,2.94.23,4.25.69,1.9,6.68,12.35,8.02,13.49.77.65,3.04.31,3.73,1.76l-.63,2.5-3.22.12c-1.39,2.45-.82,5.19.83,7.4,2.27,3.03,4.53,1.48,4.02,7.46-7.79-5.07-1.59,1.07-.85,4.85l5.86.15c1.04-3.59-3.1-6.11-3.66-7.22-.3-.59.3-2.39-.51-4-1.14-2.26-3.9-3.09-3.81-5.75l3.01-.52c.14,4.44,4.38,2.57,5.06,6.45l3.47-1.93-1.56-6.01-2.99,1-1.98-6.49c2.59-1.79,3.85,2.51,6.96,2.5l-1.19-5.83c-4.24-1.23-7.41-5.54-11.29-8.13-1.53.9-1.5,2.16-.55,3.41,1.11,1.46,4.1-.96,3.04,3.56-1.93-1.58-9.67-5.61-7.97-7.99l3.98.51-6.99-6.49c4.14,1.65,5.1-1.92,5.43-1.9,3.22.18,6.09,3.15,8.06-2.1,1.79.71.38,2.9.52,2.96.7.3,2.29-.33,3.24.06,2.26.93,9.09,4.47,10.2,4.75,1.62.41,4.88-.04,6.92,1.08l1.59-2.85h-6s0-3,0-3c4.6,1.66,11.63-4.06,13.99-.01-3.75-1-9.21,3.51-6.02,6.53.7.66,11.57,2.67,13.52,3,6.11,1.02,13.24,1.65,19.88,1.56,1.09-.01,2.34,1.12,3.61.9l-1.02-1.98c5.72.66,11.01-1.3,16.6-1.6,3.85-.2,8.42,1.23,12.83.54.48-.08,7.27-2.32,7.6-2.54,1.38-.9,1.56-2.68,2.17-3.1.62-.43,4.89-.9,5.78-3.81l8.99-14.96c-1.31-.16-3.77-2.52-4.42-2.59ZM93.22,211.56l2.73-.77c.22.57.32,1.63.85,1.89,1.75.86,20.64,8.1,19.3,9.97-2.6.82-7.43,2.35-9.93,2.53-1.96.14-4.89-2.93-7.58.49l-1.03-2.06c-4.24,2.35-13.69,2.3-14.47,7.3-5.27,3.11-1.59-3.37-1.97-6.24l-4.97,4.98c-1.34-1.48-1.19-5.14-1.63-6.01-.29-.57-1.85-.71-2.35-1.77-1.1-2.36-.61-6.44-2.95-6.26l-.07-1.42c2.58-3.76,5.92-8.72,11.32-8.25,1.46.13,12.84,3.53,12.75,5.62ZM272.96,38.81c-6.68,1.6-12.52,8.44-18.79,10.78-3.42,1.28-7.32-.1-9.54.55-1.89.55-4.36,3.86-6.16,4.66-2.1.93-.95-.2-1.06-1.03-.34-2.72-.25-5.85-.93-8.51-.6-2.35-2.67-9.71-5.47-7.43l-1.17,4.84c-3.47.34-3.69-3.43-7.85-2.86-.83-.85,3.1-4.53,3.79-5,5.02-3.42,9.99-6.78,15.94-10.72,3.34-2.21,6.04-6.78,10.19-5.3l.18-2.78c4.37.75,6.52-2.96,8.71-4.06,12.48-6.28,34.2-9.44,48.35-3.83,2.36.94,4.42,3.94,7.76,3.73-2.89,3.95-8.6,4.01-12.53,5.94-1.38.68-3.43,2.23-4.84,3.19-3.87,2.63-7.46,3.82-11.56,6.44-1.71,1.09-2.39,4.7-7.03,3.41v-7s-2,1.02-2,1.02v-3.01s-3.01,0-3.01,0c.55,3.67,6.41,8.23,2.74,12.68-3.84,4.66-8.13-2.65-12.72-3.69-1.06,3.65,8.86,5.41,6.98,7.98ZM456.92,198.21c-1.61-.36-5.97.62-7.1-.54-.88-.9-.78-1.95,1.26-1.71,6.16.74,14.12-2.74,20.72-2.27l-6.97,3.49,1.98,3.49c-3.71.53-6.86-1.79-9.88-2.46ZM490.77,200.67c-4.43-1.27-12.87,3.52-15.41-.89l-7.56.88c-.12-1.6,3.18-1.49,4.31-1.6,2.98-.32,7.38.86,9.73.14,2.37-.73,2.84-4.57,6.7-3.27.47.16,3.19,3.71,2.23,4.75Z"/>
      <path d="M295.64,128.22c1.42.56,4.47,3.24,5.56,3.84,1.57.85,4.6.93,5.17,1.67,2.22,2.93,3.82,7.78,5.34,10.7,1.2,2.31,3.04,4.43,4.21,6.8-3.66.97-5.14-1.88-6.97,3l2.97,1.51v1.45c-5.06,6.43-13.87,11.42-21.98,10.51l.78-1.49c-.11-.97-3.28.16-.78-2.01l14.99-3.49-1.01-2.99c-8.52,5.77-17.66,5.84-26.91,1.93-.81-1.93.59-3.75,2.46-3.93.35-.03.46,1.69,1.73,2.31,6.66,3.24,24-1.36,28.67-7.91.39-1.33-6.96-11.86-8.24-13.07-1.68-1.59-12.91-6.41-15.19-6.4-6.03.03-11.65,4.38-16,8.12,1.45,3.54-2.8,2.92-1.46,4.96.12.18,1.61-.35,1.79.48.74,3.51-.86,7.31,3.15,10.97l2.03-.45c-1.29,6.48-3.68.61-5.6.24-2.27-.44-8.13,3.35-9.37.25l6.59-8.48-1.09-4.99c-2.4,2.94-6.35,5.58-8.55,8.5-2.01,2.66-3.17,8.94-5.89,11.99-1.03,1.16-2.63,1.87-4.04,2.49-.49-.6,2.11-6.6,2.7-7.74,3.81-7.29,18.96-25.6,26.32-28.75,2.17-.93,3.32.29,4.48.11,1.22-.19,1.79-2.05,2.91-2.21s9.66,1.47,11.24,2.1Z"/>
      <path d="M415.83,296.59c.21,3.36,3.2,5.16,4.55,8s2.55,8.07,3.93,11.01c4.15,8.86,8.52,19.36,15.51,25.45l-2.98,2.49,4.98-1.01c1.59,5.6,4,12.65,6.4,18.12.86,1.95,2.37,1.88,2.42,2.03.06.19-.69,3.7-.83,3.84-.85.87-3.42-1.62-4.03-2.48-1.89-2.65.69-3.91-3.94-2.94-1.9-.95-1.57-3.78-2.28-4.37-1.39-1.17-3.63,1.65-2.14-3.25l-3.57-1.02c-.31-.3.82-2,.45-2.95-.24-.63-7.07-8.64-8.45-10.49-1.18-1.59-1.65-2.22-2.33-3.2-3.22-4.69-8.59-8.13-1.72-12.75l-4.94-4.51,2.6-4.03c-3.3-5.11-7.34-10.55-8.62-16.42l3.01,1.49,1.99-3ZM423.66,327.82c-3.04-1.89-3.02,1.89-2.53,2.52,1.34,1.7,4.97,2.41,5.03,6.9l5.67,5.3c-1.44-3.78-2.61-9.09-4.94-12.41-.52-.74-1.49.22-2.06-.17-.73-.5-.84-1.94-1.17-2.14Z"/>
      <path d="M374.88,251.63c4.25-1.18.72.48,3.51,1.99,3.86-.05-3.44-7.81-4.42-9.73-.85-1.67-2.88-7.78-3.5-9.49-.76-2.1-4.35-8.62-.2-8.7,2.26-.04,7.2,3.4,8.59-.02l-9.98-7c1.91.54,6.01-1.68,7.07-1.56,1.49.17,3.65,5.62,4.91-.44-2.05.22-9.46-4.44-8.99-6.48.51-2.19,4.12-1.53,4.8-1.89.32-.17.09-1.54.21-1.62.5-.32,1.36,1.29,2.48,1.47,4.93.82,7.89-.57,12.49-1.48-3.15,5.03-10.95,3.69-15.98,2.99-2.87,2.59,12.14,8.02,14.07,7.47l.92,3.49-11,1.03c4.46,8.41-1.89,8.55-8.99,7.99,1.34,3.09,2.35,6.44,4.13,9.34.34.56,3.14,4.21,3.84,5.13,1.78,2.32,4.23,6.02,7.02,6.52l-3.03,4.48c3.1.8.82,1.85,1.55,3.4,1.2,2.55,3.5,6.38,6.46,7.11.5.57-3.8,3.91-4.99,2.99.83,3.29,5.8,3.66.03,4.98.04-1.95-2.07-2.93-2.52-4.49-1.14-3.93-.68-7.84-3.42-12.05-1.52-2.34-3.43-1.37-5.07-5.43-2.01.56-8.21-1.66-10.75-2.7-.68-.28-3.71-1.58-4.16-1.8-1.07-.52-5.97-4.45-6.57-4.47-3.36,1.48,2.08,5.54,1.5,5.96-3.56.86-6.87-4.24-5.91-7.34,3.24-4.98,7.72,2.27,9.14,2.99,2.31,1.17,16,4.9,16.63,5.51.47.45-.03,1.47.12,1.85Z"/>
      <path d="M230.7,330.33c-.16.28-1.73.34-1.71.71.25,5.35,5.36,1.21,4.02-3.47l1.05,1.91,2.94-.91c-1.76,1.77-6.44,10.56-8.83,9.83-.14-.04-.46-2.35-2.15-1.86l1.99-.99-1.5-1.97c-4.92,3.29-7.65,7.78-11.07,11.93-4.74-1.31-3.04-7.06-2.42-10.94-3.2-.65-1.47,1.84-2.29,3.72-.16.37-5.35,4.65-6.21,5.24-2.04-3.17.13-5.82-4.49-8.47,3.09-.82.96-1.59,1.33-2.8.75-2.47,3.35-2.09-.34-3.17,1.64-6.71,10.98-2.56,6.01,1.99l1.99.5-1.93,3.36,2.92,2.63v-6.99s2.89-.09,2.89-.09l1.1-2.91,3,2.01-1.95,3.57,1.96,1.91-1.51,6.5,3.5-3.5-1.99-1.48c4.06.91,2.54-1.94,3.93-3.53,2.7-3.09,9.15-4.68,8.07-10.46,1.66.61,2.2,6.87,1.69,7.76Z"/>
      <path d="M417.05,250.47c.14.23,3.04,1.58,3.77,2.16l-.98-6.99,1.51,1,9.35,27.72c.16,1.7-2.94,1.67-3.5,5.23-.27,1.72,2.07,6.11.63,9.01h-2.99c-.64-.6-1.57-14.13-3.11-17.19-1.64-3.27-7.58-5.65-4.89-11.79,2.81-.29,3.63,2.91,4.01,4.99l1.98-.58,1-1.93-4.99-4.5,2.99-2.97c-5.69.83-4.65-2.66-6.58-5.97-.87-1.5-3.81-.06-.92-5.03,3.21,1.38,2.51,6.5,2.71,6.83Z"/>
      <path d="M345.86,168.75c-.82,6.16,5.38,6.78,5.99,12.49l3.38-.61c2.06,1.84,7.91,6.42,10.66,7.36,2.9,1,10.89-.21,9.5,3.67-1.52-.18-5.49-2.18-4.5,1.01l11.08,2.5c3.95.25,3.83-2.35,6.28-3.55,4.57-2.25,3.18.45,3.8.77.28.15,3.76-1.31,3.8.79.05,2.75-6.25-.6-6.82-.32-.25.12-2.89,4.28-3.36,4.5-.4.19-5.9.48-7.11,1.25-2.72-4.41-9.41-3.02-12.97-3.9-1.08-.27-.91-2.29-2.14-2.68s-5.39.83-7.53-1.36c.97-2.84,6.29.35,6.98-2.97-2.48-1.54-6.65-1.4-8.72-2.31-.54-.24-7.79-7.75-8.27-8.46-2.1-3.12-1.38-6.32-5-7.73l4.97-.46Z"/>
      <path d="M330.73,188.54c-.19.34-7.09,4.31-2.31,6.13,3.36,1.28,2.37-3.13,5.18-4.79,6.82-4.03,6.35,1.6,10.37,4.43l-1,2.94,1.66.58c-1.98,3.98,2.09,5.16,2.25,8.85-5.26-3.21-5.51-9.69-7-14.98l-4.98,2.01,1.98,1.97c-9.65,2.14-.96,3.11-1.96,6.43l-3.05,3.57c-4.13-2.1-2.19-5.12-.98-8.98-.82-.87-7.52,6.34-8.49,6.99-1.26.85-1.95,1.12-2.49-.52-.65-1.97,3.28-3.88,3-7.97l-3-1c3.32-1.5,6.08-10.23,9.41-9.48,1.3.29,2.1,2.57,1.39,3.82Z"/>
      <path d="M326.91,164.72l-1.99-.49-1.88,10.8-4.06.67c.22,2.17-.84,7.94-4.06,6.52-4.86-2.14.6-6.84-1.98-11.52l3.06-.58-.05-9.42h2.99c.62.59-.48,11.48,2.01,9.5,4.17-2.7-1.69-16.36,2.49-16.48l3.49,10.98Z"/>
      <path d="M357.63,265.35c-.55.84-3.13,1.19-3.58,2.76l1.35,4.5-10.47-6.05.73-1.42-1.74-.53.49-2c2.34-.85,5.98,4.92,7.35,1.51l-1.39-7.52c4.26-1.05,1.32-3.71,2.54-6.96,1.57-1.28,7.84,10.94,4.72,15.72Z"/>
      <path d="M373.89,326.56c-.52-.4-.16-11.18-1.48-12.98-2.12-2.89-4.48,4.99-5.01,6.05-.41.82-.32,2.73-1.99,1.94-3.56-1.68-1.27-8.07-1.5-10.98l2.97,3.99c1.01-5.1,6.41-3.36,10.01-2l-1.04-2.41c3.07-.27-.31-4.01,3.53-2.56,2.17.82.8,1.82.65,2.6-.59,3-2.17,11.32-3.13,13.83-.59,1.55-.87,2.91-3,2.53Z"/>
      <path d="M314.92,278.61l1.01,9.98,2.96-1.06-.52-4.94,2.54-.98c.8.84-2.32,9.21-2.59,11-.72,4.64,1.22,13.92-5.39,15.97l1.47-21.09c-.31-.84-.75-2-1.48-2.48-1.23-.81-6,3.28-.23-5.09.61-.88-.17-1.86,2.22-1.3Z"/>
      <path d="M289.16,144.49c.48.35,3.14-.99,4.18-.57,1.59.65,1.45,4.24,5.61,2.8.61,3.67-4.11.11-3.04,4.96-5.72-.1-8-4.78-13.41-7.01-2.15-.89-6.8.39-5.57-3.4.49-1.52,4.05-2.08,5.6-1.74,4.78,1.05,4.58,3.46,6.63,4.95Z"/>
      <path d="M276.07,91.93c-.32.52.18,2.05-.29,2.59-1.04,1.2-5.77-.14-4.81,3.24l18.52-7.04,1.95,2.05,1.49-2.01.07,3.41c-3.32,2.75-5.43,1.13-9.06,1.58l-.47-1.98c-9.66,6.44,2.83,2.35,3.46,3.01l.14,2.81,2.87,1.15-12.98,2.01c-.74-2.75,1.54-1.42,2.23-3.27,1.9-5.11-4.89-.26-6.85.25-1.06.27-7.11,1.29-7.37,1.03-2.51-2.57,7.63-6.92,9.21-8.05,2.35-1.67,3.32-6.52,4.77-1.46-.6,1.68-2.76.48-2.88.67Z"/>
      <path d="M273.96,170.71c-.24,1.28-.01,1.9.7,2.93,2.17,3.16,6.12,7.41,7.61,10.28,1.04,2.01.07,6.19,3.69,5.77v-4s2.93.07,2.93.07l.99,5.88-2.7.26c-.15,2.42-.62,2.75-2.73,3.79-3.1-2.9-2.9-7.56-4.74-11.27-.32-.64-4.11-7.38-4.37-7.75-1.05-1.5-2.86-1.71-3.14-2.13-.13-.19-.27-6.34,1.78-3.83Z"/>
      <path d="M223,46.81c1.57,2.82-2.12,3.89-3.98,4.49l8,2.03c-.47,2.04-3.09,6.57-5.1,3.88l-.92-3.41-6.97,1,1.98-4.99-6.98.99c.55-3.13,13.61-4.64,13.98-3.98Z"/>
      <path d="M313.93,71.79c.23,1.69-.39,3.79-.02,5.36.28,1.19,2.45-.02,2.02,1.63l-2.51,1.02c-.67-3.26-5.53-1.16-8.47-2.02l.99-2.98c-3.82,2.13-2.72-.94-3.6-1.07-1.99-.29-5.04,2.3-7.36-1.43-.13-3.6,16.9,1.44,18.96-.5Z"/>
      <path d="M231,140.73v5.01s2,.99,2,.99c-2.77-1.93-17.47,3.6-17.99.48.95-4.87,5.17-4.62,9.63-5.4,1.15-.2,2.34.82,2.93.81.32,0,.78-3.09,3.43-1.88Z"/>
      <path d="M405.82,274.6l-4-.53c-1.31,3.36.19,6.54-4.96,6.53-.34-.34,2.67-8.12,3.1-9.2.87-2.16.74-2.71,1.09-3.6.09-.24,1.25-.21,1.36-.45.49-1.03.8-5.49,3.9-1.72,2.73,3.33-.07,5.64-.5,8.96Z"/>
      <path d="M292.94,201.67l2.01-8.98,2.99,1,1.5-6c1.97,1.22,1.13,2.6,1.27,4.13.66,7.07,1.14,12.6-7.77,9.85Z"/>
      <path d="M358.54,233.03c3.69,2.99,4.7,8.52,10.34,5.62l-4.49,5.99-11.49-9.5,3.14-3.39c.33-.23,2.04.9,2.51,1.29Z"/>
      <path d="M277.95,318.57l-3.97-2.99c-.23,2.77-2.1,5.67-3.53,8.01-.76,1.25.21,2.54-2.47,1.97-.34-1.74.53-2.91,1.12-4.36.66-1.6,7.11-15.44,8.85-13.61v10.99Z"/>
      <path d="M339.35,255.28c.68,1.08,1.95,1.31,1.56,4.33l-2.49-1.99c-3.7,2.59-1.61,5.62-.51,8.98h-3.99s.92-9.57.92-9.57l-1.91-.91c2.36-1.5,1.27-3.17,1-5.49,3.7-.74,3.89,2.19,5.43,4.65Z"/>
      <path d="M273.98,227.65l3.49-4.97,2.49,6.97-2.49-1.98-3,6.96c-1.89-.03-5.13-14.92-2-14.95l1.51,7.97Z"/>
      <path d="M324.92,270.62c-.7,3.5,1.05,8.22.46,11.42-1.33,7.19-3.31-1.05-3.59-1.29-.87-.76-3.34.57-3.85-.64l3.49-8.5,3.5-.99Z"/>
      <path d="M169.05,134.73c-2.79-4.11,2-3.65,3.73-5.33.8-.77,3.38-7.65,4.76-7.64.52,0,2.07,2.05,1.46,2.92-.09.12-1.69.25-2.36,1.1-1.98,2.51-5.16,5.97-4.6,8.94-.8.23-2.63-.26-2.99,0-.14.1.34,1.4-.17,1.82-5.86,4.77-11.4,9.01-15.1,15.86-1.83,1.37-4.1,2.01-5.7-.2,3.4-1.41,6.89-4.86,9.3-7.74,1.59-1.9,1.03-4.79,3.68-2.73-.85-3.92,1.86-2.83,3.4-4.12,1.72-1.43,1.41-3.79,4.6-2.89Z"/>
      <path d="M299.69,116.99c.3.19.23,1.74.86,1.82,2.36.3,8.05-3.18,3.71,3.96l-5.31-.03v-4.02s-4.43.77-4.43.77c-1.3-1.39-8.65.74-8.54-1.26.07-1.29,4.72-1.93,5.87-1.96.74-.02,7.51.5,7.85.7Z"/>
      <path d="M104.08,233.7l.16,2.79,2.87.17c-.61,2.33-3.93,1.57-6,1.98l1.01-1.98c-2.34-1.56-9.24,5.91-10.99,1.48-1.94-4.92,10.7-4.06,12.95-4.44Z"/>
      <path d="M277.73,319.9c.24.16.18,1.18.26,1.64.31.2,5.5-4.85,4.96.03l-2.85.48c1.75,3.16-3.2,4.44-2.21,8.45l-3.92.06,1-10.98c.95.02,1.9-.27,2.77.33Z"/>
      <path d="M283.97,325.56l-.02-8.98-1.5,2-2.48-1.99c3.94-.55,1.45-7.25,6.97-8.01,1.34,1.41-.54,11.05-.99,13.48-.27,1.46-.01,3.1-1.98,3.5Z"/>
      <path d="M7.2,370.52c-1.88-1.72,10.02-9.18,11.34-10.17,1.53-1.13,3.77-3.43,5.3-4.67,1.31-1.06,1.99-1.42,2.33.37l-7.99,7.97c-5.57.58-6.03,6.56-10.98,6.49Z"/>
      <path d="M246.99,127.75c.88,3.45,8.55-.85,7.98,3.98-2.65-.08-6.68-2.49-7.48,1-2.24-3.55-3.88,1.26-7.49-1.01,2.21-3.56,7.13-4.89,10.28-6.95,1.42-.93.18-3.37,1.2-3.02,3.86,2.98-1.89,5.68-4.48,6Z"/>
      <path d="M397.86,272.6l-3.96,1.09c1,.89.59,12.96-2.03,9.91-.34-4.87-6.36-6.04.87-8.45l-.81-5.46c2.98-1.62,4.42.32,5.93,2.91Z"/>
      <path d="M255.03,315.47l3.45-5.89c4.39,4.21.12,8.53-.15,11.52-.15,1.6,3.01,2.69.15,4.44-5.03-3.71,2.25-9.14-3.44-10.07Z"/>
      <path d="M316.63,85.1c4.43,3.63.27,7.61-4.69,6.67l.97-3.38-2.97-2.1c1.84-2.56,4.05-3.35,6.69-1.18Z"/>
      <path d="M258.27,237.84c-.2.24.14,2.97-.3,3.8l-4.98-2.01c-.63-2.62,2.58-2.6,3.52-4.02.67-1.03-.95-2.98.99-3.95,1.57-.3,3.33,2.71,3.39,3.66.13,2.11-1.84,1.59-2.62,2.53Z"/>
      <circle cx="127.23" cy="227.13" r="3.55"/>
      <path d="M287.95,213.67c.6.58-1.03,6.64-1.55,7.97-.33.84-.26,2.83-1.93,2.01-5.17-2.53,1.14-12.25,3.48-9.98Z"/>
      <path d="M206.76,320.41l-1.72.16-.03,1.48,2.01.52-1.51,1.98-2.25-1.49c.82-1.27-.19-3.29-.08-4,.09-.56,1.51-.41,1.66-.97.46-1.73-1.42-5.77,1.21-8.51,4.23,2.45-.45,7.38.72,10.83Z"/>
      <path d="M385.82,297.62l1.05,3.96-5.87,1.14c-.67,1.04.88,4.88-1.61,3.85-4.01-1.66.39-3.4.42-3.62.1-.84-.96-1.63-.06-2.91.81-1.15,4.98-3.21,6.06-2.42Z"/>
      <path d="M137.84,221.91c1.65,2.42,2.62,9.7,2.22,12.74l-5.97-12.51c-.81-2.73,3.22-1.01,3.75-.23Z"/>
      <path d="M376.87,176.69c-2.91,2.48-12.45-5.57-10.98-6.98,2.39-.16,3.24,2.23,5.29,3.21,1.74.84,5.96-.21,5.69,3.77Z"/>
      <path d="M128.41,175.03c-.89.64-.89,2.61-2.31,2.67-.5-5.08,2.72-4.38,2.96-4.61,2.56-2.44,4.51-6.08,8.01-7.38.62.66-3.69,6.34-4.42,7.06-1.62,1.59-3.04,1.4-4.24,2.26Z"/>
      <path d="M364.89,202.69c.06,1.74.52,2.16-1.47,1.96-2.73-.27-10.29-7.64-8.51-9.97,5.25,1.16,4.16,8.38,9.98,8Z"/>
      <path d="M148.89,156.56c-.04.09-1.15.08-1.72.96-1.53,2.34-1.84,5.26-6.09,5.19-.79-3.18,2.71-4.17,4.35-6.01.49-.55-1.16-2.12,2.14-2.96.87.81,1.97,1.39,1.32,2.82Z"/>
    </g>
  </g>
</svg>