<?xml version="1.0" encoding="UTF-8"?>
<svg id="b" data-name="Layer 2" xmlns="http://www.w3.org/2000/svg" width="525.053" height="463.808" viewBox="0 0 525.053 463.808">
  <g id="c" data-name="Layer 1">
    <g>
      <path d="M364.042,80.613c1.972-5.572,2.074-2.469,5.4-6.104,2.276-2.488,1.951-4.911,3.207-6.829.978-1.493,5.618-4.555,6.445-5.772,1.128-1.658,2.424-7.079,3.874-8.664,1.066-1.166,2.832-.438,3.042-.659,1.132-1.188-1.435-4.81-1.64-6.299-.735-5.333,2.652-11.232.675-16.668l5.982,1.074-.54,2.955c.41.495.944.8,1.553.965-.073.775,2.402,1.531-.903,2.425,2.504,3.15-.84,4.931-1.099,7.122-.711,6.018,4.272,4.96-2.059,14.672-3.116,4.78-7.665,9.098-11.356,13.864-1.793,2.315-1.328,7.874-6.542,5.916l-.051,3c-2.741-2.505-3.148-1.504-5.99-.999Z"/>
      <path d="M316.042,8.613c.005-.277-.902-1-.777-1.512l.737-.974c3.346-.064,6.013-3.078,8.036-3.93,8.374-3.529,29.722-2.479,40.001.83,2.354.758,3.328,3.097,5.072,4.016,9.222,4.857,16.475,4.58,24.474,14.526,4.013,4.989,3.772,10.41,7.453,14.549l-1.987,1.48c.712-.092,1.707-.189,1.977.706,3.669,12.17,5.456,13.55,4.559,27.154-.347,5.256,2.686,9.548-4.543,11.66,5.033,2.297-1.264,4.815-2.031,6.29-.17.327-1.734,6.882-1.564,7.209l4.112,3.002c-.019-3.437,7.704-1.439,9.237-.616.869.467,2.812,4.18,3.821,4.411,2.92.671,5.477-.435,10.438,1.681,8.147,3.476,12.8,7.183,19.601,11.401,3.514,2.18,10.043,3.32,12.838,5.06.248.154.563,1.321,3.624,3.37,4.533,3.034,7.283,6.872,12.93,7.71l-1.009,2.967c6.167-1.969,10.599,4.241,13.842,8.69,3.157,4.33,5.744,7.631,7.801,12.322,4.244,9.679,8.831,18.611,12.944,27.905,1.417,3.203,3.737,2.815.405,8.077,6.357-.104,10.171,13.18,2.011,14.009,1.458-5.376-2.167-6.694-2.03-10.979l-3.971-.011.003,2.988,2.999.011.996,6.542-1.998.949c2.012,1.918,4.211,3.399,4.008,6.499l2.985-2.985-1.323-.005c-2.526-1.815,4.276-5.939,5.245-2.352-1.167,3.498.477,5.095,1.031,7.9.54,2.732-1.363,5.07,2.062,5.954l-2.022,1.004c2.311,3.891,1.07,8.219,1.584,11.587.401,2.631,4.122,6.725.565,7.387l1.938,6.97-2.033.574v1.941s2.025.669,2.025.669c-1.643,3.245.602,4.859.866,6.887.683,5.253-.267,11.26,2.078,16.466l-3.02.017c2.715,3.624,2.441,7.06,2.588,11.38.118,3.475.574,8.32-2.576,10.117,2.66.23,2.635,5.07.01,4.509l2.05,1.607c.507,2.667-2.221,6.995-2.009,7.319.289.441,3.366-.86,1.482,5.117s-.907,5.521-1.74,10.448c-.323,1.911-2.969,10.167-3.888,13.019-1.593,4.942-.695,7.097-1.38,11.477-1.263,8.079-7.201,20.841-9.268,28.495-.703,2.603-1.059,5.486-2.294,8.112l2.026,2.877c-3.787.494-8.557,9.561-2.992,9.506-2.231-3.723.293-2.602.687-3.181.332-.488-1.468-3.323,1.3-3.808,3.712,5.658-.302,8.716-4.899,11.868-.484.332-1.678-.006-1.986.228-.273.207.338,4.163-.689,6.82-1.006,2.602-14.114,21.323-16.179,23.029-4.857,4.01-12.303,7.838-17.56,10.706-6.577,3.588-40.77,17.917-47.355,18.11-13.217.389-14.707,1.217-27.95,4.168-2.581.575-13.182,2.483-14.724,2.105-1.171-.287.009-2.461-1.634-2.03l-.543,3.057c-13.648,1.809-9.262-15.447-16.479-20.406-2.916-2.003-1.001-1.195-2.201-2.449-.705-.738-4.197.151-3.794-5.215l-2.977,1.018-3.998-7.52,2.976-2.48c-4.738.451-4.309-4.988-6.978-8.245-1.933-2.358-6.998-5.156-9.037-7.525-3.398-3.948-2.77-8.266-6.484-11.235-2.985,10.616-4.023,22.147-2.409,33.36l-5.905,1.46c-1.272-.727-5.675-19.702-6.101-22.404-.455-2.887-2.431-21.295-1.792-22.215.215-.31,1.21-.241,1.702-.223l-1.988-2.487,1.995-.991c-5.401-2.465-4.246-9.966-6.569-14.433-1.485-2.856-11.127-12.538-14.066-16.417-2.541-3.354-8.743-14.488-11.321-16.932-1.08-1.024-2.826-.781-3.526-1.704-1.841-2.427-2.765-13.651-8.859-14.857-1.604.078-12.083,11.709-14.421,13.848-4.954,4.529-1.951,1.994-4.284,5.337-1.093,1.566-3.333,2.002-4.221,3.885-.847,1.796-.4,5.424-1.651,6.347-2.768,2.01-6.447-1.85-6.806-4.226s3.593-8.92-.265-8.363l-.003-.976c3.591-1.115,9.965-5.059,12.981-7.549,5.566-4.597,10.817-16.544,19.004-13.457l1.51-4.985c.5,2.95,4.144,2.872,4.336,3.09.43.486.007,3.191.69,4.856.392.955,4.942,7.281,6.065,8.944,6.837,10.131,14.75,18.584,22.442,27.563,1.778,2.076,1.438,4.992,4.955,5.527l-.039-15.348,2.043-.664c.21-1.797-1.903-.019-2.102-2.432-.887-10.742,1.978-22.87,1.114-33.551l3.986-.519-2.985-.489c.484-.838.114-3.33.21-3.522.419-.838,2.432.136,1.798-1.968-.216-.965-2.987.161-2.01-2.491l4.007-1.525-1.515-2.486-1.484,1.991-1.025-3.986,3.015-.019c-1.713-2.236-2.681-4.402-1.995-7.333,1.613-6.887,2.37-17.453,2.036-26.198-.157-4.112-1.714-8.704-1.44-13.021-3.248-3.289-6.842-6.177-10.152-9.421-4.354-4.267-11.673-8.538-17.475-13.495-3.964-3.387-6.021-8.969-12.958-8.516l-.007,4.989-2.872.086c-1.988,4.879,2.156,8.022-.194,12.371l1.932.987c-.442,7.492-.782,16.921,2.125,24.107l-1.927.871c2.079,6.943-.636,16.044.081,23.116.271,2.673,3.47,3.022-.155,6.446,2.609.1,4.292,3.062,4.01,5.477-.278,2.378-3.237,2.427-.01,5.535-5.2,1.168-3.774-2.638-6.866-4.456,3.06-3.925-2.632-3.29-1.114-5.524.122-.18,1.636.338,1.814-.482,1.079-4.981-7.794-19.984.161-24.014-3.228-2.484-.221-4.324-.266-5.015-.053-.822-5.497-5.479-.732-6.995l-2.99-4.501,1.989-.013-1.772-1.118c1.41-10.807-3.108-19.338-1.126-30.29.455-2.513,3.336-3.137-.57-5.301-3.454.444-4.872,4.122-6.539,5.185-4.348,2.772-10.525,6.245-15.13,8.893-2.866,1.648-10.957,4.446-12.593,5.903-2.056,1.832.761,7.968-3.256,7.756l1.99,2.972-1.992,2.007,3.01-.482-.933,3.045c-.026.461,1.775.302,1.948,1.101.154.707.191,10.977-2.021,9.352l-.009.97c4.235-.023,2.867,8.178,2.98,11.5l2.007-.493-2.096,6.557,2.016,1.893-.789,3.409c2.965.698,3.195,2.273,2.87,5.16l-2.002-.502c1.102,2.669,2.838,3.311,3.358,6.64.438,2.805-1.51,9.335-1.233,9.74.268.39,2.301.506,2.878,1.623,1.119,2.164-2.474.793-1.989,2.479l3.058.649c.821,7.487,3.204,16.132,1.924,23.359l-3.493-2.994-.504,1.995c-2.161,2.025-2.096-13.443-.999-15.004l-1.983,1.011c-2.047-6.916-2.039-14.118-3.3-21.215-1.127-6.341-3.561-13.362-4.358-19.428-.637-4.853-.337-21.714-1.41-25.714-.173-.647-3.144-.547-1.917-4.964.228-.82,1.925-.327,2.084-2.146.354-4.047-2.329-6.012-2.575-9.386-1.553-21.301,14.17-52.938,32.321-64.305l-.846-1.817c1.291-.682,5.197-.683,5.8-1.212,1.166-1.021-.401-6.064,4.203-4.825l-1.029-1.986,3.027-.015-7.651-7.774c-1.786.019-8.69,6.256-11.082,7.557-3.382,1.839-3.386.533-7.382,3.62-.855.661-2.475.425-2.816.738-.331.304.102,4.854,1.917,4.362-.528,1.493-6.328,2.059-8.258,3.476-2.382,1.749-3.363,7.939-7.246,3.03l-.992,2.026-2.481-1.526,2.976-3.005-1.99-1.484c2.324-.242,7.1-1.842,8.696-3.31,1.13-1.04,1.468-3.362,2.594-4.405,1.582-1.465,6.114-1.707,5.696-5.295-2.102,1.727-3.627-.611-4.481-.604-.72.006-1.675,1.436-2.974,1.433-2.715-.007-12.079.054-11.551-2.82h-.969c-.518,4.317-8.104,1.862-11.355,2.368-11.907,1.853-29.213,12.972-39.486,18.502-3.243,1.746-2.359,1.521-4.347,3.004-.648.483-2.325-.952-3.236-.745-1.255.285-1.537,2.557-2.645,3.306-1.943,1.314-6.516,1.447-8.631,2.36-10.919,4.717-21.569,10.493-32.234,15.776-6.937,3.436-15.128,7.599-21.317,11.176-1.09.63-2.975-.139-3.594.391-.469.401-.148,2.411-1.102,3.361-.429.427-2.283-.23-3.347.436-2.323,1.452-8.024,8.792-10.217,3.057-1.562,1.314-.954,3.043-2.713,4.372-3.549,2.681-12.338,3.973-13.648,4.77-.494.301-.605,3.08-2.113,4.275-1.197.949-8.838.872-9.232,4.332l-1.745-.738-1.559,3.982-1.483-1.989c-.982,7.096-9.389,4.961-10.793,12.772-.533,2.961,2.066,5.313-3.211,6.233l1.936,1.416c-2.85,6.831-2.689,14.796-4.402,21.841-1.85,7.609.149,2.979.54,6.158.249,2.024-.306,4.454-.092,6.567l-1.979-2.99.005,34.988-4.757,1.46c.974,5.118,1.678,10.486,3.354,15.44.096.283,1.554,4.2,2.404,2.593l-2.808-14.207.656-3.196-1.859-1.071,5.834,1.159c2.169,6.996,1.784,14.075,3.265,21.227.821,3.962,4.229,15.23,5.968,18.837.604,1.253,2.733.192,1.918,2.766l-2.986-.504c.856.812,1.726,1.487,2.33,2.536,3.574,6.21,8.559,18.302,13.204,23.92,2.956,3.575,5.17,1.88,5.365,2.121,1.605,1.979.057,6.505.225,6.811.274.497,5.804,2.517,6.629,3.368.836.863.652,2.644,1.484,3.498,2.509,2.577,12.058,5.197,11.768,11.25l2.975-1.986c-.383,3.427,7.146.36,7.031,4.969l1.93-.061.608-1.984c2.104,1.556,7.269,1.035,8.9,1.993.899.528-.746,2.259,1.051,3.067l.499-1.985,1.487-.017-.501,1.996,2.019-1.989,1.075,1.887,4.92-.894c1.13-2.472-1.412-1.692-1.731-2.156-.383-.558-.254-7.978,1.724-8.831l-2.988.991,1.986-7.972-2.902-1.645c1.981-10.974-1.97-22.325-.049-32.823l-2.105-1.082c.273-1.472,2.673-7.035,2.674-7.995.002-2.046-3.853-3.788.401-4.987l-3.011-.503c2.265-2.753-.522-6.021-.082-8.316.231-1.206,3.63-1.137,3.091-3.166-5.849-2.978-.984-4.597-1.02-4.965-.106-1.073-2.131-3.825-2.417-5.447-.389-2.213.482-5.934-.589-8.586l2.004,1.483c1.425-3.315-3.441-2.805-1.967-4.983.115-.17,2.809.531,1.58-2.769-.105-.283-2.356-.02-1.627-2.751.186-.698.636,1,1.294-3.679.691-4.917,1.359-9.865,1.721-14.812-4.088,2.77-5.879-2.142-9.986-.006l.995-2.985c-5.05,1.87-5.43-.433-7.993-1.344-7.062-2.51-11.548-7.033-18-11.023-2.881-1.782-6.726-4.006-10.111-6.072-1.592-.971-3.759.265-4.39-2.568-3.259,1.258-1.657,14.567-1.774,17.679-.186,4.946-2.973,12.81.272,17.862l-2.014.938c5.409,5.477,5.946,15.209,3.136,22.048l1.87,1.46-5.008.548.018-6.529-7.015-2.509,3.006-2.005-2.987-.509-.002-6.993,1.986,1.015c1.107-4.315-1.831-16.714.339-19.7.335-.461,1.615-.255,1.662-.326.302-.459-4.003-7.048-3.696-10.348.201-2.159,2.888-5.757,3.364-8.336.347-1.882-.873-3.893-.569-5.722.246-1.484,2.112-8.224,2.701-9.284,2.228-4.012,2.861-1.389,6.099-.151l-.891,3.85c4.221-1.202,3.761,1.598,5.612,2.852,10.647,7.213,22.156,12.09,33.656,16.389,2.091.782,3.281,3.266,6.474,3.564,3.068.287,10.539-3.42,13.615-4.94,26.825-13.259,53.219-29.852,78.74-46.247,1.251-.804,3.042-.398,4.338-1.559,2.154-1.929-.402-6.586-.472-8.525-.534-14.683,1.818-29.438,8.661-42.402,2.731-5.174,8.627-15.691,15.375-13.112-.778,2.349-1.3,3.471-3.99,3.011l.648,1.769c-2.301,2.281-2.527,5.505-7.65,5.22l1.941,1.418c-1.579,4.057-1.708,7.604-4.329,11.186-.578.79-2.033-.155-1.611,1.374l1.976.471c-1.339,2.234-2.025,4.976-2.517,7.505-2.736,14.093-2.522,16.973-.434,30.545,1.454,9.451,1.268,16.988,3.715,26.246,2.158,8.165,3.498,16.773,5.112,25.038l-5.85,3.205c.072-4.124-.399-10.483-1.243-14.525-.11-.527-1.407-.398-1.525-.955-1.401-6.606-1.992-13.601-4.16-20.105l1.908-1.399c-4.433-.134-1.083-5.849-3.507-8.016-2.238-.332-13.911,8.317-16.838,10.191-3.714,2.378-7.268,4.415-11.179,6.774-3.033,1.83-5.902,5.869-9.386,5.137l-.128,2.806c-5.195-1.202-5.064,1.206-7.225,2.359-8.725,4.656-17.481,9.223-26.263,13.724l-.962-2.003-.51,3.011-2.98-2.995-.165,3.848c-3.294,2.183-7.204,3.682-10.769,5.722-.947.542-1.24,2.378-2.045,2.871-.816.5-3.153-1.066-3.815,1.021.863,4.666-.146,9.202.277,14.015,1.12,12.743,4.659,27.709,5.415,40.183.204,3.363-1.205,7.24-.889,10.747.311,3.446,3.53,9.579,4.003,13.06.374,2.754.973,8.603-2.036,9.028l2.066,1.054c-3.181,6.938-.847,13.923-.287,21.021.145,1.842-1.07,4.523-.788,5.747.182.79,1.977.636,2.074,1.304.294,2.028-2.202,7.391-1.047,10.368.58.636,13.153-7.669,14.74-8.749,11.043-7.522,22.342-16.717,33.174-24.822,12.24-9.158,23.709-18.966,35.546-28.458,2.03-1.628,10.317-3.741,11.132-4.929.529-5.017-3.362-14.788,3.413-15.536l-4.01-.51c2.338-3,1.533-5.022.981-8.482l3.013-.518-1.994-1.98,1.991-.995c-2.568.772-4.07-7.791-1.178-7.224-1.517-3.221,1.964-5.455,5.188-4.78-.629,1.522-3.573,8.707-3.63,9.512-.106,1.505,2.744,3.926,2.444,5.976l-1.294,29.506-1.026.992-1.485-1.991v4.99s2.007-1.481,2.007-1.481c-2.177,4.962-.665,9.223-1.445,14.532-.775,5.274-2.423,9.201-5.247,13.328-.957,1.399.924,3.58-3.364,2.277-1.127-.342-1.14,1.116-.976-1.152.345-4.775,2.743-4.36,2.847-4.64.311-.843-1.987-7.866,3.165-10.364l-1.911-.91c1.987-2.31-.036-5.038.172-6.973.236-2.192,4.145-4.31,1.248-7.607-2.625,1.213-4.3,4.507-6.235,5.987-5.12,3.917-14.529,7.934-18.755,13.007-1.705,2.047-.579,4.905-3.32,3.212-2.722,4.636-10.268,7.383-14.149,10.331-1.652,1.255-1.417,3.366-2.221,4.202-.163.169-4.506.317-4.667.487-.691.73-.496,2.645-1.388,3.552-5.623,5.714-19.521,15.116-26.868,19.624-3.67,2.252-11.408,7.653-14.628,8.542-2.088.577-4.137-.419-6.674,1.152-2.225,1.377-3.815,5.065-.609,5.902-.714-3.653,1.389-2.877,3.999-4.003l-1.092,5.905c-2.967-.755-4.474,1.503-7.58.298-4.769-1.851-12.603-8.047-16.611-9.444-1.945-.678-4.829.091-7.689-1.472-2.972-1.624-7.795-7.734-10.78-9.229-4.218-2.112-14.439-4.367-18.148-6.599-6.258-3.767-12.382-12.082-17.417-17.134-.685-.687-2.735-.488-3.752-1.73-1.468-1.792-6.054-14.624.079-13.585l-2.001,3.469c.667,1.693,2.573.513,2.825.755.627.603,2.658,5.172,4.2,6.958,1.638,1.896,5.019,5.152,6.594,6.646,3.855,3.655,7.988,6.526,11.919,10.138l3.444-2.006-2-3.962-1.98.002.504,3.986-4.529-7.997-2.476,1.937c-.9.003-4.825-6.252-5.419-7.602-1.387-3.151.408-6.437-4.073-7.342-.387.714.972,3.852-1.493,3-2.817-.974-3.706-15.269-5.5-13.981l-.601,2.033c-3.92.865-3.753-1.925-5.412-3.582-.887-.887-2.741-1.38-2.89-1.631-.592-.997.894-2.824.404-3.902-.577-1.272-2.873-1.267-3.51-2.728-.365-.838-3.96-16.926-3.988-17.84-.07-2.264,1.143-2.69,1.985-4.35l-3.01-.012.255-2.834,1.745-1.153-3.013-.526c.959-3.2.274-14.854-2.139-16.329l-1.833.852v-4.013s1.983,1.012,1.983,1.012l1.012-5.991-4.001-1.569,2.011-6.426-3.008-1.01,2.987-.5c-1.742-.783-1.104-4.127-1.258-4.321-.409-.518-2.062-.682-2.76-1.624-1.917-2.588-3.271-10.462,1.024-10.586l-.012-.959c-2.033-2.158-3.815-.845-3.974-1.018-1.195-1.294.227-7.04.431-8.87.263-2.366-1.918-3.802,1.569-4.633l-3.027-.508c-.266-.201,1.535-5.83,1.556-6.479.596-18.72-.763-38.881,3.707-57.765.321-1.355,2.101-2.026,2.322-3.224.5-2.702-.631-8.398-.36-10.795.512-4.527,4.539-9.946,5.279-13.723l3.442-.01,1.06-4.995-2.984.996c-1.234-3.729,3.06-5.152,3.694-6.288.559-1.003.24-2.514.879-3.584,2.19-3.667,5.119-7.979,8.441-10.696l-1.023-3.422c.826.026,1.998.206,2.653-.293,3.87-2.949,8.147-8.451,11.703-11.369,1.542-1.265,9.03-5.089,9.379-5.543.291-.378-.664-2.537.505-3.555,2.151-1.873,22.523-14.279,24.761-14.835,1.937-.482,4.733.425,5.066.168,1.886-1.458,1.469-8.329,7.927-3.581-2.365-5.208,3.88-3.788,6.518-7.001l.494,1.992,1.992.011.125-2.818c1.982-.547,4.205-.375,6.115-1.243,2.636-1.198,7.344-4.556,10.366-5.837,5.941-2.517,13.106-5.093,19.404-6.109-.76-1.83-.513-4.677-1.096-6.213-.423-1.115-3.353-3.467-3.726-6.535-.52-4.288,4.319-4.108-1.103-6.798l.935-2.934-2.008.496c-.357-2.63-.089-2.537,1.993-3.5-1.984-.575-2.076-10.574-1.781-11.985.139-.662,6.671-8.253,7.963-10.842,2.988-5.984,2.335-12.951,7.88-17.114,1.827-1.371,5.971-4.472,7.566-5.507,1.556-1.01,3.225.027,3.307-.117.336-.595-.448-1.963.697-3.022,2.537-2.347,23.493-10.62,26.875-10.524,1.585.045,3.404,2.019,5.271,2.415,1.64.348,3.344-.469,5.06-.167,2.986.526,5.057,2.618,8.143,1.361l.13,2.822c3.681-.582,7.346,3.082,4.39,6.15-3.597-3.499-8.654-5.999-13.549-7.433-2.038-.597-13.264-2.825-13.82-2.398-.342.262-.248,1.893-1.801,2.653-4.887,2.391-20.089,6.406-23.045,9.498-.903.944-.747,2.707-1.514,3.474-.777.777-2.596.613-3.481,1.514-1.27,1.292-6.925,11.064-6.287,11.708,2.157.225,3.036-1.843,4.987-2.514,5.439-1.871,8.667-4.607,13.769-6.279,3.488-1.143,6.645-1.025,10.515-2.434,1.267-.462,2.274-2.317,3.202-2.428.988-.118,4.93,1.73,6.525,2.201,1.022.302,2.336-.487,2.806-.271.285.131,4.046,4.417,4.341,4.524.547.199,1.68-.784,2.369-.621,2.606.616,11.076,4.475,12.959,5.785,4.143,2.881,7.132,7.498,11.397,10.211l-.881,2.826c6.068-.61,4.731,3.244,6.24,5.742.484.801,3.356,1.338,4.256,3.278,1.942,4.184-3.332,9.429,3.506,8.994l.993-3.003c-.438,3.613,3.527,4.416,5.086,7.404.634,1.215-.148,2.685.45,3.554.809,1.174,3.671.775,2.471,4.525l1.995-.496c1.557,2.323-3.125,2.008-1.985,2.994,1.777,1.536,4.703,2.498,5.578,5.983.385,1.534-.584,2.519-.557,3.424.013.427,1.735.765,2.541,2.559,2.102,4.677,3.248,13.755,5.423,19.047l-7.969-4.5c4.045-2.043-1.342-8.142-1.024-8.49.339-.371,2.386.822,1.997-.999-5.319,1.117-3.841-2.047-5.994-5.555,5.996-2.288-1.401-2.815-1.866-3.595-.726-1.217-.157-9.052-3.78-10.767-3.446-1.174-11.844,2.21-14.835,1.913-1.9-.188-2.497-2.387-4.517-1.996,2.223,1.507-4.019,5.583-4.505,5.726-1.721.506-5.018-.613-6.071-.409-1.03.2-.92,2.045-2.207,2.647-1.777.831-5.434.292-7.215,1.522,4.305,2.572,9.071,4.729,13.255,7.476,1.104.725,1.222,2.335,2.183,3.044,10.26,7.575,23.164,11.045,33.255,21.279,1.185,1.201.856,3.834,2.954,4.486l5.346-.793c-2.32-3.23-4.304-5.765-3.994-9.984,8.969-1.357,5.425,4.8,6.206,6.841.102.268,4.341,3.685,4.785,3.15.224-3.214-.673-6.413-.866-9.562-.098-1.596.954-3.123.901-3.85-.042-.58-4.32-.936-3.096-7.046l3.062-1.033c-4.394-1.388-1.535-4.785-5.014-6.005-.427-1.368,3.57-4.402,4.986-3.486,1.689,4.631,1.57,9.497,2.246,14.268.167,1.177,1.523,2.349,1.604,3.398.136,1.76-3.748,3.812,1.214,5.835l-1.031,2.96-1.992-.473-.004,2.995,3.929-.061,1.076-11.934,2.982,1.997-.999-2.995,2.998-1.01,2.009,2.998c-1.356-2.627,1.41-3.663,2.996-5.496l-2.004-.974c4.459-12.1,10.837-22.812,17.086-33.965,4.455-7.95,8.193-15.137,12.962-23.809,6.323-11.497,12.959-22.797,25.391-29.828,2.657-1.502,5.228.37,4.645-3.779l4.929-.148-1.013-1.984c5.136-.179,8.975-4.8,13.786-6.739,4.411-1.777,7.899,1.285,10.725-3.266l.976,2.003,6.519-2.016-2.63-2.72c-5.59-.986-17.071.315-21.885-1.15-1.791-.546-1.623-2.123-1.943-2.082-.782.1-10.012,2.677-10.78,3.022-.807.362-.849,1.688-1.999,2.231-2.421,1.143-6.898.282-6.778,3.693h-1.971c.054-1.157.048-1.447-1.013-1.982-.022,1.33.026,2.67-.007,3.997l-4.991-.989.995,2.984-4.997-.999c-1.388-1.526,5.144-6.939,8.999-4.993ZM392.042,34.613c.102-1.081,1.546-1.691.515-3.921-2.201-4.758-3.257-2.877-4.877-3.314-2.887-.781-4.988-8.942-6.309-9.844-5.769-3.94-19.135-4.803-25.84-3.692-.29.048-2.441,3.893-3.985-.226-.952,4.246-5.166,2.831-5.385,3.102-.453.559-.067,2.862-1.516,4.008-1.282,1.014-3.196.502-4.318,1.181-1.552.939-2.666,5.055-7.291,3.715l.964,1.923-11.393,6.087c-3.887,5.257-8.389,9.373-12.358,14.174-.19.229.686,3.48-3.198,3.82l1.988,1.482-11.99,21.502,22.343-.048,1.151,2.064,1.055-2.069,6.943,1.052c-.991,3.02,1.311,2.967,1.991,0,3.505,3.549,9.19,2.637,13.634,3.623,11.074,2.457,7.979,3.492,19.877,1.381-3.442,9.726-3.347,5.817-10.206,10.081-7.969,4.954-16.138,8.919-24.04,12.204-3.467,1.441-11.002,4.594-9.701-1.216,9.805-2.787,18.184-8.504,27.673-11.829l1.265-2.24-57.983-6.997c2.661,3.345-3.954,5.04-1.993,7.988l-2.998.054c.7,2.117.202,4.992-.473,7.035-.608,1.839-2.075,1.971-2.151,2.173-1.679,4.445-2.047,11.398-7.357,12.854l.962,2.885-2.543-.875c-.788,2.457-1.997,2.075-4.455,1.891l4.295,2.013c2.767,1.664-1.002,3.23-1.063,3.453-.278,1.016.387,4.658-.352,5.412-.629.642-4.557-.5-4.877,2.099,5.872,4.53,11.025-2.53,16.064-6.446,3.259-2.533,6.942-6.914,11.004-8.971,3.058-1.549,14.099-3.404,14.749-3.822,1.102-.707,2.668-3.895,5.933-4.535,3.32-.651,4.35,2.96,2.575,3.759-4.292.357-8.236,3.891-12.079,5.761-2.983,1.451-9.435,2.994-11.502,4.234-2.559,1.534-10.624,9.271-13.964,11.77-.279.209-1.374-.715-1.6-.551-.243.177-2.831,4.865-2.836,5.302-.004.366,1.861,6.712,2.016,7.044,1.894,4.046,4.68-1.302,5.363-1.487,2.004-.544,5.002.137,7.267-1.057l-2.985-1.975c4.804.338,7.479-2.447,11.346-4.216.913-.418,1.931.144,2.44-.107.573-.283,2.03-3.655,5.788-3.624l.912,1.932,3.351-2.154-.851-1.834c6.828,1.34,11.379-3.096,16.788-5.728,2.229-1.085,6.432-1.661,8.644-3.231.823-.584-.538-1.93.489-2.55,7.356-4.436,23.6-9.302,31.382-11.693,1.874-.576,2.366-3.23,4.698-2.807l1.742,5.525c-.027,4.453-24.228,9.183-28.665,11.048-3.625,1.524-8.156,3.942-12.25,5.75-3.596,1.589-6.818,4.072-10.821,4.702l1,1.965c-3.02,1.053-6.682-1.52-7.024,3.011l-2.479-1.986c-2.082,3.71-3.764,4.229-7.497,5.528-4.116,1.432-3.723,2.113-7.316,3.632-3.291,1.391-6.92.2-8.684,2.814,4.671,1.926,11.393-1.522,15.457-.955,1.781.248,2.562,1.987,4.035,2.004.262.003.748-.78,4.004-1.611,13.652-3.485,22.502-12.886,34.544-16.757,3.428-1.102,6.848,1.606,7.94-4.157,3.667.297,9.795-6.039,12.46-5.502.426.086,1.866,1.019.926,1.946-2.013,1.986-4.622,3.778-4.376,7.058l-2.835-.902c-1.582,2.534-7.898,5.356-10.967,6.782-9.294,4.32-19.373,7.487-28.186,12.609,4.929.824,8.814,2.282,13.256,4.535,4.051,2.055,7.494,1.403,12.864,2.575,5.042,1.1,9.856,3.099,14.914,3.981l2.961,7.395c-3.682.178-3.347-3.188-7.182-3.376-3.629-.178-2.202,1.722-7.772.003-1.889-.583-2.388,2.174-2.056-3.612l-3.486,3.015c-.87-3.276-2.071-1.073-3.499-1.638-9.485-3.753-7.198-2.313-16.034-3.852-2.437-.424-3.861-2.74-6.784-1.71l-.2-1.812-1.482,1.988-2.073-3.064-9.429,3.079c.968,2.754,5.033,1.896,7.347,3.179,6.368,3.53,10.112,6.691,16.247,10.664,2.172,1.407,5.891,1.296,6.444,1.732,4.108,3.241,1.951.544,4.923,1.852.497.219,6.066,3.934,7.734,4.916.327.193.995,4.687,2.783-.364,2.954,3.29,5.262,1.861,7.898,2.056,1.091.081,12.369,7.392,15.865,8.3,3.626.941,11.646.06,14.011.807,1.388.438,1.975,2.08,3.393,2.541.89.29,17.436-.691,18.696-1.025,1.737-.461,3.579-2.368,4.171-2.369.947-.001,1.705,2.338,3.486,1.69l-1.008-2.981c.47-.642,10.647-2.496,12.257-3.079.854-.309,1.381-3.221,4.76-1.934.132-2.372.307-1.75-1.489-1.998-4.123-.567-10.354,2.292-12.636-.458-3.021-3.642,9.332-11.185,7.625-5.523l5.488.991-1.99,1.98c3.362,1.211,3.558-2.764,4.652-2.987,1.992-.407,6.646,1.804,7.661,1.764,3.226-.125,8.513-2.28,11.254-2.768,5.586-.995,6.765,4.722-.021,7.045-2.179.746-4.276.498-5.821,1.01-1.084.359-.501,3.519-5.217.93l.496,2.008c-3.609.969-2.705-1.761-5-2.991l.955,4.94c-1.461.14-2.638,1.199-3.985,1.583-5.099,1.453-12.323,5.29-17.701,7.436-4.936,1.97-8.845,4.186-14.286,2.047l1.018,1.984-11.458,1.058-.974-1.96-12.924.984-1.666-5.068c-1.703,0-.565,2.091-2.903,2.568-4.671.953-5.512-2.047-7.479-2.75-2.988-1.068-5.283-.787-9.623-2.349-4.251-1.53-8.302-2.783-12.974-4.475v4.001c4.067-1.156,8.926,4.997,12.231,7.309,2.274,1.591,9.137,4.506,9.578,4.855.584.461.404,3.7,4.502,6.061,3.95,2.275,9.287-.292,6.674,4.767l6.696,2.419c4.443,4.37,12.769,5.346,16.396,11.007,1.616,2.521-.538,5.505,3.908,4.59l-1.987,1.978c7.295,3.051,13.727,10.966,19.129,16.862l2.859-.845-.938,2.91,6.919,2.586-1.984,5.493-14.312-11.955c-5.334-6.143-13.034-12.491-18.973-18.746-.879-.926-5.355-1.623-6.657-2.845-2.035-1.91-4.815-5.555-7.495-7.462-3.856-2.743-8.928-3.75-10.917-5.045-2.168-1.412-2.097-4.191-2.856-4.727-.807-.569-4.678-.827-7.03-2.246-5.086-3.068-12.46-10.07-18.016-13.999-3.124-2.209-2.932-7.079-7.747-6.978l1.017-2.984c-1.324.031-2.742.091-3.956-.546-11.057-5.808-20.01-16.799-32.57-21.446l-.471,1.979-4.006.503c.616,1.65,2.704.416,2.872.687,2.314,3.741,7.634,7.929,11.494,11.446,1.141,1.039,3.92.84,4.605,3.877l-2.971,1.496c.702-3.623-.989-2.436-2.581-3.417-.455-.281-.517-1.559-1.025-1.58-1.229-.052-2.9,1.315-4.745,1.047-.292-.042-2.132-3.844-4.626-3.103l.981-1.925c-3.599-.123-6.656-2.336-5.016-6.02-4.963,2.334-6.828-4.134-9.984-3.006.087-3.375-.989-7.073,1.932-9.51l-5.467-3.497c-3.273-.579-1.625,5.466-1.947,7.014-.749,3.593-4.253,8.445-8.106,8.996-7.574,1.083-4.313-3.428-12.166,4.003-2.477,2.344-3.254,3.714-5.177,5.576-8.597,8.323-14.691,11.746-20.938,22.272-2.944,4.961-3.848,9.396-5.911,15.784-1.63,5.049-5.117,9.204-3.215,15.36,3.237-3.225,8.179-5.302,11.517-7.972,1.445-1.156,2.44-3.795,2.645-3.912.493-.281,7.015-1.108,10.358-3.082,4.608-2.721,8.363-8.077,14.798-8.103,1.725.835,3.432,6.447,3.9,6.837.565.469,3.283.478,4.986,1.515,6.565,3.996,11.95,12.391,20.721,14.324l10.558,10.392c2.36-1.626.793-1.867.462-3.433-.8-3.792-2.371-7.086-3.956-10.555l3.994.496c-2.423-2.085-3.978-4.909-5.225-7.779-.841-1.937-.368-4.232-1.035-5.476-.249-.465-2.156-1.039-3.009-2.454-1.928-3.201-2.223-6.627-4.722-9.303,1.226-.988,2.041-.829,2.995-2.493-1.137.213-2.192.864-3.39.844-1.365-.368-3.181-4.958-4.303-6.599-1.265-1.85-4.89-8.31-5.279-8.683-3.038-2.921-6.543-1.268-4.958-8.015l-2.93-.639-.131-3.909c1.402,1.462,4.611.03,4.862.16.907.468,2.867,6.132,3.296,6.623.158.181,1.499-.492,1.817-.135,2.109,2.365,6.541,7.681,7.521,10.423.481,1.347-.552,2.755-.465,2.872.535.712,7.562.773,3.959,7.058.77-.144,2.485-1.098,3.052-.58.015,2.909,2.945,3.761,3.473,4.602.417.664,2.238,8.443,2.592,9.296,1.085,2.617,9.537,9.639,1.885,11.702l.002.961c4.167.603,4.044,5.654,5.996,8.566l-1.994,1.94c3.328,3.044,6.148,17.875,5.907,22.094-.094,1.651-1.323,2.459-2.419,3.419l1.5,1.008-1.991,1.486,3.993,2.01-2.022.985c-.902,2.706,1.806,2.349,1.981,3.148.213.977.149,8.567-1.964,7.871l.03,1.476,2.04.569c-3.367,4.32,2.052,12.753-5.057,12.457l4.006,1.489c-3.008.673-1.423,4.746-2.075,7.789-.109.507-2.557,1.027-1.7,3.211,2.005,5.109-.129,7.438-.834,13.14-.38,3.079,1.551,6.802-1.4,8.867l1.808.957c-.958,5.527,3.096,16.815-3.822,18.036l3.005.554c-.826,1.15.164,3.101-.455,3.929-.783,1.047-2.823.447-2.533,2.007,4.746-.85,3.108,3.35,4.007,6.448l-3.003,1.549c2.117-1.117,2.781,7.941,2.672,9.393-.131,1.743-1.799,3.742-1.741,5.063.024.549,1.913.449,2.086,1.227.442,1.988-.72,6.657-.424,9.459,1.038,9.844,2.536,20.355,4.893,29.867,2.194-1.913-.552-6.063,3.497-6.008l-1.982-2.472c1.449-2.181,3.425-2.772,5.997-2.521.904-4.249-4.818-.745-4.998-.995l-.023-4.99,4.014-.019c-2.899-4.773-2.014-15.638,5-15.99-.169-.024-2.331-1.536-3.042-1.565.526-10.563,6.207-9.756,8.548-.444,4.062.998,4.139-6.526,4.289-9.488.426-8.41-1.557-22.774.192-30.824.174-.801,1.964-.616,2.058-1.308.218-1.603-1.335-5.429-.856-7.89.695-3.573,3.136-9.252,3.627-13.202.178-1.43-1.093-3.994-.814-4.254.203-.189,1.623.169,2.265-.267,2.042-1.386,1.457-3.57,4.734-2.748-1.47,1.416-.026,4.655-.144,4.869-.148.269-3.68,1.215-3.646,2.609.011.445,1.469,1.53,1.559,2.827.484,6.996-3.802,10.547-4.314,15.219-.069.629,1.568,6.998,1.587,8.995.073,7.614-.479,16.141-.601,23.975-.09,5.813-1.768,14.535-1.28,20.039.051.575,2.821.305,1.831,2.951l-6.953,2.501-6.054-13.002c-.164-.127-2.21,1.12-2.986,1.009-2.159,3.788-.079,9.687-3.999,11.489,3.863,5.72,5.764,12.258,10.044,17.724,3.032,3.872,10.754,5.777,9.958,11.804l3.517-.03c.82,7.791,4.739,18.502,13.47,20.013l-.013-6.359,2.036-1.141c-2.885-.758-2.036-2.259-2.075-4.969l3.056-1.521c-.847-.085-2.179.288-2.796-.175-2.727-2.049.684-15.09.314-18.353-.303-2.668-4.82-6.934-1.592-11.066-4.304-.592-.22-4.473,1.076-3.41l.994,1.988.494-2.981,2.531.472-1.478-9.529-4.53.041-.074-4.45,3.074-.555c-1.172-2.678-1.683-7.545-.812-10.291.659-2.079,3.93-2.462,1.805-5.692l2.989,1.986.015-3.491c-.168-.979-5.719,1.499-6.005-1.494l6.005-2.501-2.012-.027c.103-1.657,1.143-6.84.791-7.977-.168-.541-1.487-.557-1.697-1.262-1.275-4.281-3.283-7.694-.082-11.784l-2.003-.955c3.375-.737,3.736-5.46,2.797-8.048-.277-.763-2.871.024-1.809-2.452l3.004-.014c-.141-1.905-2.15-.497-2.809-3.25-1.198-5.002,7.192-16.893-1.682-17.745l.504,1.997c-5.85-.891,1.201-5.402,3.988-5.487-5.816-3.264-7.35-11.947-14.989-12.5l-.014,5.993-2.983-.996c.849,2.501,4.142,12.758.458,13.98-5.773,1.915-2.813-6.212-2.9-7.087-.251-2.528-3.539-4.047,1.429-4.911l-2.077-2.419c.597-2.648.274-5.121,3.092-6.063l-3.02-.504c2.089-5.302-.518-13.445,7.008-13.986-2.081,11.272,2.305,8.907,8.536,12.955,2.764,1.795,9.607,12.499,12.965,13.083l20.747-5.11c.964-.322.832-1.769,2-2.222,7.973-3.098,15.87-6.317,23.659-9.82-.008-7.444-3.401-5.278-6.543-8.874-1.449-1.658-1.705-3.765-5.179-5.967-2.163-1.371-6.082.308-5.193-6.058l-3.99.993-.013-4.989c-5.218,4.205-4.842.649-3.998-3.997l-1.478,1.987c-4.089-2.18-7.838-1.723-10.886-5.992-.391-.548.396-1.878.314-1.932-.478-.311-2.583.071-3.904-.586-2.28-1.134-2.851-4.962-5.847-5.667l.815-1.809c-.419-.302-1.839.842-3.021.42-4.989-1.782-13.339-10.431-17.406-14.059-2.752-2.455-5.845-4.671-9.145-7.339-1.41-1.139-1.218-4.653-3.442-2.521-.087.659-.044,1.308.074,1.958.686,3.783,3.267,8.869,4.344,12.682.858,3.039,2.422,6.847,2.6,10.43.127,2.558.528,3.005-2.015,3.903l3.997,7.029-2.985,1.48c5.706-.973.433,3.568,3.989,5.514l-2.985,1.481c1.977-.879,3.919,7.268,3.989,8.627.178,3.45-3.006,4.427-5.993,4.383l1.99-4.508c-4.992-2.813-2.951-11.798-3.335-16.86-.207-2.736-3.242-6.26.396-7.148-3.555-6.274-3.77-16.079-6.43-22.26-.169-.393-1.687-.567-2.267-1.672-1.345-2.563,2.588-3.651,2.592-3.995.053-4.066-3.992-4.177-5.529-5.489-3.141-2.682-6.935-14.373-7.626-14.899-.582-.444-2.338-.108-3.248-1.184-1.68-1.989-6.589-7.712-7.541-9.492-.842-1.575.667-1.764,1.844-.612l1.657-2.872,6.545,7.509c.318,5.927,9.884,4.164,6.954,11.486l3.019-.614c1.371,8.014,11.235,10.499,15.561,15.548,1.118,1.305,1.103,3.128,1.681,3.788,1.268,1.446,5.563.899,4.739,5.293,3.672-2.094,3.244,1.12,5.756,2.939,3.779,2.736,9.256,2.078,6.239,9.04,2.382.883,2.454-3.119,4.501-2.969,2.484.182.401,3.754.525,3.936.275.403,6.868,1.596,8.903,3.587,1.255,1.228.767,2.539,1.235,3.24.151.227,5.025,1.303,5.297,1.284,1.057-.073-.173-2.527,1.527-2.066l.11,4.897c4.613-.358,4.436,2.509,6.34,4.134,1.709,1.459,8.15,6.624,8.934,7.961.423.72-.447,1.93-.359,1.978,1.139.624,7.465,1.899,9.302,2.959,2.213,1.277,8.439,10.491,9.624,11.577,2.58,2.365,8.903-.327,8.054,8.484-1.967-.26-5.283-.504-5.015-2.983-3.334.957-1.284,4.387-1.54,6.529-.279,2.331-1.651,6.131-1.881,8.32-.805,7.677.565,16.375-2.617,23.615l2.052,1.514c-2.3,1.512-5.75-1.877-4.918-2.912.345-.43,2.322.686,1.916-1.066l-2.048-.567c.986-5.66,3.19-12.542,1.15-18.021l1.986-1.019c-1.809-4.424-.572-4.547,2.915-6.91l-3.478.524-.518-2.016,2.996-1.998-45.994,17.009.917,3.55-1.897,1.031c.4,3.448.437,9.431-.071,12.774-.551,3.62-4.975,11.181-.943,12.111-3.937,3.891-.897,8.787-1.011,13.009-.324,12.04-.354,21.801-1.801,33.294-1.105,8.775,1.948,14.17,2.532,21.549.408,5.149-2.868,10.747-2.324,14.65.124.887,1.607,7.474,1.809,7.827.315.551,2.506.713,2.769,1.739.166.648-2.895,9.56-2.786,12.959.174,5.411,4.282,6.891,1.202,13.385-1.052,2.22-3.141,3.322-4.394,5.098l3.778-.471.129-2.053c.784-.51,1.666-.432,2.543-.517,3.185-.308,11.423-1.067,12.045,2.064l.991-2.038,2.016.002c.664,3.515,2.909.543,5.485,2.031l.012-3.011,3.562.919c.829-4.746,7.118.402,7.427.081-1.8-5.807,1.092-3.507,3.998-.998l.009-33.995,5,.005c-2.279,2.883-.948,6.289-1.164,8.53-.067.692-2.538-.009-1.857,2.966.096.418,2.013.072,2.136,1.959.18,2.762-2.191,16.606-.12,18.071,6.102-1.028,11.78-3.801,17.861-4.996,2.794-.549,4.997,1.709,7.527-2.641,2.751-4.731.888-21.272,1.05-27.398.247-9.357.921-18.663,1.462-28.019.211-3.653-2.296-9.199,2.114-10.99l-.072-1.443c-4.577-.865-.306-10.339-1.976-14.364,6.616-4.945,3.658,2.413,4.043,4.721.183,1.093,2.555-.256,2.004,2.084-.242,1.026-1.645.086-1.823.975-.971,4.873-.231,15.481-.569,20.864-.767,12.209-2.714,26.011-2.607,38.165.024,2.686,1.818,6.074,1.886,8.075.013.376-3.708,1.867-1.884,6.43l2.981-2,.995,1.989.178-1.685c4.682,1.276,5.814-4.457,7.883-5.807,1.048-.684,2.947.38,4.241-.394,1.184-.708,1.387-2.986,4.014-4.341,2.023-1.044,4.317.564,5.431.014.28-.138,3.055-3.957,4.031-4.779,1.663-1.402,4.933-1.282,5.384-4.857l1.842.867c1.071-3.844,1.244-9.005,2.49-13.029,3.897-12.576,11.27-25.202,17.522-36.493l-1.921-.897c2.025-6.937,1.695-17.834,4.622-24.342.553-1.23,2.134-1.167,2.286-1.93,3.034-15.2,4.044-30.752,9.008-44.824-3.555-.94-1.017-2.408-1.39-4.492-1.21-6.752-3.042-12.166-.734-19.401l3.125-.609c-.35-1.825-1.639-1.661-2.99-.992-.668-5.544,2.059-11.6,1.58-16.983-.15-1.68-2.105-10.825-2.611-12.254-.488-1.377-2.323-1.185-2.973-2.271-1.558-2.602,4.44-.406,3.99-2.48l-4.999-.009c-1.415-6.34,4.55-12.791,3.989-18.413-.477-4.773-7.039-10.789-8.143-15.93l-2.837-1.657c-1.503,6.256-3.323,13.978-5.636,19.892-1.879,4.802-6.873,13.148-9.505,18.48-4.76,9.641-13.135,17.683-23.558,21.415-1.076.385-1.976,1.43-2.81,2.209l-1.485-1.991-.615,3.076-3.403-.072c1.172,2.256-1.692,6.329-4.991,4.99-2.19,12.71,1.188,26.521-3.007,38.536l1.953.887c-.039,2.715-3.42,6.17-3.541,7.034-.106.755.586,1.98.577,3.039-.032,3.862-2.486,4.998,4.011,3.509-1.179,3.262.622,13.9-.026,16.368-.197.748-2.002.644-1.958,1.081.208,2.034,2.994,5.015.974,8.553l-1.78-.711-.703,1.742-3.023-1.014c-.658-2.725-1.801-6.704,1.519-7.516-3.299-2.893-2.701-8.269.003-11.498l-3.014-.018c3.182-6.401-.32-12.685,1.917-19.556.573-1.761,2.193-1.509,2.097-1.911-.174-.727-1.561-1.527-1.597-3.032-.216-8.935,2.872-20.841,1.683-30.07-.248-1.923-2.001-1.252-1.956-1.904l.883-2.507c-5.394.032-6.375-7.678-7.021-12.016-8.735,2.741-2.697-2.912-2.941-5.484-.063-.659-3.104.023-2.041-2.511,5.154.824,1.131,7.628,7.4,5.2l1.602,5.284-2.004-.494,1.006,4.005c2.064.31,2.197-.005,1.994-1.996l2.973,2c.214-4.742,5.296-4.441,7.306-5.959,5.18-3.912,25.194-22.822,28.026-28.073.335-.622-.337-1.846-.247-1.896l2.932-.082-1.941-3.362c2.982-1.818,1.78-3.828,2.475-5.553.379-.941,2.031-1.593,2.328-2.79.286-1.157-.827-2.441-.624-3.126.3-1.015,5.403-3.047,5.63-3.281.099-.102-.523-1.681-.176-2.649,2.58-7.212,1.171-6.135,1.286-12.783.162-9.32,4.842-11.947,1.005-22.691-.409-1.145-2.159-.98-2.775-2.423-1.103-2.586-.236-8.295-.785-9.334-3.258-6.17-10.803-13.412-13.718-20.695-8.195-2.361-13.508-7.637-20.818-12.69-6.538-4.52-14.809-6.554-21.576-10.424-4.678-2.675-9.057-5.891-13.047-8.159-4.462-2.537-9.095-4.492-13.582-6.914-3.216,3.556-7.762,3.69-11.419,5.288-.314.137-1.837,2.85-4.222,3.168-2.17.289-2.608-3.203-5.041-2.562l1.939,2.49c-.041,2.247-9.804,3.321-11.708,4.233-2.153,1.031-3.137,4.788-6.221,5.268l-1.01-3.991,3.997-.018-.997-2.983c4.866,1.384,4.585-1.673,7.409-3.05,3.316-1.616,19.492-7.49,20.537-9.004,1.574-2.281.299-1.299-.93-1.658-6.172-1.802-9.813-3.19-15.927.291-1.7.968-2.559,2.953-4.092,3.819-2.297,1.297-5.967-2.954-5.008,2.587-3.948-1.985.095-7.259,2.009-9.494,6.082-7.102,10.242-7.68,16.04-17.758,3.316-5.763,7.172-18.415,5.454-25.875-.15-.65-3.905-7.884-4.38-8.297,1.109-1.445.851-7.746.018-8.962-.895-1.305-2.176-.35-3.131-.609ZM165.043,39.604l.504-2.985c-1.591,1.542-3.335.168-1.5,2.986-1.403.03-2.935-.236-4.296.215-4.119,1.363-9.947,5.417-13.336,7.72-1.122.763-2.581.203-3.871,1.035-4.315,2.781-2.705,6.756-4.518,11.046l-3.977-1.008c.962,2.37-1.689,2.98-1.93,3.787-1.043,3.481.37,8.212-.158,10.577-.06.269-2.854,2.018-1.932,4.635l4.022.008c.079,1.181-1.036,6.999-.886,7.489.246.803,1.852.777,2.353,1.533.589.888.314,5.269,2.475,7.543,1.252,1.317,3.054,1.036,3.758,1.717,1.592,1.54,2.143,6.365,2.432,6.584,1.151.875,6.113.964,7.362,4.124l1.096-3.105c6.49-2.536,5.742,2.376,7.99,4.07,1.599,1.204,3.696.244,5.166.731,1.104.366,1.23,1.79,1.501,1.913,3.033,1.379,8.125,1.482,9.739,5.383-5.383.253-3.9,3.148-4.997,7.003l2.986-4.983c.423,2.333,1.369,5.379,4.012,4.983l-1.507-3.983,8.072,4.958c.817-3.735,11.547.198,11.448,4.027h.975c-1.366-3.32,6.177-.62,8.253.1,2.093.726,7.912,5.082,10.244,5.671,1.498.378,4.715-.173,6.51.247.396,1.818-1.687.631-1.996.999-2.224,2.645,7.903.896,8.345,1.018,1.052.29.813,2.078,2.1,2.591.816.325,5.134-.148,6.553.376.59-5.126-2.35-3.969-3.673-5.309-7.183-7.277-10.048-9.602-18.609-14.711-.727-.434-4.044-3.717-4.367-3.826-1.908-.645-4.787,1.039-4.367-2.137l-3.978,1.993-2-2.995-.986,1.98c-2.431-4.731-10.846-5.316-15.591-7.876-1.993-1.075-12.474-7.05-13.437-7.712-2.407-1.655-5.735-7.08-8.747-8.599l.766-1.793c-5.284.859-6.115-3.603-8.977-6.535-3.198-3.277-8.456-4.631-4.033-9.462-6.671.24-5.383-4.473-6.589-6.029-1.389-1.792-4.568-1.578-3.399-5.983,6.72.63,4.337,2.926,6.98,6.514,5.676,7.705,15.497,12.952,19.58,21.548,9.747-.894,19.767-1.775,28.846-5.241,4.214-.842,10.135-1.214,14.092-2.301,1.468-.403,2.081-2.324,4.015-2.55,2.774-.324,7.016,3.116,10.471,2.024,2.096-2.037-9.103-12.2-10.684-14.292-3.618-4.788-2.258-3.561-6.962-8.047-3.391-3.234-5.991-8.234-11.215-8.794l-.138-4.869c-2.882,1.959-5.835-.32-8.007-2.482-2.551-2.54,1.343-.557,1.007-2.501-3.21-1.037-2.478,1.877-4.474,2.081-4.297.439-3.154-1.481-4.211-2.081-4.131-2.349-9.976.292-14.309.981ZM189.396,99.409c-.307-.568.343-1.556.171-1.795l-1.025-.982c-2.264,3.351-3.694-.024-6.49-1.019-1.324,1.281,3.925,4.485,4.598,5.27.248.29-.516,2.19.907,2.72l.466-1.984,3.023-.01c.91-2.529-1.438-1.808-1.65-2.2ZM146.744,109.976c-.595-.68-2.65-1.927-3.474-2.115-5.842-1.334-26.89,4.966-32.142,8.338-3.736,2.399-5.824,8.457-11.516,5.395l-.781,1.732c-2.876-1.454-1.414.816-2.781,2.567-4.103,5.259-15.083,9.445-20.533,12.648-3.051,1.794-6.926,7.668-11.059,9.073l-2.872-.926c-1.058.113-2.091,8.774-4.607.511,1.923-1.058,2.486-.925,2.052-3.586-2.307,1.721-3.171,2.614-5.983.99,1.06,5.307-3.886,2.564-4.777,3.173-2.26,1.546-2.582,6.425-3.103,7.176-.677.975-9.583,6.796-11.669,9.619-1.012,1.369-1.907,2.001-1.453,4.037l9.414-8.623c3.016-.224,3.077-2.724,5.041-4.414,2.475-2.129,6.016-3.18,8.045-6.953l-1.504,3.984,3.979,1.511c-1.214.375-3.967,4.107-4.241,4.227-1.387.605-3.238.015-3.744.285-.091.048.835,1.399.447,2.01-.919,1.448-3.254,1.215-4.167,2.268-4.662,5.375-8.41,7.803-13.61,12.645-1.645,1.531.717,4.185-2.657,2.061l.991,2.997-3.994-.986.917,3.442-2.917,2.047c5.33,4.279.757,6.484-.017,11.498l-.996-1.994c-2.819,1.313-3.736,5.004-2.085,7.578l-1.911.883,2.912,17.129-1.898.423,1.237,1.025.767,2.462-3.582,1.476-.424,5.025,2.907.568c-.25,1.564,1.399,6.481,2.308,8.746.593,1.478,3.017,1.572,2.805,3.658,2.239,1.517,3.917-5.494,6.228-6.311,1.826-.646,4.678.791,6.741.329l-2.994-2.979,8.004-2.016c.963-2.738-1.674-1.711-1.92-2.06-1.674-2.369,4.505-3.295,5.907-3.943l-.004,2.285,1.991.701c.058-2.287,2.85-1.693,1.019-3.962,4.072.953,2.539-2.376,4.417-4.089,8.506-7.757,32.928-14.573,42.318-19.897,3.878-2.199,8.888-4.638,13.272-5.038l-1.018-1.984c2.44.854,2.879-1.443,3.831-1.903,15.164-7.328,29.858-12.69,44.433-20.383,1.596-.843,3.956-1.241,5.745-1.737,1.16-3.412-5.024-1.607-6.537-1.059-6.291,2.276-11.883,5.456-18.628,7.405-1.475.426-2.765.689-4.32.7-2.342.016-.85.203-1.101-1.08-1.87-9.544,9.044-3.483,9.587-3.96-3.056-3.825,4.108-5.553,4.015-2.005l.973.007c-.062-1.288,4.23-5.899,5.07-6.394,1.829-1.076,6.725-2.779,9.744-4.267,8.215-4.049,13.091-6.301,21.583-7.682,1.535-.25,5.379-.858,4.627-2.628l1.985-.015.987,1.988c.291-3.523,4.857-3.652,7.49-5.052l1.512,2.051c.184-3.159,3.419-3.543,6.013-4.007-.675-2.913-2.996-.747-4.419-1.047-23.546-4.968-43.429,1.685-65.257,10.997-4.286-.477-10.475,9.491-12.336,2.067l-1.469,2.004-2.389-1.135-.12-2.873c3.729,1.955,2.736-.491,3.506-.721,2.751-.823,5.819-.792,7.995-3.275l1.483,1.989.661-3.072,3.29-.023.123-2.778c6.846.968,11.925-5.772,17.953-7.626,1.639-.504,4.563.453,4.786.284.771-.582.568-2.433,3.187-3.369,1.724-.616,5.316-.644,5.498,1.587,4.003-4.718,7.131-1.807,10.901-2.095,5.173-.396,10.204-2.744,15.591.093l1.02-2.986c-7.806-1.55-17.507-3.643-23.518-9.022l-.961,2.019-12.919-6.149c-1.488-.838-5.934-5.972-6.557-6.34-.763-.451-3.587.895-5.433-.438-.873-.63-.423-2.161-.91-2.717ZM266.036,133.622c-2.954,1.499-6.191-.164-8.444.039-3.04.275-10.676,3.762-12.779,5.28-.959.692-3.629,1.602-3.739,1.777-.369.585,1.01,2.054.776,2.736-.069.199-3.03,1.253-2.807,3.148,1.804.356,2.861-1.284,4.457-1.55,1.875-.313,3.804.53,5.55.078,3.308-.857,7.183-4.664,11.338-3.403l.656,3.413-5.982,1.972c6.706,3.706,9.618,12.724,15.979,2.51-3.179-.156-6.707-1.119-5.994-5.006l9.985,1.994c.675-3.629-3.696-3.706-3.595-8-5.04-2.464-4.261.785-5.066.99-2.578.658-5.789-.375-8.321-1.003l7.987-4.978ZM22.047,180.608c3.709-.216,4.858-6.087,5.62-8.887.212-.778,2.473-2.174-.131-3.104-.629-.225-6.351,10.07-5.49,11.99ZM14.432,239.348c-.548-1.564.745-6.129-1.377-6.727-2.247,2.857-.914,4.407-1.05,6.382-.049.715-1.735.485-1.941,1.292-.935,3.653.371,6.68.455,9.385.442,14.118.38,28.436,2.399,42.455l-1.857.489-.011,1.992,2.04-.546,1.451,3.553c.95-.004.357-7.853.555-9.451.26-2.095,1.024-7.608,1.432-9.557,1.185-5.654,3.33-13.657,5.011-18.014,2.17-5.625,4.026-8.724-.473-14.235-1.297-1.589-5.762-4.527-6.635-7.019ZM25.362,364.402c-.226-.646.679-1.709.19-2.725l-4.498-6.058-1.013,11.983,4.994-.997,2.003,3.002c1.518-3.84-1.573-4.915-1.675-5.206Z"/>
      <path d="M237.543,60.078c3.304,4.565,3.699,7.9,6.378,12.404.3.504.103,1.471.13,2.134,8.125-5.538,19.017-.963,27.953-4.059l-.804-1.83,1.832-.127-1.875-1.459c.105-2.353,3.159-18.17,6.88-14.533,1.479,4.941-1.862,8.059-2.762,11.769-.483,1.992.868,6.732-.244,9.231l-3.989-1.985,2.531,2.99c1.12,2.665-4.077,2.427-4.801,2.912-.917.614-1.035,2.122-2.393,2.884-4.224,2.369-13.769,2.637-18.328,1.2-2.217,4.331,2.211,6.048,2.804,8.755.261,1.191-.813,2.491-.556,3.079.137.314,4.535,1.732.117,5.044l-3.37.12.892-3.553c-3.623-1.643-2.948-8.774-3.912-12.444l-2.519.101c-.659-4.823-3.324-8.522-4.976-13.144-.385-1.076.492-2.495.292-2.793-.301-.448-2.012-.398-2.602-1.774-.465-1.085,1.121-3.989.812-5.387l-2.491,1.983c-2.744-2.058-1.544-6.783-5.497-7.003l2.455-1.935-.237-1.557c2.131-4.399,6.154,6.97,6.49,7.495.394.617,1.387.926,1.79,1.482Z"/>
      <path d="M229.044,383.625l-3.002,5.976,2.99.516.137,4.061,1.722.886c-1.699,5.372,3.189,10.609,4.474,15.745.372,1.485-.508,3.469-.314,3.804.076.131,2.365-1.305,2.989.505l-1.989,1.482c4.974-.486,3.122,4.79,6.987,5.008l-1.913-9.581,1.914-1.406-1.994-.017,2.05-4.473-2.044-1.505,4.889.102c-.574,6.059,3.526,13.723.098,18.876l3.009.02-.882,4.551c2.998,1.009,2.341,3.725,2.854,6.365l-4.978,1.065,1.013-1.968c-4.51.154-3.47-2.706-4.976-4.513-3.861-4.634-3.935-5.273-6.644-10.447-.636-1.215-3.976-1.352-2.399-6.059l-1.977,2.988c-1.021-1.298-.08-4.361-.286-4.803-1.483-3.186-3.457-4.66-4.286-10.138-.303-2.004.906-3.95.626-5.35-.063-.315-4.18-4.414-5.047-3.694-2.191,1.818-2.846,10.015-4.289,13.232-1.159,2.584-11.387,18.151-13.268,19.741-1.043.882-2.124,1.037-3.422,1.084l.973,1.929c-5.27-.955-2.756,3.673-3.292,4.813-.089.19-1.297.255-1.716.92-1.701,2.698-2.642,5.142-6.486,6.274-1.773-1.361-1.286-1.166-.801-2.755.5-1.639,3.948-11.689,4.457-12.083.8-.62,2.983.296,3.676-.3.676-.581-.258-4.772,4.144-3.872-.241-2.712-5.212.648-5.993.002.411-.9.952-2.32,1.531-2.991,1.709-1.98,2.261,1.077,4.467.488,2.526-.674,4.103-3.837,4.969-6.103l3.028.627c-1.522-5.789,5.602-4.784,2.984-8.423l2.014-.601-1.992-1.48c3.495-2.295,2.686-6.071,3.783-8.214,1.197-2.337,3.723-5.152,5.269-7.804.546-.936.074-2.235.161-2.321,1.647-1.63,4.815-.76,6.787-.158Z"/>
      <path d="M242.039,352.622c-1.434,4.09,1.008,9.261-2.005,12.513l2.071,1.107c-1.286,3.866.959,7.333-2.069,10.362l3.012.013-.915,3.558c4.037.999.48,6.186.338,7.956-.167,2.089,3.774,5.652-.92,6.493l.54-3.453-2.123-1.159,1.145-4.788c-3.135-2.379-3.211-7.927-3.626-13.134-.174-2.176-2.376-3.493.562-5.997-3.626-1.044-1.028-8.327-1.124-11.814l5.114-1.655Z"/>
      <path d="M270.768,94.325c-.557.764-2.302.924-2.724,1.792,4.342,2.143-.458,10.586-.085,15.004l-1.904.466c.484-2.919-1.991-.531-2.754-2.442-1.041-2.606,2.021-9.344,2.427-12.318.808-5.924-1.873-14.587,6.305-16.213.483.642-.228,12.291-1.264,13.711Z"/>
      <path d="M213.051,298.604l-3.02.509,2.02,1-2.02,1,3.011.51c-1.004,2.373.251,7.743-.23,9.501-.114.417-4.816,3.814.22,6.487l.994-3.995c.534,2.502,2.266,5.068-.472,6.964l-5.008-2.904c1.468-6.067-1.194-10.818-1.388-16.637l1.895-.926-3.023-.509,2.743-3.206-.739-1.775c3.14-.639,3.959,1.487,5.016,3.981Z"/>
      <path d="M218.015,30.625c.533,2.365,2.647,3.509,1.018,5.982l4.015.014-1.02,1.985c4.222-.736,2.885,1.811,4.07,4.259.374.773,1.986.903,1.952,1.229-.197,1.879-3.19,3.012-3.87,2.362-.477-.456-2.364-4.842-4.368-6.575-.244-.211-1.297.673-1.542.463-3.436-2.95-7.083-8.343-.257-9.719Z"/>
      <path d="M204.043,404.604l-1.993.996,1.983.602-.946,4.937-5.038-.538,2.075-1.602c-1.861-4.498.392-10.464,3.918-4.395Z"/>
      <path d="M422.042,384.623c-3.266,3.21,1.47,8.382-3.995,9.006l.006.97c6.083,1.497-2.051,8.033-2.077,8.605-.073,1.63,2.589,7.29,2.083,9.896-4.537,3.095-4.081-8.027-4.097-11-.011-2.058.963-3.96,1.039-6.008.074-1.99-2-7.506.556-8.468l2.475,1.985.49-4.013,3.52-.972Z"/>
      <path d="M423.045,371.604l-2.995,1.007-.004-40.993,2.633,1.477c.088,9.561.798,19.45.358,29.039-.156,3.413-3.497,5.446.008,9.47Z"/>
      <path d="M422.992,320.62l1.05,2.982-5.004.017-.123,20.293-2.866,1.695c-1.273-1.21.007-16.749.445-19.047.823-4.318,2.052-5.577,6.499-5.941Z"/>
      <path d="M418.027,346.616c1.49,3.188.143,5.74.008,9.002l-2.989-.005c-.031-.762.145-11.636,2.981-8.996Z"/>
      <path d="M163.856,196.452c-.105.227-2.855,1.3-2.762,3.755-5.349-1.348-3.445.752-5.034,1.756-9.664,6.107-21.007,9.695-30.667,15.003-19.575,10.756-41.031,23.726-59.993,37.503-2.095,1.522-4.795,2.271-7.363,2.15l1.017,1.984c-5.628.185-4.306,7.517-11.003,1.996-.181-1.848,2.175-.552,3.731-1.267.376-.173,2.927-4.062,3.484-4.389.593-.348,2.049.422,3.048-.236,1.067-.703,1.27-2.601,2.999-3.409,1.843-.861,3.565.448,3.685.308.17-.198.028-2.258.997-3.558,3.731-5.007,31.224-20.526,38.308-24.459,2.136-1.186,4.815-6.031,8.731-3.971l.016-2.998c3.139.768,4.524.528,7.276-1.027,9.199-5.196,23.479-13.795,34.371-18.792,1.011-.464,7.429-3.189,7.852-3.166.564.03,1.856,1.628,1.307,2.815Z"/>
      <path d="M49.042,382.613c-4.1-2.971-7.134-14.264-4.863-17.857.543-.859,4.026-.276,3.862-2.122-3.991-.129-1.792-2.642-2.475-4.004-.742-1.478-3.284-1.63-3.544-2.698-1.073-4.406.821-3.311,4.013-2.322.931-3.576-3.182-1.337-4.005-2.001l.203-4.803,1.822-.693-2.023-1c3.883-.37,3.205-2.097,4.023-5.493l.991,3.002,1.98-.027c.036-3.203,2.637-2.612,5.014-1.97l-2.991,2.007.723,1.986,2.296.507c-.559,4.59.154,7.292-3.043,10.976l2.038-1.489,1.956,1.502c-1.886,1.283-1.519,2.53-.984,4.497l-2.983-1.997,2.985,5.989-3.99.505c4.455,4.06,10.263,11.619,4.008,16.502l-2.508-6.993-2.366,3.305,2.86,4.68c-.992.061-2.005-.045-2.999.01,2.548,1.846,4.164,3.283,7.99,1.997,1.293,5.307-4.388,3.504-1.997,9.009l-1.966-1.014-1.531,4.003c.812-4.998-1.541-2.873-3.308-4.151-.419-.303-1.751-8.29-2.187-9.835.992-.059,2.005.046,3-.009Z"/>
      <path d="M214.037,172.618c-.328,4.841-5.266,4.72-8.224,6.071-6.608,3.02-13.845,6.057-20.996,9.23-1.427.633-1.628,2.382-2.512,2.638-1.749.508-5.336.56-7.254.04l-.018,4.014-2.428-1.065-1.058,2.061-.509-3.99-4.996.984c1.369-3.019,5.353-3.161,7.992-1.983l.147-2.81c2.779-.521,5.474-.869,8.017-2.253,2.338-1.272,5.104-4,8.657-5.63,2.832-1.299,22.024-8.303,23.181-7.309Z"/>
      <path d="M447.921,146.736c2.997,7.389-.856,6.516-3.446,9.784-1.764,2.226-4.722,8.071-7.678,9.378-1.841.814-5.512-.884-7.75-.296-.43-1.702,1.654-.463,1.815-1.455.098-.606-.189-4.606-1.798-4.524-2.106,2.035-.852,3.799-1.023,3.958-.735.684-7.479,1.919-9.004,1.039l1.011,1.982-7.544.161-.476,1.838-2.49-3.983-.503,3.016-1.82-.826-1.777,2.745c-2.462.874-3.696-1.418-5.056-1.645-4.497-.753-7.155,4.244-7.336-5.287l2.938.912,1.049-1.913c-.605,1.831.797,3.862,2.528,4.004.351.029.456-1.604,1.231-1.943,1.943-.851,6.647-1.58,8.608-1.09,1.172.293-.01,2.448,1.632,2.019l.485-2.898c5.553.553,15.027-.601,17.541-6.079l1.961.025.518,1.954c1.142-2.288,3.753-2.304,5.178-3.322.804-.575.999-2.244,2.348-3.135,1.331-.88,3.517-.825,4.388-1.442,1.39-.984-.925-4.462,4.47-2.974Z"/>
      <path d="M385.259,163.295c.339.231,2.697-.352,3.294,1.316l.969-2.014,2.388,1.156-1.474,3.754-13.4-1.885v-4.015s-1.967.992-1.967.992c.161-1.202-1.14-2.51-1.031-3.463.271-2.375,2.159-.595,2.48-.559,6.546.739,5.453,2.479,8.742,4.719Z"/>
      <path d="M120.041,160.602c-3.361,1.183-4.907-.205-7.99-.991-.923,3.995-1.398,4.184,1.491,7.014l1.115-2.089,7.706.171,2.212,3.923c-1.741,3.978-7.19,3.145-9.322,4.374-.154.089-.205,3.015-2.178,1.557-.136-.1.277-3.404-2.031-1.939-.157.1.697,1.777.343,2.729-.639,1.714-2.574.62-2.339,2.25,4.758,2.008,7.346-2.135,11.998.003l-1.001-1.966c2.739-1.643,4.557-.261,6.55-.162.324.016,1.432-3.499,5.442-1.859l-1.986.991c.492,4.521-2.024,4.793-6.12,6.459-4.466,1.816-12.239,1.889-17.969,3.151-2.661.586-9.317,4.73-8.938.419l-1.973-.003-.168,1.706c-4.461-.871-8.8.347-12.832,2.279l-2.006-4.992c3.813.527,5.598-2.499,7.263-3.28,6.979-3.276,14.71-4.715,21.253-8.741l.492,2.002,1.963-1.487-2.48-3.504-1.049,2.042c-2.481-1.021-5.067-.187-5.933-3.047-5.514,5.25-10.814,2.134-16.25,1.228-2.695-.449-6.177,1.549-8.796-2.196-.979-5.325,5.809-2.227,8.525-4.039l.058,2.993,3.33-.218,1.63-3.76,1.979,1.989.067-2.916c.657-.678,9.518-.264,11.378-.622,5.49-1.055,13.057-7.175,16.564.532Z"/>
    </g>
  </g>
</svg>