<?xml version="1.0" encoding="UTF-8"?>
<svg id="b" data-name="Layer 2" xmlns="http://www.w3.org/2000/svg" width="19.144" height="19.146" viewBox="0 0 19.144 19.146">
  <defs>
    <style>
      .d {
        fill: #f8f8cd;
      }
    </style>
  </defs>
  <g id="c" data-name="Layer 1">
    <g>
      <path class="d" d="M12.469,19.107c-1.861.053-3.884.052-5.745,0-1.914-.053-3.819-.227-5.205-1.713C.251,16.035.149,14.521.085,12.756c-.081-2.237-.14-4.774-.003-7.001C.306,2.109,2.112.291,5.771.075c2.177-.128,4.604-.068,6.79.003.457.015.925-.004,1.381.036,3.358.297,5.027,2.4,5.169,5.677.106,2.455-.082,4.986-.002,7.449-.056,1.736-.495,3.358-1.845,4.526s-3.095,1.291-4.795,1.34ZM6.231,1.801c-3.113.12-4.31,1.167-4.433,4.326-.09,2.324-.081,4.797.038,7.115.145,2.818,1.191,3.94,4.046,4.116,2.122.131,4.509.068,6.64-.003,1.504-.05,2.907-.005,3.976-1.245.93-1.079.852-2.431.893-3.764.064-2.077.119-4.333.001-6.404-.179-3.138-1.487-4.05-4.531-4.154-2.117-.073-4.514-.069-6.631.012Z"/>
      <path class="d" d="M9.029,4.706c4.897-.433,7.41,5.479,3.718,8.628-2.963,2.527-7.622.619-8.038-3.221-.282-2.603,1.665-5.172,4.319-5.407ZM9.215,6.419c-2.206.214-3.457,2.696-2.437,4.645,1.028,1.964,3.808,2.277,5.241.575,1.869-2.22.093-5.501-2.805-5.22Z"/>
      <path class="d" d="M14.436,3.363c1.641-.276,1.887,2.056.429,2.253-1.536.208-1.752-2.03-.429-2.253Z"/>
    </g>
  </g>
</svg>