<?xml version="1.0" encoding="UTF-8"?>
<svg id="b" data-name="Layer 2" xmlns="http://www.w3.org/2000/svg" width="143.554" height="197.03" viewBox="0 0 143.554 197.03">
  <defs>
    <style>
      .d {
        fill: #c63531;
      }
    </style>
  </defs>
  <g id="c" data-name="Layer 1">
    <path class="d" d="M64.375.305c51.646-4.556,90.681,42.672,76.09,92.565-7.43,25.407-25.78,53.107-41.359,74.429-5.741,7.857-12.879,18.014-19.402,25.016-6.07,6.516-9.811,6.14-15.714-.27-6.543-7.104-13.609-17.115-19.386-25.033C26.359,142.005-1.63,100.031.074,68.261,1.908,34.077,29.886,3.348,64.375.305ZM68.863,42.725c-25.154,2.489-35.419,34.752-16.102,51.246,17.242,14.723,43.86,5.403,48.016-16.834,3.59-19.21-12.584-36.325-31.914-34.412Z"/>
  </g>
</svg>