<?xml version="1.0" encoding="UTF-8"?>
<svg id="b" data-name="Layer 2" xmlns="http://www.w3.org/2000/svg" width="186.339" height="228.875" viewBox="0 0 186.339 228.875">
  <defs>
    <style>
      .d {
        fill: #c63531;
      }
    </style>
  </defs>
  <g id="c" data-name="Layer 1">
    <g>
      <path class="d" d="M85.578.305c51.646-4.556,90.681,42.672,76.09,92.565-7.43,25.407-25.78,53.107-41.359,74.429-5.741,7.857-12.879,18.014-19.402,25.016-6.07,6.516-9.811,6.14-15.714-.27-6.543-7.104-13.609-17.115-19.386-25.033-18.244-25.006-46.233-66.98-44.529-98.75C23.111,34.077,51.089,3.348,85.578.305ZM90.066,42.725c-25.154,2.489-35.419,34.752-16.102,51.246,17.242,14.723,43.86,5.403,48.016-16.834,3.59-19.21-12.584-36.325-31.914-34.412Z"/>
      <path d="M39.157,155.976c8.955-.71,12.329,11.703,3.602,15.62-7.541,3.384-20.009,5.834-25.171,13.258-4.385,6.306,2.525,11.289,7.55,14.344,30.101,18.298,105.055,18.079,135.409.356,5.357-3.128,12.928-8.382,7.972-14.979-5.772-7.682-17.789-9.594-25.644-13.284-7.334-3.445-5.009-15.162,3.488-15.372,4.192-.104,18.743,6.636,22.811,9.035,22.537,13.291,23.065,34.132.5,47.72-36.013,21.686-116.5,21.456-152.704.181-22.794-13.394-22.521-34.596.183-47.902,4.238-2.484,17.507-8.621,22.004-8.978Z"/>
    </g>
  </g>
</svg>