<?xml version="1.0" encoding="UTF-8"?>
<svg id="b" data-name="Layer 2" xmlns="http://www.w3.org/2000/svg" width="826.824" height="9.775" viewBox="0 0 826.824 9.775">
  <defs>
    <style>
      .d {
        fill: #1c1c1c;
      }
    </style>
  </defs>
  <g id="c" data-name="Layer 1">
    <path class="d" d="M824.33,3.86c-.588-1.17.045-2.71-.649-3.86-7.815,3.09-23.641.16-33.492.76-34.925.47-69.097.79-104.128.93-71.903,1.8-144.711.71-216.659,1.06-15.087.61-65.959,1.17-76.414.13-33.477-.35-82.976-.02-119.139-.13-85.556-.4-171.505-.81-257.242-1.75-1.086.06-2.022-.03-2.836-.24-1.826.05-3.651.19-5.401.6-1.177.28-2.278.68-3.455.98-.981.25-1.991.48-2.882.86C.556,3.84-.379,5.49.149,6.47c.045.08.287.27.377.31.317.17.724.29,1.086.41.981.3,2.007.51,3.017.76,1.403.34,2.791.73,4.194,1.07,23.46.8,46.965-1.3,70.243-.48,109.951,1.83,219.661,0,329.386-.2,86.642,3.02,173.556.18,260.395,1.15,52.848-.49,104.58-.95,157.202-1.2,0-.23.136-.47.407-.68.694-.54.287-.99-.256-1.56-.664-.71-1.509-1.37-1.901-2.17l.03-.02Z"/>
  </g>
</svg>