<?xml version="1.0" encoding="UTF-8"?>
<svg id="Layer_2" data-name="Layer 2" xmlns="http://www.w3.org/2000/svg" viewBox="0 0 504.94 504.94">
  <defs>
    <style>
      .cls-1 { fill: #fbb03a; }
    </style>
  </defs>
  <g id="Layer_1-2" data-name="Layer 1">
    <animateTransform attributeName="transform" type="rotate" from="0 252.47 252.47" to="360 252.47 252.47" dur="8s" repeatCount="indefinite"/>
    <polygon class="cls-1" points="252.47 200.22 260.41 0 255.75 200.32 276.24 1 259.02 200.63 291.99 2.99 262.26 201.15 307.57 5.96 265.47 201.86 322.94 9.9 268.62 202.78 338.03 14.81 271.71 203.89 352.79 20.65 274.72 205.19 367.15 27.41 277.64 206.68 381.05 35.05 280.47 208.35 394.45 43.55 283.18 210.2 407.29 52.88 285.78 212.21 419.52 63 288.24 214.38 431.08 73.86 290.56 216.7 441.95 85.43 292.73 219.17 452.06 97.65 294.74 221.76 461.39 110.49 296.59 224.47 469.89 123.89 298.26 227.3 477.54 137.79 299.75 230.22 484.29 152.15 301.05 233.24 490.13 166.91 302.16 236.32 495.04 182 303.08 239.48 498.98 197.37 303.8 242.68 501.96 212.96 304.31 245.92 503.95 228.7 304.62 249.19 504.94 244.54 304.72 252.47 504.94 260.41 304.62 255.75 503.95 276.24 304.31 259.02 501.96 291.99 303.8 262.26 498.98 307.57 303.08 265.47 495.04 322.94 302.16 268.62 490.13 338.03 301.05 271.71 484.29 352.79 299.75 274.72 477.54 367.15 298.26 277.64 469.89 381.05 296.59 280.47 461.39 394.45 294.74 283.18 452.06 407.29 292.73 285.78 441.95 419.52 290.56 288.24 431.08 431.08 288.24 290.56 419.52 441.95 285.78 292.73 407.29 452.06 283.18 294.74 394.45 461.39 280.47 296.59 381.05 469.89 277.64 298.26 367.15 477.54 274.72 299.75 352.79 484.29 271.71 301.05 338.03 490.13 268.62 302.16 322.94 495.04 265.47 303.08 307.57 498.98 262.26 303.8 291.99 501.96 259.02 304.31 276.24 503.95 255.75 304.62 260.41 504.94 252.47 304.72 244.54 504.94 249.19 304.62 228.7 503.95 245.92 304.31 212.96 501.96 242.68 303.8 197.37 498.98 239.48 303.08 182 495.04 236.32 302.16 166.91 490.13 233.24 301.05 152.15 484.29 230.22 299.75 137.79 477.54 227.3 298.26 123.89 469.89 224.47 296.59 110.49 461.39 221.76 294.74 97.65 452.06 219.17 292.73 85.43 441.95 216.7 290.56 73.86 431.08 214.38 288.24 63 419.52 212.21 285.78 52.88 407.29 210.2 283.18 43.55 394.45 208.35 280.47 35.05 381.05 206.68 277.64 27.41 367.15 205.19 274.72 20.65 352.79 203.89 271.71 14.81 338.03 202.78 268.62 9.9 322.94 201.86 265.47 5.96 307.57 201.15 262.26 2.99 291.99 200.63 259.02 1 276.24 200.32 255.75 0 260.41 200.22 252.47 0 244.54 200.32 249.19 1 228.7 200.63 245.92 2.99 212.96 201.15 242.68 5.96 197.37 201.86 239.48 9.9 182 202.78 236.32 14.81 166.91 203.89 233.24 20.65 152.15 205.19 230.22 27.41 137.79 206.68 227.3 35.05 123.89 208.35 224.47 43.55 110.49 210.2 221.76 52.88 97.65 212.21 219.17 63 85.43 214.38 216.7 73.86 73.86 216.7 214.38 85.43 63 219.17 212.21 97.65 52.88 221.76 210.2 110.49 43.55 224.47 208.35 123.89 35.05 227.3 206.68 137.79 27.41 230.22 205.19 152.15 20.65 233.24 203.89 166.91 14.81 236.32 202.78 182 9.9 239.48 201.86 197.37 5.96 242.68 201.15 212.96 2.99 245.92 200.63 228.7 1 249.19 200.32 244.54 0 252.47 200.22"/>
  </g>
</svg>