<?xml version="1.0" encoding="UTF-8"?>
<svg id="b" data-name="Layer 2" xmlns="http://www.w3.org/2000/svg" width="117.537" height="343.281" viewBox="0 0 117.537 343.281">
  <g id="c" data-name="Layer 1">
    <path d="M95.552,302.924c.296,2.209.837,6.151,1.378,8.142.233.857-.36,1.391,1.065,1.155-.381-4.011-.989-7.988-1.497-11.989-1.591-.268-1.093,1.598-.946,2.693Z"/>
    <path d="M114.646,320.811c-4.253-1.326-6.697,4.788-10.405.406l-1.243.999c-1.068-5.247,1.27-6.133,5.863-4.137.638.277,2.235,3.287,2.628,1.364.265-1.298-1.498-2.147-1.384-3.385.117-1.278,1.509-3.801,2.387-4.83l-2,.254c-1.218-.723,1.227-3.152-.992-2.757.121,1.485-1.55,2.895-1.471,4.262.05.87,1.284,1.61.962,2.731l-3.994-1.004c-.388-1.433,1.075-.684,1.237-1.913.169-1.278-.386-3.243-.486-4.573-1.309,1.891-2.159,4.288-1.248,6.489l-1.678.403-1.042-.882c-.341-4.668-1.283-9.325-2.096-13.917-1.78-10.057-3.71-21.643-5.633-32.366-.199-1.11.179-2.43-.053-3.366-.095-.384-.996-.32-1.009-.618-.077-1.704,1.211-4.271-.406-6.476.114-.672,2.035-.829,4.063-.843-.382-.82-.687-1.674-.905-2.559-.982.089-1.963.163-2.942.207l-5.8-37.156c.247-.305.499-.524.757-.69-.17-.771-.332-1.543-.499-2.314l-.748.149c-.289-2.234-.663-4.487-1.068-6.705-1.032-5.665-1.82-11.981-3.039-17.537-.075-.342-.848-.201-.844-.452.008-.443.619-2.668.941-3.043l.183-.072c-.183-1.475-.359-2.95-.541-4.425-.017-.137-.037-.292-.057-.451l-1.442-.43-1.07-8.073c.299-.3.629-.525.971-.723-.176-.885-.337-1.772-.531-2.654-.313-1.417-.478-2.82-.521-4.197-.172.095-.335.192-.478.294-.508-3.729-2.25-7.832-2.762-11.481-.59-4.206-.892-8.659-1.457-12.933-1.025-7.756-2.151-14.356-2.965-22.227-.107-1.03-1.299-1.888-.25-3.261l2.426-.313c-1.101-1.384-3.164-1.002-2.994-3.248.64-.587,8.656,1.382,10.257,1.486.726.047,1.977.454,1.732-.732-.637-.379-2.312-1.593-2.845-1.673-.843-.128-1.195,1.223-2.148.912l.498-1.491-7.192-.56c-.972-.341-.452-2.235-1.798-1.951l1.034-1.208-2.036-13.775c1.577.944,2.511-.909,4.235-.92,1.592-.01,3.337,1.339,5.261.42l-.507-1.493,1.423-.083.09-1.417.972.485c.633-1.538,1.589-4.235,2.589-5.661,1.439-2.052,7.411-4.552,6.185-7.291l-7.252-10.019,3.734,2.493c1.377-2.514,7.482-5.019,8.495-7.019.359-.708-.264-2.397.751-3.24l-.988-.724,1.498-1.001c-3.66.099-5.852-3.371-9.464-4.047l.494-3.42c1.751-.575,6.797,1.41,7.759-.529.441-.889-.626-1.243-.566-2.033.356-4.63,5.863-6.212,4.322-10.725-1.922-1.042-5.764,1.28-7.763,1.759-.642-.175-1.123-2.256-1.172-2.89-.503-6.498,6.116-5.878,8.414-10.87-1.834-5.844-5.756-1.444-8.765.772-.272-.055-1.603-4.386-1.645-4.826-.216-2.231,6.9-11.915,5.888-15.655-1.064.091-2.567-.313-3.497.251-1.086.659-4.278,6.607-4.085,8.17-5.182,1.687-1.882-2.23-1.258-4.518.689-2.528,1.502-6.33-.376-8.43-3.73-4.172-5.186,8.537-6.746,10.304-.909,1.029-2.263.715-3.529.714-.48-1.34.89-.796,1.005-1.317.301-1.372-.345-2.967-.228-4.252.135-1.485,1.535-4.432,1.178-5.598-.332-1.083-5.535-.98-6.214.171.008,8.592,1.279,17.348-.243,25.99-1.299.141-.795-.004-1.01-.733-.794-2.693-2.333-7.54-.937-9.962.619-1.073,1.7-.895,1.947-1.793l-2.994.992c-.018-3.492,1.137-9.443-4.287-7.024-4.286,1.911,1.913,8.375,1.05,12.014l-5.015,4.997c-1.037-.411-1.055-2.685-1.335-2.904-.315-.246-1.305.043-1.918-.334-.556-.342-.195-1.415-.987-1.245-.166,1.516-2.122,3.717-2.417,4.874-.587,2.299,1.923,3.656,2.305,4.971.438,1.508-.077,3.653.15,5.346.217,1.623,1.221,2.754,1.452,4.289-2.228-.292-3.438-2.529-5.581-3.157-1.116-.327-4.124-1.04-4.192.699-.086,2.199.76,5.079-.953,6.976-2.069,2.291-11.138,4.136-14.065,6.432-.96.207-.617-.017-.698-.693-.161-1.349.613-4.716-.821-5.195l-17.707,2.152c-.906.617-1.798,9.155-2.19,10.803-.636,2.675-3.462,3.21-.281,5.721-3.566,2.677-1.669,3.854-1.208,6.716.288,1.785.472,6.794,1.702,7.73l1.672.274c1.782-2.261,5.494-3.535,7.594-5.468,1.603-1.476,2.477-3.363,4.286-4.712,1.503-1.121,4.314-1.867,5.302-2.941.889-.966,1.291-2.814,2.532-3.652l-.882-6.191c3.784.06,7.535-.734,11.214.531,4.361,1.5,2.568,6.285,4.289,9.687l.988-.229c-.088,2.401-2.547,3.509-1.894,6.119.098.391,3.308,6.903,3.55,7.225.511.681,2.287,1.083,2.636,2.619.122.535-1.748,2.484-.145,3.893.539.474,3.146.655,2.107,2.13l-1.757-1.242c.096,1.104,1.405,1.817,1.73,2.764,1.306,3.797-1.961,13.572-2.26,17.929l-3.463-.457c.264,1.892,2.918,1.996,3.023,3.235-.829,8.183-2.193,16.349-3.052,24.52-.094.898.441,1.514.473,2.005.015.229-.812.129-.928.56-1.736,6.44-.263,14.533-2.02,21.141-.394-.089-.766-.227-1.128-.381-.258,1.682-.534,3.362-.848,5.036.814.77,1.392,1.516,1.467,2.109.5,3.926-2.514,10.982-2.107,15.378-.374,1.606-1.492,2.001-2.484,2.269-.117,2.829-.218,5.658-.311,8.488.255.198.506.339.655.568.258.396-.517,6.568-.991,8.598-.049,1.204-.092,2.408-.151,3.612-.073,1.481-.293,2.905-.628,4.27-1.19,8.906-3.755,17.624-3.968,26.675-.867-.264-1.001,4.055-.909,4.461.418,1.85.627,1.292.129,3.613-.864,4.026-1.148,8.157-1.72,12.245-.328-.038-.662-.091-.993-.139.04.397.09.792.108,1.195.028.626.017,1.246-.025,1.859.041.006.082.016.123.021,1.145.787-.429,3.002-.544,3.877-1.644,12.555-2.513,26.021-3.659,39.405-.347,4.056.087,9.589-.528,13.458-.209,1.315-1.269,1.948-1.345,3.317-.069,1.254.994,2.904-.621,3.456l-1.508-1.496.997,1.991-2.496-.992c.02,1.307.444,3.438.013,4.654-.253.714-3.384.199-1.245,2.82.703.862,1.247,1.206,2.428,1.039l.555-1.039c1.951,1.113,3.955,1.715,6.245,1.515l-.004-1.999c-2.318.84-5.02-2.344-7.49-.997l.067-1.43,3.143-2.004c2.361-.041,3.903,2.05,5.163,2.348,1.754.415,5.103-2.012,5.12,2.083l-4.498.006c-.056,4.022,6.611,1.633,6.448-1.767-.198-4.138-6.594-2.624-8.945-4.241l.054-.945c.232-.05.702-.012.796-.156.738-1.128-.248-7.121-.067-8.929.515-5.129,3.524-11.407,4.169-16.774.157-1.304-.346-3.208.036-4.665-.099-.141-.64.261-.753.491-.489,1.003-.656,6.414-1.032,8.231-.371,1.794-1.657,3.978-1.712,6.011l-.518-1.005,5.261-46.213,1.5-.49.768,1.24-3.473,22.539.954.7,3.622-23.863c2.382-1.248,18.181-3.252,18.898-1.298l-.523,59.137c-2.049-.688-2.711-2.46-5.257-2.415-2.2.039-2.586,1.075-3.797,2.105-.33.281-1.102.191-1.336.447-.32.35-.007,1.253-.108,1.361-.46.496-3.777-1.445-4.804-1.51-.347-.022-1.758,1.714-3.225,1.227-1.837,4.449-.834,8.032,4.532,7.78-.58-3.834-5.193-1.172-2.901-6.892,2.954-.956,6.507-.542,6.917,3.108-.07.671-4.46.864-4.011,2.784.885.055,1.732.063,2.611-.129,2.325-.509,6.127-1.218,8.667-1.311.24-.009.164.886.53.966,1.705.372,4.123-2.165,4.255-.118l.671.092c1.339-1.17,3.751-3.311,1.25-4.246l.029-.729c2.116-.055.528-4.062.455-5.742-.807-18.564-.572-37.148-.244-55.757l4.792.816c.364,2.948.022,5.926.184,8.853.562,10.175.564,20.358.886,30.578.139,4.408-.145,11.014.358,15.025.146,1.165.955.461,1.049.963-2.757,1.594-1.525,5.784-2.942,8.441.45,1.888,8.097,1.744,8.472-.958.187-2.522-2.769-2.885-2.992-3.547-.161-.479.521-6.716.5-7.931-.067-3.924-.114-7.586-.077-11.51.019-1.993-.292-3.987-.488-5.975l1.525-.505c-2.983-1.369-1.422-4.333-1.475-7.013-.174-8.874-1.477-17.794-1.007-26.69l10.008.189c.814.582.424,3.428.464,4.54.024.671-.409,2.078.746,1.745l-.248-6.501,10.5.007c-.1.395-.327.691-.306,1.133.458,9.875,2.833,21.402,4.513,31.115.477,2.757-1.035,6.015,1.784,8.22-.174-2.153-.864-4.642-.999-6.751-.064-.996.115-.781,1.001-.744.348,3.143.604,6.362,1.002,9.494.718.121.507.475.662,1.063.006,2.201,3.109,17.177,2.596,17.924-.14.204-.625.662-.755.5-.323-1.921-.359-4.041-.859-5.915-.238-.891.142-1.293-1.144-1.076l.494,3.495c-1.13-.707-2.644.111-3.667-.165-1.134-.306-1.741-1.417-2.95-1.26-3.017.393-2.363,3.604-5.3,3.99-.502,3.728,2.434,5.542,5.926,4.926l-.007-1.983-3.491-.517,2.802-4.531c1.899.869,4.442.089,5.684,1.788-1.704,2.049-4.506,1.94-4.484,5.246,1.493-.324,4.673-3.876,5.949-2.957,1.813,1.308-1.522,3.253-1.759,4.479.222.882,3.902,3.512,4.794,3.774,1.062.312,1.74-.183,2.274-.095.62.103.891,1.019,1.457,1.103,3.271.486,9.512-3.279,12.806-4.111.185-1.108-1.726-4.738-2.878-5.097ZM11.031,53.148c.067-.377,1.36-2.865,1.652-3.094,2.439-1.914,11.006-1.328,14.339-2.654.206,2.134.465,3.605-.717,5.534-2.104,3.434-11.453,6.839-15.275,8.459.308-2.501-.422-5.879,0-8.244ZM26.061,64.177c-.758,1.214-3.472,1.48-5.001,2.496-1.929,1.282-3.067,3.68-4.792,5.203-.455.402-6.017,4.309-6.232,4.008.922-3.352-1.465-5.721-1.95-8.938,1.76-.25,1.919-2.247,3.272-3.023.758-.435,1.515-.031,2.124-.316,4.621-2.161,8.546-4.846,12.785-7.708.599.133,1.221,2.682,1.195,3.273-.013.288-1.263,4.786-1.4,5.006ZM52.73,321.65c-1.932-.39-7.628-.472-5.742-3.7,1.201-2.056,3.488-1.559,5.364-.556.266.142,1.002,1.387,1.681,1.631l-1.302,2.625ZM49.044,39.602c1.337.623,7.806,5.816,6.467,7.297l-5.802-3.483.306-1.507-2.496.493c-.271-.853.336-3.114,1.525-2.8ZM35.018,53.396c-.377-3.558,5.143-4.178,7.68-5.564.809-.442,1.454-1.672,2.169-1.857.248-.064,4.672.925,5.011,1.077.171.077.244.71.506.832,1.198.557,2.944.872,3.628,2.01-6.711.228-12.252,5.039-18.995,3.501ZM51.022,78.377c-1.183-2.355-2.496-5.355-4.954-6.536l5.168-6.477,4.275-3.469-1.603,13.132-2.886,3.35ZM56.051,100.121c-.094,2.739-.527,5.491-.539,8.242l-2.443-.791,1.95-17.699c2.507,1.115.681,4.911.638,7.352-.018,1.041.426,1.954.394,2.896ZM53.013,109.862l2.436.06c1.53,3.467-3.057,3.435-2.436-.06ZM52.763,113.349c.773-.983,2.147-.036,3.191.066l-.024,4.358-3.914,2.079c-.304-2.314-.259-4.336.746-6.503ZM45.027,171.066c.182-.752-.352-.881.982-.745.853.82,1.127,10.905-2.49,9.988,1.159-2.971.778-6.223,1.507-9.243ZM41.549,190.332l2.965-.525-1.065,9.673c-.374,1.148-1.965.806-2.929.817l1.029-9.966ZM55.516,253.765c-.474.474-6.922-.385-8.176-.328-1.964.088-8.992,2.419-10.102.841.423-4.088,1.352-8.197,1.799-12.283.694-6.335,1.491-13.357,1.976-19.966.044-.592.416-2.736-.488-2.739l-4.068,35.411-2.931,1.061c.522-6.776,1.2-13.49,2.026-20.214.468-3.805.804-8.343,1.518-12.463.27-1.558,1.121-7.027,1.537-7.96.277-.621.775-.828,1.409-.843l-.004-.483c-.257.009-.728.07-.869-.094-.591-.687.91-9.743,1.094-11.436l2.778-.466c-.884,2.608-.683,5.517-1.125,8.114-.53,3.116-1.876,4.176-1.373,8.131.093.73.383,1.55.998.738-1.153-2.057,1.333-4.888,1.366-5.243.032-.347-.679-.939-.624-1.796.207-3.263,1.861-7.069,1.979-10.478l12.274-2.964-.995,55.462ZM56.293,195.831l-11.773,3.465,1.034-8.953c3.617-.633,7.102-1.99,10.961-1.54l-.222,7.028ZM46.56,185.267l.445-2.719,9.005-2.233c.279,1.444-.416.798-1.096,1.126-1.137.549-2.293.962-3.369,1.651-1.704,1.091-2.251,3.355-4.986,2.177ZM55.47,160.125c.629,2.978,1.037,6.92.517,9.922-.228,1.318-2.281,2.806.024,3.517-.425,1.102-8.634,5.628-8.992,5.247l1.244-5.482c1.855,1.723,3.526-.292,5.741.482-.076-.497.257-1.057.252-1.462-.004-.305-1.97-5.175-2.245-5.67-.516-.927-2.862-3.04-3.276-4.327-.645-2.006.997-3.748-.714-4.524l-.51,3.498-1.496-.789,2.552-19.16,1.975-.355.979-19.671,4.442,1.051-.477,36.648,1.035.527-1.049.549ZM56.011,72.887l-.988-.242.628-5.369,1.357-4.882-.997,10.493ZM55.251,57.383c-1.142,1.469-2.665,2.508-4.048,3.702-.923.797-3.587,4.311-4.712,2.593l-1.259-8.783c3.759-1.994,8.248-1.162,11.776-3.995l-1.757,6.483ZM76.448,180.759l-2.939.55.058-5.93,2.197-.087.684,5.468ZM69.006,118.853l-5.026-.719-.47-3.78c3.362.059,6.263.401,5.495,4.499ZM59.564,189.358l2.388.007c.676,2.414.913,5.761-2.44,5.432,1.13-1.848-.905-3.551.052-5.439ZM59.627,121.736c.077-.83-.019-2.807,1.381-2.38l.248,53.966c-1.417-.146-1.858-1.728-1.965-2.926-.756-8.522.254-20.349.238-29.324-.011-6.388-.508-12.768.097-19.335ZM60.518,62.395l1.286,6.504-.787,1.486c-.366-2.633-1.449-5.374-.499-7.99ZM62.516,63.391l2.754.964.735,7.53c-1.468-1.212-1.517-4.241-2.094-5.663-.366-.903-2.104-.715-1.394-2.832ZM65.841,93.153l-2.327,1.224,2.444.548c.164,4.067,2.058,9.34,2.077,13.21.012,2.415-2.714,1.46-4.521,1.723l-.997-35.472,3.325,18.767ZM63.515,110.859l4.525.717.465,2.278-4.998-.495.008-2.5ZM71.311,90.44c-.949.317-.39,1.893-1.796,1.43-2.506-8.451-1.616-17.052-3.049-25.686,1.22-.676,2.57-1.435,3.932-.683-.08,1.989,1.6,4.451,1.883,5.871.366,1.835-.744,6.663,1.72,7.014l-.966.707c.802,1.152.236,3.348,1.966,3.291l-1.033.769,2.036,7.215c-1.376.215-3.463-.339-4.694.073ZM82.677,73.71c1.174,1.358,3.563,1.962,2.76,4.833l-6.425,4.832c-.979-.705-2.842-9.623-3.614-11.152-.648-1.285-2.224-1.332-1.43-4.55l-1.46-6.027c2.574-1.6,3.411.285,4.595,2.396,2.1,3.745,2.461,6.065,5.574,9.668ZM90.319,59.072c.44.492.77,1.097,1.103,1.668l-6.67,6.123-8.282-9.2c-1.017-.958.071-3.315,1.267-3.28.582.017,1.115.729,1.619.821,3.123.564,8.78,1.429,10.963,3.868ZM84.961,49.943l-.407,2.662c-2.502,1.459-2.196-2.292-4.954-1.792-1.49-4.58,3.205-1.301,5.361-.87ZM86.497,34.91c1.9,6.328-1.882,6.739-6.99,7.992-.606-4.366,4.176-5.851,6.99-7.992ZM95.497,24.921l-5.039,4.202-1.955.789c.618-3.003,3.936-5.268,6.994-4.99ZM94.993,39.407c-.422,1.827-2.098,2.479-2.939,4.302-.659,1.427-1.004,3.123-1.058,4.693-3.415-.612-6.857-1.236-10.244-2.008-.774-.176-.872.337-.749-.986l14.99-6.001ZM80.254,34.401c-2.651-1.782.741-3.807,1.496-5.528.241-.549-.237-1.246-.15-1.383.121-.188,1.057-.286,1.417-.798,1.008-1.435,1.235-3.586,2.735-4.764,3.906,5.558-2.075,8.983-5.498,12.473ZM89.995,8.928c-1.768,5.339-5.762,9.72-7.499,14.99l-.972-.723c2.833-4.713,4.755-10.115,8.471-14.267ZM82.469,15.448l.451,2.378c-2.303.339-1.905,3.236-2.057,3.495-.066.112-.649.143-.838.462-1.008,1.704-1.805,4.061-3.514,5.132,1.785-3.701,3.881-7.341,4.497-11.495l1.462.028ZM77.14,15.308l4.359-10.875c-.398,3.912-1.433,8.592-2.661,12.34-.047.144-.692.228-.795.533-1.164,3.458-2.214,6.948-3.536,10.355-.743.794-.457-.474-.377-.865.765-3.744,2.215-7.712,3.01-11.489ZM73.012,12.929h2.996c-.07,2.019-1.305,2.816-1.848,4.892-.622,2.379-.36,4.817-1.401,7.093-1.892-3.481.367-8.227.252-11.985ZM71.01,1.929l1.495.002-.745,5.494c-1.397-1.399-.549-3.735-.75-5.497ZM75.749,32.413c3.329,3.169-1.134,5.949-1.248,9.491l-3.99-2.989c3.13-.644,2.092-5.342,5.239-6.502ZM64.64,54.776c2.699-1.162,1.431.597,2.863,1.619.167-1.267-.767-2.121-.043-3.255.587-.919,4.55-3.539,5.45-3.102.108.052.067.649.188.707.397.191,1.667-.971,1.934.918.253,1.788-1.332,3.084-1.533,4.73-2.327-1.311,1.224-4.136-.988-4.993-.651,1.924-.168,6.602-1.273,7.962-.737.907-2.743,1.778-3.481,3.021l-1.245-2.486-.006,2.998c-2.103.765-4.736-1.97-5.02-3.783-.133-.845.744-.621.982-1.1.633-1.273.417-2.48,2.17-3.234ZM64.005,36.406c-1.072-.084-.456-2.2-.611-2.758-.067-.24-.689-.21-.73-.319-.221-.576.986-1.449-1.158-2.16l.51-1.259,2.429,1.315-.44,5.181ZM63.505,22.917l.502,3.497-4.491-1.49,3.989-2.006ZM58.762,52.408c1.618,1.413,1.388,3.153.744,4.984-2.349.349-1.673-5.008-.744-4.984ZM58.506,254.257l1.049-23.77-1.047-1.455c1.812-.561.863-3.577,1.012-5.492.547-7.029,1.375-15.586.945-22.44-.172-2.731-2.565-5.059,2.044-5.302l1.247,58.969-5.249-.511ZM65.323,168.656c-.282-5.802-.084-14.357-.772-19.608-.127-.97-1.036-.687-1.068-.992-.094-.913,1.013-1.917,1.085-3.458.098-2.073-.566-4.918-.582-6.988-.029-3.601-.568-10.935.018-14.016.341-1.796,3.926-1.765,5.469-1.706l4.538,39.936,1.489.242c-1.573,1.153-.804,3.066-1.061,4.69l-1.716.533c-.387-.797.009-1.189-1.21-.968l-.465,1.782-5.035.723c.446,1.456,4.107-.374,4.493-.003.192,1.407-3.193,4.739-4.226,4.517-2.348-.504-.884-3.191-.956-4.683ZM70.005,181.307l.002,2.007-1.496-.008.498-1.491-3.496-.007,2.254-4.492,1.49,1.495,3.248-1.995.005,4.497-2.505-.007ZM72.507,188.304l-5.002-.499v-1.495s4.963.542,4.963.542l.038,1.452ZM69.507,320.224c-.303,1.92-5.627.947-4.495-.501,1.845-.895,2.775-.018,4.495.501ZM79.031,254.736l-.276-1.978-.289,1.952-10.476.324c-.932-.419-.24-9.803-.44-11.547-.087-.755-1.394-.885-.909-1.956,1.468-3.246.43-2.555.366-5.544-.085-3.947.079-7.965.037-11.933l-1.533-.273,1.509-1.255-1.016-28.428,1.505-.298.504,6.997c.889.041,1.063.253,1.001-.742-.173-2.782-.799-5.931-1.007-8.752-1.861-.66-.296,2.698-1.739,1.996-1.455-.708-.809-5.114.245-4.25l.502,1.758.986-.242-.489-1.256c1.678,1.196,4.477-1.39,5.242.996l1.238-3.778,3.494,1.091c.296,3.422,4.915,28.005,3.937,29.1-.41.459-4.248,1.007-3.416,3.066l3.99-.995,3.509,17.487,1.49-.997c.748,2.169-1.076,2.323-1.019,3.691.213,5.111,2.602,10.634,3.021,15.791-3.339-1.146-6.657.783-9.967-.023ZM93.929,287.584c-1.304-4.794-1.19-9.948-1.924-14.832.723-.1.765,1.361.852,1.886.776,4.684,1.28,9.432,2.139,14.098-1.422.236-.834-.295-1.067-1.152ZM114.988,325.718c-.173.137-1.172-.448-1.672-.361-1.72.298-4.758,1.914-5.814,3.351.121-2.032-2.482-.371-3.986-.835-.737-.227-4.495-2.54-4.498-2.904,1.927-4.048,4.7-.582,6.75-.281,2.994.44,5.795-2.046,7.498-1.947,1.363.079,2.678,2.216,1.722,2.976Z"/>
    <path d="M3.397,148.399c-1.071.656-2.206,1.197-3.397,1.624,1.365.04,2.851-.093,4.326-.141.049-.3.09-.529.12-.671-.355-.263-.71-.527-1.048-.812Z"/>
    <path d="M74.01,337.213c.862,1.34,3.558.021,4.769-.024,3.175-.117,1.552,3.591,5.721,2.519.5,1.303-2.593,1.465-3.261,1.498-4.057.202-3.352-1.893-4.073-2.037-.778-.156-8.69,1.947-6.92-1.473.401-.775,1.886-1.382,2.757-1.494.137-.785-.705-.532-1.259-.52-7.466.158-16.501,3.605-24.081,4.829-.776.125-1.761-.207-2.638.2l-.277-2.028,2.768-1.968-9.998-.508-.016-1.67,1.724-.855c.292.017.218.887.645,1.01,1.962.565,10.522.439,11.143,1.02.353,1.955-3.745,1.877-2.756,3.486l35.986-6.987c.657.647.947.494.271,1.261-1.597,1.813-8.042,2.736-10.504,3.744Z"/>
    <path d="M79.379,323.356c.236.098,3.681,3.188,3.832,3.395,1.259,1.717.656,3.852-1.223,4.713-2.022.928-3.581-1.535-5.796-1.733-1.475-.131-4.17,1.137-4.954-.002-2.887-4.392,5.005-7.673,8.141-6.373ZM79.309,325.914c-.655-.437-1.247-1.093-2.085-1.214l-1.474,1.511c-1.294.281-.128-1.402-1.738-.997l-.996,2.25c.984,1.515,1.8-.062,3.036-.014,2.135.083,3.376,2.057,5.449,1.758.505-2.621-.699-1.638-1.437-2.303-.353-.318-.576-.873-.755-.992Z"/>
    <path d="M59.51,325.217l-1.492,5.993c1.639-.596,4.827-5.633,3.872-.871-.248,1.235-.938,2.561-1.121,3.876l-1.266-1.003h-.981s-1.759,2.484-1.759,2.484c-.932.01-.892-3.475-.739-4.152.029-.127.486-1.351.712-2.082.405-1.313,1.013-2.578,1.23-3.958l1.544-.289Z"/>
    <path d="M97.364,338.343c.378.251.426,1.071.885,1.36.414-1.33.987-1.051,2.245-.996.533,2.275-1.796,1.739-2.494,2.99l2.995.998c-3.133,1.291-9.181.468-4-2.74-.624-1.514-3.318.863-3.494-1.494.238-1.122,3.27-.513,3.863-.119Z"/>
    <path d="M78.005,309.73l2.502-.002-.525-12.23.517-1.761,1.376,14.259c-.199,1.126-3.634,1.115-3.87-.267Z"/>
    <path d="M54.511,325.717c.029,2.194-.279,4.437-.65,6.591-.106.612-.109,2.822-1.089,2.396-1.008-.438-.533-1.187-.45-1.896.201-1.723.752-4.157,1.178-5.879.208-.842-.494-1.455,1.011-1.211Z"/>
    <path d="M22.021,318.717c-1.51.245-.794-.384-1.005-1.216-.704-2.77-.527-5.911-.983-8.775,1.089.375,1.146,1.933,1.355,2.888.453,2.075.899,5.046.634,7.103Z"/>
    <path d="M20.267,341.432l-2.494,1.013,1-2.991-1.498-.497c1.644.175,1.116-3.207,1.5-4.504,1.956,1.65-.021,4.763,1.492,6.978Z"/>
    <path d="M93.496,310.725l-.002,3.497c-2.581-.42-3.434-2.649-2.746-4.995l1.258,1.792,1.49-.294Z"/>
    <path d="M31.981,317.762l.06,2.612-2.26,1.338c-1.18-.444-.145-5.289,2.199-3.95Z"/>
    <path d="M33.019,282.745c.026,2.227-.185,4.544-.509,6.741-.128.871.262.841-.985.749.247-1.675-.362-4.141,0-5.664.089-.376.84-.328.888-.411.263-.456-1.322-1.737.606-1.415Z"/>
    <path d="M50.011,328.212l.424,5.201-1.417.794c.197-1.514-.43-2.995-.292-4.487.084-.907.097-1.823,1.285-1.507Z"/>
    <path d="M80.504,286.241v7.245c0,.289.897.876-.495,1.249l.007-3.177-1.018-.57,1.034-.527c-.309-.999-1.532-4.578.472-4.22Z"/>
    <path d="M75.006,219.286c2.022.343.888,3.315.961,4.245.173,2.219.91,4.401.534,6.745l-.936-3.804c0-2.231.039-4.136-1.141-6.101l-3.143-.121-.278,1.534c-.11.138-.639-.262-.753-.491-.843-1.705-.211-9.982-.737-12.497.727-.091.9,1.312.949,1.79.287,2.776.233,5.88.542,8.704.17.175,3.195-.14,4.001-.003l-.495-10.493c.904.188.933.981,1.015,1.728.194,1.765.405,4.224.5,5.996.031.577.211,4.016-1.02,2.769Z"/>
    <path d="M71.005,229.781l.252,12.994c-1.196-3.971-1.039-8.165-1.236-12.247-.048-1.004.03-.784.983-.746Z"/>
    <path d="M72.002,165.819c-1.604-1.074-.823-3.955-1.045-5.693-.271-2.116-1.728-4.132-.449-6.292l-4.495-.51,3.998-.493.003-5.495,1.218,5.417.771,13.066Z"/>
    <path d="M70.003,143.834c-.73.089-.897-1.308-.949-1.791-.221-2.046.054-4.151-.041-6.199.741-.13.65.96.733,1.497.305,1.964.171,4.471.257,6.493Z"/>
    <path d="M50.013,142.34c-.107,1.568.158,3.213.028,4.773-.075.905-.737,1.51-.771,1.971-.184,2.532.767,6.191-1.249,8.243.353-4.702.319-9.575,1.007-14.239.128-.871-.262-.841.985-.749Z"/>
    <path d="M40.442,325.27l.511,2.495c.822.132.565-1.278,1.248-1.493,2.133-.673,3.663,5.699,4.497,6.99.936,1.449.438-.629,1.24-.493.842,2.089,1.902,4.129-1.518,3.268l-1.982-4.269c-1.267-1.251-1.095,3.198-1.498,3.495-.498-.166-1.259-.818-1.509-1.233-.668-1.111-1.812-5.986-2.008-7.489-.132-1.011-.181-1.486,1.019-1.271Z"/>
    <path d="M107.7,307.704c-.196.217-1.763.756-1.912-.287l-.059-8.176c1.262.413.403,2.65.597,3.596.161.784,1.758,4.441,1.373,4.867Z"/>
    <path d="M98.721,310.229c.534.768-2.797,3.557-3.489,1.744-.47-1.231,1.478-1.732,1.746-2.741l.728,1.233,1.015-.236Z"/>
  </g>
</svg>